M48
;Layer_Color=9474304
;FILE_FORMAT=4:4
METRIC,LZ
;TYPE=PLATED
T1F00S00C0.2540
T2F00S00C0.5080
T3F00S00C0.5588
T4F00S00C0.7112
T5F00S00C0.7620
T6F00S00C0.8890
T7F00S00C0.9906
T8F00S00C1.1176
T9F00S00C1.6000
T10F00S00C2.0060
T11F00S00C2.0066
;TYPE=NON_PLATED
T12F00S00C1.6000
T13F00S00C1.8000
T14F00S00C5.3000
%
T01
X024257Y042291
T02
X018669Y037719
X018923
X019177
X019304Y037592
X019431Y037719
X01905Y037592
X018796
X014097Y037719
X013843
X01397Y037592
X013716
X013589Y037719
X013462Y037592
X013335Y037719
X009017
X008763
X008636Y037592
X00889
X008382Y037719
X008255Y037592
X008128Y037719
X004064
X003937Y037592
X003683
X00381Y037719
X003429
X003302Y037592
X003175Y037719
T03
X001524Y041021
X002413
X003302
X004064
X004826
X005588
X004318Y042291
X006477Y041021
X007874
X00889
X009779
X010668
X01155056Y0410266
X012446Y041021
X013335
X011176Y042291
X014732Y041021
X015621
X01651
X017399
X017653Y042291
X018288Y040894
X019177
X020066Y041021
X021463
X022352
X023241
X02413
X025019
X025908
X026797
T04
X00749226Y01685309
X007493Y017018
X00749226Y01717523
X0073318Y01702085
X00765758Y01700991
X00676676Y01916444
X006604Y019177
X00660458Y01901405
X0064424Y01917919
X00660753Y01934727
X01003266Y01687338
X01004557Y01664958
X01016Y016764
X01028229Y01687123
Y01665604
X0111818Y01778795
Y01801175
X011303Y017907
X01141852Y01801821
X01141637Y01778365
X021971Y021209
X022098Y025146
X021717Y029718
X005588Y034671
X005207Y034544
Y034925
X005461Y035052
X004826Y034798
X004445Y034671
X004064
X003683
X003302
X005969Y034925
X00716619Y03518852
X00717384Y03550588
X013081Y035306
X01451355Y0353187
X019812Y034925
X020574Y034798
X0213233Y034417
X021717Y034163
T05
X023368Y037465
X023876
X024384
X024892
T06
X03048Y043053
Y042853
Y042653
Y042453
Y042253
X03068
Y042453
Y042653
Y042853
Y043053
T07
X002667Y043434
X002921
X003175
X003429
X003683
X003937
X004191
X004445
X004699
Y042672
X004445
X004191
X003937
X003683
X003429
X003175
X002921
X002667
X009525
X009779
Y043434
X009525
X010033
X010287
X010541
X010795
X011049
X011303
X011557
Y042672
X011303
X011049
X010795
X010541
X010287
X010033
X016002
X016256
X01651
X016764
X017018
X017272
X017526
Y043434
X017272
X017018
X016764
X01651
X016256
X016002
X01778
X018034
Y042672
X01778
X022606
X02286
X023114
X023368
X023622
X023876
X02413
X024384
X024638
Y043434
X024384
X02413
X023876
X023622
X023368
X023114
X02286
X022606
T08
X018415Y03574542
X0190754Y03573272
X019812
X0205486
X0212852
Y0369443
X0205486
X019812
X0190754
X018415Y036957
X0176022Y0369443
X0168656
X0158496
X0151384
X0144272
Y03573272
X0151384
X0158496
X0168656
X0176022
X013716
X0130048
X0122936
X011557
X0104267
X0098425
Y0369443
X0104267
X011557
X0122936
X0130048
X013716
X0092583
X0085471
X0078867
X0071755
X0064643
Y03573272
X0071755
X0078867
X0085471
X0092583
X005334Y03574542
X0047879Y03573272
X0042037
X0036195
X0030353
X0024511
X0018669
Y0369443
X0024511
X0030353
X0036195
X0042037
X0047879
X005334Y036957
T09
X029845Y001778
Y00254
Y003302
Y004064
Y004826
Y005588
Y00635
Y007112
Y011176
Y011938
Y0127
Y013462
Y014224
Y014986
X001651
Y014224
Y013462
Y015748
Y01651
Y017272
Y018034
Y018796
X029845Y01651
Y015748
Y020701
Y021463
Y022225
Y022987
Y023749
Y024511
Y025273
Y026035
Y02921
Y029972
Y030734
Y031496
Y032258
Y03302
Y033782
Y034544
T10
X003768Y00186
X004284
Y002645
X003768
X005368
Y00186
X005884
Y002645
X006096Y005712
Y006228
X003556
Y005712
X003768Y011258
X004284
X005368
X005884
Y012043
X006096Y01511
Y015626
X003556
Y01511
X003768Y012043
X004284
X005368
X005884Y020405
Y02119
X005368
Y020405
X004284
X003768
Y02119
X004284
X003556Y024257
Y024773
X006096
Y024257
X005884Y029165
Y02995
X005368
Y029165
X004284
X003768
Y02995
X004284
X003556Y033017
Y033533
X006096
Y033017
T11
X00821329Y00199009
X00872891
Y00277495
X00821329
Y00347599
X00872891
X00981309
X01032871
Y00277495
X00981309
Y00199009
X01032871
X01290467Y0019431
X01342029
Y00272796
X01290467
Y003429
X01342029
X01450447
X01502009
Y00272796
X01450447
Y0019431
X01502009
X01761891
Y00272796
Y003429
X01813453
Y00272796
Y0019431
X01921871
X01973433
Y00272796
X01921871
Y003429
X01973433
X02289937Y00138938
X02341499
X025781Y00160167
Y00211729
X02648204
Y00160167
X0272669
Y00211729
Y00320147
Y00371709
X02648204
Y00320147
X025781
Y00371709
X02573401Y00618129
Y00669691
X02643505
Y00618129
X02721991
Y00669691
Y00778109
X02643505
X02573401
X023368Y005969
X02285238
X02289937Y00392938
X02341499
X01994662Y00579501
Y00631063
X01740662
Y00579501
X01523238
Y00631063
X01269238
Y00579501
X010541Y005842
Y00635762
X008001
Y005842
X00821329Y01138809
X00872891
X00981309
X01032871
X01291991Y0113411
X01343553
X01451971
X01503533
X01761891
X01813453
X01921871
X01973433
X02289937Y01054862
X02341499
X023368Y008509
X02285238
X02573401Y00829671
X02643505
X02721991
X0272669Y01076091
Y01127653
X02648204
Y01076091
X025781
Y01127653
Y01236071
Y01287633
X02648204
Y01236071
X0272669
Y01287633
Y01531767
X02648204
X025781
X02341499Y01510538
X02289937
Y01308862
X02341499
X01973433Y012827
X01921871
Y01212596
X01973433
X01813453
Y012827
X01994662Y01519301
Y01570863
X01740662
Y01519301
X01524762
Y01570863
X01503533Y012827
X01451971
Y01212596
X01503533
X01761891
Y012827
X01343553
X01291991
Y01212596
X01343553
X01032871Y01217295
X00981309
Y01287399
X01032871
X010541Y01524
X01270762Y01519301
Y01570863
X008001Y01524
X00821329Y01287399
X00872891
Y01217295
X00821329
X008001Y01575562
X010541
X02289937Y01764538
X02341499
Y01967738
X02289937
X025781Y01743309
Y01691747
X02648204
Y01743309
X0272669
Y01691747
Y01583329
X02648204
X025781
Y01988967
Y02040529
X02648204
Y01988967
X0272669
Y02040529
Y02148947
Y02200509
X02648204
Y02148947
X025781
Y02200509
X02341499Y02221738
X02289937
X01972671Y02189099
X01921109
Y02118995
X01972671
Y02040509
X01921109
X01812691
Y02118995
Y02189099
X01761129
Y02118995
Y02040509
X01502771
X01451209
Y02118995
X01502771
Y02189099
X01451209
X01342791
X01291229
Y02118995
X01342791
Y02040509
X01291229
X01032871
X00981309
Y02118995
X01032871
Y02189099
X00981309
X00872891
X00821329
Y02118995
X00872891
Y02040509
X00821329
X008001Y024257
Y02477262
X010541
Y024257
X0127
Y02477262
X01524
Y024257
X017399
Y02477262
X019939
Y024257
X02289937Y02424938
X02341499
Y02678938
X02289937
X025781Y02657709
Y02606147
X02648204
Y02657709
X0272669
Y02606147
Y02497729
Y02446167
X02648204
Y02497729
X025781
Y02446167
Y02903367
Y02954929
X02648204
Y02903367
X0272669
Y02954929
Y03063347
Y03114909
X02648204
Y03063347
X025781
Y03114909
X02341499Y03136138
X02289937
Y02882138
X02341499
X01971909Y0292481
X01920347
Y03003296
X01971909
Y030734
X01920347
X01811929
Y03003296
Y0292481
X01760367
Y03003296
Y030734
X01503533
X01451971
Y03003296
X01503533
Y0292481
X01451971
X01343553
X01291991
Y03003296
X01343553
Y030734
X01291991
X01032871Y03078099
X00981309
Y03007995
X01032871
Y02929509
X00981309
X00872891
X00821329
Y03007995
X00872891
Y03078099
X00821329
X008001Y033147
Y03366262
X010541
Y033147
X01270762Y03310001
Y03361563
X01524762
Y03310001
X01739138
Y03361563
X01993138
Y03310001
X02289937Y03339338
X02341499
X025781Y03360567
Y03412129
X02648204
Y03360567
X0272669
Y03412129
Y03520547
X02648204
X025781
Y03572109
X02648204
X0272669
X02341499Y03593338
X02289937
T12
X030226Y038862
Y036322
T13
X029776Y038862
Y036322
T14
X003937Y009017
X029972
X0169545Y017907
X001397Y033147
X029972Y040767
M30
