G04*
G04 #@! TF.GenerationSoftware,Altium Limited,Altium Designer,22.7.1 (60)*
G04*
G04 Layer_Color=16711935*
%FSLAX44Y44*%
%MOMM*%
G71*
G04*
G04 #@! TF.SameCoordinates,CA18EF67-D3C3-4F87-89B0-68471F1DA954*
G04*
G04*
G04 #@! TF.FilePolarity,Negative*
G04*
G01*
G75*
%ADD29C,1.7272*%
%ADD30C,2.5400*%
%ADD31C,1.4422*%
%ADD32R,1.4422X1.4422*%
%ADD33C,3.2122*%
%ADD34C,2.6032*%
%ADD35R,2.6032X2.6032*%
%ADD36C,1.6256*%
%ADD37R,1.6256X1.6256*%
%ADD38R,1.4986X1.4986*%
%ADD39C,1.4986*%
%ADD40C,0.2032*%
%ADD41C,1.8032*%
%ADD42C,1.4732*%
%ADD43C,1.2192*%
%ADD44C,0.7620*%
D29*
X1651000Y1803400D02*
D03*
X393700Y901700D02*
D03*
X2997200D02*
D03*
X152400Y3403600D02*
D03*
X2997200Y4076700D02*
D03*
X2489200Y3746500D02*
D03*
X2438400D02*
D03*
X2336800D02*
D03*
X2387600D02*
D03*
D30*
X800100Y1575562D02*
D03*
Y1524000D02*
D03*
X1054100D02*
D03*
Y1575562D02*
D03*
Y1138809D02*
D03*
X1002538D02*
D03*
X800100D02*
D03*
X851662D02*
D03*
X800100Y1217295D02*
D03*
X851662D02*
D03*
X1002538D02*
D03*
X1054100D02*
D03*
X800100Y1287399D02*
D03*
X851662D02*
D03*
X1002538D02*
D03*
X1054100D02*
D03*
X800100Y635762D02*
D03*
Y584200D02*
D03*
X1054100D02*
D03*
Y635762D02*
D03*
Y199009D02*
D03*
X1002538D02*
D03*
X800100D02*
D03*
X851662D02*
D03*
X800100Y277495D02*
D03*
X851662D02*
D03*
X1002538D02*
D03*
X1054100D02*
D03*
X800100Y347599D02*
D03*
X851662D02*
D03*
X1002538D02*
D03*
X1054100D02*
D03*
X2578100Y1764538D02*
D03*
Y1712976D02*
D03*
Y1562100D02*
D03*
Y1510538D02*
D03*
X2648204Y1764538D02*
D03*
Y1712976D02*
D03*
Y1562100D02*
D03*
Y1510538D02*
D03*
X2726690Y1562100D02*
D03*
Y1510538D02*
D03*
Y1712976D02*
D03*
Y1764538D02*
D03*
X2289937D02*
D03*
X2341499D02*
D03*
Y1510538D02*
D03*
X2289937D02*
D03*
X1994662Y1282700D02*
D03*
X1943100D02*
D03*
X1792224D02*
D03*
X1740662D02*
D03*
X1994662Y1212596D02*
D03*
X1943100D02*
D03*
X1792224D02*
D03*
X1740662D02*
D03*
X1792224Y1134110D02*
D03*
X1740662D02*
D03*
X1943100D02*
D03*
X1994662D02*
D03*
Y1570863D02*
D03*
Y1519301D02*
D03*
X1740662D02*
D03*
Y1570863D02*
D03*
X1524762Y1282700D02*
D03*
X1473200D02*
D03*
X1322324D02*
D03*
X1270762D02*
D03*
X1524762Y1212596D02*
D03*
X1473200D02*
D03*
X1322324D02*
D03*
X1270762D02*
D03*
X1322324Y1134110D02*
D03*
X1270762D02*
D03*
X1473200D02*
D03*
X1524762D02*
D03*
Y1570863D02*
D03*
Y1519301D02*
D03*
X1270762D02*
D03*
Y1570863D02*
D03*
X2573401Y850900D02*
D03*
Y799338D02*
D03*
Y648462D02*
D03*
Y596900D02*
D03*
X2643505Y850900D02*
D03*
Y799338D02*
D03*
Y648462D02*
D03*
Y596900D02*
D03*
X2721991Y648462D02*
D03*
Y596900D02*
D03*
Y799338D02*
D03*
Y850900D02*
D03*
X2285238D02*
D03*
X2336800D02*
D03*
Y596900D02*
D03*
X2285238D02*
D03*
X2578100Y3593338D02*
D03*
Y3541776D02*
D03*
Y3390900D02*
D03*
Y3339338D02*
D03*
X2648204Y3593338D02*
D03*
Y3541776D02*
D03*
Y3390900D02*
D03*
Y3339338D02*
D03*
X2726690Y3390900D02*
D03*
Y3339338D02*
D03*
Y3541776D02*
D03*
Y3593338D02*
D03*
X2289937D02*
D03*
X2341499D02*
D03*
Y3339338D02*
D03*
X2289937D02*
D03*
X2578100Y2678938D02*
D03*
Y2627376D02*
D03*
Y2476500D02*
D03*
Y2424938D02*
D03*
X2648204Y2678938D02*
D03*
Y2627376D02*
D03*
Y2476500D02*
D03*
Y2424938D02*
D03*
X2726690Y2476500D02*
D03*
Y2424938D02*
D03*
Y2627376D02*
D03*
Y2678938D02*
D03*
X2289937D02*
D03*
X2341499D02*
D03*
Y2424938D02*
D03*
X2289937D02*
D03*
X2578100Y392938D02*
D03*
Y341376D02*
D03*
Y190500D02*
D03*
Y138938D02*
D03*
X2648204Y392938D02*
D03*
Y341376D02*
D03*
Y190500D02*
D03*
Y138938D02*
D03*
X2726690Y190500D02*
D03*
Y138938D02*
D03*
Y341376D02*
D03*
Y392938D02*
D03*
X2289937D02*
D03*
X2341499D02*
D03*
Y138938D02*
D03*
X2289937D02*
D03*
X2578100Y2221738D02*
D03*
Y2170176D02*
D03*
Y2019300D02*
D03*
Y1967738D02*
D03*
X2648204Y2221738D02*
D03*
Y2170176D02*
D03*
Y2019300D02*
D03*
Y1967738D02*
D03*
X2726690Y2019300D02*
D03*
Y1967738D02*
D03*
Y2170176D02*
D03*
Y2221738D02*
D03*
X2289937D02*
D03*
X2341499D02*
D03*
Y1967738D02*
D03*
X2289937D02*
D03*
X2578100Y1308862D02*
D03*
Y1257300D02*
D03*
Y1106424D02*
D03*
Y1054862D02*
D03*
X2648204Y1308862D02*
D03*
Y1257300D02*
D03*
Y1106424D02*
D03*
Y1054862D02*
D03*
X2726690Y1106424D02*
D03*
Y1054862D02*
D03*
Y1257300D02*
D03*
Y1308862D02*
D03*
X2289937D02*
D03*
X2341499D02*
D03*
Y1054862D02*
D03*
X2289937D02*
D03*
X2578100Y3136138D02*
D03*
Y3084576D02*
D03*
Y2933700D02*
D03*
Y2882138D02*
D03*
X2648204Y3136138D02*
D03*
Y3084576D02*
D03*
Y2933700D02*
D03*
Y2882138D02*
D03*
X2726690Y2933700D02*
D03*
Y2882138D02*
D03*
Y3084576D02*
D03*
Y3136138D02*
D03*
X2289937D02*
D03*
X2341499D02*
D03*
Y2882138D02*
D03*
X2289937D02*
D03*
X1994662Y342900D02*
D03*
X1943100D02*
D03*
X1792224D02*
D03*
X1740662D02*
D03*
X1994662Y272796D02*
D03*
X1943100D02*
D03*
X1792224D02*
D03*
X1740662D02*
D03*
X1792224Y194310D02*
D03*
X1740662D02*
D03*
X1943100D02*
D03*
X1994662D02*
D03*
Y631063D02*
D03*
Y579501D02*
D03*
X1740662D02*
D03*
Y631063D02*
D03*
X1993138Y3073400D02*
D03*
X1941576D02*
D03*
X1790700D02*
D03*
X1739138D02*
D03*
X1993138Y3003296D02*
D03*
X1941576D02*
D03*
X1790700D02*
D03*
X1739138D02*
D03*
X1790700Y2924810D02*
D03*
X1739138D02*
D03*
X1941576D02*
D03*
X1993138D02*
D03*
Y3361563D02*
D03*
Y3310001D02*
D03*
X1739138D02*
D03*
Y3361563D02*
D03*
X1993900Y2189099D02*
D03*
X1942338D02*
D03*
X1791462D02*
D03*
X1739900D02*
D03*
X1993900Y2118995D02*
D03*
X1942338D02*
D03*
X1791462D02*
D03*
X1739900D02*
D03*
X1791462Y2040509D02*
D03*
X1739900D02*
D03*
X1942338D02*
D03*
X1993900D02*
D03*
Y2477262D02*
D03*
Y2425700D02*
D03*
X1739900D02*
D03*
Y2477262D02*
D03*
X1524762Y3073400D02*
D03*
X1473200D02*
D03*
X1322324D02*
D03*
X1270762D02*
D03*
X1524762Y3003296D02*
D03*
X1473200D02*
D03*
X1322324D02*
D03*
X1270762D02*
D03*
X1322324Y2924810D02*
D03*
X1270762D02*
D03*
X1473200D02*
D03*
X1524762D02*
D03*
Y3361563D02*
D03*
Y3310001D02*
D03*
X1270762D02*
D03*
Y3361563D02*
D03*
X1523238Y342900D02*
D03*
X1471676D02*
D03*
X1320800D02*
D03*
X1269238D02*
D03*
X1523238Y272796D02*
D03*
X1471676D02*
D03*
X1320800D02*
D03*
X1269238D02*
D03*
X1320800Y194310D02*
D03*
X1269238D02*
D03*
X1471676D02*
D03*
X1523238D02*
D03*
Y631063D02*
D03*
Y579501D02*
D03*
X1269238D02*
D03*
Y631063D02*
D03*
X1524000Y2189099D02*
D03*
X1472438D02*
D03*
X1321562D02*
D03*
X1270000D02*
D03*
X1524000Y2118995D02*
D03*
X1472438D02*
D03*
X1321562D02*
D03*
X1270000D02*
D03*
X1321562Y2040509D02*
D03*
X1270000D02*
D03*
X1472438D02*
D03*
X1524000D02*
D03*
Y2477262D02*
D03*
Y2425700D02*
D03*
X1270000D02*
D03*
Y2477262D02*
D03*
X1054100Y2189099D02*
D03*
X1002538D02*
D03*
X851662D02*
D03*
X800100D02*
D03*
X1054100Y2118995D02*
D03*
X1002538D02*
D03*
X851662D02*
D03*
X800100D02*
D03*
X851662Y2040509D02*
D03*
X800100D02*
D03*
X1002538D02*
D03*
X1054100D02*
D03*
Y2477262D02*
D03*
Y2425700D02*
D03*
X800100D02*
D03*
Y2477262D02*
D03*
X1054100Y3078099D02*
D03*
X1002538D02*
D03*
X851662D02*
D03*
X800100D02*
D03*
X1054100Y3007995D02*
D03*
X1002538D02*
D03*
X851662D02*
D03*
X800100D02*
D03*
X851662Y2929509D02*
D03*
X800100D02*
D03*
X1002538D02*
D03*
X1054100D02*
D03*
Y3366262D02*
D03*
Y3314700D02*
D03*
X800100D02*
D03*
Y3366262D02*
D03*
D31*
X3068000Y4225300D02*
D03*
X3048000D02*
D03*
X3068000Y4245300D02*
D03*
X3048000D02*
D03*
X3068000Y4265300D02*
D03*
X3048000D02*
D03*
X3068000Y4285300D02*
D03*
X3048000D02*
D03*
X3068000Y4305300D02*
D03*
D32*
X3048000D02*
D03*
D33*
X376800Y2040500D02*
D03*
X428400D02*
D03*
Y2119000D02*
D03*
X376800D02*
D03*
X588400Y2040500D02*
D03*
X536800D02*
D03*
Y2119000D02*
D03*
X588400D02*
D03*
X355600Y2425700D02*
D03*
Y2477300D02*
D03*
X609600D02*
D03*
Y2425700D02*
D03*
X376800Y2916500D02*
D03*
X428400D02*
D03*
Y2995000D02*
D03*
X376800D02*
D03*
X588400Y2916500D02*
D03*
X536800D02*
D03*
Y2995000D02*
D03*
X588400D02*
D03*
X355600Y3301700D02*
D03*
Y3353300D02*
D03*
X609600D02*
D03*
Y3301700D02*
D03*
Y1511000D02*
D03*
Y1562600D02*
D03*
X355600D02*
D03*
Y1511000D02*
D03*
X588400Y1204300D02*
D03*
X536800D02*
D03*
Y1125800D02*
D03*
X588400D02*
D03*
X376800Y1204300D02*
D03*
X428400D02*
D03*
Y1125800D02*
D03*
X376800D02*
D03*
X609600Y571200D02*
D03*
Y622800D02*
D03*
X355600D02*
D03*
Y571200D02*
D03*
X588400Y264500D02*
D03*
X536800D02*
D03*
Y186000D02*
D03*
X588400D02*
D03*
X376800Y264500D02*
D03*
X428400D02*
D03*
Y186000D02*
D03*
X376800D02*
D03*
D34*
X165100Y1879600D02*
D03*
Y1803400D02*
D03*
Y1727200D02*
D03*
Y1651000D02*
D03*
Y1574800D02*
D03*
Y1498600D02*
D03*
Y1422400D02*
D03*
X2984500Y2146300D02*
D03*
Y2222500D02*
D03*
Y2298700D02*
D03*
Y2374900D02*
D03*
Y2451100D02*
D03*
Y2527300D02*
D03*
Y2603500D02*
D03*
Y2997200D02*
D03*
Y3073400D02*
D03*
Y3149600D02*
D03*
Y3225800D02*
D03*
Y3302000D02*
D03*
Y3378200D02*
D03*
Y3454400D02*
D03*
Y254000D02*
D03*
Y330200D02*
D03*
Y406400D02*
D03*
Y482600D02*
D03*
Y558800D02*
D03*
Y635000D02*
D03*
Y711200D02*
D03*
Y1193800D02*
D03*
Y1270000D02*
D03*
Y1346200D02*
D03*
Y1422400D02*
D03*
Y1498600D02*
D03*
Y1574800D02*
D03*
Y1651000D02*
D03*
D35*
X165100Y1346200D02*
D03*
X2984500Y2070100D02*
D03*
Y2921000D02*
D03*
Y177800D02*
D03*
Y1117600D02*
D03*
D36*
X1155700Y3573272D02*
D03*
X1841500Y3574542D02*
D03*
X2054860Y3573272D02*
D03*
X2128520D02*
D03*
X1760220D02*
D03*
X1981200D02*
D03*
X1686560D02*
D03*
X1907540D02*
D03*
X533400Y3574542D02*
D03*
X478790Y3573272D02*
D03*
X420370D02*
D03*
X361950D02*
D03*
X646430D02*
D03*
X717550D02*
D03*
X788670D02*
D03*
X854710D02*
D03*
X925830D02*
D03*
X984250D02*
D03*
X1042670D02*
D03*
X186690D02*
D03*
X245110D02*
D03*
X303530D02*
D03*
X1229360D02*
D03*
X1300480D02*
D03*
X1371600D02*
D03*
X1442720D02*
D03*
X1513840D02*
D03*
X1584960D02*
D03*
D37*
X1841500Y3695700D02*
D03*
X2054860Y3694430D02*
D03*
X2128520D02*
D03*
X1760220D02*
D03*
X1981200D02*
D03*
X1686560D02*
D03*
X1907540D02*
D03*
X533400Y3695700D02*
D03*
X478790Y3694430D02*
D03*
X420370D02*
D03*
X361950D02*
D03*
X646430D02*
D03*
X717550D02*
D03*
X788670D02*
D03*
X854710D02*
D03*
X925830D02*
D03*
X984250D02*
D03*
X1042670D02*
D03*
X186690D02*
D03*
X245110D02*
D03*
X303530D02*
D03*
X1155700D02*
D03*
X1229360D02*
D03*
X1300480D02*
D03*
X1371600D02*
D03*
X1442720D02*
D03*
X1513840D02*
D03*
X1584960D02*
D03*
D38*
X266700Y4267200D02*
D03*
X952500D02*
D03*
X1600200D02*
D03*
X2260600D02*
D03*
D39*
X292100D02*
D03*
X317500D02*
D03*
X342900D02*
D03*
X368300D02*
D03*
X393700D02*
D03*
X419100D02*
D03*
X444500D02*
D03*
X469900D02*
D03*
Y4343400D02*
D03*
X444500D02*
D03*
X419100D02*
D03*
X393700D02*
D03*
X368300D02*
D03*
X342900D02*
D03*
X317500D02*
D03*
X292100D02*
D03*
X266700D02*
D03*
X977900Y4267200D02*
D03*
X1003300D02*
D03*
X1028700D02*
D03*
X1054100D02*
D03*
X1079500D02*
D03*
X1104900D02*
D03*
X1130300D02*
D03*
X1155700D02*
D03*
Y4343400D02*
D03*
X1130300D02*
D03*
X1104900D02*
D03*
X1079500D02*
D03*
X1054100D02*
D03*
X1028700D02*
D03*
X1003300D02*
D03*
X977900D02*
D03*
X952500D02*
D03*
X1625600Y4267200D02*
D03*
X1651000D02*
D03*
X1676400D02*
D03*
X1701800D02*
D03*
X1727200D02*
D03*
X1752600D02*
D03*
X1778000D02*
D03*
X1803400D02*
D03*
Y4343400D02*
D03*
X1778000D02*
D03*
X1752600D02*
D03*
X1727200D02*
D03*
X1701800D02*
D03*
X1676400D02*
D03*
X1651000D02*
D03*
X1625600D02*
D03*
X1600200D02*
D03*
X2286000Y4267200D02*
D03*
X2311400D02*
D03*
X2336800D02*
D03*
X2362200D02*
D03*
X2387600D02*
D03*
X2413000D02*
D03*
X2438400D02*
D03*
X2463800D02*
D03*
Y4343400D02*
D03*
X2438400D02*
D03*
X2413000D02*
D03*
X2387600D02*
D03*
X2362200D02*
D03*
X2336800D02*
D03*
X2311400D02*
D03*
X2286000D02*
D03*
X2260600D02*
D03*
D40*
X3022600Y3632200D02*
D03*
Y3886200D02*
D03*
D41*
X2977600Y3632200D02*
D03*
Y3886200D02*
D03*
D42*
X733180Y1702085D02*
D03*
X749226Y1685309D02*
D03*
X765758Y1700991D02*
D03*
X749226Y1717523D02*
D03*
X749300Y1701800D02*
D03*
X2197100Y2120900D02*
D03*
X644240Y1917919D02*
D03*
X660458Y1901405D02*
D03*
X676676Y1916444D02*
D03*
X660753Y1934727D02*
D03*
X660400Y1917700D02*
D03*
X2171700Y3416300D02*
D03*
X2209800Y2514600D02*
D03*
X716619Y3518852D02*
D03*
X717384Y3550588D02*
D03*
X1308100Y3530600D02*
D03*
X1451355Y3531870D02*
D03*
X596900Y3492500D02*
D03*
X482600Y3479800D02*
D03*
X558800Y3467100D02*
D03*
X520700Y3454400D02*
D03*
Y3492500D02*
D03*
X546100Y3505200D02*
D03*
X2132330Y3441700D02*
D03*
X2171700Y2971800D02*
D03*
X1028229Y1687123D02*
D03*
X1003266Y1687338D02*
D03*
X1004557Y1664958D02*
D03*
X1028229Y1665604D02*
D03*
X1118180Y1801175D02*
D03*
Y1778795D02*
D03*
X1141637Y1778365D02*
D03*
X1141852Y1801821D02*
D03*
X1016000Y1676400D02*
D03*
X1130300Y1790700D02*
D03*
X368300Y3467100D02*
D03*
X330200D02*
D03*
X444500D02*
D03*
X406400D02*
D03*
X1981200Y3492500D02*
D03*
X2057400Y3479800D02*
D03*
D43*
X1930400Y3759200D02*
D03*
X1943100Y3771900D02*
D03*
X1917700D02*
D03*
X838200D02*
D03*
X1358900D02*
D03*
X1346200Y3759200D02*
D03*
X825500D02*
D03*
X812800Y3771900D02*
D03*
X863600Y3759200D02*
D03*
X876300Y3771900D02*
D03*
X889000Y3759200D02*
D03*
X901700Y3771900D02*
D03*
X330200Y3759200D02*
D03*
X393700D02*
D03*
X406400Y3771900D02*
D03*
X368300Y3759200D02*
D03*
X342900Y3771900D02*
D03*
X381000D02*
D03*
X317500D02*
D03*
X1384300D02*
D03*
X1409700D02*
D03*
X1397000Y3759200D02*
D03*
X1371600D02*
D03*
X1333500Y3771900D02*
D03*
X1905000Y3759200D02*
D03*
X1892300Y3771900D02*
D03*
X1866900D02*
D03*
X1879600Y3759200D02*
D03*
D44*
X2425700Y4229100D02*
D03*
X431800D02*
D03*
X1117600D02*
D03*
X1765300D02*
D03*
X2679700Y4102100D02*
D03*
X2590800D02*
D03*
X2501900D02*
D03*
X2413000D02*
D03*
X2324100D02*
D03*
X2235200D02*
D03*
X2146300D02*
D03*
X2006600D02*
D03*
X1917700Y4089400D02*
D03*
X1828800D02*
D03*
X1739900Y4102100D02*
D03*
X1651000D02*
D03*
X1562100D02*
D03*
X1473200D02*
D03*
X1333500D02*
D03*
X1244600D02*
D03*
X1155056Y4102660D02*
D03*
X1066800Y4102100D02*
D03*
X977900D02*
D03*
X889000D02*
D03*
X787400D02*
D03*
X647700D02*
D03*
X558800D02*
D03*
X482600D02*
D03*
X406400D02*
D03*
X330200D02*
D03*
X241300D02*
D03*
X152400D02*
D03*
M02*
