G04*
G04 #@! TF.GenerationSoftware,Altium Limited,Altium Designer,22.7.1 (60)*
G04*
G04 Layer_Color=65535*
%FSLAX44Y44*%
%MOMM*%
G71*
G04*
G04 #@! TF.SameCoordinates,CA18EF67-D3C3-4F87-89B0-68471F1DA954*
G04*
G04*
G04 #@! TF.FilePolarity,Positive*
G04*
G01*
G75*
%ADD10C,0.2000*%
%ADD11C,0.2500*%
%ADD12C,0.5000*%
%ADD13C,0.2540*%
%ADD14C,0.1524*%
%ADD15C,0.1270*%
%ADD16C,0.1016*%
%ADD17C,0.0762*%
G36*
X325755Y3785616D02*
Y3783076D01*
X321945D01*
Y3785616D01*
X325755D01*
D02*
G37*
G36*
X821055D02*
Y3783076D01*
X817245D01*
Y3785616D01*
X821055D01*
D02*
G37*
G36*
X1335405Y3783774D02*
Y3781234D01*
X1331595D01*
Y3783774D01*
X1335405D01*
D02*
G37*
G36*
X1875155Y3785616D02*
Y3783076D01*
X1871345D01*
Y3785616D01*
X1875155D01*
D02*
G37*
D10*
X3049000Y4321800D02*
G03*
X3049000Y4321800I-1000J0D01*
G01*
X109100Y1346200D02*
G03*
X109100Y1346200I-1000J0D01*
G01*
X2928500Y2070100D02*
G03*
X2928500Y2070100I-1000J0D01*
G01*
Y2921000D02*
G03*
X2928500Y2921000I-1000J0D01*
G01*
Y177800D02*
G03*
X2928500Y177800I-1000J0D01*
G01*
Y1117600D02*
G03*
X2928500Y1117600I-1000J0D01*
G01*
X3038050Y4215300D02*
Y4315300D01*
X3077950Y4215300D02*
Y4315300D01*
X3038050Y4215300D02*
X3077950D01*
X3038050Y4315300D02*
X3077950D01*
X1735900Y4205900D02*
Y4209900D01*
X1743900Y4205900D02*
Y4209900D01*
X1710500Y4205900D02*
Y4209900D01*
X1718500Y4205900D02*
Y4209900D01*
X1685100Y4205900D02*
Y4209900D01*
X1693100Y4205900D02*
Y4209900D01*
X1659700Y4205900D02*
Y4209900D01*
X1667700Y4205900D02*
Y4209900D01*
X1634300Y4205900D02*
Y4209900D01*
X1642300Y4205900D02*
Y4209900D01*
X1608900Y4205900D02*
Y4209900D01*
X1616900Y4205900D02*
Y4209900D01*
X2370900Y4205900D02*
Y4209900D01*
X2378900Y4205900D02*
Y4209900D01*
X2396300Y4205900D02*
Y4209900D01*
X2404300Y4205900D02*
Y4209900D01*
X986600Y4205900D02*
Y4209900D01*
X994600Y4205900D02*
Y4209900D01*
X961200Y4205900D02*
Y4209900D01*
X969200Y4205900D02*
Y4209900D01*
X1088200Y4205900D02*
Y4209900D01*
X1096200Y4205900D02*
Y4209900D01*
X2353500Y4205900D02*
Y4209900D01*
X2345500Y4205900D02*
Y4209900D01*
X359600Y4205900D02*
Y4209900D01*
X351600Y4205900D02*
Y4209900D01*
X2269300Y4205900D02*
Y4209900D01*
X2277300Y4205900D02*
Y4209900D01*
X2294700Y4205900D02*
Y4209900D01*
X2302700Y4205900D02*
Y4209900D01*
X2320100Y4205900D02*
Y4209900D01*
X2328100Y4205900D02*
Y4209900D01*
X1012000Y4205900D02*
Y4209900D01*
X1020000Y4205900D02*
Y4209900D01*
X1037400Y4205900D02*
Y4209900D01*
X1045400Y4205900D02*
Y4209900D01*
X1062800Y4205900D02*
Y4209900D01*
X1070800Y4205900D02*
Y4209900D01*
X377000Y4205900D02*
Y4209900D01*
X385000Y4205900D02*
Y4209900D01*
X402400Y4205900D02*
Y4209900D01*
X410400Y4205900D02*
Y4209900D01*
X275400Y4205900D02*
Y4209900D01*
X283400Y4205900D02*
Y4209900D01*
X300800Y4205900D02*
Y4209900D01*
X308800Y4205900D02*
Y4209900D01*
X326200Y4205900D02*
Y4209900D01*
X334200Y4205900D02*
Y4209900D01*
X139800Y3978200D02*
Y4048200D01*
X88800Y3978200D02*
X139800D01*
X88800D02*
Y4048200D01*
X139800D01*
X228700Y3978200D02*
Y4048200D01*
X177700Y3978200D02*
X228700D01*
X177700D02*
Y4048200D01*
X228700D01*
X317600Y3978200D02*
Y4048200D01*
X266600Y3978200D02*
X317600D01*
X266600D02*
Y4048200D01*
X317600D01*
X406500Y3978200D02*
Y4048200D01*
X355500Y3978200D02*
X406500D01*
X355500D02*
Y4048200D01*
X406500D01*
X558900Y3978200D02*
Y4048200D01*
X507900Y3978200D02*
X558900D01*
X507900D02*
Y4048200D01*
X558900D01*
X635100Y3978200D02*
Y4048200D01*
X584100Y3978200D02*
X635100D01*
X584100D02*
Y4048200D01*
X635100D01*
X482700Y3978200D02*
Y4048200D01*
X431700Y3978200D02*
X482700D01*
X431700D02*
Y4048200D01*
X482700D01*
X787500Y3978200D02*
Y4048200D01*
X736500Y3978200D02*
X787500D01*
X736500D02*
Y4048200D01*
X787500D01*
X876400Y3978200D02*
Y4048200D01*
X825400Y3978200D02*
X876400D01*
X825400D02*
Y4048200D01*
X876400D01*
X965300Y3978200D02*
Y4048200D01*
X914300Y3978200D02*
X965300D01*
X914300D02*
Y4048200D01*
X965300D01*
X1054200Y3978200D02*
Y4048200D01*
X1003200Y3978200D02*
X1054200D01*
X1003200D02*
Y4048200D01*
X1054200D01*
X1143100Y3978200D02*
Y4048200D01*
X1092100Y3978200D02*
X1143100D01*
X1092100D02*
Y4048200D01*
X1143100D01*
X1232000Y3978200D02*
Y4048200D01*
X1181000Y3978200D02*
X1232000D01*
X1181000D02*
Y4048200D01*
X1232000D01*
X1320900Y3978200D02*
Y4048200D01*
X1269900Y3978200D02*
X1320900D01*
X1269900D02*
Y4048200D01*
X1320900D01*
X1460600Y3978200D02*
Y4048200D01*
X1409600Y3978200D02*
X1460600D01*
X1409600D02*
Y4048200D01*
X1460600D01*
X1549500Y3978200D02*
Y4048200D01*
X1498500Y3978200D02*
X1549500D01*
X1498500D02*
Y4048200D01*
X1549500D01*
X1638400Y3978200D02*
Y4048200D01*
X1587400Y3978200D02*
X1638400D01*
X1587400D02*
Y4048200D01*
X1638400D01*
X1727300Y3978200D02*
Y4048200D01*
X1676300Y3978200D02*
X1727300D01*
X1676300D02*
Y4048200D01*
X1727300D01*
X1816200Y3978200D02*
Y4048200D01*
X1765200Y3978200D02*
X1816200D01*
X1765200D02*
Y4048200D01*
X1816200D01*
X1905100Y3978200D02*
Y4048200D01*
X1854100Y3978200D02*
X1905100D01*
X1854100D02*
Y4048200D01*
X1905100D01*
X1994000Y3978200D02*
Y4048200D01*
X1943000Y3978200D02*
X1994000D01*
X1943000D02*
Y4048200D01*
X1994000D01*
X2133700Y3978200D02*
Y4048200D01*
X2082700Y3978200D02*
X2133700D01*
X2082700D02*
Y4048200D01*
X2133700D01*
X2222600Y3978200D02*
Y4048200D01*
X2171600Y3978200D02*
X2222600D01*
X2171600D02*
Y4048200D01*
X2222600D01*
X2311500Y3978200D02*
Y4048200D01*
X2260500Y3978200D02*
X2311500D01*
X2260500D02*
Y4048200D01*
X2311500D01*
X2400400Y3978200D02*
Y4048200D01*
X2349400Y3978200D02*
X2400400D01*
X2349400D02*
Y4048200D01*
X2400400D01*
X2489300Y3978200D02*
Y4048200D01*
X2438300Y3978200D02*
X2489300D01*
X2438300D02*
Y4048200D01*
X2489300D01*
X2578200Y3978200D02*
Y4048200D01*
X2527200Y3978200D02*
X2578200D01*
X2527200D02*
Y4048200D01*
X2578200D01*
X2667100Y3978200D02*
Y4048200D01*
X2616100Y3978200D02*
X2667100D01*
X2616100D02*
Y4048200D01*
X2667100D01*
D11*
X141750Y4059200D02*
G03*
X141750Y4059200I-1250J0D01*
G01*
X230650D02*
G03*
X230650Y4059200I-1250J0D01*
G01*
X319550D02*
G03*
X319550Y4059200I-1250J0D01*
G01*
X408450D02*
G03*
X408450Y4059200I-1250J0D01*
G01*
X560850D02*
G03*
X560850Y4059200I-1250J0D01*
G01*
X637050D02*
G03*
X637050Y4059200I-1250J0D01*
G01*
X484650D02*
G03*
X484650Y4059200I-1250J0D01*
G01*
X789450D02*
G03*
X789450Y4059200I-1250J0D01*
G01*
X878350D02*
G03*
X878350Y4059200I-1250J0D01*
G01*
X967250D02*
G03*
X967250Y4059200I-1250J0D01*
G01*
X1056150D02*
G03*
X1056150Y4059200I-1250J0D01*
G01*
X1145050D02*
G03*
X1145050Y4059200I-1250J0D01*
G01*
X1233950D02*
G03*
X1233950Y4059200I-1250J0D01*
G01*
X1322850D02*
G03*
X1322850Y4059200I-1250J0D01*
G01*
X1462550D02*
G03*
X1462550Y4059200I-1250J0D01*
G01*
X1551450D02*
G03*
X1551450Y4059200I-1250J0D01*
G01*
X1640350D02*
G03*
X1640350Y4059200I-1250J0D01*
G01*
X1729250D02*
G03*
X1729250Y4059200I-1250J0D01*
G01*
X1818150D02*
G03*
X1818150Y4059200I-1250J0D01*
G01*
X1907050D02*
G03*
X1907050Y4059200I-1250J0D01*
G01*
X1995950D02*
G03*
X1995950Y4059200I-1250J0D01*
G01*
X2135650D02*
G03*
X2135650Y4059200I-1250J0D01*
G01*
X2224550D02*
G03*
X2224550Y4059200I-1250J0D01*
G01*
X2313450D02*
G03*
X2313450Y4059200I-1250J0D01*
G01*
X2402350D02*
G03*
X2402350Y4059200I-1250J0D01*
G01*
X2491250D02*
G03*
X2491250Y4059200I-1250J0D01*
G01*
X2580150D02*
G03*
X2580150Y4059200I-1250J0D01*
G01*
X2669050D02*
G03*
X2669050Y4059200I-1250J0D01*
G01*
D12*
X132300Y4038700D02*
G03*
X132300Y4038700I-2500J0D01*
G01*
X221200D02*
G03*
X221200Y4038700I-2500J0D01*
G01*
X310100D02*
G03*
X310100Y4038700I-2500J0D01*
G01*
X399000D02*
G03*
X399000Y4038700I-2500J0D01*
G01*
X551400D02*
G03*
X551400Y4038700I-2500J0D01*
G01*
X627600D02*
G03*
X627600Y4038700I-2500J0D01*
G01*
X475200D02*
G03*
X475200Y4038700I-2500J0D01*
G01*
X780000D02*
G03*
X780000Y4038700I-2500J0D01*
G01*
X868900D02*
G03*
X868900Y4038700I-2500J0D01*
G01*
X957800D02*
G03*
X957800Y4038700I-2500J0D01*
G01*
X1046700D02*
G03*
X1046700Y4038700I-2500J0D01*
G01*
X1135600D02*
G03*
X1135600Y4038700I-2500J0D01*
G01*
X1224500D02*
G03*
X1224500Y4038700I-2500J0D01*
G01*
X1313400D02*
G03*
X1313400Y4038700I-2500J0D01*
G01*
X1453100D02*
G03*
X1453100Y4038700I-2500J0D01*
G01*
X1542000D02*
G03*
X1542000Y4038700I-2500J0D01*
G01*
X1630900D02*
G03*
X1630900Y4038700I-2500J0D01*
G01*
X1719800D02*
G03*
X1719800Y4038700I-2500J0D01*
G01*
X1808700D02*
G03*
X1808700Y4038700I-2500J0D01*
G01*
X1897600D02*
G03*
X1897600Y4038700I-2500J0D01*
G01*
X1986500D02*
G03*
X1986500Y4038700I-2500J0D01*
G01*
X2126200D02*
G03*
X2126200Y4038700I-2500J0D01*
G01*
X2215100D02*
G03*
X2215100Y4038700I-2500J0D01*
G01*
X2304000D02*
G03*
X2304000Y4038700I-2500J0D01*
G01*
X2392900D02*
G03*
X2392900Y4038700I-2500J0D01*
G01*
X2481800D02*
G03*
X2481800Y4038700I-2500J0D01*
G01*
X2570700D02*
G03*
X2570700Y4038700I-2500J0D01*
G01*
X2659600D02*
G03*
X2659600Y4038700I-2500J0D01*
G01*
D13*
X177800Y2743200D02*
Y2768600D01*
X152400Y2743200D02*
Y2768600D01*
X177800D01*
X152400Y2743200D02*
X177800D01*
X304800D02*
Y2768600D01*
X279400Y2743200D02*
Y2768600D01*
X304800D01*
X279400Y2743200D02*
X304800D01*
X228600Y2705100D02*
Y2730500D01*
X203200Y2705100D02*
Y2730500D01*
X228600D01*
X203200Y2705100D02*
X228600D01*
X444500Y2590800D02*
Y2616200D01*
X419100Y2590800D02*
Y2616200D01*
X444500D01*
X419100Y2590800D02*
X444500D01*
X304800Y2705100D02*
Y2730500D01*
X279400Y2705100D02*
Y2730500D01*
X304800D01*
X279400Y2705100D02*
X304800D01*
X381000D02*
Y2730500D01*
X355600Y2705100D02*
Y2730500D01*
X381000D01*
X355600Y2705100D02*
X381000D01*
X444500D02*
Y2730500D01*
X419100Y2705100D02*
Y2730500D01*
X444500D01*
X419100Y2705100D02*
X444500D01*
X177800D02*
Y2730500D01*
X152400Y2705100D02*
Y2730500D01*
X177800D01*
X152400Y2705100D02*
X177800D01*
X381000Y2743200D02*
Y2768600D01*
X355600Y2743200D02*
Y2768600D01*
X381000D01*
X355600Y2743200D02*
X381000D01*
X444500Y2781300D02*
Y2806700D01*
X419100Y2781300D02*
Y2806700D01*
X444500D01*
X419100Y2781300D02*
X444500D01*
Y2667000D02*
Y2692400D01*
X419100Y2667000D02*
Y2692400D01*
X444500D01*
X419100Y2667000D02*
X444500D01*
X304800Y2628900D02*
Y2654300D01*
X279400Y2628900D02*
Y2654300D01*
X304800D01*
X279400Y2628900D02*
X304800D01*
X381000D02*
Y2654300D01*
X355600Y2628900D02*
Y2654300D01*
X381000D01*
X355600Y2628900D02*
X381000D01*
X228600D02*
Y2654300D01*
X203200Y2628900D02*
Y2654300D01*
X228600D01*
X203200Y2628900D02*
X228600D01*
Y2743200D02*
Y2768600D01*
X203200Y2743200D02*
Y2768600D01*
X228600D01*
X203200Y2743200D02*
X228600D01*
X444500Y2552700D02*
Y2578100D01*
X419100Y2552700D02*
Y2578100D01*
X444500D01*
X419100Y2552700D02*
X444500D01*
Y2819400D02*
Y2844800D01*
X419100Y2819400D02*
Y2844800D01*
X444500D01*
X419100Y2819400D02*
X444500D01*
Y2743200D02*
Y2768600D01*
X419100Y2743200D02*
Y2768600D01*
X444500D01*
X419100Y2743200D02*
X444500D01*
X177800Y2667000D02*
Y2692400D01*
X152400Y2667000D02*
Y2692400D01*
X177800D01*
X152400Y2667000D02*
X177800D01*
Y2628900D02*
Y2654300D01*
X152400Y2628900D02*
Y2654300D01*
X177800D01*
X152400Y2628900D02*
X177800D01*
X228600Y2667000D02*
Y2692400D01*
X203200Y2667000D02*
Y2692400D01*
X228600D01*
X203200Y2667000D02*
X228600D01*
X304800D02*
Y2692400D01*
X279400Y2667000D02*
Y2692400D01*
X304800D01*
X279400Y2667000D02*
X304800D01*
X444500Y2628900D02*
Y2654300D01*
X419100Y2628900D02*
Y2654300D01*
X444500D01*
X419100Y2628900D02*
X444500D01*
X381000Y2667000D02*
Y2692400D01*
X355600Y2667000D02*
Y2692400D01*
X381000D01*
X355600Y2667000D02*
X381000D01*
Y2590800D02*
X419100Y2552700D01*
X381000Y2590800D02*
Y2603500D01*
X330200Y2667000D02*
X355600Y2641600D01*
X304800Y2667000D02*
X330200D01*
Y2654300D02*
X355600Y2679700D01*
X304800Y2654300D02*
X330200D01*
X304800Y2692400D02*
X355600D01*
X304800Y2628900D02*
X355600D01*
X228600Y2692400D02*
X266700Y2730500D01*
X279400Y2743200D01*
X266700Y2679700D02*
Y2730500D01*
X241300Y2654300D02*
X266700Y2679700D01*
X228600Y2654300D02*
X241300D01*
X266700Y2730500D02*
X279400D01*
X228600Y2768600D02*
X241300D01*
X279400Y2730500D01*
X241300Y2628900D02*
X279400Y2667000D01*
X228600Y2628900D02*
X241300D01*
X228600Y2667000D02*
X279400D01*
X228600Y2730500D02*
X266700D01*
X228600Y2705100D02*
X254000Y2679700D01*
X228600Y2743200D02*
X254000Y2717800D01*
Y2679700D02*
Y2717800D01*
Y2679700D02*
X279400Y2654300D01*
X381000Y2717800D02*
X419100D01*
X381000D02*
X419100Y2755900D01*
X304800Y2743200D02*
X317500D01*
X330200D02*
X355600Y2717800D01*
X317500Y2743200D02*
X330200D01*
Y2730500D02*
X355600Y2755900D01*
X304800Y2730500D02*
X330200D01*
X304800Y2705100D02*
X355600D01*
X304800Y2768600D02*
X355600D01*
X381000Y2603500D02*
Y2641600D01*
X419100Y2603500D01*
X381000Y2679700D02*
X419100Y2641600D01*
X381000Y2679700D02*
X419100D01*
X381000Y2755900D02*
X419100Y2794000D01*
X381000D02*
X419100Y2832100D01*
X381000Y2755900D02*
Y2794000D01*
X177800Y2755900D02*
X203200D01*
X177800Y2717800D02*
X203200D01*
X177800Y2679700D02*
X203200D01*
X177800Y2641600D02*
X203200D01*
X114300Y2755900D02*
X152400D01*
X114300Y2717800D02*
X152400D01*
X114300Y2679700D02*
X152400D01*
X114300Y2641600D02*
X152400D01*
X3039600Y3587200D02*
X3072600D01*
X2924600Y3647200D02*
Y3677200D01*
X3039600D02*
X3072600D01*
Y3587200D02*
Y3677200D01*
X2978600Y3587200D02*
X3005600D01*
X2936100D02*
X2944600D01*
X2924600Y3677200D02*
X2944600D01*
X2978600D02*
X3005600D01*
X2936100Y3587200D02*
Y3647200D01*
X2924600D02*
X2936100D01*
X3039600Y3841200D02*
X3072600D01*
X2924600Y3901200D02*
Y3931200D01*
X3039600D02*
X3072600D01*
Y3841200D02*
Y3931200D01*
X2978600Y3841200D02*
X3005600D01*
X2936100D02*
X2944600D01*
X2924600Y3931200D02*
X2944600D01*
X2978600D02*
X3005600D01*
X2936100Y3841200D02*
Y3901200D01*
X2924600D02*
X2936100D01*
X91548Y2760887D02*
Y2756655D01*
Y2758771D01*
X104244D01*
X102128Y2760887D01*
X91548Y2716452D02*
Y2724916D01*
X100012Y2716452D01*
X102128D01*
X104244Y2718568D01*
Y2722800D01*
X102128Y2724916D01*
Y2686828D02*
X104244Y2684712D01*
Y2680480D01*
X102128Y2678364D01*
X100012D01*
X97896Y2680480D01*
Y2682596D01*
Y2680480D01*
X95780Y2678364D01*
X93664D01*
X91548Y2680480D01*
Y2684712D01*
X93664Y2686828D01*
X91548Y2642392D02*
X104244D01*
X97896Y2648740D01*
Y2640276D01*
X2821940Y223514D02*
X2824479Y226053D01*
X2829557D01*
X2832097Y223514D01*
Y220975D01*
X2829557Y218436D01*
X2827018D01*
X2829557D01*
X2832097Y215897D01*
Y213358D01*
X2829557Y210818D01*
X2824479D01*
X2821940Y213358D01*
X2839714Y208279D02*
X2842253Y210818D01*
Y213358D01*
X2839714D01*
Y210818D01*
X2842253D01*
X2839714Y208279D01*
X2837175Y205740D01*
X2862567Y226053D02*
X2857488Y223514D01*
X2852410Y218436D01*
Y213358D01*
X2854949Y210818D01*
X2860028D01*
X2862567Y213358D01*
Y215897D01*
X2860028Y218436D01*
X2852410D01*
X2829557Y795018D02*
Y810253D01*
X2821940Y802636D01*
X2832097D01*
X2839714Y792479D02*
X2842253Y795018D01*
Y797558D01*
X2839714D01*
Y795018D01*
X2842253D01*
X2839714Y792479D01*
X2837175Y789940D01*
X2852410Y807714D02*
X2854949Y810253D01*
X2860028D01*
X2862567Y807714D01*
Y797558D01*
X2860028Y795018D01*
X2854949D01*
X2852410Y797558D01*
Y807714D01*
X2829557Y1252218D02*
Y1267453D01*
X2821940Y1259836D01*
X2832097D01*
X2839714Y1249679D02*
X2842253Y1252218D01*
Y1254758D01*
X2839714D01*
Y1252218D01*
X2842253D01*
X2839714Y1249679D01*
X2837175Y1247140D01*
X2852410Y1252218D02*
X2857488D01*
X2854949D01*
Y1267453D01*
X2852410Y1264914D01*
X2829557Y1709418D02*
Y1724653D01*
X2821940Y1717036D01*
X2832097D01*
X2839714Y1706879D02*
X2842253Y1709418D01*
Y1711958D01*
X2839714D01*
Y1709418D01*
X2842253D01*
X2839714Y1706879D01*
X2837175Y1704340D01*
X2862567Y1709418D02*
X2852410D01*
X2862567Y1719575D01*
Y1722114D01*
X2860028Y1724653D01*
X2854949D01*
X2852410Y1722114D01*
X2821940Y2255514D02*
X2824479Y2258053D01*
X2829557D01*
X2832097Y2255514D01*
Y2252975D01*
X2829557Y2250436D01*
X2827018D01*
X2829557D01*
X2832097Y2247897D01*
Y2245358D01*
X2829557Y2242818D01*
X2824479D01*
X2821940Y2245358D01*
X2839714Y2240279D02*
X2842253Y2242818D01*
Y2245358D01*
X2839714D01*
Y2242818D01*
X2842253D01*
X2839714Y2240279D01*
X2837175Y2237740D01*
X2862567Y2242818D02*
X2852410D01*
X2862567Y2252975D01*
Y2255514D01*
X2860028Y2258053D01*
X2854949D01*
X2852410Y2255514D01*
X2821940Y2636514D02*
X2824479Y2639053D01*
X2829557D01*
X2832097Y2636514D01*
Y2633975D01*
X2829557Y2631436D01*
X2827018D01*
X2829557D01*
X2832097Y2628897D01*
Y2626357D01*
X2829557Y2623818D01*
X2824479D01*
X2821940Y2626357D01*
X2839714Y2621279D02*
X2842253Y2623818D01*
Y2626357D01*
X2839714D01*
Y2623818D01*
X2842253D01*
X2839714Y2621279D01*
X2837175Y2618740D01*
X2852410Y2636514D02*
X2854949Y2639053D01*
X2860028D01*
X2862567Y2636514D01*
Y2633975D01*
X2860028Y2631436D01*
X2857488D01*
X2860028D01*
X2862567Y2628897D01*
Y2626357D01*
X2860028Y2623818D01*
X2854949D01*
X2852410Y2626357D01*
X2821940Y3157214D02*
X2824479Y3159753D01*
X2829557D01*
X2832097Y3157214D01*
Y3154675D01*
X2829557Y3152136D01*
X2827018D01*
X2829557D01*
X2832097Y3149597D01*
Y3147057D01*
X2829557Y3144518D01*
X2824479D01*
X2821940Y3147057D01*
X2839714Y3141979D02*
X2842253Y3144518D01*
Y3147057D01*
X2839714D01*
Y3144518D01*
X2842253D01*
X2839714Y3141979D01*
X2837175Y3139440D01*
X2860028Y3144518D02*
Y3159753D01*
X2852410Y3152136D01*
X2862567D01*
X2821940Y3576314D02*
X2824479Y3578853D01*
X2829557D01*
X2832097Y3576314D01*
Y3573775D01*
X2829557Y3571236D01*
X2827018D01*
X2829557D01*
X2832097Y3568697D01*
Y3566158D01*
X2829557Y3563618D01*
X2824479D01*
X2821940Y3566158D01*
X2839714Y3561079D02*
X2842253Y3563618D01*
Y3566158D01*
X2839714D01*
Y3563618D01*
X2842253D01*
X2839714Y3561079D01*
X2837175Y3558540D01*
X2862567Y3578853D02*
X2852410D01*
Y3571236D01*
X2857488Y3573775D01*
X2860028D01*
X2862567Y3571236D01*
Y3566158D01*
X2860028Y3563618D01*
X2854949D01*
X2852410Y3566158D01*
X1844040Y744214D02*
X1846579Y746753D01*
X1851658D01*
X1854197Y744214D01*
Y741675D01*
X1851658Y739136D01*
X1849118D01*
X1851658D01*
X1854197Y736597D01*
Y734057D01*
X1851658Y731518D01*
X1846579D01*
X1844040Y734057D01*
X1861814Y728979D02*
X1864353Y731518D01*
Y734057D01*
X1861814D01*
Y731518D01*
X1864353D01*
X1861814Y728979D01*
X1859275Y726440D01*
X1874510Y744214D02*
X1877049Y746753D01*
X1882128D01*
X1884667Y744214D01*
Y734057D01*
X1882128Y731518D01*
X1877049D01*
X1874510Y734057D01*
Y744214D01*
X1869440Y1684014D02*
X1871979Y1686553D01*
X1877057D01*
X1879597Y1684014D01*
Y1681475D01*
X1877057Y1678936D01*
X1874518D01*
X1877057D01*
X1879597Y1676397D01*
Y1673858D01*
X1877057Y1671318D01*
X1871979D01*
X1869440Y1673858D01*
X1887214Y1668779D02*
X1889753Y1671318D01*
Y1673858D01*
X1887214D01*
Y1671318D01*
X1889753D01*
X1887214Y1668779D01*
X1884675Y1666240D01*
X1899910Y1671318D02*
X1904989D01*
X1902449D01*
Y1686553D01*
X1899910Y1684014D01*
X1854197Y2573018D02*
X1844040D01*
X1854197Y2583175D01*
Y2585714D01*
X1851658Y2588253D01*
X1846579D01*
X1844040Y2585714D01*
X1861814Y2570479D02*
X1864353Y2573018D01*
Y2575558D01*
X1861814D01*
Y2573018D01*
X1864353D01*
X1861814Y2570479D01*
X1859275Y2567940D01*
X1884667Y2588253D02*
X1874510D01*
Y2580636D01*
X1879588Y2583175D01*
X1882128D01*
X1884667Y2580636D01*
Y2575558D01*
X1882128Y2573018D01*
X1877049D01*
X1874510Y2575558D01*
X1866897Y3462018D02*
X1856740D01*
X1866897Y3472175D01*
Y3474714D01*
X1864357Y3477253D01*
X1859279D01*
X1856740Y3474714D01*
X1874514Y3459479D02*
X1877053Y3462018D01*
Y3464557D01*
X1874514D01*
Y3462018D01*
X1877053D01*
X1874514Y3459479D01*
X1871975Y3456940D01*
X1897367Y3477253D02*
X1892289Y3474714D01*
X1887210Y3469636D01*
Y3464557D01*
X1889749Y3462018D01*
X1894828D01*
X1897367Y3464557D01*
Y3467097D01*
X1894828Y3469636D01*
X1887210D01*
X1473197Y731518D02*
X1463040D01*
X1473197Y741675D01*
Y744214D01*
X1470658Y746753D01*
X1465579D01*
X1463040Y744214D01*
X1480814Y728979D02*
X1483353Y731518D01*
Y734057D01*
X1480814D01*
Y731518D01*
X1483353D01*
X1480814Y728979D01*
X1478275Y726440D01*
X1501128Y731518D02*
Y746753D01*
X1493510Y739136D01*
X1503667D01*
X1371597Y1671318D02*
X1361440D01*
X1371597Y1681475D01*
Y1684014D01*
X1369057Y1686553D01*
X1363979D01*
X1361440Y1684014D01*
X1379214Y1668779D02*
X1381753Y1671318D01*
Y1673858D01*
X1379214D01*
Y1671318D01*
X1381753D01*
X1379214Y1668779D01*
X1376675Y1666240D01*
X1391910Y1684014D02*
X1394449Y1686553D01*
X1399528D01*
X1402067Y1684014D01*
Y1681475D01*
X1399528Y1678936D01*
X1396989D01*
X1399528D01*
X1402067Y1676397D01*
Y1673858D01*
X1399528Y1671318D01*
X1394449D01*
X1391910Y1673858D01*
X1346197Y2573018D02*
X1336040D01*
X1346197Y2583175D01*
Y2585714D01*
X1343658Y2588253D01*
X1338579D01*
X1336040Y2585714D01*
X1353814Y2570479D02*
X1356353Y2573018D01*
Y2575558D01*
X1353814D01*
Y2573018D01*
X1356353D01*
X1353814Y2570479D01*
X1351275Y2567940D01*
X1376667Y2573018D02*
X1366510D01*
X1376667Y2583175D01*
Y2585714D01*
X1374128Y2588253D01*
X1369049D01*
X1366510Y2585714D01*
X1346197Y3462018D02*
X1336040D01*
X1346197Y3472175D01*
Y3474714D01*
X1343658Y3477253D01*
X1338579D01*
X1336040Y3474714D01*
X1353814Y3459479D02*
X1356353Y3462018D01*
Y3464557D01*
X1353814D01*
Y3462018D01*
X1356353D01*
X1353814Y3459479D01*
X1351275Y3456940D01*
X1366510Y3462018D02*
X1371588D01*
X1369049D01*
Y3477253D01*
X1366510Y3474714D01*
X939797Y731518D02*
X929640D01*
X939797Y741675D01*
Y744214D01*
X937258Y746753D01*
X932179D01*
X929640Y744214D01*
X947414Y728979D02*
X949953Y731518D01*
Y734057D01*
X947414D01*
Y731518D01*
X949953D01*
X947414Y728979D01*
X944875Y726440D01*
X960110Y744214D02*
X962649Y746753D01*
X967728D01*
X970267Y744214D01*
Y734057D01*
X967728Y731518D01*
X962649D01*
X960110Y734057D01*
Y744214D01*
X891540Y1671318D02*
X896618D01*
X894079D01*
Y1686553D01*
X891540Y1684014D01*
X906775Y1668779D02*
X909314Y1671318D01*
Y1673858D01*
X906775D01*
Y1671318D01*
X909314D01*
X906775Y1668779D01*
X904236Y1666240D01*
X929628Y1686553D02*
X924549Y1684014D01*
X919471Y1678936D01*
Y1673858D01*
X922010Y1671318D01*
X927088D01*
X929628Y1673858D01*
Y1676397D01*
X927088Y1678936D01*
X919471D01*
X980440Y2573018D02*
X985518D01*
X982979D01*
Y2588253D01*
X980440Y2585714D01*
X995675Y2570479D02*
X998214Y2573018D01*
Y2575558D01*
X995675D01*
Y2573018D01*
X998214D01*
X995675Y2570479D01*
X993136Y2567940D01*
X1018528Y2588253D02*
X1008371D01*
Y2580636D01*
X1013449Y2583175D01*
X1015988D01*
X1018528Y2580636D01*
Y2575558D01*
X1015988Y2573018D01*
X1010910D01*
X1008371Y2575558D01*
X891540Y3462018D02*
X896618D01*
X894079D01*
Y3477253D01*
X891540Y3474714D01*
X906775Y3459479D02*
X909314Y3462018D01*
Y3464557D01*
X906775D01*
Y3462018D01*
X909314D01*
X906775Y3459479D01*
X904236Y3456940D01*
X927088Y3462018D02*
Y3477253D01*
X919471Y3469636D01*
X929628D01*
X447040Y731518D02*
X452118D01*
X449579D01*
Y746753D01*
X447040Y744214D01*
X462275Y728979D02*
X464814Y731518D01*
Y734057D01*
X462275D01*
Y731518D01*
X464814D01*
X462275Y728979D01*
X459736Y726440D01*
X474971Y744214D02*
X477510Y746753D01*
X482589D01*
X485128Y744214D01*
Y741675D01*
X482589Y739136D01*
X480049D01*
X482589D01*
X485128Y736597D01*
Y734057D01*
X482589Y731518D01*
X477510D01*
X474971Y734057D01*
X447040Y1633218D02*
X452118D01*
X449579D01*
Y1648453D01*
X447040Y1645914D01*
X462275Y1630679D02*
X464814Y1633218D01*
Y1635757D01*
X462275D01*
Y1633218D01*
X464814D01*
X462275Y1630679D01*
X459736Y1628140D01*
X485128Y1633218D02*
X474971D01*
X485128Y1643375D01*
Y1645914D01*
X482589Y1648453D01*
X477510D01*
X474971Y1645914D01*
X523240Y2547618D02*
X528318D01*
X525779D01*
Y2562853D01*
X523240Y2560314D01*
X538475Y2545079D02*
X541014Y2547618D01*
Y2550157D01*
X538475D01*
Y2547618D01*
X541014D01*
X538475Y2545079D01*
X535936Y2542540D01*
X551171Y2547618D02*
X556249D01*
X553710D01*
Y2562853D01*
X551171Y2560314D01*
X472440Y3423918D02*
X477518D01*
X474979D01*
Y3439153D01*
X472440Y3436614D01*
X487675Y3421379D02*
X490214Y3423918D01*
Y3426458D01*
X487675D01*
Y3423918D01*
X490214D01*
X487675Y3421379D01*
X485136Y3418840D01*
X500371Y3436614D02*
X502910Y3439153D01*
X507989D01*
X510528Y3436614D01*
Y3426458D01*
X507989Y3423918D01*
X502910D01*
X500371Y3426458D01*
Y3436614D01*
X48257Y1348740D02*
Y1363975D01*
X40640Y1356358D01*
X50797D01*
X55875D02*
X66032D01*
X60953Y1361436D02*
Y1351279D01*
X48257Y1424940D02*
Y1440175D01*
X40640Y1432558D01*
X50797D01*
X55875D02*
X66032D01*
X40640Y1513836D02*
X43179Y1516375D01*
X48257D01*
X50797Y1513836D01*
Y1511297D01*
X48257Y1508757D01*
X45718D01*
X48257D01*
X50797Y1506218D01*
Y1503679D01*
X48257Y1501140D01*
X43179D01*
X40640Y1503679D01*
X55875Y1508757D02*
X66032D01*
X60953Y1513836D02*
Y1503679D01*
X40640Y1590036D02*
X43179Y1592575D01*
X48257D01*
X50797Y1590036D01*
Y1587497D01*
X48257Y1584957D01*
X45718D01*
X48257D01*
X50797Y1582418D01*
Y1579879D01*
X48257Y1577340D01*
X43179D01*
X40640Y1579879D01*
X55875Y1584957D02*
X66032D01*
X50797Y1653540D02*
X40640D01*
X50797Y1663697D01*
Y1666236D01*
X48257Y1668775D01*
X43179D01*
X40640Y1666236D01*
X55875Y1661158D02*
X66032D01*
X60953Y1666236D02*
Y1656079D01*
X50797Y1729740D02*
X40640D01*
X50797Y1739897D01*
Y1742436D01*
X48257Y1744975D01*
X43179D01*
X40640Y1742436D01*
X55875Y1737357D02*
X66032D01*
X40640Y1805940D02*
X45718D01*
X43179D01*
Y1821175D01*
X40640Y1818636D01*
X53336Y1813557D02*
X63493D01*
X58414Y1818636D02*
Y1808479D01*
X40640Y1882140D02*
X45718D01*
X43179D01*
Y1897375D01*
X40640Y1894836D01*
X53336Y1889758D02*
X63493D01*
X3075940Y180340D02*
X3081018D01*
X3078479D01*
Y195575D01*
X3075940Y193036D01*
X3098793Y195575D02*
X3093714Y193036D01*
X3088636Y187957D01*
Y182879D01*
X3091175Y180340D01*
X3096253D01*
X3098793Y182879D01*
Y185418D01*
X3096253Y187957D01*
X3088636D01*
X3103871D02*
X3114028D01*
X3075940Y256540D02*
X3081018D01*
X3078479D01*
Y271775D01*
X3075940Y269236D01*
X3098793Y271775D02*
X3093714Y269236D01*
X3088636Y264158D01*
Y259079D01*
X3091175Y256540D01*
X3096253D01*
X3098793Y259079D01*
Y261618D01*
X3096253Y264158D01*
X3088636D01*
X3103871D02*
X3114028D01*
X3108949Y269236D02*
Y259079D01*
X3075940Y332740D02*
X3081018D01*
X3078479D01*
Y347975D01*
X3075940Y345436D01*
X3098793Y347975D02*
X3088636D01*
Y340358D01*
X3093714Y342897D01*
X3096253D01*
X3098793Y340358D01*
Y335279D01*
X3096253Y332740D01*
X3091175D01*
X3088636Y335279D01*
X3103871Y340358D02*
X3114028D01*
X3075940Y408940D02*
X3081018D01*
X3078479D01*
Y424175D01*
X3075940Y421636D01*
X3098793Y424175D02*
X3088636D01*
Y416558D01*
X3093714Y419097D01*
X3096253D01*
X3098793Y416558D01*
Y411479D01*
X3096253Y408940D01*
X3091175D01*
X3088636Y411479D01*
X3103871Y416558D02*
X3114028D01*
X3108949Y421636D02*
Y411479D01*
X3075940Y485140D02*
X3081018D01*
X3078479D01*
Y500375D01*
X3075940Y497836D01*
X3096253Y485140D02*
Y500375D01*
X3088636Y492757D01*
X3098793D01*
X3103871D02*
X3114028D01*
X3075940Y548640D02*
X3081018D01*
X3078479D01*
Y563875D01*
X3075940Y561336D01*
X3096253Y548640D02*
Y563875D01*
X3088636Y556258D01*
X3098793D01*
X3103871D02*
X3114028D01*
X3108949Y561336D02*
Y551179D01*
X3075940Y637540D02*
X3081018D01*
X3078479D01*
Y652775D01*
X3075940Y650236D01*
X3088636D02*
X3091175Y652775D01*
X3096253D01*
X3098793Y650236D01*
Y647697D01*
X3096253Y645157D01*
X3093714D01*
X3096253D01*
X3098793Y642618D01*
Y640079D01*
X3096253Y637540D01*
X3091175D01*
X3088636Y640079D01*
X3103871Y645157D02*
X3114028D01*
X3075940Y713740D02*
X3081018D01*
X3078479D01*
Y728975D01*
X3075940Y726436D01*
X3088636D02*
X3091175Y728975D01*
X3096253D01*
X3098793Y726436D01*
Y723897D01*
X3096253Y721357D01*
X3093714D01*
X3096253D01*
X3098793Y718818D01*
Y716279D01*
X3096253Y713740D01*
X3091175D01*
X3088636Y716279D01*
X3103871Y721357D02*
X3114028D01*
X3108949Y726436D02*
Y716279D01*
X3075940Y1120140D02*
X3081018D01*
X3078479D01*
Y1135375D01*
X3075940Y1132836D01*
X3098793Y1120140D02*
X3088636D01*
X3098793Y1130297D01*
Y1132836D01*
X3096253Y1135375D01*
X3091175D01*
X3088636Y1132836D01*
X3103871Y1127757D02*
X3114028D01*
X3075940Y1196340D02*
X3081018D01*
X3078479D01*
Y1211575D01*
X3075940Y1209036D01*
X3098793Y1196340D02*
X3088636D01*
X3098793Y1206497D01*
Y1209036D01*
X3096253Y1211575D01*
X3091175D01*
X3088636Y1209036D01*
X3103871Y1203958D02*
X3114028D01*
X3108949Y1209036D02*
Y1198879D01*
X3075940Y1272540D02*
X3081018D01*
X3078479D01*
Y1287775D01*
X3075940Y1285236D01*
X3088636Y1272540D02*
X3093714D01*
X3091175D01*
Y1287775D01*
X3088636Y1285236D01*
X3101332Y1280157D02*
X3111489D01*
X3075940Y1348740D02*
X3081018D01*
X3078479D01*
Y1363975D01*
X3075940Y1361436D01*
X3088636Y1348740D02*
X3093714D01*
X3091175D01*
Y1363975D01*
X3088636Y1361436D01*
X3101332Y1356358D02*
X3111489D01*
X3106410Y1361436D02*
Y1351279D01*
X3075940Y1424940D02*
X3081018D01*
X3078479D01*
Y1440175D01*
X3075940Y1437636D01*
X3088636D02*
X3091175Y1440175D01*
X3096253D01*
X3098793Y1437636D01*
Y1427479D01*
X3096253Y1424940D01*
X3091175D01*
X3088636Y1427479D01*
Y1437636D01*
X3103871Y1432558D02*
X3114028D01*
X3075940Y1501140D02*
X3081018D01*
X3078479D01*
Y1516375D01*
X3075940Y1513836D01*
X3088636D02*
X3091175Y1516375D01*
X3096253D01*
X3098793Y1513836D01*
Y1503679D01*
X3096253Y1501140D01*
X3091175D01*
X3088636Y1503679D01*
Y1513836D01*
X3103871Y1508757D02*
X3114028D01*
X3108949Y1513836D02*
Y1503679D01*
X3075940Y1579879D02*
X3078479Y1577340D01*
X3083557D01*
X3086097Y1579879D01*
Y1590036D01*
X3083557Y1592575D01*
X3078479D01*
X3075940Y1590036D01*
Y1587497D01*
X3078479Y1584957D01*
X3086097D01*
X3091175D02*
X3101332D01*
X3075940Y1656079D02*
X3078479Y1653540D01*
X3083557D01*
X3086097Y1656079D01*
Y1666236D01*
X3083557Y1668775D01*
X3078479D01*
X3075940Y1666236D01*
Y1663697D01*
X3078479Y1661158D01*
X3086097D01*
X3091175D02*
X3101332D01*
X3096253Y1666236D02*
Y1656079D01*
X3086097Y2621275D02*
X3075940D01*
Y2613658D01*
X3081018Y2616197D01*
X3083557D01*
X3086097Y2613658D01*
Y2608579D01*
X3083557Y2606040D01*
X3078479D01*
X3075940Y2608579D01*
X3091175Y2613658D02*
X3101332D01*
X3096253Y2618736D02*
Y2608579D01*
X3075940Y2161536D02*
X3078479Y2164075D01*
X3083557D01*
X3086097Y2161536D01*
Y2158997D01*
X3083557Y2156458D01*
X3086097Y2153918D01*
Y2151379D01*
X3083557Y2148840D01*
X3078479D01*
X3075940Y2151379D01*
Y2153918D01*
X3078479Y2156458D01*
X3075940Y2158997D01*
Y2161536D01*
X3078479Y2156458D02*
X3083557D01*
X3091175D02*
X3101332D01*
X3096253Y2161536D02*
Y2151379D01*
X3075940Y2240275D02*
X3086097D01*
Y2237736D01*
X3075940Y2227579D01*
Y2225040D01*
X3091175Y2232657D02*
X3101332D01*
X3075940Y2316475D02*
X3086097D01*
Y2313936D01*
X3075940Y2303779D01*
Y2301240D01*
X3091175Y2308858D02*
X3101332D01*
X3096253Y2313936D02*
Y2303779D01*
X3086097Y2392675D02*
X3081018Y2390136D01*
X3075940Y2385058D01*
Y2379979D01*
X3078479Y2377440D01*
X3083557D01*
X3086097Y2379979D01*
Y2382518D01*
X3083557Y2385058D01*
X3075940D01*
X3091175D02*
X3101332D01*
X3086097Y2545075D02*
X3075940D01*
Y2537457D01*
X3081018Y2539997D01*
X3083557D01*
X3086097Y2537457D01*
Y2532379D01*
X3083557Y2529840D01*
X3078479D01*
X3075940Y2532379D01*
X3091175Y2537457D02*
X3101332D01*
X3086097Y2468875D02*
X3081018Y2466336D01*
X3075940Y2461257D01*
Y2456179D01*
X3078479Y2453640D01*
X3083557D01*
X3086097Y2456179D01*
Y2458718D01*
X3083557Y2461257D01*
X3075940D01*
X3091175D02*
X3101332D01*
X3096253Y2466336D02*
Y2456179D01*
X3075940Y2085336D02*
X3078479Y2087875D01*
X3083557D01*
X3086097Y2085336D01*
Y2082797D01*
X3083557Y2080258D01*
X3086097Y2077718D01*
Y2075179D01*
X3083557Y2072640D01*
X3078479D01*
X3075940Y2075179D01*
Y2077718D01*
X3078479Y2080258D01*
X3075940Y2082797D01*
Y2085336D01*
X3078479Y2080258D02*
X3083557D01*
X3091175D02*
X3101332D01*
X3075940Y3456940D02*
X3081018D01*
X3078479D01*
Y3472175D01*
X3075940Y3469636D01*
X3088636Y3464557D02*
X3098793D01*
X3093714Y3469636D02*
Y3459479D01*
X3075940Y3380740D02*
X3081018D01*
X3078479D01*
Y3395975D01*
X3075940Y3393436D01*
X3088636Y3388358D02*
X3098793D01*
X3086097Y3304540D02*
X3075940D01*
X3086097Y3314697D01*
Y3317236D01*
X3083557Y3319775D01*
X3078479D01*
X3075940Y3317236D01*
X3091175Y3312158D02*
X3101332D01*
X3096253Y3317236D02*
Y3307079D01*
X3086097Y3228340D02*
X3075940D01*
X3086097Y3238497D01*
Y3241036D01*
X3083557Y3243575D01*
X3078479D01*
X3075940Y3241036D01*
X3091175Y3235958D02*
X3101332D01*
X3075940Y3164836D02*
X3078479Y3167375D01*
X3083557D01*
X3086097Y3164836D01*
Y3162297D01*
X3083557Y3159757D01*
X3081018D01*
X3083557D01*
X3086097Y3157218D01*
Y3154679D01*
X3083557Y3152140D01*
X3078479D01*
X3075940Y3154679D01*
X3091175Y3159757D02*
X3101332D01*
X3096253Y3164836D02*
Y3154679D01*
X3075940Y3088636D02*
X3078479Y3091175D01*
X3083557D01*
X3086097Y3088636D01*
Y3086097D01*
X3083557Y3083557D01*
X3081018D01*
X3083557D01*
X3086097Y3081018D01*
Y3078479D01*
X3083557Y3075940D01*
X3078479D01*
X3075940Y3078479D01*
X3091175Y3083557D02*
X3101332D01*
X3083557Y2999740D02*
Y3014975D01*
X3075940Y3007357D01*
X3086097D01*
X3091175D02*
X3101332D01*
X3096253Y3012436D02*
Y3002279D01*
X3083557Y2923540D02*
Y2938775D01*
X3075940Y2931158D01*
X3086097D01*
X3091175D02*
X3101332D01*
X2521018Y3743169D02*
Y3758404D01*
X2513400Y3750787D01*
X2523557D01*
X2531175Y3740630D02*
X2533714Y3743169D01*
Y3745708D01*
X2531175D01*
Y3743169D01*
X2533714D01*
X2531175Y3740630D01*
X2528635Y3738091D01*
X2543871Y3755865D02*
X2546410Y3758404D01*
X2551488D01*
X2554027Y3755865D01*
Y3753326D01*
X2551488Y3750787D01*
X2548949D01*
X2551488D01*
X2554027Y3748247D01*
Y3745708D01*
X2551488Y3743169D01*
X2546410D01*
X2543871Y3745708D01*
X2442987Y3769330D02*
Y3784565D01*
X2435369Y3776947D01*
X2445526D01*
X2453143Y3766791D02*
X2455683Y3769330D01*
Y3771869D01*
X2453143D01*
Y3769330D01*
X2455683D01*
X2453143Y3766791D01*
X2450604Y3764252D01*
X2473457Y3769330D02*
Y3784565D01*
X2465839Y3776947D01*
X2475996D01*
X2362700Y3771134D02*
Y3786369D01*
X2355083Y3778752D01*
X2365239D01*
X2372857Y3768595D02*
X2375396Y3771134D01*
Y3773673D01*
X2372857D01*
Y3771134D01*
X2375396D01*
X2372857Y3768595D01*
X2370318Y3766056D01*
X2395710Y3786369D02*
X2385553D01*
Y3778752D01*
X2390631Y3781291D01*
X2393170D01*
X2395710Y3778752D01*
Y3773673D01*
X2393170Y3771134D01*
X2388092D01*
X2385553Y3773673D01*
X2275648Y3740463D02*
Y3755698D01*
X2268031Y3748080D01*
X2278187D01*
X2285805Y3737924D02*
X2288344Y3740463D01*
Y3743002D01*
X2285805D01*
Y3740463D01*
X2288344D01*
X2285805Y3737924D01*
X2283266Y3735385D01*
X2308658Y3755698D02*
X2303579Y3753159D01*
X2298501Y3748080D01*
Y3743002D01*
X2301040Y3740463D01*
X2306118D01*
X2308658Y3743002D01*
Y3745541D01*
X2306118Y3748080D01*
X2298501D01*
X3047997Y4346697D02*
X3042918D01*
X3045457D01*
Y4334001D01*
X3042918Y4331462D01*
X3040379D01*
X3037840Y4334001D01*
X3053075Y4346697D02*
X3063232D01*
Y4344158D01*
X3053075Y4334001D01*
Y4331462D01*
X2481587Y4246883D02*
Y4262118D01*
X2489204D01*
X2491743Y4259578D01*
Y4254500D01*
X2489204Y4251961D01*
X2481587D01*
X2486665D02*
X2491743Y4246883D01*
X2506978D02*
X2496822D01*
X2506978Y4257039D01*
Y4259578D01*
X2504439Y4262118D01*
X2499361D01*
X2496822Y4259578D01*
X2522213Y4262118D02*
X2512057D01*
Y4254500D01*
X2517135Y4257039D01*
X2519674D01*
X2522213Y4254500D01*
Y4249422D01*
X2519674Y4246883D01*
X2514596D01*
X2512057Y4249422D01*
X2481587Y4221483D02*
Y4236718D01*
X2489204D01*
X2491743Y4234178D01*
Y4229100D01*
X2489204Y4226561D01*
X2481587D01*
X2486665D02*
X2491743Y4221483D01*
X2506978D02*
X2496822D01*
X2506978Y4231639D01*
Y4234178D01*
X2504439Y4236718D01*
X2499361D01*
X2496822Y4234178D01*
X2519674Y4221483D02*
Y4236718D01*
X2512057Y4229100D01*
X2522213D01*
X2176787Y4259583D02*
Y4274818D01*
X2184404D01*
X2186943Y4272278D01*
Y4267200D01*
X2184404Y4264661D01*
X2176787D01*
X2181865D02*
X2186943Y4259583D01*
X2202178D02*
X2192022D01*
X2202178Y4269739D01*
Y4272278D01*
X2199639Y4274818D01*
X2194561D01*
X2192022Y4272278D01*
X2207257D02*
X2209796Y4274818D01*
X2214874D01*
X2217413Y4272278D01*
Y4269739D01*
X2214874Y4267200D01*
X2212335D01*
X2214874D01*
X2217413Y4264661D01*
Y4262122D01*
X2214874Y4259583D01*
X2209796D01*
X2207257Y4262122D01*
X1833887Y4208782D02*
Y4224018D01*
X1841504D01*
X1844043Y4221478D01*
Y4216400D01*
X1841504Y4213861D01*
X1833887D01*
X1838965D02*
X1844043Y4208782D01*
X1859278D02*
X1849122D01*
X1859278Y4218939D01*
Y4221478D01*
X1856739Y4224018D01*
X1851661D01*
X1849122Y4221478D01*
X1874513Y4208782D02*
X1864357D01*
X1874513Y4218939D01*
Y4221478D01*
X1871974Y4224018D01*
X1866896D01*
X1864357Y4221478D01*
X1836426Y4234182D02*
Y4249417D01*
X1844043D01*
X1846582Y4246878D01*
Y4241800D01*
X1844043Y4239261D01*
X1836426D01*
X1841504D02*
X1846582Y4234182D01*
X1861818D02*
X1851661D01*
X1861818Y4244339D01*
Y4246878D01*
X1859278Y4249417D01*
X1854200D01*
X1851661Y4246878D01*
X1866896Y4234182D02*
X1871974D01*
X1869435D01*
Y4249417D01*
X1866896Y4246878D01*
X1833887Y4259583D02*
Y4274818D01*
X1841504D01*
X1844043Y4272278D01*
Y4267200D01*
X1841504Y4264661D01*
X1833887D01*
X1838965D02*
X1844043Y4259583D01*
X1859278D02*
X1849122D01*
X1859278Y4269739D01*
Y4272278D01*
X1856739Y4274818D01*
X1851661D01*
X1849122Y4272278D01*
X1864357D02*
X1866896Y4274818D01*
X1871974D01*
X1874513Y4272278D01*
Y4262122D01*
X1871974Y4259583D01*
X1866896D01*
X1864357Y4262122D01*
Y4272278D01*
X1517656Y4208782D02*
Y4224018D01*
X1525274D01*
X1527813Y4221478D01*
Y4216400D01*
X1525274Y4213861D01*
X1517656D01*
X1522735D02*
X1527813Y4208782D01*
X1532891D02*
X1537970D01*
X1535430D01*
Y4224018D01*
X1532891Y4221478D01*
X1545587Y4211322D02*
X1548126Y4208782D01*
X1553205D01*
X1555744Y4211322D01*
Y4221478D01*
X1553205Y4224018D01*
X1548126D01*
X1545587Y4221478D01*
Y4218939D01*
X1548126Y4216400D01*
X1555744D01*
X1517656Y4234182D02*
Y4249417D01*
X1525274D01*
X1527813Y4246878D01*
Y4241800D01*
X1525274Y4239261D01*
X1517656D01*
X1522735D02*
X1527813Y4234182D01*
X1532891D02*
X1537970D01*
X1535430D01*
Y4249417D01*
X1532891Y4246878D01*
X1545587D02*
X1548126Y4249417D01*
X1553205D01*
X1555744Y4246878D01*
Y4244339D01*
X1553205Y4241800D01*
X1555744Y4239261D01*
Y4236722D01*
X1553205Y4234182D01*
X1548126D01*
X1545587Y4236722D01*
Y4239261D01*
X1548126Y4241800D01*
X1545587Y4244339D01*
Y4246878D01*
X1548126Y4241800D02*
X1553205D01*
X1517656Y4259583D02*
Y4274818D01*
X1525274D01*
X1527813Y4272278D01*
Y4267200D01*
X1525274Y4264661D01*
X1517656D01*
X1522735D02*
X1527813Y4259583D01*
X1532891D02*
X1537970D01*
X1535430D01*
Y4274818D01*
X1532891Y4272278D01*
X1545587Y4274818D02*
X1555744D01*
Y4272278D01*
X1545587Y4262122D01*
Y4259583D01*
X1174756Y4246883D02*
Y4262118D01*
X1182374D01*
X1184913Y4259578D01*
Y4254500D01*
X1182374Y4251961D01*
X1174756D01*
X1179835D02*
X1184913Y4246883D01*
X1189991D02*
X1195070D01*
X1192530D01*
Y4262118D01*
X1189991Y4259578D01*
X1212844Y4246883D02*
X1202687D01*
X1212844Y4257039D01*
Y4259578D01*
X1210305Y4262118D01*
X1205226D01*
X1202687Y4259578D01*
X876304Y4221483D02*
Y4236718D01*
X883922D01*
X886461Y4234178D01*
Y4229100D01*
X883922Y4226561D01*
X876304D01*
X881383D02*
X886461Y4221483D01*
X891539Y4234178D02*
X894078Y4236718D01*
X899157D01*
X901696Y4234178D01*
Y4231639D01*
X899157Y4229100D01*
X901696Y4226561D01*
Y4224022D01*
X899157Y4221483D01*
X894078D01*
X891539Y4224022D01*
Y4226561D01*
X894078Y4229100D01*
X891539Y4231639D01*
Y4234178D01*
X894078Y4229100D02*
X899157D01*
X876304Y4246883D02*
Y4262118D01*
X883922D01*
X886461Y4259578D01*
Y4254500D01*
X883922Y4251961D01*
X876304D01*
X881383D02*
X886461Y4246883D01*
X891539Y4262118D02*
X901696D01*
Y4259578D01*
X891539Y4249422D01*
Y4246883D01*
X307343Y3423918D02*
Y3408683D01*
Y3413761D01*
X317500Y3423918D01*
X309883Y3416300D01*
X317500Y3408683D01*
X322578D02*
X327657D01*
X325118D01*
Y3423918D01*
X322578Y3421378D01*
X2253231Y4374892D02*
X2250692Y4377431D01*
X2245613D01*
X2243074Y4374892D01*
Y4372353D01*
X2245613Y4369814D01*
X2250692D01*
X2253231Y4367274D01*
Y4364735D01*
X2250692Y4362196D01*
X2245613D01*
X2243074Y4364735D01*
X2258309Y4362196D02*
X2263387D01*
X2260848D01*
Y4377431D01*
X2258309D01*
X2273544Y4372353D02*
X2278622D01*
X2281162Y4369814D01*
Y4362196D01*
X2273544D01*
X2271005Y4364735D01*
X2273544Y4367274D01*
X2281162D01*
X2286240Y4372353D02*
X2291318Y4362196D01*
X2296397Y4372353D01*
X2309093Y4362196D02*
X2304014D01*
X2301475Y4364735D01*
Y4369814D01*
X2304014Y4372353D01*
X2309093D01*
X2311632Y4369814D01*
Y4367274D01*
X2301475D01*
X2334484Y4362196D02*
Y4377431D01*
X2339563D02*
Y4362196D01*
X2331945Y4372353D02*
X2339563D01*
X2342102D01*
X2331945Y4367274D02*
X2342102D01*
X2354798Y4362196D02*
Y4377431D01*
X2347180Y4369814D01*
X2357337D01*
X1592831Y4374892D02*
X1590291Y4377431D01*
X1585213D01*
X1582674Y4374892D01*
Y4372353D01*
X1585213Y4369814D01*
X1590291D01*
X1592831Y4367274D01*
Y4364735D01*
X1590291Y4362196D01*
X1585213D01*
X1582674Y4364735D01*
X1597909Y4362196D02*
X1602987D01*
X1600448D01*
Y4377431D01*
X1597909D01*
X1613144Y4372353D02*
X1618223D01*
X1620762Y4369814D01*
Y4362196D01*
X1613144D01*
X1610605Y4364735D01*
X1613144Y4367274D01*
X1620762D01*
X1625840Y4372353D02*
X1630918Y4362196D01*
X1635997Y4372353D01*
X1648693Y4362196D02*
X1643614D01*
X1641075Y4364735D01*
Y4369814D01*
X1643614Y4372353D01*
X1648693D01*
X1651232Y4369814D01*
Y4367274D01*
X1641075D01*
X1674084Y4362196D02*
Y4377431D01*
X1679163D02*
Y4362196D01*
X1671545Y4372353D02*
X1679163D01*
X1681702D01*
X1671545Y4367274D02*
X1681702D01*
X1686780Y4374892D02*
X1689319Y4377431D01*
X1694398D01*
X1696937Y4374892D01*
Y4372353D01*
X1694398Y4369814D01*
X1691859D01*
X1694398D01*
X1696937Y4367274D01*
Y4364735D01*
X1694398Y4362196D01*
X1689319D01*
X1686780Y4364735D01*
X945131Y4374892D02*
X942591Y4377431D01*
X937513D01*
X934974Y4374892D01*
Y4372353D01*
X937513Y4369814D01*
X942591D01*
X945131Y4367274D01*
Y4364735D01*
X942591Y4362196D01*
X937513D01*
X934974Y4364735D01*
X950209Y4362196D02*
X955287D01*
X952748D01*
Y4377431D01*
X950209D01*
X965444Y4372353D02*
X970523D01*
X973062Y4369814D01*
Y4362196D01*
X965444D01*
X962905Y4364735D01*
X965444Y4367274D01*
X973062D01*
X978140Y4372353D02*
X983218Y4362196D01*
X988297Y4372353D01*
X1000993Y4362196D02*
X995914D01*
X993375Y4364735D01*
Y4369814D01*
X995914Y4372353D01*
X1000993D01*
X1003532Y4369814D01*
Y4367274D01*
X993375D01*
X1026384Y4362196D02*
Y4377431D01*
X1031463D02*
Y4362196D01*
X1023845Y4372353D02*
X1031463D01*
X1034002D01*
X1023845Y4367274D02*
X1034002D01*
X1049237Y4362196D02*
X1039080D01*
X1049237Y4372353D01*
Y4374892D01*
X1046698Y4377431D01*
X1041619D01*
X1039080Y4374892D01*
X259331D02*
X256791Y4377431D01*
X251713D01*
X249174Y4374892D01*
Y4372353D01*
X251713Y4369814D01*
X256791D01*
X259331Y4367274D01*
Y4364735D01*
X256791Y4362196D01*
X251713D01*
X249174Y4364735D01*
X264409Y4362196D02*
X269487D01*
X266948D01*
Y4377431D01*
X264409D01*
X279644Y4372353D02*
X284722D01*
X287262Y4369814D01*
Y4362196D01*
X279644D01*
X277105Y4364735D01*
X279644Y4367274D01*
X287262D01*
X292340Y4372353D02*
X297418Y4362196D01*
X302497Y4372353D01*
X315193Y4362196D02*
X310114D01*
X307575Y4364735D01*
Y4369814D01*
X310114Y4372353D01*
X315193D01*
X317732Y4369814D01*
Y4367274D01*
X307575D01*
X340584Y4362196D02*
Y4377431D01*
X345663D02*
Y4362196D01*
X338045Y4372353D02*
X345663D01*
X348202D01*
X338045Y4367274D02*
X348202D01*
X353280Y4362196D02*
X358359D01*
X355820D01*
Y4377431D01*
X353280Y4374892D01*
X3042920Y3806698D02*
Y3821933D01*
X3050537D01*
X3053077Y3819394D01*
Y3814315D01*
X3050537Y3811776D01*
X3042920D01*
X3047998D02*
X3053077Y3806698D01*
X3058155D02*
X3063233D01*
X3060694D01*
Y3821933D01*
X3058155Y3819394D01*
X3081008Y3821933D02*
X3075929Y3819394D01*
X3070851Y3814315D01*
Y3809237D01*
X3073390Y3806698D01*
X3078469D01*
X3081008Y3809237D01*
Y3811776D01*
X3078469Y3814315D01*
X3070851D01*
X2482856Y4196082D02*
Y4211317D01*
X2490474D01*
X2493013Y4208778D01*
Y4203700D01*
X2490474Y4201161D01*
X2482856D01*
X2487935D02*
X2493013Y4196082D01*
X2498091D02*
X2503170D01*
X2500630D01*
Y4211317D01*
X2498091Y4208778D01*
X2520944Y4211317D02*
X2510787D01*
Y4203700D01*
X2515865Y4206239D01*
X2518405D01*
X2520944Y4203700D01*
Y4198622D01*
X2518405Y4196082D01*
X2513326D01*
X2510787Y4198622D01*
X2178056Y4208782D02*
Y4224018D01*
X2185674D01*
X2188213Y4221478D01*
Y4216400D01*
X2185674Y4213861D01*
X2178056D01*
X2183134D02*
X2188213Y4208782D01*
X2193291D02*
X2198370D01*
X2195830D01*
Y4224018D01*
X2193291Y4221478D01*
X2213605Y4208782D02*
Y4224018D01*
X2205987Y4216400D01*
X2216144D01*
X2178056Y4234182D02*
Y4249417D01*
X2185674D01*
X2188213Y4246878D01*
Y4241800D01*
X2185674Y4239261D01*
X2178056D01*
X2183134D02*
X2188213Y4234182D01*
X2193291D02*
X2198370D01*
X2195830D01*
Y4249417D01*
X2193291Y4246878D01*
X2205987D02*
X2208526Y4249417D01*
X2213605D01*
X2216144Y4246878D01*
Y4244339D01*
X2213605Y4241800D01*
X2211066D01*
X2213605D01*
X2216144Y4239261D01*
Y4236722D01*
X2213605Y4234182D01*
X2208526D01*
X2205987Y4236722D01*
X1177295Y4221483D02*
Y4236718D01*
X1184913D01*
X1187452Y4234178D01*
Y4229100D01*
X1184913Y4226561D01*
X1177295D01*
X1182374D02*
X1187452Y4221483D01*
X1192530D02*
X1197609D01*
X1195070D01*
Y4236718D01*
X1192530Y4234178D01*
X1205226Y4221483D02*
X1210305D01*
X1207766D01*
Y4236718D01*
X1205226Y4234178D01*
X1174756Y4196082D02*
Y4211317D01*
X1182374D01*
X1184913Y4208778D01*
Y4203700D01*
X1182374Y4201161D01*
X1174756D01*
X1179835D02*
X1184913Y4196082D01*
X1189991D02*
X1195070D01*
X1192530D01*
Y4211317D01*
X1189991Y4208778D01*
X1202687D02*
X1205226Y4211317D01*
X1210305D01*
X1212844Y4208778D01*
Y4198622D01*
X1210305Y4196082D01*
X1205226D01*
X1202687Y4198622D01*
Y4208778D01*
X876304Y4196082D02*
Y4211317D01*
X883922D01*
X886461Y4208778D01*
Y4203700D01*
X883922Y4201161D01*
X876304D01*
X881383D02*
X886461Y4196082D01*
X891539Y4198622D02*
X894078Y4196082D01*
X899157D01*
X901696Y4198622D01*
Y4208778D01*
X899157Y4211317D01*
X894078D01*
X891539Y4208778D01*
Y4206239D01*
X894078Y4203700D01*
X901696D01*
X495304Y4196082D02*
Y4211317D01*
X502922D01*
X505461Y4208778D01*
Y4203700D01*
X502922Y4201161D01*
X495304D01*
X500382D02*
X505461Y4196082D01*
X520696Y4211317D02*
X515617Y4208778D01*
X510539Y4203700D01*
Y4198622D01*
X513078Y4196082D01*
X518157D01*
X520696Y4198622D01*
Y4201161D01*
X518157Y4203700D01*
X510539D01*
X495304Y4221483D02*
Y4236718D01*
X502922D01*
X505461Y4234178D01*
Y4229100D01*
X502922Y4226561D01*
X495304D01*
X500382D02*
X505461Y4221483D01*
X520696Y4236718D02*
X510539D01*
Y4229100D01*
X515617Y4231639D01*
X518157D01*
X520696Y4229100D01*
Y4224022D01*
X518157Y4221483D01*
X513078D01*
X510539Y4224022D01*
X495304Y4246883D02*
Y4262118D01*
X502922D01*
X505461Y4259578D01*
Y4254500D01*
X502922Y4251961D01*
X495304D01*
X500382D02*
X505461Y4246883D01*
X518157D02*
Y4262118D01*
X510539Y4254500D01*
X520696D01*
X203204Y4196082D02*
Y4211317D01*
X210822D01*
X213361Y4208778D01*
Y4203700D01*
X210822Y4201161D01*
X203204D01*
X208283D02*
X213361Y4196082D01*
X218439Y4208778D02*
X220978Y4211317D01*
X226057D01*
X228596Y4208778D01*
Y4206239D01*
X226057Y4203700D01*
X223517D01*
X226057D01*
X228596Y4201161D01*
Y4198622D01*
X226057Y4196082D01*
X220978D01*
X218439Y4198622D01*
X203204Y4221483D02*
Y4236718D01*
X210822D01*
X213361Y4234178D01*
Y4229100D01*
X210822Y4226561D01*
X203204D01*
X208283D02*
X213361Y4221483D01*
X228596D02*
X218439D01*
X228596Y4231639D01*
Y4234178D01*
X226057Y4236718D01*
X220978D01*
X218439Y4234178D01*
X205743Y4246883D02*
Y4262118D01*
X213361D01*
X215900Y4259578D01*
Y4254500D01*
X213361Y4251961D01*
X205743D01*
X210822D02*
X215900Y4246883D01*
X220978D02*
X226057D01*
X223518D01*
Y4262118D01*
X220978Y4259578D01*
X1805943Y3843022D02*
Y3853178D01*
X1803404Y3855717D01*
X1798326D01*
X1795787Y3853178D01*
Y3843022D01*
X1798326Y3840482D01*
X1803404D01*
X1800865Y3845561D02*
X1805943Y3840482D01*
X1803404D02*
X1805943Y3843022D01*
X1811022Y3853178D02*
X1813561Y3855717D01*
X1818639D01*
X1821178Y3853178D01*
Y3850639D01*
X1818639Y3848100D01*
X1816100D01*
X1818639D01*
X1821178Y3845561D01*
Y3843022D01*
X1818639Y3840482D01*
X1813561D01*
X1811022Y3843022D01*
X1836413Y3840482D02*
X1826257D01*
X1836413Y3850639D01*
Y3853178D01*
X1833874Y3855717D01*
X1828796D01*
X1826257Y3853178D01*
X754382Y3843022D02*
Y3853178D01*
X751843Y3855717D01*
X746765D01*
X744226Y3853178D01*
Y3843022D01*
X746765Y3840482D01*
X751843D01*
X749304Y3845561D02*
X754382Y3840482D01*
X751843D02*
X754382Y3843022D01*
X759461Y3853178D02*
X762000Y3855717D01*
X767078D01*
X769618Y3853178D01*
Y3850639D01*
X767078Y3848100D01*
X764539D01*
X767078D01*
X769618Y3845561D01*
Y3843022D01*
X767078Y3840482D01*
X762000D01*
X759461Y3843022D01*
X774696Y3840482D02*
X779774D01*
X777235D01*
Y3855717D01*
X774696Y3853178D01*
X2141222Y4036057D02*
X2151378D01*
X2153918Y4038596D01*
Y4043674D01*
X2151378Y4046213D01*
X2141222D01*
X2138683Y4043674D01*
Y4038596D01*
X2143761Y4041135D02*
X2138683Y4036057D01*
Y4038596D02*
X2141222Y4036057D01*
X2151378Y4030978D02*
X2153918Y4028439D01*
Y4023361D01*
X2151378Y4020822D01*
X2148839D01*
X2146300Y4023361D01*
Y4025900D01*
Y4023361D01*
X2143761Y4020822D01*
X2141222D01*
X2138683Y4023361D01*
Y4028439D01*
X2141222Y4030978D01*
X2151378Y4015743D02*
X2153918Y4013204D01*
Y4008126D01*
X2151378Y4005587D01*
X2141222D01*
X2138683Y4008126D01*
Y4013204D01*
X2141222Y4015743D01*
X2151378D01*
X2230122Y4036057D02*
X2240278D01*
X2242818Y4038596D01*
Y4043674D01*
X2240278Y4046213D01*
X2230122D01*
X2227583Y4043674D01*
Y4038596D01*
X2232661Y4041135D02*
X2227583Y4036057D01*
Y4038596D02*
X2230122Y4036057D01*
X2227583Y4020822D02*
Y4030978D01*
X2237739Y4020822D01*
X2240278D01*
X2242818Y4023361D01*
Y4028439D01*
X2240278Y4030978D01*
X2230122Y4015743D02*
X2227583Y4013204D01*
Y4008126D01*
X2230122Y4005587D01*
X2240278D01*
X2242818Y4008126D01*
Y4013204D01*
X2240278Y4015743D01*
X2237739D01*
X2235200Y4013204D01*
Y4005587D01*
X2319022Y4036057D02*
X2329178D01*
X2331718Y4038596D01*
Y4043674D01*
X2329178Y4046213D01*
X2319022D01*
X2316483Y4043674D01*
Y4038596D01*
X2321561Y4041135D02*
X2316483Y4036057D01*
Y4038596D02*
X2319022Y4036057D01*
X2316483Y4020822D02*
Y4030978D01*
X2326639Y4020822D01*
X2329178D01*
X2331718Y4023361D01*
Y4028439D01*
X2329178Y4030978D01*
Y4015743D02*
X2331718Y4013204D01*
Y4008126D01*
X2329178Y4005587D01*
X2326639D01*
X2324100Y4008126D01*
X2321561Y4005587D01*
X2319022D01*
X2316483Y4008126D01*
Y4013204D01*
X2319022Y4015743D01*
X2321561D01*
X2324100Y4013204D01*
X2326639Y4015743D01*
X2329178D01*
X2324100Y4013204D02*
Y4008126D01*
X2407922Y4036057D02*
X2418078D01*
X2420618Y4038596D01*
Y4043674D01*
X2418078Y4046213D01*
X2407922D01*
X2405383Y4043674D01*
Y4038596D01*
X2410461Y4041135D02*
X2405383Y4036057D01*
Y4038596D02*
X2407922Y4036057D01*
X2405383Y4020822D02*
Y4030978D01*
X2415539Y4020822D01*
X2418078D01*
X2420618Y4023361D01*
Y4028439D01*
X2418078Y4030978D01*
X2420618Y4015743D02*
Y4005587D01*
X2418078D01*
X2407922Y4015743D01*
X2405383D01*
X2496822Y4036057D02*
X2506978D01*
X2509518Y4038596D01*
Y4043674D01*
X2506978Y4046213D01*
X2496822D01*
X2494283Y4043674D01*
Y4038596D01*
X2499361Y4041135D02*
X2494283Y4036057D01*
Y4038596D02*
X2496822Y4036057D01*
X2494283Y4020822D02*
Y4030978D01*
X2504439Y4020822D01*
X2506978D01*
X2509518Y4023361D01*
Y4028439D01*
X2506978Y4030978D01*
X2509518Y4005587D02*
X2506978Y4010665D01*
X2501900Y4015743D01*
X2496822D01*
X2494283Y4013204D01*
Y4008126D01*
X2496822Y4005587D01*
X2499361D01*
X2501900Y4008126D01*
Y4015743D01*
X2585722Y4036057D02*
X2595878D01*
X2598417Y4038596D01*
Y4043674D01*
X2595878Y4046213D01*
X2585722D01*
X2583182Y4043674D01*
Y4038596D01*
X2588261Y4041135D02*
X2583182Y4036057D01*
Y4038596D02*
X2585722Y4036057D01*
X2583182Y4020822D02*
Y4030978D01*
X2593339Y4020822D01*
X2595878D01*
X2598417Y4023361D01*
Y4028439D01*
X2595878Y4030978D01*
X2598417Y4005587D02*
Y4015743D01*
X2590800D01*
X2593339Y4010665D01*
Y4008126D01*
X2590800Y4005587D01*
X2585722D01*
X2583182Y4008126D01*
Y4013204D01*
X2585722Y4015743D01*
X2674622Y4036057D02*
X2684778D01*
X2687318Y4038596D01*
Y4043674D01*
X2684778Y4046213D01*
X2674622D01*
X2672083Y4043674D01*
Y4038596D01*
X2677161Y4041135D02*
X2672083Y4036057D01*
Y4038596D02*
X2674622Y4036057D01*
X2672083Y4020822D02*
Y4030978D01*
X2682239Y4020822D01*
X2684778D01*
X2687318Y4023361D01*
Y4028439D01*
X2684778Y4030978D01*
X2672083Y4008126D02*
X2687318D01*
X2679700Y4015743D01*
Y4005587D01*
X795022Y4036057D02*
X805178D01*
X807718Y4038596D01*
Y4043674D01*
X805178Y4046213D01*
X795022D01*
X792483Y4043674D01*
Y4038596D01*
X797561Y4041135D02*
X792483Y4036057D01*
Y4038596D02*
X795022Y4036057D01*
X792483Y4020822D02*
Y4030978D01*
X802639Y4020822D01*
X805178D01*
X807718Y4023361D01*
Y4028439D01*
X805178Y4030978D01*
Y4015743D02*
X807718Y4013204D01*
Y4008126D01*
X805178Y4005587D01*
X802639D01*
X800100Y4008126D01*
Y4010665D01*
Y4008126D01*
X797561Y4005587D01*
X795022D01*
X792483Y4008126D01*
Y4013204D01*
X795022Y4015743D01*
X883922Y4036057D02*
X894078D01*
X896618Y4038596D01*
Y4043674D01*
X894078Y4046213D01*
X883922D01*
X881383Y4043674D01*
Y4038596D01*
X886461Y4041135D02*
X881383Y4036057D01*
Y4038596D02*
X883922Y4036057D01*
X881383Y4020822D02*
Y4030978D01*
X891539Y4020822D01*
X894078D01*
X896618Y4023361D01*
Y4028439D01*
X894078Y4030978D01*
X881383Y4005587D02*
Y4015743D01*
X891539Y4005587D01*
X894078D01*
X896618Y4008126D01*
Y4013204D01*
X894078Y4015743D01*
X972822Y4033517D02*
X982978D01*
X985518Y4036057D01*
Y4041135D01*
X982978Y4043674D01*
X972822D01*
X970283Y4041135D01*
Y4036057D01*
X975361Y4038596D02*
X970283Y4033517D01*
Y4036057D02*
X972822Y4033517D01*
X970283Y4018282D02*
Y4028439D01*
X980439Y4018282D01*
X982978D01*
X985518Y4020822D01*
Y4025900D01*
X982978Y4028439D01*
X970283Y4013204D02*
Y4008126D01*
Y4010665D01*
X985518D01*
X982978Y4013204D01*
X1061722Y4036057D02*
X1071878D01*
X1074417Y4038596D01*
Y4043674D01*
X1071878Y4046213D01*
X1061722D01*
X1059183Y4043674D01*
Y4038596D01*
X1064261Y4041135D02*
X1059183Y4036057D01*
Y4038596D02*
X1061722Y4036057D01*
X1059183Y4020822D02*
Y4030978D01*
X1069339Y4020822D01*
X1071878D01*
X1074417Y4023361D01*
Y4028439D01*
X1071878Y4030978D01*
Y4015743D02*
X1074417Y4013204D01*
Y4008126D01*
X1071878Y4005587D01*
X1061722D01*
X1059183Y4008126D01*
Y4013204D01*
X1061722Y4015743D01*
X1071878D01*
X1150622Y4034787D02*
X1160778D01*
X1163317Y4037326D01*
Y4042404D01*
X1160778Y4044944D01*
X1150622D01*
X1148083Y4042404D01*
Y4037326D01*
X1153161Y4039865D02*
X1148083Y4034787D01*
Y4037326D02*
X1150622Y4034787D01*
X1148083Y4029709D02*
Y4024630D01*
Y4027169D01*
X1163317D01*
X1160778Y4029709D01*
X1150622Y4017013D02*
X1148083Y4014474D01*
Y4009395D01*
X1150622Y4006856D01*
X1160778D01*
X1163317Y4009395D01*
Y4014474D01*
X1160778Y4017013D01*
X1158239D01*
X1155700Y4014474D01*
Y4006856D01*
X1239522Y4034787D02*
X1249678D01*
X1252217Y4037326D01*
Y4042404D01*
X1249678Y4044944D01*
X1239522D01*
X1236982Y4042404D01*
Y4037326D01*
X1242061Y4039865D02*
X1236982Y4034787D01*
Y4037326D02*
X1239522Y4034787D01*
X1236982Y4029709D02*
Y4024630D01*
Y4027169D01*
X1252217D01*
X1249678Y4029709D01*
Y4017013D02*
X1252217Y4014474D01*
Y4009395D01*
X1249678Y4006856D01*
X1247139D01*
X1244600Y4009395D01*
X1242061Y4006856D01*
X1239522D01*
X1236982Y4009395D01*
Y4014474D01*
X1239522Y4017013D01*
X1242061D01*
X1244600Y4014474D01*
X1247139Y4017013D01*
X1249678D01*
X1244600Y4014474D02*
Y4009395D01*
X1328422Y4034787D02*
X1338578D01*
X1341118Y4037326D01*
Y4042404D01*
X1338578Y4044944D01*
X1328422D01*
X1325883Y4042404D01*
Y4037326D01*
X1330961Y4039865D02*
X1325883Y4034787D01*
Y4037326D02*
X1328422Y4034787D01*
X1325883Y4029709D02*
Y4024630D01*
Y4027169D01*
X1341118D01*
X1338578Y4029709D01*
X1341118Y4017013D02*
Y4006856D01*
X1338578D01*
X1328422Y4017013D01*
X1325883D01*
X257813Y3843022D02*
Y3853178D01*
X255274Y3855717D01*
X250195D01*
X247656Y3853178D01*
Y3843022D01*
X250195Y3840482D01*
X255274D01*
X252735Y3845561D02*
X257813Y3840482D01*
X255274D02*
X257813Y3843022D01*
X262891Y3840482D02*
X267970D01*
X265430D01*
Y3855717D01*
X262891Y3853178D01*
X285744Y3855717D02*
X280665Y3853178D01*
X275587Y3848100D01*
Y3843022D01*
X278126Y3840482D01*
X283205D01*
X285744Y3843022D01*
Y3845561D01*
X283205Y3848100D01*
X275587D01*
X1273813Y3843022D02*
Y3853178D01*
X1271274Y3855717D01*
X1266195D01*
X1263656Y3853178D01*
Y3843022D01*
X1266195Y3840482D01*
X1271274D01*
X1268735Y3845561D02*
X1273813Y3840482D01*
X1271274D02*
X1273813Y3843022D01*
X1278891Y3840482D02*
X1283970D01*
X1281430D01*
Y3855717D01*
X1278891Y3853178D01*
X1301744Y3855717D02*
X1291587D01*
Y3848100D01*
X1296665Y3850639D01*
X1299205D01*
X1301744Y3848100D01*
Y3843022D01*
X1299205Y3840482D01*
X1294126D01*
X1291587Y3843022D01*
X147322Y4034787D02*
X157478D01*
X160018Y4037326D01*
Y4042404D01*
X157478Y4044944D01*
X147322D01*
X144782Y4042404D01*
Y4037326D01*
X149861Y4039865D02*
X144782Y4034787D01*
Y4037326D02*
X147322Y4034787D01*
X144782Y4029709D02*
Y4024630D01*
Y4027169D01*
X160018D01*
X157478Y4029709D01*
X144782Y4009395D02*
X160018D01*
X152400Y4017013D01*
Y4006856D01*
X236222Y4034787D02*
X246378D01*
X248918Y4037326D01*
Y4042404D01*
X246378Y4044944D01*
X236222D01*
X233682Y4042404D01*
Y4037326D01*
X238761Y4039865D02*
X233682Y4034787D01*
Y4037326D02*
X236222Y4034787D01*
X233682Y4029709D02*
Y4024630D01*
Y4027169D01*
X248918D01*
X246378Y4029709D01*
Y4017013D02*
X248918Y4014474D01*
Y4009395D01*
X246378Y4006856D01*
X243839D01*
X241300Y4009395D01*
Y4011935D01*
Y4009395D01*
X238761Y4006856D01*
X236222D01*
X233682Y4009395D01*
Y4014474D01*
X236222Y4017013D01*
X325122Y4034787D02*
X335278D01*
X337817Y4037326D01*
Y4042404D01*
X335278Y4044944D01*
X325122D01*
X322583Y4042404D01*
Y4037326D01*
X327661Y4039865D02*
X322583Y4034787D01*
Y4037326D02*
X325122Y4034787D01*
X322583Y4029709D02*
Y4024630D01*
Y4027169D01*
X337817D01*
X335278Y4029709D01*
X322583Y4006856D02*
Y4017013D01*
X332739Y4006856D01*
X335278D01*
X337817Y4009395D01*
Y4014474D01*
X335278Y4017013D01*
X414022Y4032248D02*
X424178D01*
X426717Y4034787D01*
Y4039865D01*
X424178Y4042404D01*
X414022D01*
X411483Y4039865D01*
Y4034787D01*
X416561Y4037326D02*
X411483Y4032248D01*
Y4034787D02*
X414022Y4032248D01*
X411483Y4027169D02*
Y4022091D01*
Y4024630D01*
X426717D01*
X424178Y4027169D01*
X411483Y4014474D02*
Y4009395D01*
Y4011935D01*
X426717D01*
X424178Y4014474D01*
X490222Y4034787D02*
X500378D01*
X502918Y4037326D01*
Y4042404D01*
X500378Y4044944D01*
X490222D01*
X487682Y4042404D01*
Y4037326D01*
X492761Y4039865D02*
X487682Y4034787D01*
Y4037326D02*
X490222Y4034787D01*
X487682Y4029709D02*
Y4024630D01*
Y4027169D01*
X502918D01*
X500378Y4029709D01*
Y4017013D02*
X502918Y4014474D01*
Y4009395D01*
X500378Y4006856D01*
X490222D01*
X487682Y4009395D01*
Y4014474D01*
X490222Y4017013D01*
X500378D01*
X566422Y4028439D02*
X576578D01*
X579118Y4030978D01*
Y4036057D01*
X576578Y4038596D01*
X566422D01*
X563882Y4036057D01*
Y4030978D01*
X568961Y4033517D02*
X563882Y4028439D01*
Y4030978D02*
X566422Y4028439D01*
Y4023361D02*
X563882Y4020822D01*
Y4015743D01*
X566422Y4013204D01*
X576578D01*
X579118Y4015743D01*
Y4020822D01*
X576578Y4023361D01*
X574039D01*
X571500Y4020822D01*
Y4013204D01*
X642622Y4028439D02*
X652778D01*
X655318Y4030978D01*
Y4036057D01*
X652778Y4038596D01*
X642622D01*
X640082Y4036057D01*
Y4030978D01*
X645161Y4033517D02*
X640082Y4028439D01*
Y4030978D02*
X642622Y4028439D01*
X652778Y4023361D02*
X655318Y4020822D01*
Y4015743D01*
X652778Y4013204D01*
X650239D01*
X647700Y4015743D01*
X645161Y4013204D01*
X642622D01*
X640082Y4015743D01*
Y4020822D01*
X642622Y4023361D01*
X645161D01*
X647700Y4020822D01*
X650239Y4023361D01*
X652778D01*
X647700Y4020822D02*
Y4015743D01*
X1468122Y4028439D02*
X1478278D01*
X1480818Y4030978D01*
Y4036057D01*
X1478278Y4038596D01*
X1468122D01*
X1465582Y4036057D01*
Y4030978D01*
X1470661Y4033517D02*
X1465582Y4028439D01*
Y4030978D02*
X1468122Y4028439D01*
X1480818Y4023361D02*
Y4013204D01*
X1478278D01*
X1468122Y4023361D01*
X1465582D01*
X1557022Y4028439D02*
X1567178D01*
X1569718Y4030978D01*
Y4036057D01*
X1567178Y4038596D01*
X1557022D01*
X1554483Y4036057D01*
Y4030978D01*
X1559561Y4033517D02*
X1554483Y4028439D01*
Y4030978D02*
X1557022Y4028439D01*
X1569718Y4013204D02*
X1567178Y4018282D01*
X1562100Y4023361D01*
X1557022D01*
X1554483Y4020822D01*
Y4015743D01*
X1557022Y4013204D01*
X1559561D01*
X1562100Y4015743D01*
Y4023361D01*
X1645922Y4028439D02*
X1656078D01*
X1658618Y4030978D01*
Y4036057D01*
X1656078Y4038596D01*
X1645922D01*
X1643383Y4036057D01*
Y4030978D01*
X1648461Y4033517D02*
X1643383Y4028439D01*
Y4030978D02*
X1645922Y4028439D01*
X1658618Y4013204D02*
Y4023361D01*
X1651000D01*
X1653539Y4018282D01*
Y4015743D01*
X1651000Y4013204D01*
X1645922D01*
X1643383Y4015743D01*
Y4020822D01*
X1645922Y4023361D01*
X1734822Y4028439D02*
X1744978D01*
X1747518Y4030978D01*
Y4036057D01*
X1744978Y4038596D01*
X1734822D01*
X1732283Y4036057D01*
Y4030978D01*
X1737361Y4033517D02*
X1732283Y4028439D01*
Y4030978D02*
X1734822Y4028439D01*
X1732283Y4015743D02*
X1747518D01*
X1739900Y4023361D01*
Y4013204D01*
X1823722Y4028439D02*
X1833878D01*
X1836418Y4030978D01*
Y4036057D01*
X1833878Y4038596D01*
X1823722D01*
X1821183Y4036057D01*
Y4030978D01*
X1826261Y4033517D02*
X1821183Y4028439D01*
Y4030978D02*
X1823722Y4028439D01*
X1833878Y4023361D02*
X1836418Y4020822D01*
Y4015743D01*
X1833878Y4013204D01*
X1831339D01*
X1828800Y4015743D01*
Y4018282D01*
Y4015743D01*
X1826261Y4013204D01*
X1823722D01*
X1821183Y4015743D01*
Y4020822D01*
X1823722Y4023361D01*
X1912622Y4028439D02*
X1922778D01*
X1925318Y4030978D01*
Y4036057D01*
X1922778Y4038596D01*
X1912622D01*
X1910083Y4036057D01*
Y4030978D01*
X1915161Y4033517D02*
X1910083Y4028439D01*
Y4030978D02*
X1912622Y4028439D01*
X1910083Y4013204D02*
Y4023361D01*
X1920239Y4013204D01*
X1922778D01*
X1925318Y4015743D01*
Y4020822D01*
X1922778Y4023361D01*
X2001522Y4025900D02*
X2011678D01*
X2014218Y4028439D01*
Y4033517D01*
X2011678Y4036057D01*
X2001522D01*
X1998983Y4033517D01*
Y4028439D01*
X2004061Y4030978D02*
X1998983Y4025900D01*
Y4028439D02*
X2001522Y4025900D01*
X1998983Y4020822D02*
Y4015743D01*
Y4018282D01*
X2014218D01*
X2011678Y4020822D01*
X2198370Y953765D02*
Y938530D01*
Y943608D01*
X2208527Y953765D01*
X2200909Y946148D01*
X2208527Y938530D01*
X2223762D02*
X2213605D01*
X2223762Y948687D01*
Y951226D01*
X2221223Y953765D01*
X2216144D01*
X2213605Y951226D01*
X2236458Y938530D02*
Y953765D01*
X2228840Y946148D01*
X2238997D01*
X2151387Y3664456D02*
Y3649221D01*
Y3654299D01*
X2161543Y3664456D01*
X2153926Y3656838D01*
X2161543Y3649221D01*
X2176778D02*
X2166622D01*
X2176778Y3659377D01*
Y3661916D01*
X2174239Y3664456D01*
X2169161D01*
X2166622Y3661916D01*
X2181857D02*
X2184396Y3664456D01*
X2189474D01*
X2192013Y3661916D01*
Y3659377D01*
X2189474Y3656838D01*
X2186935D01*
X2189474D01*
X2192013Y3654299D01*
Y3651760D01*
X2189474Y3649221D01*
X2184396D01*
X2181857Y3651760D01*
X2203196Y2781803D02*
Y2766568D01*
Y2771646D01*
X2213353Y2781803D01*
X2205735Y2774185D01*
X2213353Y2766568D01*
X2228588D02*
X2218431D01*
X2228588Y2776725D01*
Y2779264D01*
X2226049Y2781803D01*
X2220970D01*
X2218431Y2779264D01*
X2243823Y2766568D02*
X2233666D01*
X2243823Y2776725D01*
Y2779264D01*
X2241284Y2781803D01*
X2236205D01*
X2233666Y2779264D01*
X2203196Y1867403D02*
Y1852168D01*
Y1857246D01*
X2213353Y1867403D01*
X2205735Y1859785D01*
X2213353Y1852168D01*
X2228588D02*
X2218431D01*
X2228588Y1862325D01*
Y1864864D01*
X2226049Y1867403D01*
X2220970D01*
X2218431Y1864864D01*
X2233666Y1852168D02*
X2238745D01*
X2236205D01*
Y1867403D01*
X2233666Y1864864D01*
X2164087Y439417D02*
Y424183D01*
Y429261D01*
X2174243Y439417D01*
X2166626Y431800D01*
X2174243Y424183D01*
X2189478D02*
X2179322D01*
X2189478Y434339D01*
Y436878D01*
X2186939Y439417D01*
X2181861D01*
X2179322Y436878D01*
X2194557D02*
X2197096Y439417D01*
X2202174D01*
X2204713Y436878D01*
Y426722D01*
X2202174Y424183D01*
X2197096D01*
X2194557Y426722D01*
Y436878D01*
X2152656Y2268217D02*
Y2252982D01*
Y2258061D01*
X2162813Y2268217D01*
X2155195Y2260600D01*
X2162813Y2252982D01*
X2167891D02*
X2172970D01*
X2170430D01*
Y2268217D01*
X2167891Y2265678D01*
X2180587Y2255522D02*
X2183126Y2252982D01*
X2188205D01*
X2190744Y2255522D01*
Y2265678D01*
X2188205Y2268217D01*
X2183126D01*
X2180587Y2265678D01*
Y2263139D01*
X2183126Y2260600D01*
X2190744D01*
X2165356Y1366517D02*
Y1351283D01*
Y1356361D01*
X2175513Y1366517D01*
X2167895Y1358900D01*
X2175513Y1351283D01*
X2180591D02*
X2185670D01*
X2183130D01*
Y1366517D01*
X2180591Y1363978D01*
X2193287D02*
X2195826Y1366517D01*
X2200905D01*
X2203444Y1363978D01*
Y1361439D01*
X2200905Y1358900D01*
X2203444Y1356361D01*
Y1353822D01*
X2200905Y1351283D01*
X2195826D01*
X2193287Y1353822D01*
Y1356361D01*
X2195826Y1358900D01*
X2193287Y1361439D01*
Y1363978D01*
X2195826Y1358900D02*
X2200905D01*
X2165356Y3193794D02*
Y3178558D01*
Y3183637D01*
X2175513Y3193794D01*
X2167895Y3186176D01*
X2175513Y3178558D01*
X2180591D02*
X2185670D01*
X2183130D01*
Y3193794D01*
X2180591Y3191254D01*
X2193287Y3193794D02*
X2203444D01*
Y3191254D01*
X2193287Y3181098D01*
Y3178558D01*
X1663192Y1682999D02*
Y1667764D01*
Y1672842D01*
X1673349Y1682999D01*
X1665731Y1675381D01*
X1673349Y1667764D01*
X1678427D02*
X1683505D01*
X1680966D01*
Y1682999D01*
X1678427Y1680460D01*
X1701280Y1682999D02*
X1696201Y1680460D01*
X1691123Y1675381D01*
Y1670303D01*
X1693662Y1667764D01*
X1698741D01*
X1701280Y1670303D01*
Y1672842D01*
X1698741Y1675381D01*
X1691123D01*
X1682756Y744218D02*
Y728982D01*
Y734061D01*
X1692913Y744218D01*
X1685295Y736600D01*
X1692913Y728982D01*
X1697991D02*
X1703070D01*
X1700530D01*
Y744218D01*
X1697991Y741678D01*
X1720844Y744218D02*
X1710687D01*
Y736600D01*
X1715766Y739139D01*
X1718305D01*
X1720844Y736600D01*
Y731522D01*
X1718305Y728982D01*
X1713226D01*
X1710687Y731522D01*
X1682756Y3474717D02*
Y3459482D01*
Y3464561D01*
X1692913Y3474717D01*
X1685295Y3467100D01*
X1692913Y3459482D01*
X1697991D02*
X1703070D01*
X1700530D01*
Y3474717D01*
X1697991Y3472178D01*
X1718305Y3459482D02*
Y3474717D01*
X1710687Y3467100D01*
X1720844D01*
X1658118Y2577716D02*
Y2562481D01*
Y2567560D01*
X1668275Y2577716D01*
X1660657Y2570099D01*
X1668275Y2562481D01*
X1673353D02*
X1678432D01*
X1675892D01*
Y2577716D01*
X1673353Y2575177D01*
X1686049D02*
X1688588Y2577716D01*
X1693667D01*
X1696206Y2575177D01*
Y2572638D01*
X1693667Y2570099D01*
X1691127D01*
X1693667D01*
X1696206Y2567560D01*
Y2565021D01*
X1693667Y2562481D01*
X1688588D01*
X1686049Y2565021D01*
X1193292Y1682999D02*
Y1667764D01*
Y1672842D01*
X1203449Y1682999D01*
X1195831Y1675381D01*
X1203449Y1667764D01*
X1208527D02*
X1213605D01*
X1211066D01*
Y1682999D01*
X1208527Y1680460D01*
X1231380Y1667764D02*
X1221223D01*
X1231380Y1677921D01*
Y1680460D01*
X1228840Y1682999D01*
X1223762D01*
X1221223Y1680460D01*
X1189995Y3462018D02*
Y3446783D01*
Y3451861D01*
X1200152Y3462018D01*
X1192534Y3454400D01*
X1200152Y3446783D01*
X1205230D02*
X1210309D01*
X1207770D01*
Y3462018D01*
X1205230Y3459478D01*
X1217926Y3446783D02*
X1223005D01*
X1220465D01*
Y3462018D01*
X1217926Y3459478D01*
X1276356Y744218D02*
Y728982D01*
Y734061D01*
X1286513Y744218D01*
X1278895Y736600D01*
X1286513Y728982D01*
X1291591D02*
X1296670D01*
X1294130D01*
Y744218D01*
X1291591Y741678D01*
X1304287D02*
X1306826Y744218D01*
X1311905D01*
X1314444Y741678D01*
Y731522D01*
X1311905Y728982D01*
X1306826D01*
X1304287Y731522D01*
Y741678D01*
X1219204Y2585717D02*
Y2570482D01*
Y2575561D01*
X1229361Y2585717D01*
X1221743Y2578100D01*
X1229361Y2570482D01*
X1234439Y2573022D02*
X1236978Y2570482D01*
X1242057D01*
X1244596Y2573022D01*
Y2583178D01*
X1242057Y2585717D01*
X1236978D01*
X1234439Y2583178D01*
Y2580639D01*
X1236978Y2578100D01*
X1244596D01*
X722630Y748025D02*
Y732790D01*
Y737868D01*
X732787Y748025D01*
X725169Y740407D01*
X732787Y732790D01*
X737865Y745486D02*
X740404Y748025D01*
X745483D01*
X748022Y745486D01*
Y742947D01*
X745483Y740407D01*
X748022Y737868D01*
Y735329D01*
X745483Y732790D01*
X740404D01*
X737865Y735329D01*
Y737868D01*
X740404Y740407D01*
X737865Y742947D01*
Y745486D01*
X740404Y740407D02*
X745483D01*
X812804Y1684017D02*
Y1668783D01*
Y1673861D01*
X822961Y1684017D01*
X815343Y1676400D01*
X822961Y1668783D01*
X828039Y1684017D02*
X838196D01*
Y1681478D01*
X828039Y1671322D01*
Y1668783D01*
X722630Y2589525D02*
Y2574290D01*
Y2579368D01*
X732787Y2589525D01*
X725169Y2581907D01*
X732787Y2574290D01*
X748022Y2589525D02*
X742943Y2586986D01*
X737865Y2581907D01*
Y2576829D01*
X740404Y2574290D01*
X745483D01*
X748022Y2576829D01*
Y2579368D01*
X745483Y2581907D01*
X737865D01*
X722630Y3478525D02*
Y3463290D01*
Y3468368D01*
X732787Y3478525D01*
X725169Y3470908D01*
X732787Y3463290D01*
X748022Y3478525D02*
X737865D01*
Y3470908D01*
X742943Y3473447D01*
X745483D01*
X748022Y3470908D01*
Y3465829D01*
X745483Y3463290D01*
X740404D01*
X737865Y3465829D01*
X309626Y693669D02*
Y678434D01*
Y683512D01*
X319783Y693669D01*
X312165Y686051D01*
X319783Y678434D01*
X332479D02*
Y693669D01*
X324861Y686051D01*
X335018D01*
X309626Y1633469D02*
Y1618234D01*
Y1623312D01*
X319783Y1633469D01*
X312165Y1625851D01*
X319783Y1618234D01*
X324861Y1630930D02*
X327400Y1633469D01*
X332479D01*
X335018Y1630930D01*
Y1628391D01*
X332479Y1625851D01*
X329939D01*
X332479D01*
X335018Y1623312D01*
Y1620773D01*
X332479Y1618234D01*
X327400D01*
X324861Y1620773D01*
X309626Y2548123D02*
Y2532888D01*
Y2537966D01*
X319783Y2548123D01*
X312165Y2540506D01*
X319783Y2532888D01*
X335018D02*
X324861D01*
X335018Y2543045D01*
Y2545584D01*
X332479Y2548123D01*
X327400D01*
X324861Y2545584D01*
X2935983Y3725159D02*
X2930904D01*
X2933444D01*
Y3712463D01*
X2930904Y3709924D01*
X2928365D01*
X2925826Y3712463D01*
X2941061Y3722620D02*
X2943600Y3725159D01*
X2948679D01*
X2951218Y3722620D01*
Y3720081D01*
X2948679Y3717542D01*
X2951218Y3715002D01*
Y3712463D01*
X2948679Y3709924D01*
X2943600D01*
X2941061Y3712463D01*
Y3715002D01*
X2943600Y3717542D01*
X2941061Y3720081D01*
Y3722620D01*
X2943600Y3717542D02*
X2948679D01*
X2935983Y3979159D02*
X2930904D01*
X2933444D01*
Y3966463D01*
X2930904Y3963924D01*
X2928365D01*
X2925826Y3966463D01*
X2951218Y3979159D02*
X2946140Y3976620D01*
X2941061Y3971541D01*
Y3966463D01*
X2943600Y3963924D01*
X2948679D01*
X2951218Y3966463D01*
Y3969002D01*
X2948679Y3971541D01*
X2941061D01*
X2938269Y1714749D02*
X2933190D01*
X2935729D01*
Y1702053D01*
X2933190Y1699514D01*
X2930651D01*
X2928112Y1702053D01*
X2953504Y1714749D02*
X2943347D01*
Y1707132D01*
X2948425Y1709671D01*
X2950965D01*
X2953504Y1707132D01*
Y1702053D01*
X2950965Y1699514D01*
X2945886D01*
X2943347Y1702053D01*
X2938269Y774949D02*
X2933190D01*
X2935729D01*
Y762253D01*
X2933190Y759714D01*
X2930651D01*
X2928112Y762253D01*
X2950965Y759714D02*
Y774949D01*
X2943347Y767331D01*
X2953504D01*
X251461Y1950717D02*
X246383D01*
X248922D01*
Y1938022D01*
X246383Y1935482D01*
X243843D01*
X241304Y1938022D01*
X256539Y1948178D02*
X259078Y1950717D01*
X264157D01*
X266696Y1948178D01*
Y1945639D01*
X264157Y1943100D01*
X261618D01*
X264157D01*
X266696Y1940561D01*
Y1938022D01*
X264157Y1935482D01*
X259078D01*
X256539Y1938022D01*
X2938269Y3518149D02*
X2933190D01*
X2935729D01*
Y3505453D01*
X2933190Y3502914D01*
X2930651D01*
X2928112Y3505453D01*
X2953504Y3502914D02*
X2943347D01*
X2953504Y3513071D01*
Y3515610D01*
X2950965Y3518149D01*
X2945886D01*
X2943347Y3515610D01*
X2938269Y2667249D02*
X2933190D01*
X2935729D01*
Y2654553D01*
X2933190Y2652014D01*
X2930651D01*
X2928112Y2654553D01*
X2943347Y2652014D02*
X2948425D01*
X2945886D01*
Y2667249D01*
X2943347Y2664710D01*
X1681985Y3740146D02*
X1679445Y3742685D01*
X1674367D01*
X1671828Y3740146D01*
Y3729989D01*
X1674367Y3727450D01*
X1679445D01*
X1681985Y3729989D01*
X1687063Y3727450D02*
Y3742685D01*
X1694681D01*
X1697220Y3740146D01*
Y3735067D01*
X1694681Y3732528D01*
X1687063D01*
X1692141D02*
X1697220Y3727450D01*
X1712455D02*
X1702298D01*
X1712455Y3737607D01*
Y3740146D01*
X1709916Y3742685D01*
X1704837D01*
X1702298Y3740146D01*
X1717533D02*
X1720072Y3742685D01*
X1725151D01*
X1727690Y3740146D01*
Y3737607D01*
X1725151Y3735067D01*
X1727690Y3732528D01*
Y3729989D01*
X1725151Y3727450D01*
X1720072D01*
X1717533Y3729989D01*
Y3732528D01*
X1720072Y3735067D01*
X1717533Y3737607D01*
Y3740146D01*
X1720072Y3735067D02*
X1725151D01*
X1755645Y3740146D02*
X1753105Y3742685D01*
X1748027D01*
X1745488Y3740146D01*
Y3729989D01*
X1748027Y3727450D01*
X1753105D01*
X1755645Y3729989D01*
X1760723Y3727450D02*
Y3742685D01*
X1768341D01*
X1770880Y3740146D01*
Y3735067D01*
X1768341Y3732528D01*
X1760723D01*
X1765801D02*
X1770880Y3727450D01*
X1786115D02*
X1775958D01*
X1786115Y3737607D01*
Y3740146D01*
X1783576Y3742685D01*
X1778497D01*
X1775958Y3740146D01*
X1791193Y3742685D02*
X1801350D01*
Y3740146D01*
X1791193Y3729989D01*
Y3727450D01*
X1836925Y3741416D02*
X1834386Y3743955D01*
X1829307D01*
X1826768Y3741416D01*
Y3731259D01*
X1829307Y3728720D01*
X1834386D01*
X1836925Y3731259D01*
X1842003Y3728720D02*
Y3743955D01*
X1849621D01*
X1852160Y3741416D01*
Y3736338D01*
X1849621Y3733798D01*
X1842003D01*
X1847081D02*
X1852160Y3728720D01*
X1867395D02*
X1857238D01*
X1867395Y3738877D01*
Y3741416D01*
X1864856Y3743955D01*
X1859777D01*
X1857238Y3741416D01*
X1882630Y3743955D02*
X1877552Y3741416D01*
X1872473Y3736338D01*
Y3731259D01*
X1875012Y3728720D01*
X1880091D01*
X1882630Y3731259D01*
Y3733798D01*
X1880091Y3736338D01*
X1872473D01*
X1902965Y3740146D02*
X1900426Y3742685D01*
X1895347D01*
X1892808Y3740146D01*
Y3729989D01*
X1895347Y3727450D01*
X1900426D01*
X1902965Y3729989D01*
X1908043Y3727450D02*
Y3742685D01*
X1915661D01*
X1918200Y3740146D01*
Y3735067D01*
X1915661Y3732528D01*
X1908043D01*
X1913121D02*
X1918200Y3727450D01*
X1933435D02*
X1923278D01*
X1933435Y3737607D01*
Y3740146D01*
X1930896Y3742685D01*
X1925817D01*
X1923278Y3740146D01*
X1948670Y3742685D02*
X1938513D01*
Y3735067D01*
X1943592Y3737607D01*
X1946131D01*
X1948670Y3735067D01*
Y3729989D01*
X1946131Y3727450D01*
X1941052D01*
X1938513Y3729989D01*
X1976625Y3740146D02*
X1974086Y3742685D01*
X1969007D01*
X1966468Y3740146D01*
Y3729989D01*
X1969007Y3727450D01*
X1974086D01*
X1976625Y3729989D01*
X1981703Y3727450D02*
Y3742685D01*
X1989321D01*
X1991860Y3740146D01*
Y3735067D01*
X1989321Y3732528D01*
X1981703D01*
X1986781D02*
X1991860Y3727450D01*
X2007095D02*
X1996938D01*
X2007095Y3737607D01*
Y3740146D01*
X2004556Y3742685D01*
X1999477D01*
X1996938Y3740146D01*
X2019791Y3727450D02*
Y3742685D01*
X2012173Y3735067D01*
X2022330D01*
X2050285Y3740146D02*
X2047746Y3742685D01*
X2042667D01*
X2040128Y3740146D01*
Y3729989D01*
X2042667Y3727450D01*
X2047746D01*
X2050285Y3729989D01*
X2055363Y3727450D02*
Y3742685D01*
X2062981D01*
X2065520Y3740146D01*
Y3735067D01*
X2062981Y3732528D01*
X2055363D01*
X2060441D02*
X2065520Y3727450D01*
X2080755D02*
X2070598D01*
X2080755Y3737607D01*
Y3740146D01*
X2078216Y3742685D01*
X2073137D01*
X2070598Y3740146D01*
X2085833D02*
X2088372Y3742685D01*
X2093451D01*
X2095990Y3740146D01*
Y3737607D01*
X2093451Y3735067D01*
X2090912D01*
X2093451D01*
X2095990Y3732528D01*
Y3729989D01*
X2093451Y3727450D01*
X2088372D01*
X2085833Y3729989D01*
X2123945Y3740146D02*
X2121405Y3742685D01*
X2116327D01*
X2113788Y3740146D01*
Y3729989D01*
X2116327Y3727450D01*
X2121405D01*
X2123945Y3729989D01*
X2129023Y3727450D02*
Y3742685D01*
X2136641D01*
X2139180Y3740146D01*
Y3735067D01*
X2136641Y3732528D01*
X2129023D01*
X2134101D02*
X2139180Y3727450D01*
X2154415D02*
X2144258D01*
X2154415Y3737607D01*
Y3740146D01*
X2151876Y3742685D01*
X2146797D01*
X2144258Y3740146D01*
X2169650Y3727450D02*
X2159493D01*
X2169650Y3737607D01*
Y3740146D01*
X2167111Y3742685D01*
X2162032D01*
X2159493Y3740146D01*
X1151125D02*
X1148586Y3742685D01*
X1143507D01*
X1140968Y3740146D01*
Y3729989D01*
X1143507Y3727450D01*
X1148586D01*
X1151125Y3729989D01*
X1156203Y3727450D02*
Y3742685D01*
X1163821D01*
X1166360Y3740146D01*
Y3735067D01*
X1163821Y3732528D01*
X1156203D01*
X1161281D02*
X1166360Y3727450D01*
X1181595D02*
X1171438D01*
X1181595Y3737607D01*
Y3740146D01*
X1179056Y3742685D01*
X1173977D01*
X1171438Y3740146D01*
X1186673Y3727450D02*
X1191752D01*
X1189212D01*
Y3742685D01*
X1186673Y3740146D01*
X1224785D02*
X1222245Y3742685D01*
X1217167D01*
X1214628Y3740146D01*
Y3729989D01*
X1217167Y3727450D01*
X1222245D01*
X1224785Y3729989D01*
X1229863Y3727450D02*
Y3742685D01*
X1237481D01*
X1240020Y3740146D01*
Y3735067D01*
X1237481Y3732528D01*
X1229863D01*
X1234941D02*
X1240020Y3727450D01*
X1255255D02*
X1245098D01*
X1255255Y3737607D01*
Y3740146D01*
X1252716Y3742685D01*
X1247637D01*
X1245098Y3740146D01*
X1260333D02*
X1262872Y3742685D01*
X1267951D01*
X1270490Y3740146D01*
Y3729989D01*
X1267951Y3727450D01*
X1262872D01*
X1260333Y3729989D01*
Y3740146D01*
X1295905D02*
X1293365Y3742685D01*
X1288287D01*
X1285748Y3740146D01*
Y3729989D01*
X1288287Y3727450D01*
X1293365D01*
X1295905Y3729989D01*
X1300983Y3727450D02*
Y3742685D01*
X1308601D01*
X1311140Y3740146D01*
Y3735067D01*
X1308601Y3732528D01*
X1300983D01*
X1306061D02*
X1311140Y3727450D01*
X1316218D02*
X1321297D01*
X1318757D01*
Y3742685D01*
X1316218Y3740146D01*
X1328914Y3729989D02*
X1331453Y3727450D01*
X1336532D01*
X1339071Y3729989D01*
Y3740146D01*
X1336532Y3742685D01*
X1331453D01*
X1328914Y3740146D01*
Y3737607D01*
X1331453Y3735067D01*
X1339071D01*
X1367025Y3740146D02*
X1364485Y3742685D01*
X1359407D01*
X1356868Y3740146D01*
Y3729989D01*
X1359407Y3727450D01*
X1364485D01*
X1367025Y3729989D01*
X1372103Y3727450D02*
Y3742685D01*
X1379721D01*
X1382260Y3740146D01*
Y3735067D01*
X1379721Y3732528D01*
X1372103D01*
X1377181D02*
X1382260Y3727450D01*
X1387338D02*
X1392417D01*
X1389877D01*
Y3742685D01*
X1387338Y3740146D01*
X1400034D02*
X1402573Y3742685D01*
X1407652D01*
X1410191Y3740146D01*
Y3737607D01*
X1407652Y3735067D01*
X1410191Y3732528D01*
Y3729989D01*
X1407652Y3727450D01*
X1402573D01*
X1400034Y3729989D01*
Y3732528D01*
X1402573Y3735067D01*
X1400034Y3737607D01*
Y3740146D01*
X1402573Y3735067D02*
X1407652D01*
X1438145Y3740146D02*
X1435605Y3742685D01*
X1430527D01*
X1427988Y3740146D01*
Y3729989D01*
X1430527Y3727450D01*
X1435605D01*
X1438145Y3729989D01*
X1443223Y3727450D02*
Y3742685D01*
X1450841D01*
X1453380Y3740146D01*
Y3735067D01*
X1450841Y3732528D01*
X1443223D01*
X1448301D02*
X1453380Y3727450D01*
X1458458D02*
X1463537D01*
X1460997D01*
Y3742685D01*
X1458458Y3740146D01*
X1471154Y3742685D02*
X1481311D01*
Y3740146D01*
X1471154Y3729989D01*
Y3727450D01*
X1509265Y3740146D02*
X1506725Y3742685D01*
X1501647D01*
X1499108Y3740146D01*
Y3729989D01*
X1501647Y3727450D01*
X1506725D01*
X1509265Y3729989D01*
X1514343Y3727450D02*
Y3742685D01*
X1521961D01*
X1524500Y3740146D01*
Y3735067D01*
X1521961Y3732528D01*
X1514343D01*
X1519421D02*
X1524500Y3727450D01*
X1529578D02*
X1534657D01*
X1532117D01*
Y3742685D01*
X1529578Y3740146D01*
X1552431Y3742685D02*
X1547352Y3740146D01*
X1542274Y3735067D01*
Y3729989D01*
X1544813Y3727450D01*
X1549892D01*
X1552431Y3729989D01*
Y3732528D01*
X1549892Y3735067D01*
X1542274D01*
X1580385Y3740146D02*
X1577845Y3742685D01*
X1572767D01*
X1570228Y3740146D01*
Y3729989D01*
X1572767Y3727450D01*
X1577845D01*
X1580385Y3729989D01*
X1585463Y3727450D02*
Y3742685D01*
X1593081D01*
X1595620Y3740146D01*
Y3735067D01*
X1593081Y3732528D01*
X1585463D01*
X1590541D02*
X1595620Y3727450D01*
X1600698D02*
X1605777D01*
X1603237D01*
Y3742685D01*
X1600698Y3740146D01*
X1623551Y3742685D02*
X1613394D01*
Y3735067D01*
X1618472Y3737607D01*
X1621012D01*
X1623551Y3735067D01*
Y3729989D01*
X1621012Y3727450D01*
X1615933D01*
X1613394Y3729989D01*
X641601Y3740146D02*
X639062Y3742685D01*
X633983D01*
X631444Y3740146D01*
Y3729989D01*
X633983Y3727450D01*
X639062D01*
X641601Y3729989D01*
X646679Y3727450D02*
Y3742685D01*
X654297D01*
X656836Y3740146D01*
Y3735067D01*
X654297Y3732528D01*
X646679D01*
X651757D02*
X656836Y3727450D01*
X661914D02*
X666992D01*
X664453D01*
Y3742685D01*
X661914Y3740146D01*
X682228Y3727450D02*
Y3742685D01*
X674610Y3735067D01*
X684767D01*
X712721Y3740146D02*
X710182Y3742685D01*
X705103D01*
X702564Y3740146D01*
Y3729989D01*
X705103Y3727450D01*
X710182D01*
X712721Y3729989D01*
X717799Y3727450D02*
Y3742685D01*
X725417D01*
X727956Y3740146D01*
Y3735067D01*
X725417Y3732528D01*
X717799D01*
X722877D02*
X727956Y3727450D01*
X733034D02*
X738112D01*
X735573D01*
Y3742685D01*
X733034Y3740146D01*
X745730D02*
X748269Y3742685D01*
X753348D01*
X755887Y3740146D01*
Y3737607D01*
X753348Y3735067D01*
X750808D01*
X753348D01*
X755887Y3732528D01*
Y3729989D01*
X753348Y3727450D01*
X748269D01*
X745730Y3729989D01*
X783841Y3740146D02*
X781301Y3742685D01*
X776223D01*
X773684Y3740146D01*
Y3729989D01*
X776223Y3727450D01*
X781301D01*
X783841Y3729989D01*
X788919Y3727450D02*
Y3742685D01*
X796537D01*
X799076Y3740146D01*
Y3735067D01*
X796537Y3732528D01*
X788919D01*
X793997D02*
X799076Y3727450D01*
X804154D02*
X809232D01*
X806693D01*
Y3742685D01*
X804154Y3740146D01*
X827007Y3727450D02*
X816850D01*
X827007Y3737607D01*
Y3740146D01*
X824468Y3742685D01*
X819389D01*
X816850Y3740146D01*
X849881D02*
X847342Y3742685D01*
X842263D01*
X839724Y3740146D01*
Y3729989D01*
X842263Y3727450D01*
X847342D01*
X849881Y3729989D01*
X854959Y3727450D02*
Y3742685D01*
X862577D01*
X865116Y3740146D01*
Y3735067D01*
X862577Y3732528D01*
X854959D01*
X860037D02*
X865116Y3727450D01*
X870194D02*
X875273D01*
X872733D01*
Y3742685D01*
X870194Y3740146D01*
X882890Y3727450D02*
X887968D01*
X885429D01*
Y3742685D01*
X882890Y3740146D01*
X921001D02*
X918462Y3742685D01*
X913383D01*
X910844Y3740146D01*
Y3729989D01*
X913383Y3727450D01*
X918462D01*
X921001Y3729989D01*
X926079Y3727450D02*
Y3742685D01*
X933697D01*
X936236Y3740146D01*
Y3735067D01*
X933697Y3732528D01*
X926079D01*
X931157D02*
X936236Y3727450D01*
X941314D02*
X946393D01*
X943853D01*
Y3742685D01*
X941314Y3740146D01*
X954010D02*
X956549Y3742685D01*
X961628D01*
X964167Y3740146D01*
Y3729989D01*
X961628Y3727450D01*
X956549D01*
X954010Y3729989D01*
Y3740146D01*
X979421D02*
X976881Y3742685D01*
X971803D01*
X969264Y3740146D01*
Y3729989D01*
X971803Y3727450D01*
X976881D01*
X979421Y3729989D01*
X984499Y3727450D02*
Y3742685D01*
X992117D01*
X994656Y3740146D01*
Y3735067D01*
X992117Y3732528D01*
X984499D01*
X989577D02*
X994656Y3727450D01*
X999734Y3729989D02*
X1002273Y3727450D01*
X1007352D01*
X1009891Y3729989D01*
Y3740146D01*
X1007352Y3742685D01*
X1002273D01*
X999734Y3740146D01*
Y3737607D01*
X1002273Y3735067D01*
X1009891D01*
X1037841Y3740146D02*
X1035302Y3742685D01*
X1030223D01*
X1027684Y3740146D01*
Y3729989D01*
X1030223Y3727450D01*
X1035302D01*
X1037841Y3729989D01*
X1042919Y3727450D02*
Y3742685D01*
X1050537D01*
X1053076Y3740146D01*
Y3735067D01*
X1050537Y3732528D01*
X1042919D01*
X1047997D02*
X1053076Y3727450D01*
X1058154Y3740146D02*
X1060693Y3742685D01*
X1065772D01*
X1068311Y3740146D01*
Y3737607D01*
X1065772Y3735067D01*
X1068311Y3732528D01*
Y3729989D01*
X1065772Y3727450D01*
X1060693D01*
X1058154Y3729989D01*
Y3732528D01*
X1060693Y3735067D01*
X1058154Y3737607D01*
Y3740146D01*
X1060693Y3735067D02*
X1065772D01*
X181861Y3740146D02*
X179321Y3742685D01*
X174243D01*
X171704Y3740146D01*
Y3729989D01*
X174243Y3727450D01*
X179321D01*
X181861Y3729989D01*
X186939Y3727450D02*
Y3742685D01*
X194557D01*
X197096Y3740146D01*
Y3735067D01*
X194557Y3732528D01*
X186939D01*
X192017D02*
X197096Y3727450D01*
X202174Y3742685D02*
X212331D01*
Y3740146D01*
X202174Y3729989D01*
Y3727450D01*
X240281Y3740146D02*
X237742Y3742685D01*
X232663D01*
X230124Y3740146D01*
Y3729989D01*
X232663Y3727450D01*
X237742D01*
X240281Y3729989D01*
X245359Y3727450D02*
Y3742685D01*
X252977D01*
X255516Y3740146D01*
Y3735067D01*
X252977Y3732528D01*
X245359D01*
X250437D02*
X255516Y3727450D01*
X270751Y3742685D02*
X265672Y3740146D01*
X260594Y3735067D01*
Y3729989D01*
X263133Y3727450D01*
X268212D01*
X270751Y3729989D01*
Y3732528D01*
X268212Y3735067D01*
X260594D01*
X298701Y3740146D02*
X296161Y3742685D01*
X291083D01*
X288544Y3740146D01*
Y3729989D01*
X291083Y3727450D01*
X296161D01*
X298701Y3729989D01*
X303779Y3727450D02*
Y3742685D01*
X311397D01*
X313936Y3740146D01*
Y3735067D01*
X311397Y3732528D01*
X303779D01*
X308857D02*
X313936Y3727450D01*
X329171Y3742685D02*
X319014D01*
Y3735067D01*
X324092Y3737607D01*
X326632D01*
X329171Y3735067D01*
Y3729989D01*
X326632Y3727450D01*
X321553D01*
X319014Y3729989D01*
X357121Y3740146D02*
X354581Y3742685D01*
X349503D01*
X346964Y3740146D01*
Y3729989D01*
X349503Y3727450D01*
X354581D01*
X357121Y3729989D01*
X362199Y3727450D02*
Y3742685D01*
X369817D01*
X372356Y3740146D01*
Y3735067D01*
X369817Y3732528D01*
X362199D01*
X367277D02*
X372356Y3727450D01*
X385052D02*
Y3742685D01*
X377434Y3735067D01*
X387591D01*
X415541Y3740146D02*
X413002Y3742685D01*
X407923D01*
X405384Y3740146D01*
Y3729989D01*
X407923Y3727450D01*
X413002D01*
X415541Y3729989D01*
X420619Y3727450D02*
Y3742685D01*
X428237D01*
X430776Y3740146D01*
Y3735067D01*
X428237Y3732528D01*
X420619D01*
X425697D02*
X430776Y3727450D01*
X435854Y3740146D02*
X438393Y3742685D01*
X443472D01*
X446011Y3740146D01*
Y3737607D01*
X443472Y3735067D01*
X440933D01*
X443472D01*
X446011Y3732528D01*
Y3729989D01*
X443472Y3727450D01*
X438393D01*
X435854Y3729989D01*
X473961Y3740146D02*
X471422Y3742685D01*
X466343D01*
X463804Y3740146D01*
Y3729989D01*
X466343Y3727450D01*
X471422D01*
X473961Y3729989D01*
X479039Y3727450D02*
Y3742685D01*
X486657D01*
X489196Y3740146D01*
Y3735067D01*
X486657Y3732528D01*
X479039D01*
X484117D02*
X489196Y3727450D01*
X504431D02*
X494274D01*
X504431Y3737607D01*
Y3740146D01*
X501892Y3742685D01*
X496813D01*
X494274Y3740146D01*
X528825Y3741416D02*
X526286Y3743955D01*
X521207D01*
X518668Y3741416D01*
Y3731259D01*
X521207Y3728720D01*
X526286D01*
X528825Y3731259D01*
X533903Y3728720D02*
Y3743955D01*
X541521D01*
X544060Y3741416D01*
Y3736338D01*
X541521Y3733798D01*
X533903D01*
X538981D02*
X544060Y3728720D01*
X549138D02*
X554216D01*
X551677D01*
Y3743955D01*
X549138Y3741416D01*
X200661Y4310378D02*
X198122Y4312917D01*
X193043D01*
X190504Y4310378D01*
Y4300222D01*
X193043Y4297682D01*
X198122D01*
X200661Y4300222D01*
X213357Y4297682D02*
Y4312917D01*
X205739Y4305300D01*
X215896D01*
X886461Y4323078D02*
X883922Y4325617D01*
X878843D01*
X876304Y4323078D01*
Y4312922D01*
X878843Y4310382D01*
X883922D01*
X886461Y4312922D01*
X891539Y4323078D02*
X894078Y4325617D01*
X899157D01*
X901696Y4323078D01*
Y4320539D01*
X899157Y4318000D01*
X896618D01*
X899157D01*
X901696Y4315461D01*
Y4312922D01*
X899157Y4310382D01*
X894078D01*
X891539Y4312922D01*
X1534161Y4323078D02*
X1531622Y4325617D01*
X1526543D01*
X1524004Y4323078D01*
Y4312922D01*
X1526543Y4310382D01*
X1531622D01*
X1534161Y4312922D01*
X1549396Y4310382D02*
X1539239D01*
X1549396Y4320539D01*
Y4323078D01*
X1546857Y4325617D01*
X1541778D01*
X1539239Y4323078D01*
X2197100Y4348478D02*
X2194561Y4351017D01*
X2189483D01*
X2186943Y4348478D01*
Y4338322D01*
X2189483Y4335782D01*
X2194561D01*
X2197100Y4338322D01*
X2202178Y4335782D02*
X2207257D01*
X2204718D01*
Y4351017D01*
X2202178Y4348478D01*
X2527297Y4171945D02*
X2517140D01*
Y4164327D01*
X2522218Y4166867D01*
X2524758D01*
X2527297Y4164327D01*
Y4159249D01*
X2524758Y4156710D01*
X2519679D01*
X2517140Y4159249D01*
X2542532Y4171945D02*
X2537453Y4169406D01*
X2532375Y4164327D01*
Y4159249D01*
X2534914Y4156710D01*
X2539993D01*
X2542532Y4159249D01*
Y4161788D01*
X2539993Y4164327D01*
X2532375D01*
X2616197Y4171945D02*
X2606040D01*
Y4164327D01*
X2611118Y4166867D01*
X2613658D01*
X2616197Y4164327D01*
Y4159249D01*
X2613658Y4156710D01*
X2608579D01*
X2606040Y4159249D01*
X2631432Y4171945D02*
X2621275D01*
Y4164327D01*
X2626353Y4166867D01*
X2628893D01*
X2631432Y4164327D01*
Y4159249D01*
X2628893Y4156710D01*
X2623814D01*
X2621275Y4159249D01*
X2082797Y4171945D02*
X2072640D01*
Y4164327D01*
X2077718Y4166867D01*
X2080258D01*
X2082797Y4164327D01*
Y4159249D01*
X2080258Y4156710D01*
X2075179D01*
X2072640Y4159249D01*
X2095493Y4156710D02*
Y4171945D01*
X2087875Y4164327D01*
X2098032D01*
X2171697Y4171945D02*
X2161540D01*
Y4164327D01*
X2166618Y4166867D01*
X2169158D01*
X2171697Y4164327D01*
Y4159249D01*
X2169158Y4156710D01*
X2164079D01*
X2161540Y4159249D01*
X2176775Y4169406D02*
X2179314Y4171945D01*
X2184393D01*
X2186932Y4169406D01*
Y4166867D01*
X2184393Y4164327D01*
X2181853D01*
X2184393D01*
X2186932Y4161788D01*
Y4159249D01*
X2184393Y4156710D01*
X2179314D01*
X2176775Y4159249D01*
X2260597Y4171945D02*
X2250440D01*
Y4164327D01*
X2255518Y4166867D01*
X2258058D01*
X2260597Y4164327D01*
Y4159249D01*
X2258058Y4156710D01*
X2252979D01*
X2250440Y4159249D01*
X2275832Y4156710D02*
X2265675D01*
X2275832Y4166867D01*
Y4169406D01*
X2273293Y4171945D01*
X2268214D01*
X2265675Y4169406D01*
X2349497Y4171945D02*
X2339340D01*
Y4164327D01*
X2344418Y4166867D01*
X2346958D01*
X2349497Y4164327D01*
Y4159249D01*
X2346958Y4156710D01*
X2341879D01*
X2339340Y4159249D01*
X2354575Y4156710D02*
X2359653D01*
X2357114D01*
Y4171945D01*
X2354575Y4169406D01*
X2435861Y4173217D02*
X2425704D01*
Y4165600D01*
X2430782Y4168139D01*
X2433322D01*
X2435861Y4165600D01*
Y4160522D01*
X2433322Y4157982D01*
X2428243D01*
X2425704Y4160522D01*
X2440939Y4170678D02*
X2443478Y4173217D01*
X2448557D01*
X2451096Y4170678D01*
Y4160522D01*
X2448557Y4157982D01*
X2443478D01*
X2440939Y4160522D01*
Y4170678D01*
X734057Y4156710D02*
Y4171945D01*
X726440Y4164327D01*
X736597D01*
X741675Y4159249D02*
X744214Y4156710D01*
X749293D01*
X751832Y4159249D01*
Y4169406D01*
X749293Y4171945D01*
X744214D01*
X741675Y4169406D01*
Y4166867D01*
X744214Y4164327D01*
X751832D01*
X822958Y4156710D02*
Y4171945D01*
X815340Y4164327D01*
X825497D01*
X830575Y4169406D02*
X833114Y4171945D01*
X838193D01*
X840732Y4169406D01*
Y4166867D01*
X838193Y4164327D01*
X840732Y4161788D01*
Y4159249D01*
X838193Y4156710D01*
X833114D01*
X830575Y4159249D01*
Y4161788D01*
X833114Y4164327D01*
X830575Y4166867D01*
Y4169406D01*
X833114Y4164327D02*
X838193D01*
X911858Y4156710D02*
Y4171945D01*
X904240Y4164327D01*
X914397D01*
X919475Y4171945D02*
X929632D01*
Y4169406D01*
X919475Y4159249D01*
Y4156710D01*
X1000758D02*
Y4171945D01*
X993140Y4164327D01*
X1003297D01*
X1018532Y4171945D02*
X1013453Y4169406D01*
X1008375Y4164327D01*
Y4159249D01*
X1010914Y4156710D01*
X1015993D01*
X1018532Y4159249D01*
Y4161788D01*
X1015993Y4164327D01*
X1008375D01*
X1089658Y4156710D02*
Y4171945D01*
X1082040Y4164327D01*
X1092197D01*
X1107432Y4171945D02*
X1097275D01*
Y4164327D01*
X1102353Y4166867D01*
X1104893D01*
X1107432Y4164327D01*
Y4159249D01*
X1104893Y4156710D01*
X1099814D01*
X1097275Y4159249D01*
X1178558Y4156710D02*
Y4171945D01*
X1170940Y4164327D01*
X1181097D01*
X1193793Y4156710D02*
Y4171945D01*
X1186175Y4164327D01*
X1196332D01*
X1267458Y4156710D02*
Y4171945D01*
X1259840Y4164327D01*
X1269997D01*
X1275075Y4169406D02*
X1277614Y4171945D01*
X1282693D01*
X1285232Y4169406D01*
Y4166867D01*
X1282693Y4164327D01*
X1280153D01*
X1282693D01*
X1285232Y4161788D01*
Y4159249D01*
X1282693Y4156710D01*
X1277614D01*
X1275075Y4159249D01*
X2567683Y4154932D02*
Y4170167D01*
X2560066Y4162549D01*
X2570223D01*
X2585458Y4154932D02*
X2575301D01*
X2585458Y4165089D01*
Y4167628D01*
X2582919Y4170167D01*
X2577840D01*
X2575301Y4167628D01*
X2656584Y4154932D02*
Y4170167D01*
X2648966Y4162549D01*
X2659123D01*
X2664201Y4154932D02*
X2669279D01*
X2666740D01*
Y4170167D01*
X2664201Y4167628D01*
X2123183Y4154932D02*
Y4170167D01*
X2115566Y4162549D01*
X2125723D01*
X2130801Y4167628D02*
X2133340Y4170167D01*
X2138419D01*
X2140958Y4167628D01*
Y4157471D01*
X2138419Y4154932D01*
X2133340D01*
X2130801Y4157471D01*
Y4167628D01*
X2204466D02*
X2207005Y4170167D01*
X2212083D01*
X2214623Y4167628D01*
Y4165089D01*
X2212083Y4162549D01*
X2209544D01*
X2212083D01*
X2214623Y4160010D01*
Y4157471D01*
X2212083Y4154932D01*
X2207005D01*
X2204466Y4157471D01*
X2219701D02*
X2222240Y4154932D01*
X2227319D01*
X2229858Y4157471D01*
Y4167628D01*
X2227319Y4170167D01*
X2222240D01*
X2219701Y4167628D01*
Y4165089D01*
X2222240Y4162549D01*
X2229858D01*
X2293366Y4167628D02*
X2295905Y4170167D01*
X2300983D01*
X2303523Y4167628D01*
Y4165089D01*
X2300983Y4162549D01*
X2298444D01*
X2300983D01*
X2303523Y4160010D01*
Y4157471D01*
X2300983Y4154932D01*
X2295905D01*
X2293366Y4157471D01*
X2308601Y4167628D02*
X2311140Y4170167D01*
X2316219D01*
X2318758Y4167628D01*
Y4165089D01*
X2316219Y4162549D01*
X2318758Y4160010D01*
Y4157471D01*
X2316219Y4154932D01*
X2311140D01*
X2308601Y4157471D01*
Y4160010D01*
X2311140Y4162549D01*
X2308601Y4165089D01*
Y4167628D01*
X2311140Y4162549D02*
X2316219D01*
X2382266Y4167628D02*
X2384805Y4170167D01*
X2389884D01*
X2392423Y4167628D01*
Y4165089D01*
X2389884Y4162549D01*
X2387344D01*
X2389884D01*
X2392423Y4160010D01*
Y4157471D01*
X2389884Y4154932D01*
X2384805D01*
X2382266Y4157471D01*
X2397501Y4170167D02*
X2407658D01*
Y4167628D01*
X2397501Y4157471D01*
Y4154932D01*
X2471166Y4167628D02*
X2473705Y4170167D01*
X2478784D01*
X2481323Y4167628D01*
Y4165089D01*
X2478784Y4162549D01*
X2476244D01*
X2478784D01*
X2481323Y4160010D01*
Y4157471D01*
X2478784Y4154932D01*
X2473705D01*
X2471166Y4157471D01*
X2496558Y4170167D02*
X2491479Y4167628D01*
X2486401Y4162549D01*
Y4157471D01*
X2488940Y4154932D01*
X2494019D01*
X2496558Y4157471D01*
Y4160010D01*
X2494019Y4162549D01*
X2486401D01*
X769366Y4167628D02*
X771905Y4170167D01*
X776983D01*
X779523Y4167628D01*
Y4165089D01*
X776983Y4162549D01*
X774444D01*
X776983D01*
X779523Y4160010D01*
Y4157471D01*
X776983Y4154932D01*
X771905D01*
X769366Y4157471D01*
X794758Y4170167D02*
X784601D01*
Y4162549D01*
X789679Y4165089D01*
X792219D01*
X794758Y4162549D01*
Y4157471D01*
X792219Y4154932D01*
X787140D01*
X784601Y4157471D01*
X858266Y4167628D02*
X860805Y4170167D01*
X865883D01*
X868423Y4167628D01*
Y4165089D01*
X865883Y4162549D01*
X863344D01*
X865883D01*
X868423Y4160010D01*
Y4157471D01*
X865883Y4154932D01*
X860805D01*
X858266Y4157471D01*
X881119Y4154932D02*
Y4170167D01*
X873501Y4162549D01*
X883658D01*
X947166Y4167628D02*
X949705Y4170167D01*
X954783D01*
X957323Y4167628D01*
Y4165089D01*
X954783Y4162549D01*
X952244D01*
X954783D01*
X957323Y4160010D01*
Y4157471D01*
X954783Y4154932D01*
X949705D01*
X947166Y4157471D01*
X962401Y4167628D02*
X964940Y4170167D01*
X970019D01*
X972558Y4167628D01*
Y4165089D01*
X970019Y4162549D01*
X967479D01*
X970019D01*
X972558Y4160010D01*
Y4157471D01*
X970019Y4154932D01*
X964940D01*
X962401Y4157471D01*
X1036066Y4167628D02*
X1038605Y4170167D01*
X1043683D01*
X1046223Y4167628D01*
Y4165089D01*
X1043683Y4162549D01*
X1041144D01*
X1043683D01*
X1046223Y4160010D01*
Y4157471D01*
X1043683Y4154932D01*
X1038605D01*
X1036066Y4157471D01*
X1061458Y4154932D02*
X1051301D01*
X1061458Y4165089D01*
Y4167628D01*
X1058919Y4170167D01*
X1053840D01*
X1051301Y4167628D01*
X1124966D02*
X1127505Y4170167D01*
X1132583D01*
X1135123Y4167628D01*
Y4165089D01*
X1132583Y4162549D01*
X1130044D01*
X1132583D01*
X1135123Y4160010D01*
Y4157471D01*
X1132583Y4154932D01*
X1127505D01*
X1124966Y4157471D01*
X1140201Y4154932D02*
X1145279D01*
X1142740D01*
Y4170167D01*
X1140201Y4167628D01*
X1213866D02*
X1216405Y4170167D01*
X1221484D01*
X1224023Y4167628D01*
Y4165089D01*
X1221484Y4162549D01*
X1218944D01*
X1221484D01*
X1224023Y4160010D01*
Y4157471D01*
X1221484Y4154932D01*
X1216405D01*
X1213866Y4157471D01*
X1229101Y4167628D02*
X1231640Y4170167D01*
X1236719D01*
X1239258Y4167628D01*
Y4157471D01*
X1236719Y4154932D01*
X1231640D01*
X1229101Y4157471D01*
Y4167628D01*
X1312923Y4154932D02*
X1302766D01*
X1312923Y4165089D01*
Y4167628D01*
X1310383Y4170167D01*
X1305305D01*
X1302766Y4167628D01*
X1318001Y4157471D02*
X1320540Y4154932D01*
X1325619D01*
X1328158Y4157471D01*
Y4167628D01*
X1325619Y4170167D01*
X1320540D01*
X1318001Y4167628D01*
Y4165089D01*
X1320540Y4162549D01*
X1328158D01*
X584197Y4156710D02*
X574040D01*
X584197Y4166867D01*
Y4169406D01*
X581657Y4171945D01*
X576579D01*
X574040Y4169406D01*
X589275D02*
X591814Y4171945D01*
X596893D01*
X599432Y4169406D01*
Y4166867D01*
X596893Y4164327D01*
X599432Y4161788D01*
Y4159249D01*
X596893Y4156710D01*
X591814D01*
X589275Y4159249D01*
Y4161788D01*
X591814Y4164327D01*
X589275Y4166867D01*
Y4169406D01*
X591814Y4164327D02*
X596893D01*
X1943097Y4156710D02*
X1932940D01*
X1943097Y4166867D01*
Y4169406D01*
X1940558Y4171945D01*
X1935479D01*
X1932940Y4169406D01*
X1948175Y4171945D02*
X1958332D01*
Y4169406D01*
X1948175Y4159249D01*
Y4156710D01*
X88897D02*
X78740D01*
X88897Y4166867D01*
Y4169406D01*
X86357Y4171945D01*
X81279D01*
X78740Y4169406D01*
X104132Y4171945D02*
X99053Y4169406D01*
X93975Y4164327D01*
Y4159249D01*
X96514Y4156710D01*
X101593D01*
X104132Y4159249D01*
Y4161788D01*
X101593Y4164327D01*
X93975D01*
X177797Y4156710D02*
X167640D01*
X177797Y4166867D01*
Y4169406D01*
X175257Y4171945D01*
X170179D01*
X167640Y4169406D01*
X193032Y4171945D02*
X182875D01*
Y4164327D01*
X187953Y4166867D01*
X190493D01*
X193032Y4164327D01*
Y4159249D01*
X190493Y4156710D01*
X185414D01*
X182875Y4159249D01*
X266697Y4156710D02*
X256540D01*
X266697Y4166867D01*
Y4169406D01*
X264158Y4171945D01*
X259079D01*
X256540Y4169406D01*
X279393Y4156710D02*
Y4171945D01*
X271775Y4164327D01*
X281932D01*
X355597Y4156710D02*
X345440D01*
X355597Y4166867D01*
Y4169406D01*
X353058Y4171945D01*
X347979D01*
X345440Y4169406D01*
X360675D02*
X363214Y4171945D01*
X368293D01*
X370832Y4169406D01*
Y4166867D01*
X368293Y4164327D01*
X365753D01*
X368293D01*
X370832Y4161788D01*
Y4159249D01*
X368293Y4156710D01*
X363214D01*
X360675Y4159249D01*
X431797Y4156710D02*
X421640D01*
X431797Y4166867D01*
Y4169406D01*
X429258Y4171945D01*
X424179D01*
X421640Y4169406D01*
X447032Y4156710D02*
X436875D01*
X447032Y4166867D01*
Y4169406D01*
X444493Y4171945D01*
X439414D01*
X436875Y4169406D01*
X507997Y4156710D02*
X497840D01*
X507997Y4166867D01*
Y4169406D01*
X505457Y4171945D01*
X500379D01*
X497840Y4169406D01*
X513075Y4156710D02*
X518153D01*
X515614D01*
Y4171945D01*
X513075Y4169406D01*
X1409697Y4156710D02*
X1399540D01*
X1409697Y4166867D01*
Y4169406D01*
X1407157Y4171945D01*
X1402079D01*
X1399540Y4169406D01*
X1414775D02*
X1417314Y4171945D01*
X1422393D01*
X1424932Y4169406D01*
Y4159249D01*
X1422393Y4156710D01*
X1417314D01*
X1414775Y4159249D01*
Y4169406D01*
X1488440Y4156710D02*
X1493518D01*
X1490979D01*
Y4171945D01*
X1488440Y4169406D01*
X1501136Y4159249D02*
X1503675Y4156710D01*
X1508753D01*
X1511293Y4159249D01*
Y4169406D01*
X1508753Y4171945D01*
X1503675D01*
X1501136Y4169406D01*
Y4166867D01*
X1503675Y4164327D01*
X1511293D01*
X1577340Y4156710D02*
X1582418D01*
X1579879D01*
Y4171945D01*
X1577340Y4169406D01*
X1590036D02*
X1592575Y4171945D01*
X1597653D01*
X1600193Y4169406D01*
Y4166867D01*
X1597653Y4164327D01*
X1600193Y4161788D01*
Y4159249D01*
X1597653Y4156710D01*
X1592575D01*
X1590036Y4159249D01*
Y4161788D01*
X1592575Y4164327D01*
X1590036Y4166867D01*
Y4169406D01*
X1592575Y4164327D02*
X1597653D01*
X1666240Y4156710D02*
X1671318D01*
X1668779D01*
Y4171945D01*
X1666240Y4169406D01*
X1678936Y4171945D02*
X1689093D01*
Y4169406D01*
X1678936Y4159249D01*
Y4156710D01*
X1755140D02*
X1760218D01*
X1757679D01*
Y4171945D01*
X1755140Y4169406D01*
X1777993Y4171945D02*
X1772914Y4169406D01*
X1767836Y4164327D01*
Y4159249D01*
X1770375Y4156710D01*
X1775453D01*
X1777993Y4159249D01*
Y4161788D01*
X1775453Y4164327D01*
X1767836D01*
X1844040Y4156710D02*
X1849118D01*
X1846579D01*
Y4171945D01*
X1844040Y4169406D01*
X1866893Y4171945D02*
X1856736D01*
Y4164327D01*
X1861814Y4166867D01*
X1864353D01*
X1866893Y4164327D01*
Y4159249D01*
X1864353Y4156710D01*
X1859275D01*
X1856736Y4159249D01*
X616966Y4154932D02*
X622044D01*
X619505D01*
Y4170167D01*
X616966Y4167628D01*
X637279Y4154932D02*
Y4170167D01*
X629662Y4162549D01*
X639819D01*
X1975866Y4154932D02*
X1980944D01*
X1978405D01*
Y4170167D01*
X1975866Y4167628D01*
X1988562D02*
X1991101Y4170167D01*
X1996179D01*
X1998719Y4167628D01*
Y4165089D01*
X1996179Y4162549D01*
X1993640D01*
X1996179D01*
X1998719Y4160010D01*
Y4157471D01*
X1996179Y4154932D01*
X1991101D01*
X1988562Y4157471D01*
X121666Y4154932D02*
X126744D01*
X124205D01*
Y4170167D01*
X121666Y4167628D01*
X144519Y4154932D02*
X134362D01*
X144519Y4165089D01*
Y4167628D01*
X141979Y4170167D01*
X136901D01*
X134362Y4167628D01*
X210566Y4154932D02*
X215644D01*
X213105D01*
Y4170167D01*
X210566Y4167628D01*
X223262Y4154932D02*
X228340D01*
X225801D01*
Y4170167D01*
X223262Y4167628D01*
X299466Y4154932D02*
X304544D01*
X302005D01*
Y4170167D01*
X299466Y4167628D01*
X312162D02*
X314701Y4170167D01*
X319779D01*
X322319Y4167628D01*
Y4157471D01*
X319779Y4154932D01*
X314701D01*
X312162Y4157471D01*
Y4167628D01*
X388622Y4160522D02*
X391161Y4157982D01*
X396239D01*
X398778Y4160522D01*
Y4170678D01*
X396239Y4173217D01*
X391161D01*
X388622Y4170678D01*
Y4168139D01*
X391161Y4165600D01*
X398778D01*
X464822Y4170678D02*
X467361Y4173217D01*
X472439D01*
X474978Y4170678D01*
Y4168139D01*
X472439Y4165600D01*
X474978Y4163061D01*
Y4160522D01*
X472439Y4157982D01*
X467361D01*
X464822Y4160522D01*
Y4163061D01*
X467361Y4165600D01*
X464822Y4168139D01*
Y4170678D01*
X467361Y4165600D02*
X472439D01*
X541022Y4173217D02*
X551178D01*
Y4170678D01*
X541022Y4160522D01*
Y4157982D01*
X1452878Y4173217D02*
X1447800Y4170678D01*
X1442722Y4165600D01*
Y4160522D01*
X1445261Y4157982D01*
X1450339D01*
X1452878Y4160522D01*
Y4163061D01*
X1450339Y4165600D01*
X1442722D01*
X1541778Y4173217D02*
X1531622D01*
Y4165600D01*
X1536700Y4168139D01*
X1539239D01*
X1541778Y4165600D01*
Y4160522D01*
X1539239Y4157982D01*
X1534161D01*
X1531622Y4160522D01*
X1628139Y4157982D02*
Y4173217D01*
X1620522Y4165600D01*
X1630678D01*
X1709422Y4170678D02*
X1711961Y4173217D01*
X1717039D01*
X1719578Y4170678D01*
Y4168139D01*
X1717039Y4165600D01*
X1714500D01*
X1717039D01*
X1719578Y4163061D01*
Y4160522D01*
X1717039Y4157982D01*
X1711961D01*
X1709422Y4160522D01*
X1808478Y4157982D02*
X1798322D01*
X1808478Y4168139D01*
Y4170678D01*
X1805939Y4173217D01*
X1800861D01*
X1798322Y4170678D01*
X1889761Y4157982D02*
X1894839D01*
X1892300D01*
Y4173217D01*
X1889761Y4170678D01*
D14*
X753110Y1096391D02*
X1101090D01*
Y1622171D01*
X753110D02*
X1101090D01*
X753110Y1096391D02*
Y1622171D01*
Y156591D02*
X1101090D01*
Y682371D01*
X753110D02*
X1101090D01*
X753110Y156591D02*
Y682371D01*
X2243328Y1463548D02*
X2769108D01*
X2243328D02*
Y1811528D01*
X2769108D01*
Y1463548D02*
Y1811528D01*
X1693672Y1091692D02*
Y1617472D01*
X2041652D01*
Y1091692D02*
Y1617472D01*
X1693672Y1091692D02*
X2041652D01*
X1223772D02*
Y1617472D01*
X1571752D01*
Y1091692D02*
Y1617472D01*
X1223772Y1091692D02*
X1571752D01*
X2238629Y549910D02*
X2764409D01*
X2238629D02*
Y897890D01*
X2764409D01*
Y549910D02*
Y897890D01*
X2243328Y3292348D02*
X2769108D01*
X2243328D02*
Y3640328D01*
X2769108D01*
Y3292348D02*
Y3640328D01*
X2243328Y2377948D02*
X2769108D01*
X2243328D02*
Y2725928D01*
X2769108D01*
Y2377948D02*
Y2725928D01*
X2243328Y91948D02*
X2769108D01*
X2243328D02*
Y439928D01*
X2769108D01*
Y91948D02*
Y439928D01*
X2243328Y1920748D02*
X2769108D01*
X2243328D02*
Y2268728D01*
X2769108D01*
Y1920748D02*
Y2268728D01*
X2243328Y1007872D02*
X2769108D01*
X2243328D02*
Y1355852D01*
X2769108D01*
Y1007872D02*
Y1355852D01*
X2243328Y2835148D02*
X2769108D01*
X2243328D02*
Y3183128D01*
X2769108D01*
Y2835148D02*
Y3183128D01*
X1693672Y151892D02*
Y677672D01*
X2041652D01*
Y151892D02*
Y677672D01*
X1693672Y151892D02*
X2041652D01*
X1692148Y2882392D02*
Y3408172D01*
X2040128D01*
Y2882392D02*
Y3408172D01*
X1692148Y2882392D02*
X2040128D01*
X1692910Y1998091D02*
Y2523871D01*
X2040890D01*
Y1998091D02*
Y2523871D01*
X1692910Y1998091D02*
X2040890D01*
X1223772Y2882392D02*
Y3408172D01*
X1571752D01*
Y2882392D02*
Y3408172D01*
X1223772Y2882392D02*
X1571752D01*
X1222248Y151892D02*
Y677672D01*
X1570228D01*
Y151892D02*
Y677672D01*
X1222248Y151892D02*
X1570228D01*
X1223010Y1998091D02*
Y2523871D01*
X1570990D01*
Y1998091D02*
Y2523871D01*
X1223010Y1998091D02*
X1570990D01*
X753110D02*
Y2523871D01*
X1101090D01*
Y1998091D02*
Y2523871D01*
X753110Y1998091D02*
X1101090D01*
X753110Y2887091D02*
Y3412871D01*
X1101090D01*
Y2887091D02*
Y3412871D01*
X753110Y2887091D02*
X1101090D01*
X2428367Y4119908D02*
Y4132044D01*
X2448433Y4119908D02*
Y4132044D01*
X398970Y4129998D02*
Y4133846D01*
X388430Y4129998D02*
Y4133846D01*
X475170Y4129998D02*
Y4133846D01*
X464630Y4129998D02*
Y4133846D01*
X551370Y4129998D02*
Y4133846D01*
X540830Y4129998D02*
Y4133846D01*
X1897570Y4129998D02*
Y4133846D01*
X1887030Y4129998D02*
Y4133846D01*
X1808670Y4129998D02*
Y4133846D01*
X1798130Y4129998D02*
Y4133846D01*
X1719770Y4129998D02*
Y4133846D01*
X1709230Y4129998D02*
Y4133846D01*
X1630870Y4129998D02*
Y4133846D01*
X1620330Y4129998D02*
Y4133846D01*
X1541970Y4129998D02*
Y4133846D01*
X1531430Y4129998D02*
Y4133846D01*
X1453070Y4129998D02*
Y4133846D01*
X1442530Y4129998D02*
Y4133846D01*
X1956181Y3801491D02*
Y3843909D01*
X1853819Y3801491D02*
Y3843909D01*
X1314069Y3799649D02*
Y3842068D01*
X1416431Y3799649D02*
Y3842068D01*
X799719Y3801491D02*
Y3843909D01*
X902081Y3801491D02*
Y3843909D01*
X406781Y3801491D02*
Y3843909D01*
X304419Y3801491D02*
Y3843909D01*
X1826641Y3662426D02*
X1856359D01*
Y3607816D02*
Y3662426D01*
X1826641Y3607816D02*
X1856359D01*
X1826641D02*
Y3662426D01*
X1835150Y3710178D02*
X1847850D01*
X1840230D02*
X1841500Y3717798D01*
X1838960Y3710178D02*
X1841500Y3717798D01*
X1837690Y3710178D02*
X1841500Y3717798D01*
X1836420Y3710178D02*
X1841500Y3717798D01*
X1835150Y3710178D02*
X1841500Y3717798D01*
X1842770Y3710178D01*
X1841500Y3717798D02*
X1844040Y3710178D01*
X1841500Y3717798D02*
X1845310Y3710178D01*
X1841500Y3717798D02*
X1846580Y3710178D01*
X1841500Y3717798D02*
X1847850Y3710178D01*
X1835150Y3717798D02*
X1847850D01*
X1841500Y3707638D02*
Y3720338D01*
X2040001Y3661156D02*
X2069719D01*
Y3606546D02*
Y3661156D01*
X2040001Y3606546D02*
X2069719D01*
X2040001D02*
Y3661156D01*
X2048510Y3708908D02*
X2061210D01*
X2053590D02*
X2054860Y3716528D01*
X2052320Y3708908D02*
X2054860Y3716528D01*
X2051050Y3708908D02*
X2054860Y3716528D01*
X2049780Y3708908D02*
X2054860Y3716528D01*
X2048510Y3708908D02*
X2054860Y3716528D01*
X2056130Y3708908D01*
X2054860Y3716528D02*
X2057400Y3708908D01*
X2054860Y3716528D02*
X2058670Y3708908D01*
X2054860Y3716528D02*
X2059940Y3708908D01*
X2054860Y3716528D02*
X2061210Y3708908D01*
X2048510Y3716528D02*
X2061210D01*
X2054860Y3706368D02*
Y3719068D01*
X2113661Y3661156D02*
X2143379D01*
Y3606546D02*
Y3661156D01*
X2113661Y3606546D02*
X2143379D01*
X2113661D02*
Y3661156D01*
X2122170Y3708908D02*
X2134870D01*
X2127250D02*
X2128520Y3716528D01*
X2125980Y3708908D02*
X2128520Y3716528D01*
X2124710Y3708908D02*
X2128520Y3716528D01*
X2123440Y3708908D02*
X2128520Y3716528D01*
X2122170Y3708908D02*
X2128520Y3716528D01*
X2129790Y3708908D01*
X2128520Y3716528D02*
X2131060Y3708908D01*
X2128520Y3716528D02*
X2132330Y3708908D01*
X2128520Y3716528D02*
X2133600Y3708908D01*
X2128520Y3716528D02*
X2134870Y3708908D01*
X2122170Y3716528D02*
X2134870D01*
X2128520Y3706368D02*
Y3719068D01*
X1745361Y3661156D02*
X1775079D01*
Y3606546D02*
Y3661156D01*
X1745361Y3606546D02*
X1775079D01*
X1745361D02*
Y3661156D01*
X1753870Y3708908D02*
X1766570D01*
X1758950D02*
X1760220Y3716528D01*
X1757680Y3708908D02*
X1760220Y3716528D01*
X1756410Y3708908D02*
X1760220Y3716528D01*
X1755140Y3708908D02*
X1760220Y3716528D01*
X1753870Y3708908D02*
X1760220Y3716528D01*
X1761490Y3708908D01*
X1760220Y3716528D02*
X1762760Y3708908D01*
X1760220Y3716528D02*
X1764030Y3708908D01*
X1760220Y3716528D02*
X1765300Y3708908D01*
X1760220Y3716528D02*
X1766570Y3708908D01*
X1753870Y3716528D02*
X1766570D01*
X1760220Y3706368D02*
Y3719068D01*
X1966341Y3661156D02*
X1996059D01*
Y3606546D02*
Y3661156D01*
X1966341Y3606546D02*
X1996059D01*
X1966341D02*
Y3661156D01*
X1974850Y3708908D02*
X1987550D01*
X1979930D02*
X1981200Y3716528D01*
X1978660Y3708908D02*
X1981200Y3716528D01*
X1977390Y3708908D02*
X1981200Y3716528D01*
X1976120Y3708908D02*
X1981200Y3716528D01*
X1974850Y3708908D02*
X1981200Y3716528D01*
X1982470Y3708908D01*
X1981200Y3716528D02*
X1983740Y3708908D01*
X1981200Y3716528D02*
X1985010Y3708908D01*
X1981200Y3716528D02*
X1986280Y3708908D01*
X1981200Y3716528D02*
X1987550Y3708908D01*
X1974850Y3716528D02*
X1987550D01*
X1981200Y3706368D02*
Y3719068D01*
X1671701Y3661156D02*
X1701419D01*
Y3606546D02*
Y3661156D01*
X1671701Y3606546D02*
X1701419D01*
X1671701D02*
Y3661156D01*
X1680210Y3708908D02*
X1692910D01*
X1685290D02*
X1686560Y3716528D01*
X1684020Y3708908D02*
X1686560Y3716528D01*
X1682750Y3708908D02*
X1686560Y3716528D01*
X1681480Y3708908D02*
X1686560Y3716528D01*
X1680210Y3708908D02*
X1686560Y3716528D01*
X1687830Y3708908D01*
X1686560Y3716528D02*
X1689100Y3708908D01*
X1686560Y3716528D02*
X1690370Y3708908D01*
X1686560Y3716528D02*
X1691640Y3708908D01*
X1686560Y3716528D02*
X1692910Y3708908D01*
X1680210Y3716528D02*
X1692910D01*
X1686560Y3706368D02*
Y3719068D01*
X1892681Y3661156D02*
X1922399D01*
Y3606546D02*
Y3661156D01*
X1892681Y3606546D02*
X1922399D01*
X1892681D02*
Y3661156D01*
X1901190Y3708908D02*
X1913890D01*
X1906270D02*
X1907540Y3716528D01*
X1905000Y3708908D02*
X1907540Y3716528D01*
X1903730Y3708908D02*
X1907540Y3716528D01*
X1902460Y3708908D02*
X1907540Y3716528D01*
X1901190Y3708908D02*
X1907540Y3716528D01*
X1908810Y3708908D01*
X1907540Y3716528D02*
X1910080Y3708908D01*
X1907540Y3716528D02*
X1911350Y3708908D01*
X1907540Y3716528D02*
X1912620Y3708908D01*
X1907540Y3716528D02*
X1913890Y3708908D01*
X1901190Y3716528D02*
X1913890D01*
X1907540Y3706368D02*
Y3719068D01*
X518541Y3662426D02*
X548259D01*
Y3607816D02*
Y3662426D01*
X518541Y3607816D02*
X548259D01*
X518541D02*
Y3662426D01*
X527050Y3710178D02*
X539750D01*
X532130D02*
X533400Y3717798D01*
X530860Y3710178D02*
X533400Y3717798D01*
X529590Y3710178D02*
X533400Y3717798D01*
X528320Y3710178D02*
X533400Y3717798D01*
X527050Y3710178D02*
X533400Y3717798D01*
X534670Y3710178D01*
X533400Y3717798D02*
X535940Y3710178D01*
X533400Y3717798D02*
X537210Y3710178D01*
X533400Y3717798D02*
X538480Y3710178D01*
X533400Y3717798D02*
X539750Y3710178D01*
X527050Y3717798D02*
X539750D01*
X533400Y3707638D02*
Y3720338D01*
X463931Y3661156D02*
X493649D01*
Y3606546D02*
Y3661156D01*
X463931Y3606546D02*
X493649D01*
X463931D02*
Y3661156D01*
X472440Y3708908D02*
X485140D01*
X477520D02*
X478790Y3716528D01*
X476250Y3708908D02*
X478790Y3716528D01*
X474980Y3708908D02*
X478790Y3716528D01*
X473710Y3708908D02*
X478790Y3716528D01*
X472440Y3708908D02*
X478790Y3716528D01*
X480060Y3708908D01*
X478790Y3716528D02*
X481330Y3708908D01*
X478790Y3716528D02*
X482600Y3708908D01*
X478790Y3716528D02*
X483870Y3708908D01*
X478790Y3716528D02*
X485140Y3708908D01*
X472440Y3716528D02*
X485140D01*
X478790Y3706368D02*
Y3719068D01*
X405511Y3661156D02*
X435229D01*
Y3606546D02*
Y3661156D01*
X405511Y3606546D02*
X435229D01*
X405511D02*
Y3661156D01*
X414020Y3708908D02*
X426720D01*
X419100D02*
X420370Y3716528D01*
X417830Y3708908D02*
X420370Y3716528D01*
X416560Y3708908D02*
X420370Y3716528D01*
X415290Y3708908D02*
X420370Y3716528D01*
X414020Y3708908D02*
X420370Y3716528D01*
X421640Y3708908D01*
X420370Y3716528D02*
X422910Y3708908D01*
X420370Y3716528D02*
X424180Y3708908D01*
X420370Y3716528D02*
X425450Y3708908D01*
X420370Y3716528D02*
X426720Y3708908D01*
X414020Y3716528D02*
X426720D01*
X420370Y3706368D02*
Y3719068D01*
X347091Y3661156D02*
X376809D01*
Y3606546D02*
Y3661156D01*
X347091Y3606546D02*
X376809D01*
X347091D02*
Y3661156D01*
X355600Y3708908D02*
X368300D01*
X360680D02*
X361950Y3716528D01*
X359410Y3708908D02*
X361950Y3716528D01*
X358140Y3708908D02*
X361950Y3716528D01*
X356870Y3708908D02*
X361950Y3716528D01*
X355600Y3708908D02*
X361950Y3716528D01*
X363220Y3708908D01*
X361950Y3716528D02*
X364490Y3708908D01*
X361950Y3716528D02*
X365760Y3708908D01*
X361950Y3716528D02*
X367030Y3708908D01*
X361950Y3716528D02*
X368300Y3708908D01*
X355600Y3716528D02*
X368300D01*
X361950Y3706368D02*
Y3719068D01*
X1302830Y4129998D02*
Y4133846D01*
X1313370Y4129998D02*
Y4133846D01*
X617030Y4129998D02*
Y4133846D01*
X627570Y4129998D02*
Y4133846D01*
X1280033Y4119908D02*
Y4132044D01*
X1259967Y4119908D02*
Y4132044D01*
X594233Y4119908D02*
Y4132044D01*
X574167Y4119908D02*
Y4132044D01*
X646430Y3706368D02*
Y3719068D01*
X640080Y3716528D02*
X652780D01*
X646430D02*
X652780Y3708908D01*
X646430Y3716528D02*
X651510Y3708908D01*
X646430Y3716528D02*
X650240Y3708908D01*
X646430Y3716528D02*
X648970Y3708908D01*
X646430Y3716528D02*
X647700Y3708908D01*
X640080D02*
X646430Y3716528D01*
X641350Y3708908D02*
X646430Y3716528D01*
X642620Y3708908D02*
X646430Y3716528D01*
X643890Y3708908D02*
X646430Y3716528D01*
X645160Y3708908D02*
X646430Y3716528D01*
X640080Y3708908D02*
X652780D01*
X631571Y3606546D02*
Y3661156D01*
Y3606546D02*
X661289D01*
Y3661156D01*
X631571D02*
X661289D01*
X717550Y3706368D02*
Y3719068D01*
X711200Y3716528D02*
X723900D01*
X717550D02*
X723900Y3708908D01*
X717550Y3716528D02*
X722630Y3708908D01*
X717550Y3716528D02*
X721360Y3708908D01*
X717550Y3716528D02*
X720090Y3708908D01*
X717550Y3716528D02*
X718820Y3708908D01*
X711200D02*
X717550Y3716528D01*
X712470Y3708908D02*
X717550Y3716528D01*
X713740Y3708908D02*
X717550Y3716528D01*
X715010Y3708908D02*
X717550Y3716528D01*
X716280Y3708908D02*
X717550Y3716528D01*
X711200Y3708908D02*
X723900D01*
X702691Y3606546D02*
Y3661156D01*
Y3606546D02*
X732409D01*
Y3661156D01*
X702691D02*
X732409D01*
X788670Y3706368D02*
Y3719068D01*
X782320Y3716528D02*
X795020D01*
X788670D02*
X795020Y3708908D01*
X788670Y3716528D02*
X793750Y3708908D01*
X788670Y3716528D02*
X792480Y3708908D01*
X788670Y3716528D02*
X791210Y3708908D01*
X788670Y3716528D02*
X789940Y3708908D01*
X782320D02*
X788670Y3716528D01*
X783590Y3708908D02*
X788670Y3716528D01*
X784860Y3708908D02*
X788670Y3716528D01*
X786130Y3708908D02*
X788670Y3716528D01*
X787400Y3708908D02*
X788670Y3716528D01*
X782320Y3708908D02*
X795020D01*
X773811Y3606546D02*
Y3661156D01*
Y3606546D02*
X803529D01*
Y3661156D01*
X773811D02*
X803529D01*
X854710Y3706368D02*
Y3719068D01*
X848360Y3716528D02*
X861060D01*
X854710D02*
X861060Y3708908D01*
X854710Y3716528D02*
X859790Y3708908D01*
X854710Y3716528D02*
X858520Y3708908D01*
X854710Y3716528D02*
X857250Y3708908D01*
X854710Y3716528D02*
X855980Y3708908D01*
X848360D02*
X854710Y3716528D01*
X849630Y3708908D02*
X854710Y3716528D01*
X850900Y3708908D02*
X854710Y3716528D01*
X852170Y3708908D02*
X854710Y3716528D01*
X853440Y3708908D02*
X854710Y3716528D01*
X848360Y3708908D02*
X861060D01*
X839851Y3606546D02*
Y3661156D01*
Y3606546D02*
X869569D01*
Y3661156D01*
X839851D02*
X869569D01*
X925830Y3706368D02*
Y3719068D01*
X919480Y3716528D02*
X932180D01*
X925830D02*
X932180Y3708908D01*
X925830Y3716528D02*
X930910Y3708908D01*
X925830Y3716528D02*
X929640Y3708908D01*
X925830Y3716528D02*
X928370Y3708908D01*
X925830Y3716528D02*
X927100Y3708908D01*
X919480D02*
X925830Y3716528D01*
X920750Y3708908D02*
X925830Y3716528D01*
X922020Y3708908D02*
X925830Y3716528D01*
X923290Y3708908D02*
X925830Y3716528D01*
X924560Y3708908D02*
X925830Y3716528D01*
X919480Y3708908D02*
X932180D01*
X910971Y3606546D02*
Y3661156D01*
Y3606546D02*
X940689D01*
Y3661156D01*
X910971D02*
X940689D01*
X984250Y3706368D02*
Y3719068D01*
X977900Y3716528D02*
X990600D01*
X984250D02*
X990600Y3708908D01*
X984250Y3716528D02*
X989330Y3708908D01*
X984250Y3716528D02*
X988060Y3708908D01*
X984250Y3716528D02*
X986790Y3708908D01*
X984250Y3716528D02*
X985520Y3708908D01*
X977900D02*
X984250Y3716528D01*
X979170Y3708908D02*
X984250Y3716528D01*
X980440Y3708908D02*
X984250Y3716528D01*
X981710Y3708908D02*
X984250Y3716528D01*
X982980Y3708908D02*
X984250Y3716528D01*
X977900Y3708908D02*
X990600D01*
X969391Y3606546D02*
Y3661156D01*
Y3606546D02*
X999109D01*
Y3661156D01*
X969391D02*
X999109D01*
X1042670Y3706368D02*
Y3719068D01*
X1036320Y3716528D02*
X1049020D01*
X1042670D02*
X1049020Y3708908D01*
X1042670Y3716528D02*
X1047750Y3708908D01*
X1042670Y3716528D02*
X1046480Y3708908D01*
X1042670Y3716528D02*
X1045210Y3708908D01*
X1042670Y3716528D02*
X1043940Y3708908D01*
X1036320D02*
X1042670Y3716528D01*
X1037590Y3708908D02*
X1042670Y3716528D01*
X1038860Y3708908D02*
X1042670Y3716528D01*
X1040130Y3708908D02*
X1042670Y3716528D01*
X1041400Y3708908D02*
X1042670Y3716528D01*
X1036320Y3708908D02*
X1049020D01*
X1027811Y3606546D02*
Y3661156D01*
Y3606546D02*
X1057529D01*
Y3661156D01*
X1027811D02*
X1057529D01*
X186690Y3706368D02*
Y3719068D01*
X180340Y3716528D02*
X193040D01*
X186690D02*
X193040Y3708908D01*
X186690Y3716528D02*
X191770Y3708908D01*
X186690Y3716528D02*
X190500Y3708908D01*
X186690Y3716528D02*
X189230Y3708908D01*
X186690Y3716528D02*
X187960Y3708908D01*
X180340D02*
X186690Y3716528D01*
X181610Y3708908D02*
X186690Y3716528D01*
X182880Y3708908D02*
X186690Y3716528D01*
X184150Y3708908D02*
X186690Y3716528D01*
X185420Y3708908D02*
X186690Y3716528D01*
X180340Y3708908D02*
X193040D01*
X171831Y3606546D02*
Y3661156D01*
Y3606546D02*
X201549D01*
Y3661156D01*
X171831D02*
X201549D01*
X245110Y3706368D02*
Y3719068D01*
X238760Y3716528D02*
X251460D01*
X245110D02*
X251460Y3708908D01*
X245110Y3716528D02*
X250190Y3708908D01*
X245110Y3716528D02*
X248920Y3708908D01*
X245110Y3716528D02*
X247650Y3708908D01*
X245110Y3716528D02*
X246380Y3708908D01*
X238760D02*
X245110Y3716528D01*
X240030Y3708908D02*
X245110Y3716528D01*
X241300Y3708908D02*
X245110Y3716528D01*
X242570Y3708908D02*
X245110Y3716528D01*
X243840Y3708908D02*
X245110Y3716528D01*
X238760Y3708908D02*
X251460D01*
X230251Y3606546D02*
Y3661156D01*
Y3606546D02*
X259969D01*
Y3661156D01*
X230251D02*
X259969D01*
X303530Y3706368D02*
Y3719068D01*
X297180Y3716528D02*
X309880D01*
X303530D02*
X309880Y3708908D01*
X303530Y3716528D02*
X308610Y3708908D01*
X303530Y3716528D02*
X307340Y3708908D01*
X303530Y3716528D02*
X306070Y3708908D01*
X303530Y3716528D02*
X304800Y3708908D01*
X297180D02*
X303530Y3716528D01*
X298450Y3708908D02*
X303530Y3716528D01*
X299720Y3708908D02*
X303530Y3716528D01*
X300990Y3708908D02*
X303530Y3716528D01*
X302260Y3708908D02*
X303530Y3716528D01*
X297180Y3708908D02*
X309880D01*
X288671Y3606546D02*
Y3661156D01*
Y3606546D02*
X318389D01*
Y3661156D01*
X288671D02*
X318389D01*
X1213930Y4129998D02*
Y4133846D01*
X1224470Y4129998D02*
Y4133846D01*
X1191133Y4119908D02*
Y4132044D01*
X1171067Y4119908D02*
Y4132044D01*
X518033Y4119908D02*
Y4132044D01*
X497967Y4119908D02*
Y4132044D01*
X1125030Y4129998D02*
Y4133846D01*
X1135570Y4129998D02*
Y4133846D01*
X1102233Y4119908D02*
Y4132044D01*
X1082167Y4119908D02*
Y4132044D01*
X441833Y4119908D02*
Y4132044D01*
X421767Y4119908D02*
Y4132044D01*
X1036130Y4129998D02*
Y4133846D01*
X1046670Y4129998D02*
Y4133846D01*
X1013333Y4119908D02*
Y4132044D01*
X993267Y4119908D02*
Y4132044D01*
X365633Y4119908D02*
Y4132044D01*
X345567Y4119908D02*
Y4132044D01*
X947230Y4129998D02*
Y4133846D01*
X957770Y4129998D02*
Y4133846D01*
X299530Y4129998D02*
Y4133846D01*
X310070Y4129998D02*
Y4133846D01*
X924433Y4119908D02*
Y4132044D01*
X904367Y4119908D02*
Y4132044D01*
X276733Y4119908D02*
Y4132044D01*
X256667Y4119908D02*
Y4132044D01*
X858330Y4129998D02*
Y4133846D01*
X868870Y4129998D02*
Y4133846D01*
X210630Y4129998D02*
Y4133846D01*
X221170Y4129998D02*
Y4133846D01*
X835533Y4119908D02*
Y4132044D01*
X815467Y4119908D02*
Y4132044D01*
X187833Y4119908D02*
Y4132044D01*
X167767Y4119908D02*
Y4132044D01*
X769430Y4129998D02*
Y4133846D01*
X779970Y4129998D02*
Y4133846D01*
X121730Y4129998D02*
Y4133846D01*
X132270Y4129998D02*
Y4133846D01*
X746633Y4119908D02*
Y4132044D01*
X726567Y4119908D02*
Y4132044D01*
X98933Y4119908D02*
Y4132044D01*
X78867Y4119908D02*
Y4132044D01*
X2649030Y4129998D02*
Y4133846D01*
X2659570Y4129998D02*
Y4133846D01*
X1975930Y4129998D02*
Y4133846D01*
X1986470Y4129998D02*
Y4133846D01*
X2626233Y4119908D02*
Y4132044D01*
X2606167Y4119908D02*
Y4132044D01*
X1953133Y4119908D02*
Y4132044D01*
X1933067Y4119908D02*
Y4132044D01*
X1155700Y3706368D02*
Y3719068D01*
X1149350Y3716528D02*
X1162050D01*
X1155700D02*
X1162050Y3708908D01*
X1155700Y3716528D02*
X1160780Y3708908D01*
X1155700Y3716528D02*
X1159510Y3708908D01*
X1155700Y3716528D02*
X1158240Y3708908D01*
X1155700Y3716528D02*
X1156970Y3708908D01*
X1149350D02*
X1155700Y3716528D01*
X1150620Y3708908D02*
X1155700Y3716528D01*
X1151890Y3708908D02*
X1155700Y3716528D01*
X1153160Y3708908D02*
X1155700Y3716528D01*
X1154430Y3708908D02*
X1155700Y3716528D01*
X1149350Y3708908D02*
X1162050D01*
X1140841Y3606546D02*
Y3661156D01*
Y3606546D02*
X1170559D01*
Y3661156D01*
X1140841D02*
X1170559D01*
X1229360Y3706368D02*
Y3719068D01*
X1223010Y3716528D02*
X1235710D01*
X1229360D02*
X1235710Y3708908D01*
X1229360Y3716528D02*
X1234440Y3708908D01*
X1229360Y3716528D02*
X1233170Y3708908D01*
X1229360Y3716528D02*
X1231900Y3708908D01*
X1229360Y3716528D02*
X1230630Y3708908D01*
X1223010D02*
X1229360Y3716528D01*
X1224280Y3708908D02*
X1229360Y3716528D01*
X1225550Y3708908D02*
X1229360Y3716528D01*
X1226820Y3708908D02*
X1229360Y3716528D01*
X1228090Y3708908D02*
X1229360Y3716528D01*
X1223010Y3708908D02*
X1235710D01*
X1214501Y3606546D02*
Y3661156D01*
Y3606546D02*
X1244219D01*
Y3661156D01*
X1214501D02*
X1244219D01*
X1300480Y3706368D02*
Y3719068D01*
X1294130Y3716528D02*
X1306830D01*
X1300480D02*
X1306830Y3708908D01*
X1300480Y3716528D02*
X1305560Y3708908D01*
X1300480Y3716528D02*
X1304290Y3708908D01*
X1300480Y3716528D02*
X1303020Y3708908D01*
X1300480Y3716528D02*
X1301750Y3708908D01*
X1294130D02*
X1300480Y3716528D01*
X1295400Y3708908D02*
X1300480Y3716528D01*
X1296670Y3708908D02*
X1300480Y3716528D01*
X1297940Y3708908D02*
X1300480Y3716528D01*
X1299210Y3708908D02*
X1300480Y3716528D01*
X1294130Y3708908D02*
X1306830D01*
X1285621Y3606546D02*
Y3661156D01*
Y3606546D02*
X1315339D01*
Y3661156D01*
X1285621D02*
X1315339D01*
X1371600Y3706368D02*
Y3719068D01*
X1365250Y3716528D02*
X1377950D01*
X1371600D02*
X1377950Y3708908D01*
X1371600Y3716528D02*
X1376680Y3708908D01*
X1371600Y3716528D02*
X1375410Y3708908D01*
X1371600Y3716528D02*
X1374140Y3708908D01*
X1371600Y3716528D02*
X1372870Y3708908D01*
X1365250D02*
X1371600Y3716528D01*
X1366520Y3708908D02*
X1371600Y3716528D01*
X1367790Y3708908D02*
X1371600Y3716528D01*
X1369060Y3708908D02*
X1371600Y3716528D01*
X1370330Y3708908D02*
X1371600Y3716528D01*
X1365250Y3708908D02*
X1377950D01*
X1356741Y3606546D02*
Y3661156D01*
Y3606546D02*
X1386459D01*
Y3661156D01*
X1356741D02*
X1386459D01*
X1442720Y3706368D02*
Y3719068D01*
X1436370Y3716528D02*
X1449070D01*
X1442720D02*
X1449070Y3708908D01*
X1442720Y3716528D02*
X1447800Y3708908D01*
X1442720Y3716528D02*
X1446530Y3708908D01*
X1442720Y3716528D02*
X1445260Y3708908D01*
X1442720Y3716528D02*
X1443990Y3708908D01*
X1436370D02*
X1442720Y3716528D01*
X1437640Y3708908D02*
X1442720Y3716528D01*
X1438910Y3708908D02*
X1442720Y3716528D01*
X1440180Y3708908D02*
X1442720Y3716528D01*
X1441450Y3708908D02*
X1442720Y3716528D01*
X1436370Y3708908D02*
X1449070D01*
X1427861Y3606546D02*
Y3661156D01*
Y3606546D02*
X1457579D01*
Y3661156D01*
X1427861D02*
X1457579D01*
X1513840Y3706368D02*
Y3719068D01*
X1507490Y3716528D02*
X1520190D01*
X1513840D02*
X1520190Y3708908D01*
X1513840Y3716528D02*
X1518920Y3708908D01*
X1513840Y3716528D02*
X1517650Y3708908D01*
X1513840Y3716528D02*
X1516380Y3708908D01*
X1513840Y3716528D02*
X1515110Y3708908D01*
X1507490D02*
X1513840Y3716528D01*
X1508760Y3708908D02*
X1513840Y3716528D01*
X1510030Y3708908D02*
X1513840Y3716528D01*
X1511300Y3708908D02*
X1513840Y3716528D01*
X1512570Y3708908D02*
X1513840Y3716528D01*
X1507490Y3708908D02*
X1520190D01*
X1498981Y3606546D02*
Y3661156D01*
Y3606546D02*
X1528699D01*
Y3661156D01*
X1498981D02*
X1528699D01*
X1584960Y3706368D02*
Y3719068D01*
X1578610Y3716528D02*
X1591310D01*
X1584960D02*
X1591310Y3708908D01*
X1584960Y3716528D02*
X1590040Y3708908D01*
X1584960Y3716528D02*
X1588770Y3708908D01*
X1584960Y3716528D02*
X1587500Y3708908D01*
X1584960Y3716528D02*
X1586230Y3708908D01*
X1578610D02*
X1584960Y3716528D01*
X1579880Y3708908D02*
X1584960Y3716528D01*
X1581150Y3708908D02*
X1584960Y3716528D01*
X1582420Y3708908D02*
X1584960Y3716528D01*
X1583690Y3708908D02*
X1584960Y3716528D01*
X1578610Y3708908D02*
X1591310D01*
X1570101Y3606546D02*
Y3661156D01*
Y3606546D02*
X1599819D01*
Y3661156D01*
X1570101D02*
X1599819D01*
X2560130Y4129998D02*
Y4133846D01*
X2570670Y4129998D02*
Y4133846D01*
X2537333Y4119908D02*
Y4132044D01*
X2517267Y4119908D02*
Y4132044D01*
X1864233Y4119908D02*
Y4132044D01*
X1844167Y4119908D02*
Y4132044D01*
X2471230Y4129998D02*
Y4133846D01*
X2481770Y4129998D02*
Y4133846D01*
X1775333Y4119908D02*
Y4132044D01*
X1755267Y4119908D02*
Y4132044D01*
X2382330Y4129998D02*
Y4133846D01*
X2392870Y4129998D02*
Y4133846D01*
X2359533Y4119908D02*
Y4132044D01*
X2339467Y4119908D02*
Y4132044D01*
X1686433Y4119908D02*
Y4132044D01*
X1666367Y4119908D02*
Y4132044D01*
X2293430Y4129998D02*
Y4133846D01*
X2303970Y4129998D02*
Y4133846D01*
X2270633Y4119908D02*
Y4132044D01*
X2250567Y4119908D02*
Y4132044D01*
X1597533Y4119908D02*
Y4132044D01*
X1577467Y4119908D02*
Y4132044D01*
X2204530Y4129998D02*
Y4133846D01*
X2215070Y4129998D02*
Y4133846D01*
X2181733Y4119908D02*
Y4132044D01*
X2161667Y4119908D02*
Y4132044D01*
X1508633Y4119908D02*
Y4132044D01*
X1488567Y4119908D02*
Y4132044D01*
X2115630Y4129998D02*
Y4133846D01*
X2126170Y4129998D02*
Y4133846D01*
X2092833Y4119908D02*
Y4132044D01*
X2072767Y4119908D02*
Y4132044D01*
X1419733Y4119908D02*
Y4132044D01*
X1399667Y4119908D02*
Y4132044D01*
X250190Y4342130D02*
X255954D01*
X486410Y4268470D02*
Y4342130D01*
X480646D02*
X486410D01*
X250190Y4268470D02*
Y4342130D01*
Y4268470D02*
X255880D01*
X277520D02*
X281354D01*
X302846D02*
X306754D01*
X328246D02*
X332154D01*
X353646D02*
X357554D01*
X379046D02*
X382954D01*
X404446D02*
X408354D01*
X429846D02*
X433754D01*
X455246D02*
X459154D01*
X480646D02*
X486410D01*
X455246Y4342130D02*
X459154D01*
X429846D02*
X433754D01*
X404446D02*
X408354D01*
X379046D02*
X382954D01*
X353646D02*
X357554D01*
X328246D02*
X332154D01*
X302846D02*
X306754D01*
X277446D02*
X281354D01*
X3042920Y3738399D02*
Y3780001D01*
X3078480Y3738399D02*
Y3780001D01*
X935990Y4342130D02*
X941754D01*
X1172210Y4268470D02*
Y4342130D01*
X1166446D02*
X1172210D01*
X935990Y4268470D02*
Y4342130D01*
Y4268470D02*
X941680D01*
X963320D02*
X967154D01*
X988646D02*
X992554D01*
X1014046D02*
X1017954D01*
X1039446D02*
X1043354D01*
X1064846D02*
X1068754D01*
X1090246D02*
X1094154D01*
X1115646D02*
X1119554D01*
X1141046D02*
X1144954D01*
X1166446D02*
X1172210D01*
X1141046Y4342130D02*
X1144954D01*
X1115646D02*
X1119554D01*
X1090246D02*
X1094154D01*
X1064846D02*
X1068754D01*
X1039446D02*
X1043354D01*
X1014046D02*
X1017954D01*
X988646D02*
X992554D01*
X963246D02*
X967154D01*
X1583690D02*
X1589454D01*
X1819910Y4268470D02*
Y4342130D01*
X1814146D02*
X1819910D01*
X1583690Y4268470D02*
Y4342130D01*
Y4268470D02*
X1589380D01*
X1611020D02*
X1614854D01*
X1636346D02*
X1640254D01*
X1661746D02*
X1665654D01*
X1687146D02*
X1691054D01*
X1712546D02*
X1716454D01*
X1737946D02*
X1741854D01*
X1763346D02*
X1767254D01*
X1788746D02*
X1792654D01*
X1814146D02*
X1819910D01*
X1788746Y4342130D02*
X1792654D01*
X1763346D02*
X1767254D01*
X1737946D02*
X1741854D01*
X1712546D02*
X1716454D01*
X1687146D02*
X1691054D01*
X1661746D02*
X1665654D01*
X1636346D02*
X1640254D01*
X1610946D02*
X1614854D01*
X2244090D02*
X2249854D01*
X2480310Y4268470D02*
Y4342130D01*
X2474546D02*
X2480310D01*
X2244090Y4268470D02*
Y4342130D01*
Y4268470D02*
X2249780D01*
X2271420D02*
X2275254D01*
X2296746D02*
X2300654D01*
X2322146D02*
X2326054D01*
X2347546D02*
X2351454D01*
X2372946D02*
X2376854D01*
X2398346D02*
X2402254D01*
X2423746D02*
X2427654D01*
X2449146D02*
X2453054D01*
X2474546D02*
X2480310D01*
X2449146Y4342130D02*
X2453054D01*
X2423746D02*
X2427654D01*
X2398346D02*
X2402254D01*
X2372946D02*
X2376854D01*
X2347546D02*
X2351454D01*
X2322146D02*
X2326054D01*
X2296746D02*
X2300654D01*
X2271346D02*
X2275254D01*
D15*
X309900Y1999300D02*
X655300D01*
X309900D02*
Y2522500D01*
X655300D01*
Y1999300D02*
Y2522500D01*
X244100Y1308100D02*
Y1917700D01*
X118100Y1308100D02*
Y1917700D01*
X244100D01*
X118100Y1308100D02*
X244100D01*
X309900Y2875300D02*
X655300D01*
X309900D02*
Y3398500D01*
X655300D01*
Y2875300D02*
Y3398500D01*
X2937500Y2032000D02*
X3063500D01*
X2937500Y2641600D02*
X3063500D01*
X2937500Y2032000D02*
Y2641600D01*
X3063500Y2032000D02*
Y2641600D01*
X2937500Y2882900D02*
X3063500D01*
X2937500Y3492500D02*
X3063500D01*
X2937500Y2882900D02*
Y3492500D01*
X3063500Y2882900D02*
Y3492500D01*
X655300Y1084600D02*
Y1607800D01*
X309900D02*
X655300D01*
X309900Y1084600D02*
Y1607800D01*
Y1084600D02*
X655300D01*
X2937500Y139700D02*
X3063500D01*
X2937500Y749300D02*
X3063500D01*
X2937500Y139700D02*
Y749300D01*
X3063500Y139700D02*
Y749300D01*
X655300Y144800D02*
Y668000D01*
X309900D02*
X655300D01*
X309900Y144800D02*
Y668000D01*
Y144800D02*
X655300D01*
X2937500Y1079500D02*
X3063500D01*
X2937500Y1689100D02*
X3063500D01*
X2937500Y1079500D02*
Y1689100D01*
X3063500Y1079500D02*
Y1689100D01*
D16*
X458216Y2843784D02*
Y2841075D01*
Y2842430D01*
X466341D01*
X464987Y2843784D01*
X458216Y2823470D02*
Y2828888D01*
X463633Y2823470D01*
X464987D01*
X466341Y2824825D01*
Y2827533D01*
X464987Y2828888D01*
Y2812637D02*
X466341Y2811282D01*
Y2808574D01*
X464987Y2807220D01*
X463633D01*
X462279Y2808574D01*
Y2809928D01*
Y2808574D01*
X460924Y2807220D01*
X459570D01*
X458216Y2808574D01*
Y2811282D01*
X459570Y2812637D01*
X458216Y2792323D02*
X466341D01*
X462279Y2796386D01*
Y2790969D01*
X466341Y2774718D02*
Y2780135D01*
X462279D01*
X463633Y2777427D01*
Y2776072D01*
X462279Y2774718D01*
X459570D01*
X458216Y2776072D01*
Y2778781D01*
X459570Y2780135D01*
X466341Y2758467D02*
X464987Y2761176D01*
X462279Y2763884D01*
X459570D01*
X458216Y2762530D01*
Y2759822D01*
X459570Y2758467D01*
X460924D01*
X462279Y2759822D01*
Y2763884D01*
X466341Y2747634D02*
Y2742217D01*
X464987D01*
X459570Y2747634D01*
X458216D01*
X464987Y2731383D02*
X466341Y2730029D01*
Y2727320D01*
X464987Y2725966D01*
X463633D01*
X462279Y2727320D01*
X460924Y2725966D01*
X459570D01*
X458216Y2727320D01*
Y2730029D01*
X459570Y2731383D01*
X460924D01*
X462279Y2730029D01*
X463633Y2731383D01*
X464987D01*
X462279Y2730029D02*
Y2727320D01*
X459570Y2715132D02*
X458216Y2713778D01*
Y2711069D01*
X459570Y2709715D01*
X464987D01*
X466341Y2711069D01*
Y2713778D01*
X464987Y2715132D01*
X463633D01*
X462279Y2713778D01*
Y2709715D01*
X458216Y2698881D02*
Y2696173D01*
Y2697527D01*
X466341D01*
X464987Y2698881D01*
Y2692110D02*
X466341Y2690756D01*
Y2688047D01*
X464987Y2686693D01*
X459570D01*
X458216Y2688047D01*
Y2690756D01*
X459570Y2692110D01*
X464987D01*
X458216Y2675859D02*
Y2673151D01*
Y2674505D01*
X466341D01*
X464987Y2675859D01*
X458216Y2669088D02*
Y2666380D01*
Y2667734D01*
X466341D01*
X464987Y2669088D01*
X458216Y2654192D02*
Y2651483D01*
Y2652838D01*
X466341D01*
X464987Y2654192D01*
X458216Y2642004D02*
Y2647421D01*
X463633Y2642004D01*
X464987D01*
X466341Y2643358D01*
Y2646066D01*
X464987Y2647421D01*
X458216Y2631170D02*
Y2628461D01*
Y2629816D01*
X466341D01*
X464987Y2631170D01*
Y2624399D02*
X466341Y2623044D01*
Y2620336D01*
X464987Y2618982D01*
X463633D01*
X462279Y2620336D01*
Y2621690D01*
Y2620336D01*
X460924Y2618982D01*
X459570D01*
X458216Y2620336D01*
Y2623044D01*
X459570Y2624399D01*
X458216Y2608148D02*
Y2605439D01*
Y2606794D01*
X466341D01*
X464987Y2608148D01*
X458216Y2597314D02*
X466341D01*
X462279Y2601377D01*
Y2595960D01*
X458216Y2585126D02*
Y2582418D01*
Y2583772D01*
X466341D01*
X464987Y2585126D01*
X466341Y2572938D02*
Y2578355D01*
X462279D01*
X463633Y2575646D01*
Y2574292D01*
X462279Y2572938D01*
X459570D01*
X458216Y2574292D01*
Y2577001D01*
X459570Y2578355D01*
X458216Y2562104D02*
Y2559396D01*
Y2560750D01*
X466341D01*
X464987Y2562104D01*
X466341Y2549916D02*
X464987Y2552625D01*
X462279Y2555333D01*
X459570D01*
X458216Y2553979D01*
Y2551270D01*
X459570Y2549916D01*
X460924D01*
X462279Y2551270D01*
Y2555333D01*
D17*
X796925Y1664120D02*
X805389Y1655656D01*
X796925D02*
X805389Y1664120D01*
X796925Y1659888D02*
X805389D01*
X801157Y1655656D02*
Y1664120D01*
X796925Y724320D02*
X805389Y715856D01*
X796925D02*
X805389Y724320D01*
X796925Y720088D02*
X805389D01*
X801157Y715856D02*
Y724320D01*
X2201379Y1507363D02*
X2209843Y1515827D01*
Y1507363D02*
X2201379Y1515827D01*
X2205611Y1507363D02*
Y1515827D01*
X2209843Y1511595D02*
X2201379D01*
X1737487Y1659421D02*
X1745951Y1650957D01*
X1737487D02*
X1745951Y1659421D01*
X1737487Y1655189D02*
X1745951D01*
X1741719Y1650957D02*
Y1659421D01*
X1267587D02*
X1276051Y1650957D01*
X1267587D02*
X1276051Y1659421D01*
X1267587Y1655189D02*
X1276051D01*
X1271819Y1650957D02*
Y1659421D01*
X2196680Y593725D02*
X2205144Y602189D01*
Y593725D02*
X2196680Y602189D01*
X2200912Y593725D02*
Y602189D01*
X2205144Y597957D02*
X2196680D01*
X2201379Y3336163D02*
X2209843Y3344627D01*
Y3336163D02*
X2201379Y3344627D01*
X2205611Y3336163D02*
Y3344627D01*
X2209843Y3340395D02*
X2201379D01*
Y2421763D02*
X2209843Y2430227D01*
Y2421763D02*
X2201379Y2430227D01*
X2205611Y2421763D02*
Y2430227D01*
X2209843Y2425995D02*
X2201379D01*
Y135763D02*
X2209843Y144227D01*
Y135763D02*
X2201379Y144227D01*
X2205611Y135763D02*
Y144227D01*
X2209843Y139995D02*
X2201379D01*
Y1964563D02*
X2209843Y1973027D01*
Y1964563D02*
X2201379Y1973027D01*
X2205611Y1964563D02*
Y1973027D01*
X2209843Y1968795D02*
X2201379D01*
Y1051687D02*
X2209843Y1060151D01*
Y1051687D02*
X2201379Y1060151D01*
X2205611Y1051687D02*
Y1060151D01*
X2209843Y1055919D02*
X2201379D01*
Y2878963D02*
X2209843Y2887427D01*
Y2878963D02*
X2201379Y2887427D01*
X2205611Y2878963D02*
Y2887427D01*
X2209843Y2883195D02*
X2201379D01*
X1737487Y719621D02*
X1745951Y711157D01*
X1737487D02*
X1745951Y719621D01*
X1737487Y715389D02*
X1745951D01*
X1741719Y711157D02*
Y719621D01*
X1735963Y3450121D02*
X1744427Y3441657D01*
X1735963D02*
X1744427Y3450121D01*
X1735963Y3445889D02*
X1744427D01*
X1740195Y3441657D02*
Y3450121D01*
X1736725Y2565820D02*
X1745189Y2557356D01*
X1736725D02*
X1745189Y2565820D01*
X1736725Y2561588D02*
X1745189D01*
X1740957Y2557356D02*
Y2565820D01*
X1267587Y3450121D02*
X1276051Y3441657D01*
X1267587D02*
X1276051Y3450121D01*
X1267587Y3445889D02*
X1276051D01*
X1271819Y3441657D02*
Y3450121D01*
X1266063Y719621D02*
X1274527Y711157D01*
X1266063D02*
X1274527Y719621D01*
X1266063Y715389D02*
X1274527D01*
X1270295Y711157D02*
Y719621D01*
X1266825Y2565820D02*
X1275289Y2557356D01*
X1266825D02*
X1275289Y2565820D01*
X1266825Y2561588D02*
X1275289D01*
X1271057Y2557356D02*
Y2565820D01*
X796925D02*
X805389Y2557356D01*
X796925D02*
X805389Y2565820D01*
X796925Y2561588D02*
X805389D01*
X801157Y2557356D02*
Y2565820D01*
X796925Y3454820D02*
X805389Y3446356D01*
X796925D02*
X805389Y3454820D01*
X796925Y3450588D02*
X805389D01*
X801157Y3446356D02*
Y3454820D01*
X1966380Y3848100D02*
X1957916Y3839636D01*
Y3848100D02*
X1966380Y3839636D01*
X1962148Y3848100D02*
Y3839636D01*
X1957916Y3843868D02*
X1966380D01*
X1432980Y3848100D02*
X1424516Y3839636D01*
Y3848100D02*
X1432980Y3839636D01*
X1428748Y3848100D02*
Y3839636D01*
X1424516Y3843868D02*
X1432980D01*
X924980Y3848100D02*
X916516Y3839636D01*
Y3848100D02*
X924980Y3839636D01*
X920748Y3848100D02*
Y3839636D01*
X916516Y3843868D02*
X924980D01*
X414694Y3855656D02*
X406230Y3847193D01*
Y3855656D02*
X414694Y3847193D01*
X410462Y3855656D02*
Y3847193D01*
X406230Y3851425D02*
X414694D01*
X243420Y4254500D02*
X251884Y4262964D01*
Y4254500D02*
X243420Y4262964D01*
X247652Y4254500D02*
Y4262964D01*
X251884Y4258732D02*
X243420D01*
X929220Y4254500D02*
X937684Y4262964D01*
Y4254500D02*
X929220Y4262964D01*
X933452Y4254500D02*
Y4262964D01*
X937684Y4258732D02*
X929220D01*
X1576920Y4254500D02*
X1585384Y4262964D01*
Y4254500D02*
X1576920Y4262964D01*
X1581152Y4254500D02*
Y4262964D01*
X1585384Y4258732D02*
X1576920D01*
X2237320Y4254500D02*
X2245784Y4262964D01*
Y4254500D02*
X2237320Y4262964D01*
X2241552Y4254500D02*
Y4262964D01*
X2245784Y4258732D02*
X2237320D01*
M02*
