G04*
G04 #@! TF.GenerationSoftware,Altium Limited,Altium Designer,22.7.1 (60)*
G04*
G04 Layer_Color=128*
%FSLAX44Y44*%
%MOMM*%
G71*
G04*
G04 #@! TF.SameCoordinates,AB4C0C0C-5A6A-49D6-917B-20FAC0EBF4F7*
G04*
G04*
G04 #@! TF.FilePolarity,Positive*
G04*
G01*
G75*
%ADD61C,0.0508*%
D61*
X790067Y3366262D02*
X810133D01*
X800100Y3356229D02*
Y3376295D01*
X790067Y3314700D02*
X810133D01*
X800100Y3304667D02*
Y3324733D01*
X1044067Y3314700D02*
X1064133D01*
X1054100Y3304667D02*
Y3324733D01*
X1044067Y3366262D02*
X1064133D01*
X1054100Y3356229D02*
Y3376295D01*
X1022838Y2929509D02*
X1042904D01*
X1032871Y2919476D02*
Y2939542D01*
X971276Y2929509D02*
X991342D01*
X981309Y2919476D02*
Y2939542D01*
X811296Y2929509D02*
X831362D01*
X821329Y2919476D02*
Y2939542D01*
X862858Y2929509D02*
X882924D01*
X872891Y2919476D02*
Y2939542D01*
X811296Y3007995D02*
X831362D01*
X821329Y2997962D02*
Y3018028D01*
X862858Y3007995D02*
X882924D01*
X872891Y2997962D02*
Y3018028D01*
X971276Y3007995D02*
X991342D01*
X981309Y2997962D02*
Y3018028D01*
X1022838Y3007995D02*
X1042904D01*
X1032871Y2997962D02*
Y3018028D01*
X811296Y3078099D02*
X831362D01*
X821329Y3068066D02*
Y3088132D01*
X862858Y3078099D02*
X882924D01*
X872891Y3068066D02*
Y3088132D01*
X971276Y3078099D02*
X991342D01*
X981309Y3068066D02*
Y3088132D01*
X1022838Y3078099D02*
X1042904D01*
X1032871Y3068066D02*
Y3088132D01*
X1022838Y2189099D02*
X1042904D01*
X1032871Y2179066D02*
Y2199132D01*
X971276Y2189099D02*
X991342D01*
X981309Y2179066D02*
Y2199132D01*
X862858Y2189099D02*
X882924D01*
X872891Y2179066D02*
Y2199132D01*
X811296Y2189099D02*
X831362D01*
X821329Y2179066D02*
Y2199132D01*
X1022838Y2118995D02*
X1042904D01*
X1032871Y2108962D02*
Y2129028D01*
X971276Y2118995D02*
X991342D01*
X981309Y2108962D02*
Y2129028D01*
X862858Y2118995D02*
X882924D01*
X872891Y2108962D02*
Y2129028D01*
X811296Y2118995D02*
X831362D01*
X821329Y2108962D02*
Y2129028D01*
X862858Y2040509D02*
X882924D01*
X872891Y2030476D02*
Y2050542D01*
X811296Y2040509D02*
X831362D01*
X821329Y2030476D02*
Y2050542D01*
X971276Y2040509D02*
X991342D01*
X981309Y2030476D02*
Y2050542D01*
X1022838Y2040509D02*
X1042904D01*
X1032871Y2030476D02*
Y2050542D01*
X1044067Y2477262D02*
X1064133D01*
X1054100Y2467229D02*
Y2487295D01*
X1044067Y2425700D02*
X1064133D01*
X1054100Y2415667D02*
Y2435733D01*
X790067Y2425700D02*
X810133D01*
X800100Y2415667D02*
Y2435733D01*
X790067Y2477262D02*
X810133D01*
X800100Y2467229D02*
Y2487295D01*
X790067Y1575562D02*
X810133D01*
X800100Y1565529D02*
Y1585595D01*
X790067Y1524000D02*
X810133D01*
X800100Y1513967D02*
Y1534033D01*
X1044067Y1524000D02*
X1064133D01*
X1054100Y1513967D02*
Y1534033D01*
X1044067Y1575562D02*
X1064133D01*
X1054100Y1565529D02*
Y1585595D01*
X1022838Y1138809D02*
X1042904D01*
X1032871Y1128776D02*
Y1148842D01*
X971276Y1138809D02*
X991342D01*
X981309Y1128776D02*
Y1148842D01*
X811296Y1138809D02*
X831362D01*
X821329Y1128776D02*
Y1148842D01*
X862858Y1138809D02*
X882924D01*
X872891Y1128776D02*
Y1148842D01*
X811296Y1217295D02*
X831362D01*
X821329Y1207262D02*
Y1227328D01*
X862858Y1217295D02*
X882924D01*
X872891Y1207262D02*
Y1227328D01*
X971276Y1217295D02*
X991342D01*
X981309Y1207262D02*
Y1227328D01*
X1022838Y1217295D02*
X1042904D01*
X1032871Y1207262D02*
Y1227328D01*
X811296Y1287399D02*
X831362D01*
X821329Y1277366D02*
Y1297432D01*
X862858Y1287399D02*
X882924D01*
X872891Y1277366D02*
Y1297432D01*
X971276Y1287399D02*
X991342D01*
X981309Y1277366D02*
Y1297432D01*
X1022838Y1287399D02*
X1042904D01*
X1032871Y1277366D02*
Y1297432D01*
X1022838Y347599D02*
X1042904D01*
X1032871Y337566D02*
Y357632D01*
X971276Y347599D02*
X991342D01*
X981309Y337566D02*
Y357632D01*
X862858Y347599D02*
X882924D01*
X872891Y337566D02*
Y357632D01*
X811296Y347599D02*
X831362D01*
X821329Y337566D02*
Y357632D01*
X1022838Y277495D02*
X1042904D01*
X1032871Y267462D02*
Y287528D01*
X971276Y277495D02*
X991342D01*
X981309Y267462D02*
Y287528D01*
X862858Y277495D02*
X882924D01*
X872891Y267462D02*
Y287528D01*
X811296Y277495D02*
X831362D01*
X821329Y267462D02*
Y287528D01*
X862858Y199009D02*
X882924D01*
X872891Y188976D02*
Y209042D01*
X811296Y199009D02*
X831362D01*
X821329Y188976D02*
Y209042D01*
X971276Y199009D02*
X991342D01*
X981309Y188976D02*
Y209042D01*
X1022838Y199009D02*
X1042904D01*
X1032871Y188976D02*
Y209042D01*
X1044067Y635762D02*
X1064133D01*
X1054100Y625729D02*
Y645795D01*
X1044067Y584200D02*
X1064133D01*
X1054100Y574167D02*
Y594233D01*
X790067Y584200D02*
X810133D01*
X800100Y574167D02*
Y594233D01*
X790067Y635762D02*
X810133D01*
X800100Y625729D02*
Y645795D01*
X1259967Y2477262D02*
X1280033D01*
X1270000Y2467229D02*
Y2487295D01*
X1259967Y2425700D02*
X1280033D01*
X1270000Y2415667D02*
Y2435733D01*
X1513967Y2425700D02*
X1534033D01*
X1524000Y2415667D02*
Y2435733D01*
X1513967Y2477262D02*
X1534033D01*
X1524000Y2467229D02*
Y2487295D01*
X1492738Y2040509D02*
X1512804D01*
X1502771Y2030476D02*
Y2050542D01*
X1441176Y2040509D02*
X1461242D01*
X1451209Y2030476D02*
Y2050542D01*
X1281196Y2040509D02*
X1301262D01*
X1291229Y2030476D02*
Y2050542D01*
X1332758Y2040509D02*
X1352824D01*
X1342791Y2030476D02*
Y2050542D01*
X1281196Y2118995D02*
X1301262D01*
X1291229Y2108962D02*
Y2129028D01*
X1332758Y2118995D02*
X1352824D01*
X1342791Y2108962D02*
Y2129028D01*
X1441176Y2118995D02*
X1461242D01*
X1451209Y2108962D02*
Y2129028D01*
X1492738Y2118995D02*
X1512804D01*
X1502771Y2108962D02*
Y2129028D01*
X1281196Y2189099D02*
X1301262D01*
X1291229Y2179066D02*
Y2199132D01*
X1332758Y2189099D02*
X1352824D01*
X1342791Y2179066D02*
Y2199132D01*
X1441176Y2189099D02*
X1461242D01*
X1451209Y2179066D02*
Y2199132D01*
X1492738Y2189099D02*
X1512804D01*
X1502771Y2179066D02*
Y2199132D01*
X1491976Y342900D02*
X1512042D01*
X1502009Y332867D02*
Y352933D01*
X1440414Y342900D02*
X1460480D01*
X1450447Y332867D02*
Y352933D01*
X1331996Y342900D02*
X1352062D01*
X1342029Y332867D02*
Y352933D01*
X1280434Y342900D02*
X1300500D01*
X1290467Y332867D02*
Y352933D01*
X1491976Y272796D02*
X1512042D01*
X1502009Y262763D02*
Y282829D01*
X1440414Y272796D02*
X1460480D01*
X1450447Y262763D02*
Y282829D01*
X1331996Y272796D02*
X1352062D01*
X1342029Y262763D02*
Y282829D01*
X1280434Y272796D02*
X1300500D01*
X1290467Y262763D02*
Y282829D01*
X1331996Y194310D02*
X1352062D01*
X1342029Y184277D02*
Y204343D01*
X1280434Y194310D02*
X1300500D01*
X1290467Y184277D02*
Y204343D01*
X1440414Y194310D02*
X1460480D01*
X1450447Y184277D02*
Y204343D01*
X1491976Y194310D02*
X1512042D01*
X1502009Y184277D02*
Y204343D01*
X1513205Y631063D02*
X1533271D01*
X1523238Y621030D02*
Y641096D01*
X1513205Y579501D02*
X1533271D01*
X1523238Y569468D02*
Y589534D01*
X1259205Y579501D02*
X1279271D01*
X1269238Y569468D02*
Y589534D01*
X1259205Y631063D02*
X1279271D01*
X1269238Y621030D02*
Y641096D01*
X1260729Y3361563D02*
X1280795D01*
X1270762Y3351530D02*
Y3371596D01*
X1260729Y3310001D02*
X1280795D01*
X1270762Y3299968D02*
Y3320034D01*
X1514729Y3310001D02*
X1534795D01*
X1524762Y3299968D02*
Y3320034D01*
X1514729Y3361563D02*
X1534795D01*
X1524762Y3351530D02*
Y3371596D01*
X1493500Y2924810D02*
X1513566D01*
X1503533Y2914777D02*
Y2934843D01*
X1441938Y2924810D02*
X1462004D01*
X1451971Y2914777D02*
Y2934843D01*
X1281958Y2924810D02*
X1302024D01*
X1291991Y2914777D02*
Y2934843D01*
X1333520Y2924810D02*
X1353586D01*
X1343553Y2914777D02*
Y2934843D01*
X1281958Y3003296D02*
X1302024D01*
X1291991Y2993263D02*
Y3013329D01*
X1333520Y3003296D02*
X1353586D01*
X1343553Y2993263D02*
Y3013329D01*
X1441938Y3003296D02*
X1462004D01*
X1451971Y2993263D02*
Y3013329D01*
X1493500Y3003296D02*
X1513566D01*
X1503533Y2993263D02*
Y3013329D01*
X1281958Y3073400D02*
X1302024D01*
X1291991Y3063367D02*
Y3083433D01*
X1333520Y3073400D02*
X1353586D01*
X1343553Y3063367D02*
Y3083433D01*
X1441938Y3073400D02*
X1462004D01*
X1451971Y3063367D02*
Y3083433D01*
X1493500Y3073400D02*
X1513566D01*
X1503533Y3063367D02*
Y3083433D01*
X1493500Y1282700D02*
X1513566D01*
X1503533Y1272667D02*
Y1292733D01*
X1441938Y1282700D02*
X1462004D01*
X1451971Y1272667D02*
Y1292733D01*
X1333520Y1282700D02*
X1353586D01*
X1343553Y1272667D02*
Y1292733D01*
X1281958Y1282700D02*
X1302024D01*
X1291991Y1272667D02*
Y1292733D01*
X1493500Y1212596D02*
X1513566D01*
X1503533Y1202563D02*
Y1222629D01*
X1441938Y1212596D02*
X1462004D01*
X1451971Y1202563D02*
Y1222629D01*
X1333520Y1212596D02*
X1353586D01*
X1343553Y1202563D02*
Y1222629D01*
X1281958Y1212596D02*
X1302024D01*
X1291991Y1202563D02*
Y1222629D01*
X1333520Y1134110D02*
X1353586D01*
X1343553Y1124077D02*
Y1144143D01*
X1281958Y1134110D02*
X1302024D01*
X1291991Y1124077D02*
Y1144143D01*
X1441938Y1134110D02*
X1462004D01*
X1451971Y1124077D02*
Y1144143D01*
X1493500Y1134110D02*
X1513566D01*
X1503533Y1124077D02*
Y1144143D01*
X1514729Y1570863D02*
X1534795D01*
X1524762Y1560830D02*
Y1580896D01*
X1514729Y1519301D02*
X1534795D01*
X1524762Y1509268D02*
Y1529334D01*
X1260729Y1519301D02*
X1280795D01*
X1270762Y1509268D02*
Y1529334D01*
X1260729Y1570863D02*
X1280795D01*
X1270762Y1560830D02*
Y1580896D01*
X1729867Y2477262D02*
X1749933D01*
X1739900Y2467229D02*
Y2487295D01*
X1729867Y2425700D02*
X1749933D01*
X1739900Y2415667D02*
Y2435733D01*
X1983867Y2425700D02*
X2003933D01*
X1993900Y2415667D02*
Y2435733D01*
X1983867Y2477262D02*
X2003933D01*
X1993900Y2467229D02*
Y2487295D01*
X1962638Y2040509D02*
X1982704D01*
X1972671Y2030476D02*
Y2050542D01*
X1911076Y2040509D02*
X1931142D01*
X1921109Y2030476D02*
Y2050542D01*
X1751096Y2040509D02*
X1771162D01*
X1761129Y2030476D02*
Y2050542D01*
X1802658Y2040509D02*
X1822724D01*
X1812691Y2030476D02*
Y2050542D01*
X1751096Y2118995D02*
X1771162D01*
X1761129Y2108962D02*
Y2129028D01*
X1802658Y2118995D02*
X1822724D01*
X1812691Y2108962D02*
Y2129028D01*
X1911076Y2118995D02*
X1931142D01*
X1921109Y2108962D02*
Y2129028D01*
X1962638Y2118995D02*
X1982704D01*
X1972671Y2108962D02*
Y2129028D01*
X1751096Y2189099D02*
X1771162D01*
X1761129Y2179066D02*
Y2199132D01*
X1802658Y2189099D02*
X1822724D01*
X1812691Y2179066D02*
Y2199132D01*
X1911076Y2189099D02*
X1931142D01*
X1921109Y2179066D02*
Y2199132D01*
X1962638Y2189099D02*
X1982704D01*
X1972671Y2179066D02*
Y2199132D01*
X1961876Y3073400D02*
X1981942D01*
X1971909Y3063367D02*
Y3083433D01*
X1910314Y3073400D02*
X1930380D01*
X1920347Y3063367D02*
Y3083433D01*
X1801896Y3073400D02*
X1821962D01*
X1811929Y3063367D02*
Y3083433D01*
X1750334Y3073400D02*
X1770400D01*
X1760367Y3063367D02*
Y3083433D01*
X1961876Y3003296D02*
X1981942D01*
X1971909Y2993263D02*
Y3013329D01*
X1910314Y3003296D02*
X1930380D01*
X1920347Y2993263D02*
Y3013329D01*
X1801896Y3003296D02*
X1821962D01*
X1811929Y2993263D02*
Y3013329D01*
X1750334Y3003296D02*
X1770400D01*
X1760367Y2993263D02*
Y3013329D01*
X1801896Y2924810D02*
X1821962D01*
X1811929Y2914777D02*
Y2934843D01*
X1750334Y2924810D02*
X1770400D01*
X1760367Y2914777D02*
Y2934843D01*
X1910314Y2924810D02*
X1930380D01*
X1920347Y2914777D02*
Y2934843D01*
X1961876Y2924810D02*
X1981942D01*
X1971909Y2914777D02*
Y2934843D01*
X1983105Y3361563D02*
X2003171D01*
X1993138Y3351530D02*
Y3371596D01*
X1983105Y3310001D02*
X2003171D01*
X1993138Y3299968D02*
Y3320034D01*
X1729105Y3310001D02*
X1749171D01*
X1739138Y3299968D02*
Y3320034D01*
X1729105Y3361563D02*
X1749171D01*
X1739138Y3351530D02*
Y3371596D01*
X1730629Y631063D02*
X1750695D01*
X1740662Y621030D02*
Y641096D01*
X1730629Y579501D02*
X1750695D01*
X1740662Y569468D02*
Y589534D01*
X1984629Y579501D02*
X2004695D01*
X1994662Y569468D02*
Y589534D01*
X1984629Y631063D02*
X2004695D01*
X1994662Y621030D02*
Y641096D01*
X1963400Y194310D02*
X1983466D01*
X1973433Y184277D02*
Y204343D01*
X1911838Y194310D02*
X1931904D01*
X1921871Y184277D02*
Y204343D01*
X1751858Y194310D02*
X1771924D01*
X1761891Y184277D02*
Y204343D01*
X1803420Y194310D02*
X1823486D01*
X1813453Y184277D02*
Y204343D01*
X1751858Y272796D02*
X1771924D01*
X1761891Y262763D02*
Y282829D01*
X1803420Y272796D02*
X1823486D01*
X1813453Y262763D02*
Y282829D01*
X1911838Y272796D02*
X1931904D01*
X1921871Y262763D02*
Y282829D01*
X1963400Y272796D02*
X1983466D01*
X1973433Y262763D02*
Y282829D01*
X1751858Y342900D02*
X1771924D01*
X1761891Y332867D02*
Y352933D01*
X1803420Y342900D02*
X1823486D01*
X1813453Y332867D02*
Y352933D01*
X1911838Y342900D02*
X1931904D01*
X1921871Y332867D02*
Y352933D01*
X1963400Y342900D02*
X1983466D01*
X1973433Y332867D02*
Y352933D01*
X1963400Y1282700D02*
X1983466D01*
X1973433Y1272667D02*
Y1292733D01*
X1911838Y1282700D02*
X1931904D01*
X1921871Y1272667D02*
Y1292733D01*
X1803420Y1282700D02*
X1823486D01*
X1813453Y1272667D02*
Y1292733D01*
X1751858Y1282700D02*
X1771924D01*
X1761891Y1272667D02*
Y1292733D01*
X1963400Y1212596D02*
X1983466D01*
X1973433Y1202563D02*
Y1222629D01*
X1911838Y1212596D02*
X1931904D01*
X1921871Y1202563D02*
Y1222629D01*
X1803420Y1212596D02*
X1823486D01*
X1813453Y1202563D02*
Y1222629D01*
X1751858Y1212596D02*
X1771924D01*
X1761891Y1202563D02*
Y1222629D01*
X1803420Y1134110D02*
X1823486D01*
X1813453Y1124077D02*
Y1144143D01*
X1751858Y1134110D02*
X1771924D01*
X1761891Y1124077D02*
Y1144143D01*
X1911838Y1134110D02*
X1931904D01*
X1921871Y1124077D02*
Y1144143D01*
X1963400Y1134110D02*
X1983466D01*
X1973433Y1124077D02*
Y1144143D01*
X1984629Y1570863D02*
X2004695D01*
X1994662Y1560830D02*
Y1580896D01*
X1984629Y1519301D02*
X2004695D01*
X1994662Y1509268D02*
Y1529334D01*
X1730629Y1519301D02*
X1750695D01*
X1740662Y1509268D02*
Y1529334D01*
X1730629Y1570863D02*
X1750695D01*
X1740662Y1560830D02*
Y1580896D01*
X2279904Y2882138D02*
X2299970D01*
X2289937Y2872105D02*
Y2892171D01*
X2331466Y2882138D02*
X2351532D01*
X2341499Y2872105D02*
Y2892171D01*
X2331466Y3136138D02*
X2351532D01*
X2341499Y3126105D02*
Y3146171D01*
X2279904Y3136138D02*
X2299970D01*
X2289937Y3126105D02*
Y3146171D01*
X2716657Y3114909D02*
X2736723D01*
X2726690Y3104876D02*
Y3124942D01*
X2716657Y3063347D02*
X2736723D01*
X2726690Y3053314D02*
Y3073380D01*
X2716657Y2903367D02*
X2736723D01*
X2726690Y2893334D02*
Y2913400D01*
X2716657Y2954929D02*
X2736723D01*
X2726690Y2944896D02*
Y2964962D01*
X2638171Y2903367D02*
X2658237D01*
X2648204Y2893334D02*
Y2913400D01*
X2638171Y2954929D02*
X2658237D01*
X2648204Y2944896D02*
Y2964962D01*
X2638171Y3063347D02*
X2658237D01*
X2648204Y3053314D02*
Y3073380D01*
X2638171Y3114909D02*
X2658237D01*
X2648204Y3104876D02*
Y3124942D01*
X2568067Y2903367D02*
X2588133D01*
X2578100Y2893334D02*
Y2913400D01*
X2568067Y2954929D02*
X2588133D01*
X2578100Y2944896D02*
Y2964962D01*
X2568067Y3063347D02*
X2588133D01*
X2578100Y3053314D02*
Y3073380D01*
X2568067Y3114909D02*
X2588133D01*
X2578100Y3104876D02*
Y3124942D01*
X2568067Y1287633D02*
X2588133D01*
X2578100Y1277600D02*
Y1297666D01*
X2568067Y1236071D02*
X2588133D01*
X2578100Y1226038D02*
Y1246104D01*
X2568067Y1127653D02*
X2588133D01*
X2578100Y1117620D02*
Y1137686D01*
X2568067Y1076091D02*
X2588133D01*
X2578100Y1066058D02*
Y1086124D01*
X2638171Y1287633D02*
X2658237D01*
X2648204Y1277600D02*
Y1297666D01*
X2638171Y1236071D02*
X2658237D01*
X2648204Y1226038D02*
Y1246104D01*
X2638171Y1127653D02*
X2658237D01*
X2648204Y1117620D02*
Y1137686D01*
X2638171Y1076091D02*
X2658237D01*
X2648204Y1066058D02*
Y1086124D01*
X2716657Y1127653D02*
X2736723D01*
X2726690Y1117620D02*
Y1137686D01*
X2716657Y1076091D02*
X2736723D01*
X2726690Y1066058D02*
Y1086124D01*
X2716657Y1236071D02*
X2736723D01*
X2726690Y1226038D02*
Y1246104D01*
X2716657Y1287633D02*
X2736723D01*
X2726690Y1277600D02*
Y1297666D01*
X2279904Y1308862D02*
X2299970D01*
X2289937Y1298829D02*
Y1318895D01*
X2331466Y1308862D02*
X2351532D01*
X2341499Y1298829D02*
Y1318895D01*
X2331466Y1054862D02*
X2351532D01*
X2341499Y1044829D02*
Y1064895D01*
X2279904Y1054862D02*
X2299970D01*
X2289937Y1044829D02*
Y1064895D01*
X2279904Y1967738D02*
X2299970D01*
X2289937Y1957705D02*
Y1977771D01*
X2331466Y1967738D02*
X2351532D01*
X2341499Y1957705D02*
Y1977771D01*
X2331466Y2221738D02*
X2351532D01*
X2341499Y2211705D02*
Y2231771D01*
X2279904Y2221738D02*
X2299970D01*
X2289937Y2211705D02*
Y2231771D01*
X2716657Y2200509D02*
X2736723D01*
X2726690Y2190476D02*
Y2210542D01*
X2716657Y2148947D02*
X2736723D01*
X2726690Y2138914D02*
Y2158980D01*
X2716657Y1988967D02*
X2736723D01*
X2726690Y1978934D02*
Y1999000D01*
X2716657Y2040529D02*
X2736723D01*
X2726690Y2030496D02*
Y2050562D01*
X2638171Y1988967D02*
X2658237D01*
X2648204Y1978934D02*
Y1999000D01*
X2638171Y2040529D02*
X2658237D01*
X2648204Y2030496D02*
Y2050562D01*
X2638171Y2148947D02*
X2658237D01*
X2648204Y2138914D02*
Y2158980D01*
X2638171Y2200509D02*
X2658237D01*
X2648204Y2190476D02*
Y2210542D01*
X2568067Y1988967D02*
X2588133D01*
X2578100Y1978934D02*
Y1999000D01*
X2568067Y2040529D02*
X2588133D01*
X2578100Y2030496D02*
Y2050562D01*
X2568067Y2148947D02*
X2588133D01*
X2578100Y2138914D02*
Y2158980D01*
X2568067Y2200509D02*
X2588133D01*
X2578100Y2190476D02*
Y2210542D01*
X2568067Y371709D02*
X2588133D01*
X2578100Y361676D02*
Y381742D01*
X2568067Y320147D02*
X2588133D01*
X2578100Y310114D02*
Y330180D01*
X2568067Y211729D02*
X2588133D01*
X2578100Y201696D02*
Y221762D01*
X2568067Y160167D02*
X2588133D01*
X2578100Y150134D02*
Y170200D01*
X2638171Y371709D02*
X2658237D01*
X2648204Y361676D02*
Y381742D01*
X2638171Y320147D02*
X2658237D01*
X2648204Y310114D02*
Y330180D01*
X2638171Y211729D02*
X2658237D01*
X2648204Y201696D02*
Y221762D01*
X2638171Y160167D02*
X2658237D01*
X2648204Y150134D02*
Y170200D01*
X2716657Y211729D02*
X2736723D01*
X2726690Y201696D02*
Y221762D01*
X2716657Y160167D02*
X2736723D01*
X2726690Y150134D02*
Y170200D01*
X2716657Y320147D02*
X2736723D01*
X2726690Y310114D02*
Y330180D01*
X2716657Y371709D02*
X2736723D01*
X2726690Y361676D02*
Y381742D01*
X2279904Y392938D02*
X2299970D01*
X2289937Y382905D02*
Y402971D01*
X2331466Y392938D02*
X2351532D01*
X2341499Y382905D02*
Y402971D01*
X2331466Y138938D02*
X2351532D01*
X2341499Y128905D02*
Y148971D01*
X2279904Y138938D02*
X2299970D01*
X2289937Y128905D02*
Y148971D01*
X2279904Y1510538D02*
X2299970D01*
X2289937Y1500505D02*
Y1520571D01*
X2331466Y1510538D02*
X2351532D01*
X2341499Y1500505D02*
Y1520571D01*
X2331466Y1764538D02*
X2351532D01*
X2341499Y1754505D02*
Y1774571D01*
X2279904Y1764538D02*
X2299970D01*
X2289937Y1754505D02*
Y1774571D01*
X2716657Y1743309D02*
X2736723D01*
X2726690Y1733276D02*
Y1753342D01*
X2716657Y1691747D02*
X2736723D01*
X2726690Y1681714D02*
Y1701780D01*
X2716657Y1531767D02*
X2736723D01*
X2726690Y1521734D02*
Y1541800D01*
X2716657Y1583329D02*
X2736723D01*
X2726690Y1573296D02*
Y1593362D01*
X2638171Y1531767D02*
X2658237D01*
X2648204Y1521734D02*
Y1541800D01*
X2638171Y1583329D02*
X2658237D01*
X2648204Y1573296D02*
Y1593362D01*
X2638171Y1691747D02*
X2658237D01*
X2648204Y1681714D02*
Y1701780D01*
X2638171Y1743309D02*
X2658237D01*
X2648204Y1733276D02*
Y1753342D01*
X2568067Y1531767D02*
X2588133D01*
X2578100Y1521734D02*
Y1541800D01*
X2568067Y1583329D02*
X2588133D01*
X2578100Y1573296D02*
Y1593362D01*
X2568067Y1691747D02*
X2588133D01*
X2578100Y1681714D02*
Y1701780D01*
X2568067Y1743309D02*
X2588133D01*
X2578100Y1733276D02*
Y1753342D01*
X2568067Y2657709D02*
X2588133D01*
X2578100Y2647676D02*
Y2667742D01*
X2568067Y2606147D02*
X2588133D01*
X2578100Y2596114D02*
Y2616180D01*
X2568067Y2497729D02*
X2588133D01*
X2578100Y2487696D02*
Y2507762D01*
X2568067Y2446167D02*
X2588133D01*
X2578100Y2436134D02*
Y2456200D01*
X2638171Y2657709D02*
X2658237D01*
X2648204Y2647676D02*
Y2667742D01*
X2638171Y2606147D02*
X2658237D01*
X2648204Y2596114D02*
Y2616180D01*
X2638171Y2497729D02*
X2658237D01*
X2648204Y2487696D02*
Y2507762D01*
X2638171Y2446167D02*
X2658237D01*
X2648204Y2436134D02*
Y2456200D01*
X2716657Y2497729D02*
X2736723D01*
X2726690Y2487696D02*
Y2507762D01*
X2716657Y2446167D02*
X2736723D01*
X2726690Y2436134D02*
Y2456200D01*
X2716657Y2606147D02*
X2736723D01*
X2726690Y2596114D02*
Y2616180D01*
X2716657Y2657709D02*
X2736723D01*
X2726690Y2647676D02*
Y2667742D01*
X2279904Y2678938D02*
X2299970D01*
X2289937Y2668905D02*
Y2688971D01*
X2331466Y2678938D02*
X2351532D01*
X2341499Y2668905D02*
Y2688971D01*
X2331466Y2424938D02*
X2351532D01*
X2341499Y2414905D02*
Y2434971D01*
X2279904Y2424938D02*
X2299970D01*
X2289937Y2414905D02*
Y2434971D01*
X2279904Y3339338D02*
X2299970D01*
X2289937Y3329305D02*
Y3349371D01*
X2331466Y3339338D02*
X2351532D01*
X2341499Y3329305D02*
Y3349371D01*
X2331466Y3593338D02*
X2351532D01*
X2341499Y3583305D02*
Y3603371D01*
X2279904Y3593338D02*
X2299970D01*
X2289937Y3583305D02*
Y3603371D01*
X2716657Y3572109D02*
X2736723D01*
X2726690Y3562076D02*
Y3582142D01*
X2716657Y3520547D02*
X2736723D01*
X2726690Y3510514D02*
Y3530580D01*
X2716657Y3360567D02*
X2736723D01*
X2726690Y3350534D02*
Y3370600D01*
X2716657Y3412129D02*
X2736723D01*
X2726690Y3402096D02*
Y3422162D01*
X2638171Y3360567D02*
X2658237D01*
X2648204Y3350534D02*
Y3370600D01*
X2638171Y3412129D02*
X2658237D01*
X2648204Y3402096D02*
Y3422162D01*
X2638171Y3520547D02*
X2658237D01*
X2648204Y3510514D02*
Y3530580D01*
X2638171Y3572109D02*
X2658237D01*
X2648204Y3562076D02*
Y3582142D01*
X2568067Y3360567D02*
X2588133D01*
X2578100Y3350534D02*
Y3370600D01*
X2568067Y3412129D02*
X2588133D01*
X2578100Y3402096D02*
Y3422162D01*
X2568067Y3520547D02*
X2588133D01*
X2578100Y3510514D02*
Y3530580D01*
X2568067Y3572109D02*
X2588133D01*
X2578100Y3562076D02*
Y3582142D01*
X2563368Y829671D02*
X2583434D01*
X2573401Y819638D02*
Y839704D01*
X2563368Y778109D02*
X2583434D01*
X2573401Y768076D02*
Y788142D01*
X2563368Y669691D02*
X2583434D01*
X2573401Y659658D02*
Y679724D01*
X2563368Y618129D02*
X2583434D01*
X2573401Y608096D02*
Y628162D01*
X2633472Y829671D02*
X2653538D01*
X2643505Y819638D02*
Y839704D01*
X2633472Y778109D02*
X2653538D01*
X2643505Y768076D02*
Y788142D01*
X2633472Y669691D02*
X2653538D01*
X2643505Y659658D02*
Y679724D01*
X2633472Y618129D02*
X2653538D01*
X2643505Y608096D02*
Y628162D01*
X2711958Y669691D02*
X2732024D01*
X2721991Y659658D02*
Y679724D01*
X2711958Y618129D02*
X2732024D01*
X2721991Y608096D02*
Y628162D01*
X2711958Y778109D02*
X2732024D01*
X2721991Y768076D02*
Y788142D01*
X2711958Y829671D02*
X2732024D01*
X2721991Y819638D02*
Y839704D01*
X2275205Y850900D02*
X2295271D01*
X2285238Y840867D02*
Y860933D01*
X2326767Y850900D02*
X2346833D01*
X2336800Y840867D02*
Y860933D01*
X2326767Y596900D02*
X2346833D01*
X2336800Y586867D02*
Y606933D01*
X2275205Y596900D02*
X2295271D01*
X2285238Y586867D02*
Y606933D01*
X1668950Y1790700D02*
X1721950D01*
X1695450Y1764200D02*
Y1817200D01*
X367200Y901700D02*
X420200D01*
X393700Y875200D02*
Y928200D01*
X2970700Y901700D02*
X3023700D01*
X2997200Y875200D02*
Y928200D01*
X113200Y3314700D02*
X166200D01*
X139700Y3288200D02*
Y3341200D01*
X2970700Y4076700D02*
X3023700D01*
X2997200Y4050200D02*
Y4103200D01*
X3063555Y4225300D02*
X3072445D01*
X3068000Y4220855D02*
Y4229745D01*
X3043555Y4225300D02*
X3052445D01*
X3048000Y4220855D02*
Y4229745D01*
X3063555Y4245300D02*
X3072445D01*
X3068000Y4240855D02*
Y4249745D01*
X3043555Y4245300D02*
X3052445D01*
X3048000Y4240855D02*
Y4249745D01*
X3063555Y4265300D02*
X3072445D01*
X3068000Y4260855D02*
Y4269745D01*
X3043555Y4265300D02*
X3052445D01*
X3048000Y4260855D02*
Y4269745D01*
X3063555Y4285300D02*
X3072445D01*
X3068000Y4280855D02*
Y4289745D01*
X3043555Y4285300D02*
X3052445D01*
X3048000Y4280855D02*
Y4289745D01*
X3063555Y4305300D02*
X3072445D01*
X3068000Y4300855D02*
Y4309745D01*
X3043555Y4305300D02*
X3052445D01*
X3048000Y4300855D02*
Y4309745D01*
X2485390Y3746500D02*
X2493010D01*
X2489200Y3742690D02*
Y3750310D01*
X2434590Y3746500D02*
X2442210D01*
X2438400Y3742690D02*
Y3750310D01*
X2332990Y3746500D02*
X2340610D01*
X2336800Y3742690D02*
Y3750310D01*
X2383790Y3746500D02*
X2391410D01*
X2387600Y3742690D02*
Y3750310D01*
X366770Y2040500D02*
X386830D01*
X376800Y2030470D02*
Y2050530D01*
X418370Y2040500D02*
X438430D01*
X428400Y2030470D02*
Y2050530D01*
X418370Y2119000D02*
X438430D01*
X428400Y2108970D02*
Y2129030D01*
X366770Y2119000D02*
X386830D01*
X376800Y2108970D02*
Y2129030D01*
X578370Y2040500D02*
X598430D01*
X588400Y2030470D02*
Y2050530D01*
X526770Y2040500D02*
X546830D01*
X536800Y2030470D02*
Y2050530D01*
X526770Y2119000D02*
X546830D01*
X536800Y2108970D02*
Y2129030D01*
X578370Y2119000D02*
X598430D01*
X588400Y2108970D02*
Y2129030D01*
X345570Y2425700D02*
X365630D01*
X355600Y2415670D02*
Y2435730D01*
X345570Y2477300D02*
X365630D01*
X355600Y2467270D02*
Y2487330D01*
X599570Y2477300D02*
X619630D01*
X609600Y2467270D02*
Y2487330D01*
X599570Y2425700D02*
X619630D01*
X609600Y2415670D02*
Y2435730D01*
X157100Y1879600D02*
X173100D01*
X165100Y1871600D02*
Y1887600D01*
X157100Y1803400D02*
X173100D01*
X165100Y1795400D02*
Y1811400D01*
X157100Y1727200D02*
X173100D01*
X165100Y1719200D02*
Y1735200D01*
X157100Y1651000D02*
X173100D01*
X165100Y1643000D02*
Y1659000D01*
X157100Y1574800D02*
X173100D01*
X165100Y1566800D02*
Y1582800D01*
X157100Y1498600D02*
X173100D01*
X165100Y1490600D02*
Y1506600D01*
X157100Y1422400D02*
X173100D01*
X165100Y1414400D02*
Y1430400D01*
X157100Y1346200D02*
X173100D01*
X165100Y1338200D02*
Y1354200D01*
X366770Y2916500D02*
X386830D01*
X376800Y2906470D02*
Y2926530D01*
X418370Y2916500D02*
X438430D01*
X428400Y2906470D02*
Y2926530D01*
X418370Y2995000D02*
X438430D01*
X428400Y2984970D02*
Y3005030D01*
X366770Y2995000D02*
X386830D01*
X376800Y2984970D02*
Y3005030D01*
X578370Y2916500D02*
X598430D01*
X588400Y2906470D02*
Y2926530D01*
X526770Y2916500D02*
X546830D01*
X536800Y2906470D02*
Y2926530D01*
X526770Y2995000D02*
X546830D01*
X536800Y2984970D02*
Y3005030D01*
X578370Y2995000D02*
X598430D01*
X588400Y2984970D02*
Y3005030D01*
X345570Y3301700D02*
X365630D01*
X355600Y3291670D02*
Y3311730D01*
X345570Y3353300D02*
X365630D01*
X355600Y3343270D02*
Y3363330D01*
X599570Y3353300D02*
X619630D01*
X609600Y3343270D02*
Y3363330D01*
X599570Y3301700D02*
X619630D01*
X609600Y3291670D02*
Y3311730D01*
X1150112Y3573272D02*
X1161288D01*
X1155700Y3567684D02*
Y3578860D01*
X1835912Y3574542D02*
X1847088D01*
X1841500Y3568954D02*
Y3580130D01*
X1835912Y3695700D02*
X1847088D01*
X1841500Y3690112D02*
Y3701288D01*
X2049272Y3573272D02*
X2060448D01*
X2054860Y3567684D02*
Y3578860D01*
X2049272Y3694430D02*
X2060448D01*
X2054860Y3688842D02*
Y3700018D01*
X2122932Y3573272D02*
X2134108D01*
X2128520Y3567684D02*
Y3578860D01*
X2122932Y3694430D02*
X2134108D01*
X2128520Y3688842D02*
Y3700018D01*
X1754632Y3573272D02*
X1765808D01*
X1760220Y3567684D02*
Y3578860D01*
X1754632Y3694430D02*
X1765808D01*
X1760220Y3688842D02*
Y3700018D01*
X1975612Y3573272D02*
X1986788D01*
X1981200Y3567684D02*
Y3578860D01*
X1975612Y3694430D02*
X1986788D01*
X1981200Y3688842D02*
Y3700018D01*
X1680972Y3573272D02*
X1692148D01*
X1686560Y3567684D02*
Y3578860D01*
X1680972Y3694430D02*
X1692148D01*
X1686560Y3688842D02*
Y3700018D01*
X1901952Y3573272D02*
X1913128D01*
X1907540Y3567684D02*
Y3578860D01*
X1901952Y3694430D02*
X1913128D01*
X1907540Y3688842D02*
Y3700018D01*
X527812Y3574542D02*
X538988D01*
X533400Y3568954D02*
Y3580130D01*
X527812Y3695700D02*
X538988D01*
X533400Y3690112D02*
Y3701288D01*
X473202Y3573272D02*
X484378D01*
X478790Y3567684D02*
Y3578860D01*
X473202Y3694430D02*
X484378D01*
X478790Y3688842D02*
Y3700018D01*
X414782Y3573272D02*
X425958D01*
X420370Y3567684D02*
Y3578860D01*
X414782Y3694430D02*
X425958D01*
X420370Y3688842D02*
Y3700018D01*
X356362Y3573272D02*
X367538D01*
X361950Y3567684D02*
Y3578860D01*
X356362Y3694430D02*
X367538D01*
X361950Y3688842D02*
Y3700018D01*
X640842Y3694430D02*
X652018D01*
X646430Y3688842D02*
Y3700018D01*
X640842Y3573272D02*
X652018D01*
X646430Y3567684D02*
Y3578860D01*
X711962Y3694430D02*
X723138D01*
X717550Y3688842D02*
Y3700018D01*
X711962Y3573272D02*
X723138D01*
X717550Y3567684D02*
Y3578860D01*
X783082Y3694430D02*
X794258D01*
X788670Y3688842D02*
Y3700018D01*
X783082Y3573272D02*
X794258D01*
X788670Y3567684D02*
Y3578860D01*
X849122Y3694430D02*
X860298D01*
X854710Y3688842D02*
Y3700018D01*
X849122Y3573272D02*
X860298D01*
X854710Y3567684D02*
Y3578860D01*
X920242Y3694430D02*
X931418D01*
X925830Y3688842D02*
Y3700018D01*
X920242Y3573272D02*
X931418D01*
X925830Y3567684D02*
Y3578860D01*
X978662Y3694430D02*
X989838D01*
X984250Y3688842D02*
Y3700018D01*
X978662Y3573272D02*
X989838D01*
X984250Y3567684D02*
Y3578860D01*
X1037082Y3694430D02*
X1048258D01*
X1042670Y3688842D02*
Y3700018D01*
X1037082Y3573272D02*
X1048258D01*
X1042670Y3567684D02*
Y3578860D01*
X181102Y3694430D02*
X192278D01*
X186690Y3688842D02*
Y3700018D01*
X181102Y3573272D02*
X192278D01*
X186690Y3567684D02*
Y3578860D01*
X239522Y3694430D02*
X250698D01*
X245110Y3688842D02*
Y3700018D01*
X239522Y3573272D02*
X250698D01*
X245110Y3567684D02*
Y3578860D01*
X297942Y3694430D02*
X309118D01*
X303530Y3688842D02*
Y3700018D01*
X297942Y3573272D02*
X309118D01*
X303530Y3567684D02*
Y3578860D01*
X1150112Y3694430D02*
X1161288D01*
X1155700Y3688842D02*
Y3700018D01*
X1223772Y3694430D02*
X1234948D01*
X1229360Y3688842D02*
Y3700018D01*
X1223772Y3573272D02*
X1234948D01*
X1229360Y3567684D02*
Y3578860D01*
X1294892Y3694430D02*
X1306068D01*
X1300480Y3688842D02*
Y3700018D01*
X1294892Y3573272D02*
X1306068D01*
X1300480Y3567684D02*
Y3578860D01*
X1366012Y3694430D02*
X1377188D01*
X1371600Y3688842D02*
Y3700018D01*
X1366012Y3573272D02*
X1377188D01*
X1371600Y3567684D02*
Y3578860D01*
X1437132Y3694430D02*
X1448308D01*
X1442720Y3688842D02*
Y3700018D01*
X1437132Y3573272D02*
X1448308D01*
X1442720Y3567684D02*
Y3578860D01*
X1508252Y3694430D02*
X1519428D01*
X1513840Y3688842D02*
Y3700018D01*
X1508252Y3573272D02*
X1519428D01*
X1513840Y3567684D02*
Y3578860D01*
X1579372Y3694430D02*
X1590548D01*
X1584960Y3688842D02*
Y3700018D01*
X1579372Y3573272D02*
X1590548D01*
X1584960Y3567684D02*
Y3578860D01*
X261747Y4267200D02*
X271653D01*
X266700Y4262247D02*
Y4272153D01*
X287147Y4267200D02*
X297053D01*
X292100Y4262247D02*
Y4272153D01*
X312547Y4267200D02*
X322453D01*
X317500Y4262247D02*
Y4272153D01*
X337947Y4267200D02*
X347853D01*
X342900Y4262247D02*
Y4272153D01*
X363347Y4267200D02*
X373253D01*
X368300Y4262247D02*
Y4272153D01*
X388747Y4267200D02*
X398653D01*
X393700Y4262247D02*
Y4272153D01*
X414147Y4267200D02*
X424053D01*
X419100Y4262247D02*
Y4272153D01*
X439547Y4267200D02*
X449453D01*
X444500Y4262247D02*
Y4272153D01*
X464947Y4267200D02*
X474853D01*
X469900Y4262247D02*
Y4272153D01*
X464947Y4343400D02*
X474853D01*
X469900Y4338447D02*
Y4348353D01*
X439547Y4343400D02*
X449453D01*
X444500Y4338447D02*
Y4348353D01*
X414147Y4343400D02*
X424053D01*
X419100Y4338447D02*
Y4348353D01*
X388747Y4343400D02*
X398653D01*
X393700Y4338447D02*
Y4348353D01*
X363347Y4343400D02*
X373253D01*
X368300Y4338447D02*
Y4348353D01*
X337947Y4343400D02*
X347853D01*
X342900Y4338447D02*
Y4348353D01*
X312547Y4343400D02*
X322453D01*
X317500Y4338447D02*
Y4348353D01*
X287147Y4343400D02*
X297053D01*
X292100Y4338447D02*
Y4348353D01*
X261747Y4343400D02*
X271653D01*
X266700Y4338447D02*
Y4348353D01*
X3014600Y3632200D02*
X3030600D01*
X3022600Y3624200D02*
Y3640200D01*
X2968600Y3632200D02*
X2986600D01*
X2977600Y3623200D02*
Y3641200D01*
X3014600Y3886200D02*
X3030600D01*
X3022600Y3878200D02*
Y3894200D01*
X2968600Y3886200D02*
X2986600D01*
X2977600Y3877200D02*
Y3895200D01*
X947547Y4267200D02*
X957453D01*
X952500Y4262247D02*
Y4272153D01*
X972947Y4267200D02*
X982853D01*
X977900Y4262247D02*
Y4272153D01*
X998347Y4267200D02*
X1008253D01*
X1003300Y4262247D02*
Y4272153D01*
X1023747Y4267200D02*
X1033653D01*
X1028700Y4262247D02*
Y4272153D01*
X1049147Y4267200D02*
X1059053D01*
X1054100Y4262247D02*
Y4272153D01*
X1074547Y4267200D02*
X1084453D01*
X1079500Y4262247D02*
Y4272153D01*
X1099947Y4267200D02*
X1109853D01*
X1104900Y4262247D02*
Y4272153D01*
X1125347Y4267200D02*
X1135253D01*
X1130300Y4262247D02*
Y4272153D01*
X1150747Y4267200D02*
X1160653D01*
X1155700Y4262247D02*
Y4272153D01*
X1150747Y4343400D02*
X1160653D01*
X1155700Y4338447D02*
Y4348353D01*
X1125347Y4343400D02*
X1135253D01*
X1130300Y4338447D02*
Y4348353D01*
X1099947Y4343400D02*
X1109853D01*
X1104900Y4338447D02*
Y4348353D01*
X1074547Y4343400D02*
X1084453D01*
X1079500Y4338447D02*
Y4348353D01*
X1049147Y4343400D02*
X1059053D01*
X1054100Y4338447D02*
Y4348353D01*
X1023747Y4343400D02*
X1033653D01*
X1028700Y4338447D02*
Y4348353D01*
X998347Y4343400D02*
X1008253D01*
X1003300Y4338447D02*
Y4348353D01*
X972947Y4343400D02*
X982853D01*
X977900Y4338447D02*
Y4348353D01*
X947547Y4343400D02*
X957453D01*
X952500Y4338447D02*
Y4348353D01*
X1595247Y4267200D02*
X1605153D01*
X1600200Y4262247D02*
Y4272153D01*
X1620647Y4267200D02*
X1630553D01*
X1625600Y4262247D02*
Y4272153D01*
X1646047Y4267200D02*
X1655953D01*
X1651000Y4262247D02*
Y4272153D01*
X1671447Y4267200D02*
X1681353D01*
X1676400Y4262247D02*
Y4272153D01*
X1696847Y4267200D02*
X1706753D01*
X1701800Y4262247D02*
Y4272153D01*
X1722247Y4267200D02*
X1732153D01*
X1727200Y4262247D02*
Y4272153D01*
X1747647Y4267200D02*
X1757553D01*
X1752600Y4262247D02*
Y4272153D01*
X1773047Y4267200D02*
X1782953D01*
X1778000Y4262247D02*
Y4272153D01*
X1798447Y4267200D02*
X1808353D01*
X1803400Y4262247D02*
Y4272153D01*
X1798447Y4343400D02*
X1808353D01*
X1803400Y4338447D02*
Y4348353D01*
X1773047Y4343400D02*
X1782953D01*
X1778000Y4338447D02*
Y4348353D01*
X1747647Y4343400D02*
X1757553D01*
X1752600Y4338447D02*
Y4348353D01*
X1722247Y4343400D02*
X1732153D01*
X1727200Y4338447D02*
Y4348353D01*
X1696847Y4343400D02*
X1706753D01*
X1701800Y4338447D02*
Y4348353D01*
X1671447Y4343400D02*
X1681353D01*
X1676400Y4338447D02*
Y4348353D01*
X1646047Y4343400D02*
X1655953D01*
X1651000Y4338447D02*
Y4348353D01*
X1620647Y4343400D02*
X1630553D01*
X1625600Y4338447D02*
Y4348353D01*
X1595247Y4343400D02*
X1605153D01*
X1600200Y4338447D02*
Y4348353D01*
X2255647Y4267200D02*
X2265553D01*
X2260600Y4262247D02*
Y4272153D01*
X2281047Y4267200D02*
X2290953D01*
X2286000Y4262247D02*
Y4272153D01*
X2306447Y4267200D02*
X2316353D01*
X2311400Y4262247D02*
Y4272153D01*
X2331847Y4267200D02*
X2341753D01*
X2336800Y4262247D02*
Y4272153D01*
X2357247Y4267200D02*
X2367153D01*
X2362200Y4262247D02*
Y4272153D01*
X2382647Y4267200D02*
X2392553D01*
X2387600Y4262247D02*
Y4272153D01*
X2408047Y4267200D02*
X2417953D01*
X2413000Y4262247D02*
Y4272153D01*
X2433447Y4267200D02*
X2443353D01*
X2438400Y4262247D02*
Y4272153D01*
X2458847Y4267200D02*
X2468753D01*
X2463800Y4262247D02*
Y4272153D01*
X2458847Y4343400D02*
X2468753D01*
X2463800Y4338447D02*
Y4348353D01*
X2433447Y4343400D02*
X2443353D01*
X2438400Y4338447D02*
Y4348353D01*
X2408047Y4343400D02*
X2417953D01*
X2413000Y4338447D02*
Y4348353D01*
X2382647Y4343400D02*
X2392553D01*
X2387600Y4338447D02*
Y4348353D01*
X2357247Y4343400D02*
X2367153D01*
X2362200Y4338447D02*
Y4348353D01*
X2331847Y4343400D02*
X2341753D01*
X2336800Y4338447D02*
Y4348353D01*
X2306447Y4343400D02*
X2316353D01*
X2311400Y4338447D02*
Y4348353D01*
X2281047Y4343400D02*
X2290953D01*
X2286000Y4338447D02*
Y4348353D01*
X2255647Y4343400D02*
X2265553D01*
X2260600Y4338447D02*
Y4348353D01*
X2976500Y2070100D02*
X2992500D01*
X2984500Y2062100D02*
Y2078100D01*
X2976500Y2146300D02*
X2992500D01*
X2984500Y2138300D02*
Y2154300D01*
X2976500Y2222500D02*
X2992500D01*
X2984500Y2214500D02*
Y2230500D01*
X2976500Y2298700D02*
X2992500D01*
X2984500Y2290700D02*
Y2306700D01*
X2976500Y2374900D02*
X2992500D01*
X2984500Y2366900D02*
Y2382900D01*
X2976500Y2451100D02*
X2992500D01*
X2984500Y2443100D02*
Y2459100D01*
X2976500Y2527300D02*
X2992500D01*
X2984500Y2519300D02*
Y2535300D01*
X2976500Y2603500D02*
X2992500D01*
X2984500Y2595500D02*
Y2611500D01*
X2976500Y2921000D02*
X2992500D01*
X2984500Y2913000D02*
Y2929000D01*
X2976500Y2997200D02*
X2992500D01*
X2984500Y2989200D02*
Y3005200D01*
X2976500Y3073400D02*
X2992500D01*
X2984500Y3065400D02*
Y3081400D01*
X2976500Y3149600D02*
X2992500D01*
X2984500Y3141600D02*
Y3157600D01*
X2976500Y3225800D02*
X2992500D01*
X2984500Y3217800D02*
Y3233800D01*
X2976500Y3302000D02*
X2992500D01*
X2984500Y3294000D02*
Y3310000D01*
X2976500Y3378200D02*
X2992500D01*
X2984500Y3370200D02*
Y3386200D01*
X2976500Y3454400D02*
X2992500D01*
X2984500Y3446400D02*
Y3462400D01*
X599570Y1511000D02*
X619630D01*
X609600Y1500970D02*
Y1521030D01*
X599570Y1562600D02*
X619630D01*
X609600Y1552570D02*
Y1572630D01*
X345570Y1562600D02*
X365630D01*
X355600Y1552570D02*
Y1572630D01*
X345570Y1511000D02*
X365630D01*
X355600Y1500970D02*
Y1521030D01*
X578370Y1204300D02*
X598430D01*
X588400Y1194270D02*
Y1214330D01*
X526770Y1204300D02*
X546830D01*
X536800Y1194270D02*
Y1214330D01*
X526770Y1125800D02*
X546830D01*
X536800Y1115770D02*
Y1135830D01*
X578370Y1125800D02*
X598430D01*
X588400Y1115770D02*
Y1135830D01*
X366770Y1204300D02*
X386830D01*
X376800Y1194270D02*
Y1214330D01*
X418370Y1204300D02*
X438430D01*
X428400Y1194270D02*
Y1214330D01*
X418370Y1125800D02*
X438430D01*
X428400Y1115770D02*
Y1135830D01*
X366770Y1125800D02*
X386830D01*
X376800Y1115770D02*
Y1135830D01*
X2976500Y177800D02*
X2992500D01*
X2984500Y169800D02*
Y185800D01*
X2976500Y254000D02*
X2992500D01*
X2984500Y246000D02*
Y262000D01*
X2976500Y330200D02*
X2992500D01*
X2984500Y322200D02*
Y338200D01*
X2976500Y406400D02*
X2992500D01*
X2984500Y398400D02*
Y414400D01*
X2976500Y482600D02*
X2992500D01*
X2984500Y474600D02*
Y490600D01*
X2976500Y558800D02*
X2992500D01*
X2984500Y550800D02*
Y566800D01*
X2976500Y635000D02*
X2992500D01*
X2984500Y627000D02*
Y643000D01*
X2976500Y711200D02*
X2992500D01*
X2984500Y703200D02*
Y719200D01*
X599570Y571200D02*
X619630D01*
X609600Y561170D02*
Y581230D01*
X599570Y622800D02*
X619630D01*
X609600Y612770D02*
Y632830D01*
X345570Y622800D02*
X365630D01*
X355600Y612770D02*
Y632830D01*
X345570Y571200D02*
X365630D01*
X355600Y561170D02*
Y581230D01*
X578370Y264500D02*
X598430D01*
X588400Y254470D02*
Y274530D01*
X526770Y264500D02*
X546830D01*
X536800Y254470D02*
Y274530D01*
X526770Y186000D02*
X546830D01*
X536800Y175970D02*
Y196030D01*
X578370Y186000D02*
X598430D01*
X588400Y175970D02*
Y196030D01*
X366770Y264500D02*
X386830D01*
X376800Y254470D02*
Y274530D01*
X418370Y264500D02*
X438430D01*
X428400Y254470D02*
Y274530D01*
X418370Y186000D02*
X438430D01*
X428400Y175970D02*
Y196030D01*
X366770Y186000D02*
X386830D01*
X376800Y175970D02*
Y196030D01*
X2976500Y1117600D02*
X2992500D01*
X2984500Y1109600D02*
Y1125600D01*
X2976500Y1193800D02*
X2992500D01*
X2984500Y1185800D02*
Y1201800D01*
X2976500Y1270000D02*
X2992500D01*
X2984500Y1262000D02*
Y1278000D01*
X2976500Y1346200D02*
X2992500D01*
X2984500Y1338200D02*
Y1354200D01*
X2976500Y1422400D02*
X2992500D01*
X2984500Y1414400D02*
Y1430400D01*
X2976500Y1498600D02*
X2992500D01*
X2984500Y1490600D02*
Y1506600D01*
X2976500Y1574800D02*
X2992500D01*
X2984500Y1566800D02*
Y1582800D01*
X2976500Y1651000D02*
X2992500D01*
X2984500Y1643000D02*
Y1659000D01*
X729624Y1702085D02*
X736736D01*
X733180Y1698529D02*
Y1705641D01*
X745670Y1685309D02*
X752782D01*
X749226Y1681754D02*
Y1688866D01*
X762202Y1700991D02*
X769314D01*
X765758Y1697435D02*
Y1704547D01*
X745670Y1717523D02*
X752782D01*
X749226Y1713967D02*
Y1721079D01*
X745744Y1701800D02*
X752856D01*
X749300Y1698244D02*
Y1705356D01*
X2193544Y2120900D02*
X2200656D01*
X2197100Y2117344D02*
Y2124456D01*
X640684Y1917919D02*
X647796D01*
X644240Y1914363D02*
Y1921475D01*
X656902Y1901405D02*
X664014D01*
X660458Y1897849D02*
Y1904961D01*
X673120Y1916444D02*
X680232D01*
X676676Y1912888D02*
Y1920000D01*
X657197Y1934727D02*
X664309D01*
X660753Y1931171D02*
Y1938282D01*
X656844Y1917700D02*
X663956D01*
X660400Y1914144D02*
Y1921256D01*
X1927860Y3759200D02*
X1932940D01*
X1930400Y3756660D02*
Y3761740D01*
X1940560Y3771900D02*
X1945640D01*
X1943100Y3769360D02*
Y3774440D01*
X1915160Y3771900D02*
X1920240D01*
X1917700Y3769360D02*
Y3774440D01*
X2168144Y3416300D02*
X2175256D01*
X2171700Y3412744D02*
Y3419856D01*
X2424430Y4229100D02*
X2426970D01*
X2425700Y4227830D02*
Y4230370D01*
X2206244Y2514600D02*
X2213356D01*
X2209800Y2511044D02*
Y2518156D01*
X713063Y3518852D02*
X720175D01*
X716619Y3515296D02*
Y3522408D01*
X713828Y3550588D02*
X720940D01*
X717384Y3547032D02*
Y3554144D01*
X1304544Y3530600D02*
X1311656D01*
X1308100Y3527044D02*
Y3534156D01*
X1447799Y3531870D02*
X1454911D01*
X1451355Y3528314D02*
Y3535426D01*
X593344Y3492500D02*
X600456D01*
X596900Y3488944D02*
Y3496056D01*
X479044Y3479800D02*
X486156D01*
X482600Y3476244D02*
Y3483356D01*
X555244Y3467100D02*
X562356D01*
X558800Y3463544D02*
Y3470656D01*
X517144Y3454400D02*
X524256D01*
X520700Y3450844D02*
Y3457956D01*
X517144Y3492500D02*
X524256D01*
X520700Y3488944D02*
Y3496056D01*
X542544Y3505200D02*
X549656D01*
X546100Y3501644D02*
Y3508756D01*
X2128774Y3441700D02*
X2135886D01*
X2132330Y3438144D02*
Y3445256D01*
X2168144Y2971800D02*
X2175256D01*
X2171700Y2968244D02*
Y2975356D01*
X1024673Y1687123D02*
X1031785D01*
X1028229Y1683567D02*
Y1690679D01*
X999710Y1687338D02*
X1006822D01*
X1003266Y1683782D02*
Y1690894D01*
X1001001Y1664958D02*
X1008113D01*
X1004557Y1661402D02*
Y1668514D01*
X1024673Y1665604D02*
X1031785D01*
X1028229Y1662048D02*
Y1669160D01*
X1114624Y1801175D02*
X1121736D01*
X1118180Y1797619D02*
Y1804731D01*
X1114624Y1778795D02*
X1121736D01*
X1118180Y1775239D02*
Y1782351D01*
X1138081Y1778365D02*
X1145192D01*
X1141637Y1774809D02*
Y1781921D01*
X1138296Y1801821D02*
X1145407D01*
X1141852Y1798265D02*
Y1805377D01*
X1012444Y1676400D02*
X1019556D01*
X1016000Y1672844D02*
Y1679956D01*
X1126744Y1790700D02*
X1133856D01*
X1130300Y1787144D02*
Y1794256D01*
X429006Y4229100D02*
X434594D01*
X431800Y4226306D02*
Y4231894D01*
X1114806Y4229100D02*
X1120394D01*
X1117600Y4226306D02*
Y4231894D01*
X1762506Y4229100D02*
X1768094D01*
X1765300Y4226306D02*
Y4231894D01*
X364744Y3467100D02*
X371856D01*
X368300Y3463544D02*
Y3470656D01*
X326644Y3467100D02*
X333756D01*
X330200Y3463544D02*
Y3470656D01*
X440944Y3467100D02*
X448056D01*
X444500Y3463544D02*
Y3470656D01*
X402844Y3467100D02*
X409956D01*
X406400Y3463544D02*
Y3470656D01*
X835660Y3771900D02*
X840740D01*
X838200Y3769360D02*
Y3774440D01*
X1977644Y3492500D02*
X1984756D01*
X1981200Y3488944D02*
Y3496056D01*
X2053844Y3479800D02*
X2060956D01*
X2057400Y3476244D02*
Y3483356D01*
X1356360Y3771900D02*
X1361440D01*
X1358900Y3769360D02*
Y3774440D01*
X1343660Y3759200D02*
X1348740D01*
X1346200Y3756660D02*
Y3761740D01*
X822960Y3759200D02*
X828040D01*
X825500Y3756660D02*
Y3761740D01*
X810260Y3771900D02*
X815340D01*
X812800Y3769360D02*
Y3774440D01*
X861060Y3759200D02*
X866140D01*
X863600Y3756660D02*
Y3761740D01*
X873760Y3771900D02*
X878840D01*
X876300Y3769360D02*
Y3774440D01*
X886460Y3759200D02*
X891540D01*
X889000Y3756660D02*
Y3761740D01*
X899160Y3771900D02*
X904240D01*
X901700Y3769360D02*
Y3774440D01*
X327660Y3759200D02*
X332740D01*
X330200Y3756660D02*
Y3761740D01*
X391160Y3759200D02*
X396240D01*
X393700Y3756660D02*
Y3761740D01*
X403860Y3771900D02*
X408940D01*
X406400Y3769360D02*
Y3774440D01*
X365760Y3759200D02*
X370840D01*
X368300Y3756660D02*
Y3761740D01*
X340360Y3771900D02*
X345440D01*
X342900Y3769360D02*
Y3774440D01*
X378460Y3771900D02*
X383540D01*
X381000Y3769360D02*
Y3774440D01*
X314960Y3771900D02*
X320040D01*
X317500Y3769360D02*
Y3774440D01*
X1381760Y3771900D02*
X1386840D01*
X1384300Y3769360D02*
Y3774440D01*
X1407160Y3771900D02*
X1412240D01*
X1409700Y3769360D02*
Y3774440D01*
X1394460Y3759200D02*
X1399540D01*
X1397000Y3756660D02*
Y3761740D01*
X1369060Y3759200D02*
X1374140D01*
X1371600Y3756660D02*
Y3761740D01*
X1330960Y3771900D02*
X1336040D01*
X1333500Y3769360D02*
Y3774440D01*
X1902460Y3759200D02*
X1907540D01*
X1905000Y3756660D02*
Y3761740D01*
X1889760Y3771900D02*
X1894840D01*
X1892300Y3769360D02*
Y3774440D01*
X1864360Y3771900D02*
X1869440D01*
X1866900Y3769360D02*
Y3774440D01*
X1877060Y3759200D02*
X1882140D01*
X1879600Y3756660D02*
Y3761740D01*
X2676906Y4102100D02*
X2682494D01*
X2679700Y4099306D02*
Y4104894D01*
X2588006Y4102100D02*
X2593594D01*
X2590800Y4099306D02*
Y4104894D01*
X2499106Y4102100D02*
X2504694D01*
X2501900Y4099306D02*
Y4104894D01*
X2410206Y4102100D02*
X2415794D01*
X2413000Y4099306D02*
Y4104894D01*
X2321306Y4102100D02*
X2326894D01*
X2324100Y4099306D02*
Y4104894D01*
X2232406Y4102100D02*
X2237994D01*
X2235200Y4099306D02*
Y4104894D01*
X2143506Y4102100D02*
X2149094D01*
X2146300Y4099306D02*
Y4104894D01*
X2003806Y4102100D02*
X2009394D01*
X2006600Y4099306D02*
Y4104894D01*
X1914906Y4089400D02*
X1920494D01*
X1917700Y4086606D02*
Y4092194D01*
X1826006Y4089400D02*
X1831594D01*
X1828800Y4086606D02*
Y4092194D01*
X1737106Y4102100D02*
X1742694D01*
X1739900Y4099306D02*
Y4104894D01*
X1648206Y4102100D02*
X1653794D01*
X1651000Y4099306D02*
Y4104894D01*
X1559306Y4102100D02*
X1564894D01*
X1562100Y4099306D02*
Y4104894D01*
X1470406Y4102100D02*
X1475994D01*
X1473200Y4099306D02*
Y4104894D01*
X1330706Y4102100D02*
X1336294D01*
X1333500Y4099306D02*
Y4104894D01*
X1241806Y4102100D02*
X1247394D01*
X1244600Y4099306D02*
Y4104894D01*
X1152262Y4102660D02*
X1157850D01*
X1155056Y4099866D02*
Y4105454D01*
X1064006Y4102100D02*
X1069594D01*
X1066800Y4099306D02*
Y4104894D01*
X975106Y4102100D02*
X980694D01*
X977900Y4099306D02*
Y4104894D01*
X886206Y4102100D02*
X891794D01*
X889000Y4099306D02*
Y4104894D01*
X784606Y4102100D02*
X790194D01*
X787400Y4099306D02*
Y4104894D01*
X644906Y4102100D02*
X650494D01*
X647700Y4099306D02*
Y4104894D01*
X556006Y4102100D02*
X561594D01*
X558800Y4099306D02*
Y4104894D01*
X479806Y4102100D02*
X485394D01*
X482600Y4099306D02*
Y4104894D01*
X403606Y4102100D02*
X409194D01*
X406400Y4099306D02*
Y4104894D01*
X327406Y4102100D02*
X332994D01*
X330200Y4099306D02*
Y4104894D01*
X238506Y4102100D02*
X244094D01*
X241300Y4099306D02*
Y4104894D01*
X149606Y4102100D02*
X155194D01*
X152400Y4099306D02*
Y4104894D01*
M02*
