G04*
G04 #@! TF.GenerationSoftware,Altium Limited,Altium Designer,22.7.1 (60)*
G04*
G04 Layer_Color=2752767*
%FSLAX44Y44*%
%MOMM*%
G71*
G04*
G04 #@! TF.SameCoordinates,CA18EF67-D3C3-4F87-89B0-68471F1DA954*
G04*
G04*
G04 #@! TF.FilePolarity,Positive*
G04*
G01*
G75*
%ADD61C,0.0508*%
%ADD62C,0.0677*%
%ADD63C,0.0339*%
D61*
X1649984Y1802384D02*
Y1801368D01*
X1652016D01*
Y1802384D01*
X1653032D01*
Y1804416D01*
X1652016D01*
Y1805432D01*
X1649984D01*
Y1804416D01*
X1648968D01*
Y1802384D01*
X1649984D01*
X1650492Y1802892D02*
Y1802384D01*
X1651508D01*
Y1802892D01*
X1652016D01*
Y1803908D01*
X1651508D01*
Y1804416D01*
X1650492D01*
Y1803908D01*
X1649984D01*
Y1802892D01*
X1650492D01*
X392684Y900684D02*
Y899668D01*
X394716D01*
Y900684D01*
X395732D01*
Y902716D01*
X394716D01*
Y903732D01*
X392684D01*
Y902716D01*
X391668D01*
Y900684D01*
X392684D01*
X393192Y901192D02*
Y900684D01*
X394208D01*
Y901192D01*
X394716D01*
Y902208D01*
X394208D01*
Y902716D01*
X393192D01*
Y902208D01*
X392684D01*
Y901192D01*
X393192D01*
X2996184Y900684D02*
Y899668D01*
X2998216D01*
Y900684D01*
X2999232D01*
Y902716D01*
X2998216D01*
Y903732D01*
X2996184D01*
Y902716D01*
X2995168D01*
Y900684D01*
X2996184D01*
X2996692Y901192D02*
Y900684D01*
X2997708D01*
Y901192D01*
X2998216D01*
Y902208D01*
X2997708D01*
Y902716D01*
X2996692D01*
Y902208D01*
X2996184D01*
Y901192D01*
X2996692D01*
X151384Y3402584D02*
Y3401568D01*
X153416D01*
Y3402584D01*
X154432D01*
Y3404616D01*
X153416D01*
Y3405632D01*
X151384D01*
Y3404616D01*
X150368D01*
Y3402584D01*
X151384D01*
X151892Y3403092D02*
Y3402584D01*
X152908D01*
Y3403092D01*
X153416D01*
Y3404108D01*
X152908D01*
Y3404616D01*
X151892D01*
Y3404108D01*
X151384D01*
Y3403092D01*
X151892D01*
X2996184Y4075684D02*
Y4074668D01*
X2998216D01*
Y4075684D01*
X2999232D01*
Y4077716D01*
X2998216D01*
Y4078732D01*
X2996184D01*
Y4077716D01*
X2995168D01*
Y4075684D01*
X2996184D01*
X2996692Y4076192D02*
Y4075684D01*
X2997708D01*
Y4076192D01*
X2998216D01*
Y4077208D01*
X2997708D01*
Y4077716D01*
X2996692D01*
Y4077208D01*
X2996184D01*
Y4076192D01*
X2996692D01*
X799084Y1574546D02*
Y1573530D01*
X801116D01*
Y1574546D01*
X802132D01*
Y1576578D01*
X801116D01*
Y1577594D01*
X799084D01*
Y1576578D01*
X798068D01*
Y1574546D01*
X799084D01*
Y1522984D02*
Y1521968D01*
X801116D01*
Y1522984D01*
X802132D01*
Y1525016D01*
X801116D01*
Y1526032D01*
X799084D01*
Y1525016D01*
X798068D01*
Y1522984D01*
X799084D01*
X1053084D02*
Y1521968D01*
X1055116D01*
Y1522984D01*
X1056132D01*
Y1525016D01*
X1055116D01*
Y1526032D01*
X1053084D01*
Y1525016D01*
X1052068D01*
Y1522984D01*
X1053084D01*
Y1574546D02*
Y1573530D01*
X1055116D01*
Y1574546D01*
X1056132D01*
Y1576578D01*
X1055116D01*
Y1577594D01*
X1053084D01*
Y1576578D01*
X1052068D01*
Y1574546D01*
X1053084D01*
Y1137793D02*
Y1136777D01*
X1055116D01*
Y1137793D01*
X1056132D01*
Y1139825D01*
X1055116D01*
Y1140841D01*
X1053084D01*
Y1139825D01*
X1052068D01*
Y1137793D01*
X1053084D01*
X1001522D02*
Y1136777D01*
X1003554D01*
Y1137793D01*
X1004570D01*
Y1139825D01*
X1003554D01*
Y1140841D01*
X1001522D01*
Y1139825D01*
X1000506D01*
Y1137793D01*
X1001522D01*
X799084D02*
Y1136777D01*
X801116D01*
Y1137793D01*
X802132D01*
Y1139825D01*
X801116D01*
Y1140841D01*
X799084D01*
Y1139825D01*
X798068D01*
Y1137793D01*
X799084D01*
X850646D02*
Y1136777D01*
X852678D01*
Y1137793D01*
X853694D01*
Y1139825D01*
X852678D01*
Y1140841D01*
X850646D01*
Y1139825D01*
X849630D01*
Y1137793D01*
X850646D01*
X799084Y1216279D02*
Y1215263D01*
X801116D01*
Y1216279D01*
X802132D01*
Y1218311D01*
X801116D01*
Y1219327D01*
X799084D01*
Y1218311D01*
X798068D01*
Y1216279D01*
X799084D01*
X850646D02*
Y1215263D01*
X852678D01*
Y1216279D01*
X853694D01*
Y1218311D01*
X852678D01*
Y1219327D01*
X850646D01*
Y1218311D01*
X849630D01*
Y1216279D01*
X850646D01*
X1001522D02*
Y1215263D01*
X1003554D01*
Y1216279D01*
X1004570D01*
Y1218311D01*
X1003554D01*
Y1219327D01*
X1001522D01*
Y1218311D01*
X1000506D01*
Y1216279D01*
X1001522D01*
X1053084D02*
Y1215263D01*
X1055116D01*
Y1216279D01*
X1056132D01*
Y1218311D01*
X1055116D01*
Y1219327D01*
X1053084D01*
Y1218311D01*
X1052068D01*
Y1216279D01*
X1053084D01*
X799084Y1286383D02*
Y1285367D01*
X801116D01*
Y1286383D01*
X802132D01*
Y1288415D01*
X801116D01*
Y1289431D01*
X799084D01*
Y1288415D01*
X798068D01*
Y1286383D01*
X799084D01*
X850646D02*
Y1285367D01*
X852678D01*
Y1286383D01*
X853694D01*
Y1288415D01*
X852678D01*
Y1289431D01*
X850646D01*
Y1288415D01*
X849630D01*
Y1286383D01*
X850646D01*
X1001522D02*
Y1285367D01*
X1003554D01*
Y1286383D01*
X1004570D01*
Y1288415D01*
X1003554D01*
Y1289431D01*
X1001522D01*
Y1288415D01*
X1000506D01*
Y1286383D01*
X1001522D01*
X1053084D02*
Y1285367D01*
X1055116D01*
Y1286383D01*
X1056132D01*
Y1288415D01*
X1055116D01*
Y1289431D01*
X1053084D01*
Y1288415D01*
X1052068D01*
Y1286383D01*
X1053084D01*
X799084Y634746D02*
Y633730D01*
X801116D01*
Y634746D01*
X802132D01*
Y636778D01*
X801116D01*
Y637794D01*
X799084D01*
Y636778D01*
X798068D01*
Y634746D01*
X799084D01*
Y583184D02*
Y582168D01*
X801116D01*
Y583184D01*
X802132D01*
Y585216D01*
X801116D01*
Y586232D01*
X799084D01*
Y585216D01*
X798068D01*
Y583184D01*
X799084D01*
X1053084D02*
Y582168D01*
X1055116D01*
Y583184D01*
X1056132D01*
Y585216D01*
X1055116D01*
Y586232D01*
X1053084D01*
Y585216D01*
X1052068D01*
Y583184D01*
X1053084D01*
Y634746D02*
Y633730D01*
X1055116D01*
Y634746D01*
X1056132D01*
Y636778D01*
X1055116D01*
Y637794D01*
X1053084D01*
Y636778D01*
X1052068D01*
Y634746D01*
X1053084D01*
Y197993D02*
Y196977D01*
X1055116D01*
Y197993D01*
X1056132D01*
Y200025D01*
X1055116D01*
Y201041D01*
X1053084D01*
Y200025D01*
X1052068D01*
Y197993D01*
X1053084D01*
X1001522D02*
Y196977D01*
X1003554D01*
Y197993D01*
X1004570D01*
Y200025D01*
X1003554D01*
Y201041D01*
X1001522D01*
Y200025D01*
X1000506D01*
Y197993D01*
X1001522D01*
X799084D02*
Y196977D01*
X801116D01*
Y197993D01*
X802132D01*
Y200025D01*
X801116D01*
Y201041D01*
X799084D01*
Y200025D01*
X798068D01*
Y197993D01*
X799084D01*
X850646D02*
Y196977D01*
X852678D01*
Y197993D01*
X853694D01*
Y200025D01*
X852678D01*
Y201041D01*
X850646D01*
Y200025D01*
X849630D01*
Y197993D01*
X850646D01*
X799084Y276479D02*
Y275463D01*
X801116D01*
Y276479D01*
X802132D01*
Y278511D01*
X801116D01*
Y279527D01*
X799084D01*
Y278511D01*
X798068D01*
Y276479D01*
X799084D01*
X850646D02*
Y275463D01*
X852678D01*
Y276479D01*
X853694D01*
Y278511D01*
X852678D01*
Y279527D01*
X850646D01*
Y278511D01*
X849630D01*
Y276479D01*
X850646D01*
X1001522D02*
Y275463D01*
X1003554D01*
Y276479D01*
X1004570D01*
Y278511D01*
X1003554D01*
Y279527D01*
X1001522D01*
Y278511D01*
X1000506D01*
Y276479D01*
X1001522D01*
X1053084D02*
Y275463D01*
X1055116D01*
Y276479D01*
X1056132D01*
Y278511D01*
X1055116D01*
Y279527D01*
X1053084D01*
Y278511D01*
X1052068D01*
Y276479D01*
X1053084D01*
X799084Y346583D02*
Y345567D01*
X801116D01*
Y346583D01*
X802132D01*
Y348615D01*
X801116D01*
Y349631D01*
X799084D01*
Y348615D01*
X798068D01*
Y346583D01*
X799084D01*
X850646D02*
Y345567D01*
X852678D01*
Y346583D01*
X853694D01*
Y348615D01*
X852678D01*
Y349631D01*
X850646D01*
Y348615D01*
X849630D01*
Y346583D01*
X850646D01*
X1001522D02*
Y345567D01*
X1003554D01*
Y346583D01*
X1004570D01*
Y348615D01*
X1003554D01*
Y349631D01*
X1001522D01*
Y348615D01*
X1000506D01*
Y346583D01*
X1001522D01*
X1053084D02*
Y345567D01*
X1055116D01*
Y346583D01*
X1056132D01*
Y348615D01*
X1055116D01*
Y349631D01*
X1053084D01*
Y348615D01*
X1052068D01*
Y346583D01*
X1053084D01*
X3065968Y4223268D02*
X3066984Y4225300D01*
X3065968Y4227332D01*
X3068000Y4226316D01*
X3070032Y4227332D01*
X3069016Y4225300D01*
X3070032Y4223268D01*
X3068000Y4224284D01*
X3065968Y4223268D01*
X3045968D02*
X3046984Y4225300D01*
X3045968Y4227332D01*
X3048000Y4226316D01*
X3050032Y4227332D01*
X3049016Y4225300D01*
X3050032Y4223268D01*
X3048000Y4224284D01*
X3045968Y4223268D01*
X3065968Y4243268D02*
X3066984Y4245300D01*
X3065968Y4247332D01*
X3068000Y4246316D01*
X3070032Y4247332D01*
X3069016Y4245300D01*
X3070032Y4243268D01*
X3068000Y4244284D01*
X3065968Y4243268D01*
X3045968D02*
X3046984Y4245300D01*
X3045968Y4247332D01*
X3048000Y4246316D01*
X3050032Y4247332D01*
X3049016Y4245300D01*
X3050032Y4243268D01*
X3048000Y4244284D01*
X3045968Y4243268D01*
X3065968Y4263268D02*
X3066984Y4265300D01*
X3065968Y4267332D01*
X3068000Y4266316D01*
X3070032Y4267332D01*
X3069016Y4265300D01*
X3070032Y4263268D01*
X3068000Y4264284D01*
X3065968Y4263268D01*
X3045968D02*
X3046984Y4265300D01*
X3045968Y4267332D01*
X3048000Y4266316D01*
X3050032Y4267332D01*
X3049016Y4265300D01*
X3050032Y4263268D01*
X3048000Y4264284D01*
X3045968Y4263268D01*
X3065968Y4283268D02*
X3066984Y4285300D01*
X3065968Y4287332D01*
X3068000Y4286316D01*
X3070032Y4287332D01*
X3069016Y4285300D01*
X3070032Y4283268D01*
X3068000Y4284284D01*
X3065968Y4283268D01*
X3045968D02*
X3046984Y4285300D01*
X3045968Y4287332D01*
X3048000Y4286316D01*
X3050032Y4287332D01*
X3049016Y4285300D01*
X3050032Y4283268D01*
X3048000Y4284284D01*
X3045968Y4283268D01*
X3065968Y4303268D02*
X3066984Y4305300D01*
X3065968Y4307332D01*
X3068000Y4306316D01*
X3070032Y4307332D01*
X3069016Y4305300D01*
X3070032Y4303268D01*
X3068000Y4304284D01*
X3065968Y4303268D01*
X3045968D02*
X3046984Y4305300D01*
X3045968Y4307332D01*
X3048000Y4306316D01*
X3050032Y4307332D01*
X3049016Y4305300D01*
X3050032Y4303268D01*
X3048000Y4304284D01*
X3045968Y4303268D01*
X2577084Y1763522D02*
Y1762506D01*
X2579116D01*
Y1763522D01*
X2580132D01*
Y1765554D01*
X2579116D01*
Y1766570D01*
X2577084D01*
Y1765554D01*
X2576068D01*
Y1763522D01*
X2577084D01*
Y1711960D02*
Y1710944D01*
X2579116D01*
Y1711960D01*
X2580132D01*
Y1713992D01*
X2579116D01*
Y1715008D01*
X2577084D01*
Y1713992D01*
X2576068D01*
Y1711960D01*
X2577084D01*
Y1561084D02*
Y1560068D01*
X2579116D01*
Y1561084D01*
X2580132D01*
Y1563116D01*
X2579116D01*
Y1564132D01*
X2577084D01*
Y1563116D01*
X2576068D01*
Y1561084D01*
X2577084D01*
Y1509522D02*
Y1508506D01*
X2579116D01*
Y1509522D01*
X2580132D01*
Y1511554D01*
X2579116D01*
Y1512570D01*
X2577084D01*
Y1511554D01*
X2576068D01*
Y1509522D01*
X2577084D01*
X2647188Y1763522D02*
Y1762506D01*
X2649220D01*
Y1763522D01*
X2650236D01*
Y1765554D01*
X2649220D01*
Y1766570D01*
X2647188D01*
Y1765554D01*
X2646172D01*
Y1763522D01*
X2647188D01*
Y1711960D02*
Y1710944D01*
X2649220D01*
Y1711960D01*
X2650236D01*
Y1713992D01*
X2649220D01*
Y1715008D01*
X2647188D01*
Y1713992D01*
X2646172D01*
Y1711960D01*
X2647188D01*
Y1561084D02*
Y1560068D01*
X2649220D01*
Y1561084D01*
X2650236D01*
Y1563116D01*
X2649220D01*
Y1564132D01*
X2647188D01*
Y1563116D01*
X2646172D01*
Y1561084D01*
X2647188D01*
Y1509522D02*
Y1508506D01*
X2649220D01*
Y1509522D01*
X2650236D01*
Y1511554D01*
X2649220D01*
Y1512570D01*
X2647188D01*
Y1511554D01*
X2646172D01*
Y1509522D01*
X2647188D01*
X2725674Y1561084D02*
Y1560068D01*
X2727706D01*
Y1561084D01*
X2728722D01*
Y1563116D01*
X2727706D01*
Y1564132D01*
X2725674D01*
Y1563116D01*
X2724658D01*
Y1561084D01*
X2725674D01*
Y1509522D02*
Y1508506D01*
X2727706D01*
Y1509522D01*
X2728722D01*
Y1511554D01*
X2727706D01*
Y1512570D01*
X2725674D01*
Y1511554D01*
X2724658D01*
Y1509522D01*
X2725674D01*
Y1711960D02*
Y1710944D01*
X2727706D01*
Y1711960D01*
X2728722D01*
Y1713992D01*
X2727706D01*
Y1715008D01*
X2725674D01*
Y1713992D01*
X2724658D01*
Y1711960D01*
X2725674D01*
Y1763522D02*
Y1762506D01*
X2727706D01*
Y1763522D01*
X2728722D01*
Y1765554D01*
X2727706D01*
Y1766570D01*
X2725674D01*
Y1765554D01*
X2724658D01*
Y1763522D01*
X2725674D01*
X2288921D02*
Y1762506D01*
X2290953D01*
Y1763522D01*
X2291969D01*
Y1765554D01*
X2290953D01*
Y1766570D01*
X2288921D01*
Y1765554D01*
X2287905D01*
Y1763522D01*
X2288921D01*
X2340483D02*
Y1762506D01*
X2342515D01*
Y1763522D01*
X2343531D01*
Y1765554D01*
X2342515D01*
Y1766570D01*
X2340483D01*
Y1765554D01*
X2339467D01*
Y1763522D01*
X2340483D01*
Y1509522D02*
Y1508506D01*
X2342515D01*
Y1509522D01*
X2343531D01*
Y1511554D01*
X2342515D01*
Y1512570D01*
X2340483D01*
Y1511554D01*
X2339467D01*
Y1509522D01*
X2340483D01*
X2288921D02*
Y1508506D01*
X2290953D01*
Y1509522D01*
X2291969D01*
Y1511554D01*
X2290953D01*
Y1512570D01*
X2288921D01*
Y1511554D01*
X2287905D01*
Y1509522D01*
X2288921D01*
X2487168Y3744468D02*
X2488184Y3746500D01*
X2487168Y3748532D01*
X2489200Y3747516D01*
X2491232Y3748532D01*
X2490216Y3746500D01*
X2491232Y3744468D01*
X2489200Y3745484D01*
X2487168Y3744468D01*
X2488184Y3745484D02*
X2488692Y3746500D01*
X2488184Y3747516D01*
X2489200Y3747008D01*
X2490216Y3747516D01*
X2489708Y3746500D01*
X2490216Y3745484D01*
X2489200Y3745992D01*
X2488184Y3745484D01*
X2436368Y3744468D02*
X2437384Y3746500D01*
X2436368Y3748532D01*
X2438400Y3747516D01*
X2440432Y3748532D01*
X2439416Y3746500D01*
X2440432Y3744468D01*
X2438400Y3745484D01*
X2436368Y3744468D01*
X2437384Y3745484D02*
X2437892Y3746500D01*
X2437384Y3747516D01*
X2438400Y3747008D01*
X2439416Y3747516D01*
X2438908Y3746500D01*
X2439416Y3745484D01*
X2438400Y3745992D01*
X2437384Y3745484D01*
X2334768Y3744468D02*
X2335784Y3746500D01*
X2334768Y3748532D01*
X2336800Y3747516D01*
X2338832Y3748532D01*
X2337816Y3746500D01*
X2338832Y3744468D01*
X2336800Y3745484D01*
X2334768Y3744468D01*
X2335784Y3745484D02*
X2336292Y3746500D01*
X2335784Y3747516D01*
X2336800Y3747008D01*
X2337816Y3747516D01*
X2337308Y3746500D01*
X2337816Y3745484D01*
X2336800Y3745992D01*
X2335784Y3745484D01*
X2385568Y3744468D02*
X2386584Y3746500D01*
X2385568Y3748532D01*
X2387600Y3747516D01*
X2389632Y3748532D01*
X2388616Y3746500D01*
X2389632Y3744468D01*
X2387600Y3745484D01*
X2385568Y3744468D01*
X2386584Y3745484D02*
X2387092Y3746500D01*
X2386584Y3747516D01*
X2387600Y3747008D01*
X2388616Y3747516D01*
X2388108Y3746500D01*
X2388616Y3745484D01*
X2387600Y3745992D01*
X2386584Y3745484D01*
X1993646Y1281684D02*
Y1280668D01*
X1995678D01*
Y1281684D01*
X1996694D01*
Y1283716D01*
X1995678D01*
Y1284732D01*
X1993646D01*
Y1283716D01*
X1992630D01*
Y1281684D01*
X1993646D01*
X1942084D02*
Y1280668D01*
X1944116D01*
Y1281684D01*
X1945132D01*
Y1283716D01*
X1944116D01*
Y1284732D01*
X1942084D01*
Y1283716D01*
X1941068D01*
Y1281684D01*
X1942084D01*
X1791208D02*
Y1280668D01*
X1793240D01*
Y1281684D01*
X1794256D01*
Y1283716D01*
X1793240D01*
Y1284732D01*
X1791208D01*
Y1283716D01*
X1790192D01*
Y1281684D01*
X1791208D01*
X1739646D02*
Y1280668D01*
X1741678D01*
Y1281684D01*
X1742694D01*
Y1283716D01*
X1741678D01*
Y1284732D01*
X1739646D01*
Y1283716D01*
X1738630D01*
Y1281684D01*
X1739646D01*
X1993646Y1211580D02*
Y1210564D01*
X1995678D01*
Y1211580D01*
X1996694D01*
Y1213612D01*
X1995678D01*
Y1214628D01*
X1993646D01*
Y1213612D01*
X1992630D01*
Y1211580D01*
X1993646D01*
X1942084D02*
Y1210564D01*
X1944116D01*
Y1211580D01*
X1945132D01*
Y1213612D01*
X1944116D01*
Y1214628D01*
X1942084D01*
Y1213612D01*
X1941068D01*
Y1211580D01*
X1942084D01*
X1791208D02*
Y1210564D01*
X1793240D01*
Y1211580D01*
X1794256D01*
Y1213612D01*
X1793240D01*
Y1214628D01*
X1791208D01*
Y1213612D01*
X1790192D01*
Y1211580D01*
X1791208D01*
X1739646D02*
Y1210564D01*
X1741678D01*
Y1211580D01*
X1742694D01*
Y1213612D01*
X1741678D01*
Y1214628D01*
X1739646D01*
Y1213612D01*
X1738630D01*
Y1211580D01*
X1739646D01*
X1791208Y1133094D02*
Y1132078D01*
X1793240D01*
Y1133094D01*
X1794256D01*
Y1135126D01*
X1793240D01*
Y1136142D01*
X1791208D01*
Y1135126D01*
X1790192D01*
Y1133094D01*
X1791208D01*
X1739646D02*
Y1132078D01*
X1741678D01*
Y1133094D01*
X1742694D01*
Y1135126D01*
X1741678D01*
Y1136142D01*
X1739646D01*
Y1135126D01*
X1738630D01*
Y1133094D01*
X1739646D01*
X1942084D02*
Y1132078D01*
X1944116D01*
Y1133094D01*
X1945132D01*
Y1135126D01*
X1944116D01*
Y1136142D01*
X1942084D01*
Y1135126D01*
X1941068D01*
Y1133094D01*
X1942084D01*
X1993646D02*
Y1132078D01*
X1995678D01*
Y1133094D01*
X1996694D01*
Y1135126D01*
X1995678D01*
Y1136142D01*
X1993646D01*
Y1135126D01*
X1992630D01*
Y1133094D01*
X1993646D01*
Y1569847D02*
Y1568831D01*
X1995678D01*
Y1569847D01*
X1996694D01*
Y1571879D01*
X1995678D01*
Y1572895D01*
X1993646D01*
Y1571879D01*
X1992630D01*
Y1569847D01*
X1993646D01*
Y1518285D02*
Y1517269D01*
X1995678D01*
Y1518285D01*
X1996694D01*
Y1520317D01*
X1995678D01*
Y1521333D01*
X1993646D01*
Y1520317D01*
X1992630D01*
Y1518285D01*
X1993646D01*
X1739646D02*
Y1517269D01*
X1741678D01*
Y1518285D01*
X1742694D01*
Y1520317D01*
X1741678D01*
Y1521333D01*
X1739646D01*
Y1520317D01*
X1738630D01*
Y1518285D01*
X1739646D01*
Y1569847D02*
Y1568831D01*
X1741678D01*
Y1569847D01*
X1742694D01*
Y1571879D01*
X1741678D01*
Y1572895D01*
X1739646D01*
Y1571879D01*
X1738630D01*
Y1569847D01*
X1739646D01*
X1523746Y1281684D02*
Y1280668D01*
X1525778D01*
Y1281684D01*
X1526794D01*
Y1283716D01*
X1525778D01*
Y1284732D01*
X1523746D01*
Y1283716D01*
X1522730D01*
Y1281684D01*
X1523746D01*
X1472184D02*
Y1280668D01*
X1474216D01*
Y1281684D01*
X1475232D01*
Y1283716D01*
X1474216D01*
Y1284732D01*
X1472184D01*
Y1283716D01*
X1471168D01*
Y1281684D01*
X1472184D01*
X1321308D02*
Y1280668D01*
X1323340D01*
Y1281684D01*
X1324356D01*
Y1283716D01*
X1323340D01*
Y1284732D01*
X1321308D01*
Y1283716D01*
X1320292D01*
Y1281684D01*
X1321308D01*
X1269746D02*
Y1280668D01*
X1271778D01*
Y1281684D01*
X1272794D01*
Y1283716D01*
X1271778D01*
Y1284732D01*
X1269746D01*
Y1283716D01*
X1268730D01*
Y1281684D01*
X1269746D01*
X1523746Y1211580D02*
Y1210564D01*
X1525778D01*
Y1211580D01*
X1526794D01*
Y1213612D01*
X1525778D01*
Y1214628D01*
X1523746D01*
Y1213612D01*
X1522730D01*
Y1211580D01*
X1523746D01*
X1472184D02*
Y1210564D01*
X1474216D01*
Y1211580D01*
X1475232D01*
Y1213612D01*
X1474216D01*
Y1214628D01*
X1472184D01*
Y1213612D01*
X1471168D01*
Y1211580D01*
X1472184D01*
X1321308D02*
Y1210564D01*
X1323340D01*
Y1211580D01*
X1324356D01*
Y1213612D01*
X1323340D01*
Y1214628D01*
X1321308D01*
Y1213612D01*
X1320292D01*
Y1211580D01*
X1321308D01*
X1269746D02*
Y1210564D01*
X1271778D01*
Y1211580D01*
X1272794D01*
Y1213612D01*
X1271778D01*
Y1214628D01*
X1269746D01*
Y1213612D01*
X1268730D01*
Y1211580D01*
X1269746D01*
X1321308Y1133094D02*
Y1132078D01*
X1323340D01*
Y1133094D01*
X1324356D01*
Y1135126D01*
X1323340D01*
Y1136142D01*
X1321308D01*
Y1135126D01*
X1320292D01*
Y1133094D01*
X1321308D01*
X1269746D02*
Y1132078D01*
X1271778D01*
Y1133094D01*
X1272794D01*
Y1135126D01*
X1271778D01*
Y1136142D01*
X1269746D01*
Y1135126D01*
X1268730D01*
Y1133094D01*
X1269746D01*
X1472184D02*
Y1132078D01*
X1474216D01*
Y1133094D01*
X1475232D01*
Y1135126D01*
X1474216D01*
Y1136142D01*
X1472184D01*
Y1135126D01*
X1471168D01*
Y1133094D01*
X1472184D01*
X1523746D02*
Y1132078D01*
X1525778D01*
Y1133094D01*
X1526794D01*
Y1135126D01*
X1525778D01*
Y1136142D01*
X1523746D01*
Y1135126D01*
X1522730D01*
Y1133094D01*
X1523746D01*
Y1569847D02*
Y1568831D01*
X1525778D01*
Y1569847D01*
X1526794D01*
Y1571879D01*
X1525778D01*
Y1572895D01*
X1523746D01*
Y1571879D01*
X1522730D01*
Y1569847D01*
X1523746D01*
Y1518285D02*
Y1517269D01*
X1525778D01*
Y1518285D01*
X1526794D01*
Y1520317D01*
X1525778D01*
Y1521333D01*
X1523746D01*
Y1520317D01*
X1522730D01*
Y1518285D01*
X1523746D01*
X1269746D02*
Y1517269D01*
X1271778D01*
Y1518285D01*
X1272794D01*
Y1520317D01*
X1271778D01*
Y1521333D01*
X1269746D01*
Y1520317D01*
X1268730D01*
Y1518285D01*
X1269746D01*
Y1569847D02*
Y1568831D01*
X1271778D01*
Y1569847D01*
X1272794D01*
Y1571879D01*
X1271778D01*
Y1572895D01*
X1269746D01*
Y1571879D01*
X1268730D01*
Y1569847D01*
X1269746D01*
X374768Y2040500D02*
X376800Y2042532D01*
X378832Y2040500D01*
X376800Y2038468D01*
X374768Y2040500D01*
X426368D02*
X428400Y2042532D01*
X430432Y2040500D01*
X428400Y2038468D01*
X426368Y2040500D01*
Y2119000D02*
X428400Y2121032D01*
X430432Y2119000D01*
X428400Y2116968D01*
X426368Y2119000D01*
X374768D02*
X376800Y2121032D01*
X378832Y2119000D01*
X376800Y2116968D01*
X374768Y2119000D01*
X586368Y2040500D02*
X588400Y2042532D01*
X590432Y2040500D01*
X588400Y2038468D01*
X586368Y2040500D01*
X534768D02*
X536800Y2042532D01*
X538832Y2040500D01*
X536800Y2038468D01*
X534768Y2040500D01*
Y2119000D02*
X536800Y2121032D01*
X538832Y2119000D01*
X536800Y2116968D01*
X534768Y2119000D01*
X586368D02*
X588400Y2121032D01*
X590432Y2119000D01*
X588400Y2116968D01*
X586368Y2119000D01*
X353568Y2425700D02*
X355600Y2427732D01*
X357632Y2425700D01*
X355600Y2423668D01*
X353568Y2425700D01*
Y2477300D02*
X355600Y2479332D01*
X357632Y2477300D01*
X355600Y2475268D01*
X353568Y2477300D01*
X607568D02*
X609600Y2479332D01*
X611632Y2477300D01*
X609600Y2475268D01*
X607568Y2477300D01*
Y2425700D02*
X609600Y2427732D01*
X611632Y2425700D01*
X609600Y2423668D01*
X607568Y2425700D01*
X2572385Y849884D02*
Y848868D01*
X2574417D01*
Y849884D01*
X2575433D01*
Y851916D01*
X2574417D01*
Y852932D01*
X2572385D01*
Y851916D01*
X2571369D01*
Y849884D01*
X2572385D01*
Y798322D02*
Y797306D01*
X2574417D01*
Y798322D01*
X2575433D01*
Y800354D01*
X2574417D01*
Y801370D01*
X2572385D01*
Y800354D01*
X2571369D01*
Y798322D01*
X2572385D01*
Y647446D02*
Y646430D01*
X2574417D01*
Y647446D01*
X2575433D01*
Y649478D01*
X2574417D01*
Y650494D01*
X2572385D01*
Y649478D01*
X2571369D01*
Y647446D01*
X2572385D01*
Y595884D02*
Y594868D01*
X2574417D01*
Y595884D01*
X2575433D01*
Y597916D01*
X2574417D01*
Y598932D01*
X2572385D01*
Y597916D01*
X2571369D01*
Y595884D01*
X2572385D01*
X2642489Y849884D02*
Y848868D01*
X2644521D01*
Y849884D01*
X2645537D01*
Y851916D01*
X2644521D01*
Y852932D01*
X2642489D01*
Y851916D01*
X2641473D01*
Y849884D01*
X2642489D01*
Y798322D02*
Y797306D01*
X2644521D01*
Y798322D01*
X2645537D01*
Y800354D01*
X2644521D01*
Y801370D01*
X2642489D01*
Y800354D01*
X2641473D01*
Y798322D01*
X2642489D01*
Y647446D02*
Y646430D01*
X2644521D01*
Y647446D01*
X2645537D01*
Y649478D01*
X2644521D01*
Y650494D01*
X2642489D01*
Y649478D01*
X2641473D01*
Y647446D01*
X2642489D01*
Y595884D02*
Y594868D01*
X2644521D01*
Y595884D01*
X2645537D01*
Y597916D01*
X2644521D01*
Y598932D01*
X2642489D01*
Y597916D01*
X2641473D01*
Y595884D01*
X2642489D01*
X2720975Y647446D02*
Y646430D01*
X2723007D01*
Y647446D01*
X2724023D01*
Y649478D01*
X2723007D01*
Y650494D01*
X2720975D01*
Y649478D01*
X2719959D01*
Y647446D01*
X2720975D01*
Y595884D02*
Y594868D01*
X2723007D01*
Y595884D01*
X2724023D01*
Y597916D01*
X2723007D01*
Y598932D01*
X2720975D01*
Y597916D01*
X2719959D01*
Y595884D01*
X2720975D01*
Y798322D02*
Y797306D01*
X2723007D01*
Y798322D01*
X2724023D01*
Y800354D01*
X2723007D01*
Y801370D01*
X2720975D01*
Y800354D01*
X2719959D01*
Y798322D01*
X2720975D01*
Y849884D02*
Y848868D01*
X2723007D01*
Y849884D01*
X2724023D01*
Y851916D01*
X2723007D01*
Y852932D01*
X2720975D01*
Y851916D01*
X2719959D01*
Y849884D01*
X2720975D01*
X2284222D02*
Y848868D01*
X2286254D01*
Y849884D01*
X2287270D01*
Y851916D01*
X2286254D01*
Y852932D01*
X2284222D01*
Y851916D01*
X2283206D01*
Y849884D01*
X2284222D01*
X2335784D02*
Y848868D01*
X2337816D01*
Y849884D01*
X2338832D01*
Y851916D01*
X2337816D01*
Y852932D01*
X2335784D01*
Y851916D01*
X2334768D01*
Y849884D01*
X2335784D01*
Y595884D02*
Y594868D01*
X2337816D01*
Y595884D01*
X2338832D01*
Y597916D01*
X2337816D01*
Y598932D01*
X2335784D01*
Y597916D01*
X2334768D01*
Y595884D01*
X2335784D01*
X2284222D02*
Y594868D01*
X2286254D01*
Y595884D01*
X2287270D01*
Y597916D01*
X2286254D01*
Y598932D01*
X2284222D01*
Y597916D01*
X2283206D01*
Y595884D01*
X2284222D01*
X2577084Y3592322D02*
Y3591306D01*
X2579116D01*
Y3592322D01*
X2580132D01*
Y3594354D01*
X2579116D01*
Y3595370D01*
X2577084D01*
Y3594354D01*
X2576068D01*
Y3592322D01*
X2577084D01*
Y3540760D02*
Y3539744D01*
X2579116D01*
Y3540760D01*
X2580132D01*
Y3542792D01*
X2579116D01*
Y3543808D01*
X2577084D01*
Y3542792D01*
X2576068D01*
Y3540760D01*
X2577084D01*
Y3389884D02*
Y3388868D01*
X2579116D01*
Y3389884D01*
X2580132D01*
Y3391916D01*
X2579116D01*
Y3392932D01*
X2577084D01*
Y3391916D01*
X2576068D01*
Y3389884D01*
X2577084D01*
Y3338322D02*
Y3337306D01*
X2579116D01*
Y3338322D01*
X2580132D01*
Y3340354D01*
X2579116D01*
Y3341370D01*
X2577084D01*
Y3340354D01*
X2576068D01*
Y3338322D01*
X2577084D01*
X2647188Y3592322D02*
Y3591306D01*
X2649220D01*
Y3592322D01*
X2650236D01*
Y3594354D01*
X2649220D01*
Y3595370D01*
X2647188D01*
Y3594354D01*
X2646172D01*
Y3592322D01*
X2647188D01*
Y3540760D02*
Y3539744D01*
X2649220D01*
Y3540760D01*
X2650236D01*
Y3542792D01*
X2649220D01*
Y3543808D01*
X2647188D01*
Y3542792D01*
X2646172D01*
Y3540760D01*
X2647188D01*
Y3389884D02*
Y3388868D01*
X2649220D01*
Y3389884D01*
X2650236D01*
Y3391916D01*
X2649220D01*
Y3392932D01*
X2647188D01*
Y3391916D01*
X2646172D01*
Y3389884D01*
X2647188D01*
Y3338322D02*
Y3337306D01*
X2649220D01*
Y3338322D01*
X2650236D01*
Y3340354D01*
X2649220D01*
Y3341370D01*
X2647188D01*
Y3340354D01*
X2646172D01*
Y3338322D01*
X2647188D01*
X2725674Y3389884D02*
Y3388868D01*
X2727706D01*
Y3389884D01*
X2728722D01*
Y3391916D01*
X2727706D01*
Y3392932D01*
X2725674D01*
Y3391916D01*
X2724658D01*
Y3389884D01*
X2725674D01*
Y3338322D02*
Y3337306D01*
X2727706D01*
Y3338322D01*
X2728722D01*
Y3340354D01*
X2727706D01*
Y3341370D01*
X2725674D01*
Y3340354D01*
X2724658D01*
Y3338322D01*
X2725674D01*
Y3540760D02*
Y3539744D01*
X2727706D01*
Y3540760D01*
X2728722D01*
Y3542792D01*
X2727706D01*
Y3543808D01*
X2725674D01*
Y3542792D01*
X2724658D01*
Y3540760D01*
X2725674D01*
Y3592322D02*
Y3591306D01*
X2727706D01*
Y3592322D01*
X2728722D01*
Y3594354D01*
X2727706D01*
Y3595370D01*
X2725674D01*
Y3594354D01*
X2724658D01*
Y3592322D01*
X2725674D01*
X2288921D02*
Y3591306D01*
X2290953D01*
Y3592322D01*
X2291969D01*
Y3594354D01*
X2290953D01*
Y3595370D01*
X2288921D01*
Y3594354D01*
X2287905D01*
Y3592322D01*
X2288921D01*
X2340483D02*
Y3591306D01*
X2342515D01*
Y3592322D01*
X2343531D01*
Y3594354D01*
X2342515D01*
Y3595370D01*
X2340483D01*
Y3594354D01*
X2339467D01*
Y3592322D01*
X2340483D01*
Y3338322D02*
Y3337306D01*
X2342515D01*
Y3338322D01*
X2343531D01*
Y3340354D01*
X2342515D01*
Y3341370D01*
X2340483D01*
Y3340354D01*
X2339467D01*
Y3338322D01*
X2340483D01*
X2288921D02*
Y3337306D01*
X2290953D01*
Y3338322D01*
X2291969D01*
Y3340354D01*
X2290953D01*
Y3341370D01*
X2288921D01*
Y3340354D01*
X2287905D01*
Y3338322D01*
X2288921D01*
X2577084Y2677922D02*
Y2676906D01*
X2579116D01*
Y2677922D01*
X2580132D01*
Y2679954D01*
X2579116D01*
Y2680970D01*
X2577084D01*
Y2679954D01*
X2576068D01*
Y2677922D01*
X2577084D01*
Y2626360D02*
Y2625344D01*
X2579116D01*
Y2626360D01*
X2580132D01*
Y2628392D01*
X2579116D01*
Y2629408D01*
X2577084D01*
Y2628392D01*
X2576068D01*
Y2626360D01*
X2577084D01*
Y2475484D02*
Y2474468D01*
X2579116D01*
Y2475484D01*
X2580132D01*
Y2477516D01*
X2579116D01*
Y2478532D01*
X2577084D01*
Y2477516D01*
X2576068D01*
Y2475484D01*
X2577084D01*
Y2423922D02*
Y2422906D01*
X2579116D01*
Y2423922D01*
X2580132D01*
Y2425954D01*
X2579116D01*
Y2426970D01*
X2577084D01*
Y2425954D01*
X2576068D01*
Y2423922D01*
X2577084D01*
X2647188Y2677922D02*
Y2676906D01*
X2649220D01*
Y2677922D01*
X2650236D01*
Y2679954D01*
X2649220D01*
Y2680970D01*
X2647188D01*
Y2679954D01*
X2646172D01*
Y2677922D01*
X2647188D01*
Y2626360D02*
Y2625344D01*
X2649220D01*
Y2626360D01*
X2650236D01*
Y2628392D01*
X2649220D01*
Y2629408D01*
X2647188D01*
Y2628392D01*
X2646172D01*
Y2626360D01*
X2647188D01*
Y2475484D02*
Y2474468D01*
X2649220D01*
Y2475484D01*
X2650236D01*
Y2477516D01*
X2649220D01*
Y2478532D01*
X2647188D01*
Y2477516D01*
X2646172D01*
Y2475484D01*
X2647188D01*
Y2423922D02*
Y2422906D01*
X2649220D01*
Y2423922D01*
X2650236D01*
Y2425954D01*
X2649220D01*
Y2426970D01*
X2647188D01*
Y2425954D01*
X2646172D01*
Y2423922D01*
X2647188D01*
X2725674Y2475484D02*
Y2474468D01*
X2727706D01*
Y2475484D01*
X2728722D01*
Y2477516D01*
X2727706D01*
Y2478532D01*
X2725674D01*
Y2477516D01*
X2724658D01*
Y2475484D01*
X2725674D01*
Y2423922D02*
Y2422906D01*
X2727706D01*
Y2423922D01*
X2728722D01*
Y2425954D01*
X2727706D01*
Y2426970D01*
X2725674D01*
Y2425954D01*
X2724658D01*
Y2423922D01*
X2725674D01*
Y2626360D02*
Y2625344D01*
X2727706D01*
Y2626360D01*
X2728722D01*
Y2628392D01*
X2727706D01*
Y2629408D01*
X2725674D01*
Y2628392D01*
X2724658D01*
Y2626360D01*
X2725674D01*
Y2677922D02*
Y2676906D01*
X2727706D01*
Y2677922D01*
X2728722D01*
Y2679954D01*
X2727706D01*
Y2680970D01*
X2725674D01*
Y2679954D01*
X2724658D01*
Y2677922D01*
X2725674D01*
X2288921D02*
Y2676906D01*
X2290953D01*
Y2677922D01*
X2291969D01*
Y2679954D01*
X2290953D01*
Y2680970D01*
X2288921D01*
Y2679954D01*
X2287905D01*
Y2677922D01*
X2288921D01*
X2340483D02*
Y2676906D01*
X2342515D01*
Y2677922D01*
X2343531D01*
Y2679954D01*
X2342515D01*
Y2680970D01*
X2340483D01*
Y2679954D01*
X2339467D01*
Y2677922D01*
X2340483D01*
Y2423922D02*
Y2422906D01*
X2342515D01*
Y2423922D01*
X2343531D01*
Y2425954D01*
X2342515D01*
Y2426970D01*
X2340483D01*
Y2425954D01*
X2339467D01*
Y2423922D01*
X2340483D01*
X2288921D02*
Y2422906D01*
X2290953D01*
Y2423922D01*
X2291969D01*
Y2425954D01*
X2290953D01*
Y2426970D01*
X2288921D01*
Y2425954D01*
X2287905D01*
Y2423922D01*
X2288921D01*
X2577084Y391922D02*
Y390906D01*
X2579116D01*
Y391922D01*
X2580132D01*
Y393954D01*
X2579116D01*
Y394970D01*
X2577084D01*
Y393954D01*
X2576068D01*
Y391922D01*
X2577084D01*
Y340360D02*
Y339344D01*
X2579116D01*
Y340360D01*
X2580132D01*
Y342392D01*
X2579116D01*
Y343408D01*
X2577084D01*
Y342392D01*
X2576068D01*
Y340360D01*
X2577084D01*
Y189484D02*
Y188468D01*
X2579116D01*
Y189484D01*
X2580132D01*
Y191516D01*
X2579116D01*
Y192532D01*
X2577084D01*
Y191516D01*
X2576068D01*
Y189484D01*
X2577084D01*
Y137922D02*
Y136906D01*
X2579116D01*
Y137922D01*
X2580132D01*
Y139954D01*
X2579116D01*
Y140970D01*
X2577084D01*
Y139954D01*
X2576068D01*
Y137922D01*
X2577084D01*
X2647188Y391922D02*
Y390906D01*
X2649220D01*
Y391922D01*
X2650236D01*
Y393954D01*
X2649220D01*
Y394970D01*
X2647188D01*
Y393954D01*
X2646172D01*
Y391922D01*
X2647188D01*
Y340360D02*
Y339344D01*
X2649220D01*
Y340360D01*
X2650236D01*
Y342392D01*
X2649220D01*
Y343408D01*
X2647188D01*
Y342392D01*
X2646172D01*
Y340360D01*
X2647188D01*
Y189484D02*
Y188468D01*
X2649220D01*
Y189484D01*
X2650236D01*
Y191516D01*
X2649220D01*
Y192532D01*
X2647188D01*
Y191516D01*
X2646172D01*
Y189484D01*
X2647188D01*
Y137922D02*
Y136906D01*
X2649220D01*
Y137922D01*
X2650236D01*
Y139954D01*
X2649220D01*
Y140970D01*
X2647188D01*
Y139954D01*
X2646172D01*
Y137922D01*
X2647188D01*
X2725674Y189484D02*
Y188468D01*
X2727706D01*
Y189484D01*
X2728722D01*
Y191516D01*
X2727706D01*
Y192532D01*
X2725674D01*
Y191516D01*
X2724658D01*
Y189484D01*
X2725674D01*
Y137922D02*
Y136906D01*
X2727706D01*
Y137922D01*
X2728722D01*
Y139954D01*
X2727706D01*
Y140970D01*
X2725674D01*
Y139954D01*
X2724658D01*
Y137922D01*
X2725674D01*
Y340360D02*
Y339344D01*
X2727706D01*
Y340360D01*
X2728722D01*
Y342392D01*
X2727706D01*
Y343408D01*
X2725674D01*
Y342392D01*
X2724658D01*
Y340360D01*
X2725674D01*
Y391922D02*
Y390906D01*
X2727706D01*
Y391922D01*
X2728722D01*
Y393954D01*
X2727706D01*
Y394970D01*
X2725674D01*
Y393954D01*
X2724658D01*
Y391922D01*
X2725674D01*
X2288921D02*
Y390906D01*
X2290953D01*
Y391922D01*
X2291969D01*
Y393954D01*
X2290953D01*
Y394970D01*
X2288921D01*
Y393954D01*
X2287905D01*
Y391922D01*
X2288921D01*
X2340483D02*
Y390906D01*
X2342515D01*
Y391922D01*
X2343531D01*
Y393954D01*
X2342515D01*
Y394970D01*
X2340483D01*
Y393954D01*
X2339467D01*
Y391922D01*
X2340483D01*
Y137922D02*
Y136906D01*
X2342515D01*
Y137922D01*
X2343531D01*
Y139954D01*
X2342515D01*
Y140970D01*
X2340483D01*
Y139954D01*
X2339467D01*
Y137922D01*
X2340483D01*
X2288921D02*
Y136906D01*
X2290953D01*
Y137922D01*
X2291969D01*
Y139954D01*
X2290953D01*
Y140970D01*
X2288921D01*
Y139954D01*
X2287905D01*
Y137922D01*
X2288921D01*
X2577084Y2220722D02*
Y2219706D01*
X2579116D01*
Y2220722D01*
X2580132D01*
Y2222754D01*
X2579116D01*
Y2223770D01*
X2577084D01*
Y2222754D01*
X2576068D01*
Y2220722D01*
X2577084D01*
Y2169160D02*
Y2168144D01*
X2579116D01*
Y2169160D01*
X2580132D01*
Y2171192D01*
X2579116D01*
Y2172208D01*
X2577084D01*
Y2171192D01*
X2576068D01*
Y2169160D01*
X2577084D01*
Y2018284D02*
Y2017268D01*
X2579116D01*
Y2018284D01*
X2580132D01*
Y2020316D01*
X2579116D01*
Y2021332D01*
X2577084D01*
Y2020316D01*
X2576068D01*
Y2018284D01*
X2577084D01*
Y1966722D02*
Y1965706D01*
X2579116D01*
Y1966722D01*
X2580132D01*
Y1968754D01*
X2579116D01*
Y1969770D01*
X2577084D01*
Y1968754D01*
X2576068D01*
Y1966722D01*
X2577084D01*
X2647188Y2220722D02*
Y2219706D01*
X2649220D01*
Y2220722D01*
X2650236D01*
Y2222754D01*
X2649220D01*
Y2223770D01*
X2647188D01*
Y2222754D01*
X2646172D01*
Y2220722D01*
X2647188D01*
Y2169160D02*
Y2168144D01*
X2649220D01*
Y2169160D01*
X2650236D01*
Y2171192D01*
X2649220D01*
Y2172208D01*
X2647188D01*
Y2171192D01*
X2646172D01*
Y2169160D01*
X2647188D01*
Y2018284D02*
Y2017268D01*
X2649220D01*
Y2018284D01*
X2650236D01*
Y2020316D01*
X2649220D01*
Y2021332D01*
X2647188D01*
Y2020316D01*
X2646172D01*
Y2018284D01*
X2647188D01*
Y1966722D02*
Y1965706D01*
X2649220D01*
Y1966722D01*
X2650236D01*
Y1968754D01*
X2649220D01*
Y1969770D01*
X2647188D01*
Y1968754D01*
X2646172D01*
Y1966722D01*
X2647188D01*
X2725674Y2018284D02*
Y2017268D01*
X2727706D01*
Y2018284D01*
X2728722D01*
Y2020316D01*
X2727706D01*
Y2021332D01*
X2725674D01*
Y2020316D01*
X2724658D01*
Y2018284D01*
X2725674D01*
Y1966722D02*
Y1965706D01*
X2727706D01*
Y1966722D01*
X2728722D01*
Y1968754D01*
X2727706D01*
Y1969770D01*
X2725674D01*
Y1968754D01*
X2724658D01*
Y1966722D01*
X2725674D01*
Y2169160D02*
Y2168144D01*
X2727706D01*
Y2169160D01*
X2728722D01*
Y2171192D01*
X2727706D01*
Y2172208D01*
X2725674D01*
Y2171192D01*
X2724658D01*
Y2169160D01*
X2725674D01*
Y2220722D02*
Y2219706D01*
X2727706D01*
Y2220722D01*
X2728722D01*
Y2222754D01*
X2727706D01*
Y2223770D01*
X2725674D01*
Y2222754D01*
X2724658D01*
Y2220722D01*
X2725674D01*
X2288921D02*
Y2219706D01*
X2290953D01*
Y2220722D01*
X2291969D01*
Y2222754D01*
X2290953D01*
Y2223770D01*
X2288921D01*
Y2222754D01*
X2287905D01*
Y2220722D01*
X2288921D01*
X2340483D02*
Y2219706D01*
X2342515D01*
Y2220722D01*
X2343531D01*
Y2222754D01*
X2342515D01*
Y2223770D01*
X2340483D01*
Y2222754D01*
X2339467D01*
Y2220722D01*
X2340483D01*
Y1966722D02*
Y1965706D01*
X2342515D01*
Y1966722D01*
X2343531D01*
Y1968754D01*
X2342515D01*
Y1969770D01*
X2340483D01*
Y1968754D01*
X2339467D01*
Y1966722D01*
X2340483D01*
X2288921D02*
Y1965706D01*
X2290953D01*
Y1966722D01*
X2291969D01*
Y1968754D01*
X2290953D01*
Y1969770D01*
X2288921D01*
Y1968754D01*
X2287905D01*
Y1966722D01*
X2288921D01*
X2577084Y1307846D02*
Y1306830D01*
X2579116D01*
Y1307846D01*
X2580132D01*
Y1309878D01*
X2579116D01*
Y1310894D01*
X2577084D01*
Y1309878D01*
X2576068D01*
Y1307846D01*
X2577084D01*
Y1256284D02*
Y1255268D01*
X2579116D01*
Y1256284D01*
X2580132D01*
Y1258316D01*
X2579116D01*
Y1259332D01*
X2577084D01*
Y1258316D01*
X2576068D01*
Y1256284D01*
X2577084D01*
Y1105408D02*
Y1104392D01*
X2579116D01*
Y1105408D01*
X2580132D01*
Y1107440D01*
X2579116D01*
Y1108456D01*
X2577084D01*
Y1107440D01*
X2576068D01*
Y1105408D01*
X2577084D01*
Y1053846D02*
Y1052830D01*
X2579116D01*
Y1053846D01*
X2580132D01*
Y1055878D01*
X2579116D01*
Y1056894D01*
X2577084D01*
Y1055878D01*
X2576068D01*
Y1053846D01*
X2577084D01*
X2647188Y1307846D02*
Y1306830D01*
X2649220D01*
Y1307846D01*
X2650236D01*
Y1309878D01*
X2649220D01*
Y1310894D01*
X2647188D01*
Y1309878D01*
X2646172D01*
Y1307846D01*
X2647188D01*
Y1256284D02*
Y1255268D01*
X2649220D01*
Y1256284D01*
X2650236D01*
Y1258316D01*
X2649220D01*
Y1259332D01*
X2647188D01*
Y1258316D01*
X2646172D01*
Y1256284D01*
X2647188D01*
Y1105408D02*
Y1104392D01*
X2649220D01*
Y1105408D01*
X2650236D01*
Y1107440D01*
X2649220D01*
Y1108456D01*
X2647188D01*
Y1107440D01*
X2646172D01*
Y1105408D01*
X2647188D01*
Y1053846D02*
Y1052830D01*
X2649220D01*
Y1053846D01*
X2650236D01*
Y1055878D01*
X2649220D01*
Y1056894D01*
X2647188D01*
Y1055878D01*
X2646172D01*
Y1053846D01*
X2647188D01*
X2725674Y1105408D02*
Y1104392D01*
X2727706D01*
Y1105408D01*
X2728722D01*
Y1107440D01*
X2727706D01*
Y1108456D01*
X2725674D01*
Y1107440D01*
X2724658D01*
Y1105408D01*
X2725674D01*
Y1053846D02*
Y1052830D01*
X2727706D01*
Y1053846D01*
X2728722D01*
Y1055878D01*
X2727706D01*
Y1056894D01*
X2725674D01*
Y1055878D01*
X2724658D01*
Y1053846D01*
X2725674D01*
Y1256284D02*
Y1255268D01*
X2727706D01*
Y1256284D01*
X2728722D01*
Y1258316D01*
X2727706D01*
Y1259332D01*
X2725674D01*
Y1258316D01*
X2724658D01*
Y1256284D01*
X2725674D01*
Y1307846D02*
Y1306830D01*
X2727706D01*
Y1307846D01*
X2728722D01*
Y1309878D01*
X2727706D01*
Y1310894D01*
X2725674D01*
Y1309878D01*
X2724658D01*
Y1307846D01*
X2725674D01*
X2288921D02*
Y1306830D01*
X2290953D01*
Y1307846D01*
X2291969D01*
Y1309878D01*
X2290953D01*
Y1310894D01*
X2288921D01*
Y1309878D01*
X2287905D01*
Y1307846D01*
X2288921D01*
X2340483D02*
Y1306830D01*
X2342515D01*
Y1307846D01*
X2343531D01*
Y1309878D01*
X2342515D01*
Y1310894D01*
X2340483D01*
Y1309878D01*
X2339467D01*
Y1307846D01*
X2340483D01*
Y1053846D02*
Y1052830D01*
X2342515D01*
Y1053846D01*
X2343531D01*
Y1055878D01*
X2342515D01*
Y1056894D01*
X2340483D01*
Y1055878D01*
X2339467D01*
Y1053846D01*
X2340483D01*
X2288921D02*
Y1052830D01*
X2290953D01*
Y1053846D01*
X2291969D01*
Y1055878D01*
X2290953D01*
Y1056894D01*
X2288921D01*
Y1055878D01*
X2287905D01*
Y1053846D01*
X2288921D01*
X2577084Y3135122D02*
Y3134106D01*
X2579116D01*
Y3135122D01*
X2580132D01*
Y3137154D01*
X2579116D01*
Y3138170D01*
X2577084D01*
Y3137154D01*
X2576068D01*
Y3135122D01*
X2577084D01*
Y3083560D02*
Y3082544D01*
X2579116D01*
Y3083560D01*
X2580132D01*
Y3085592D01*
X2579116D01*
Y3086608D01*
X2577084D01*
Y3085592D01*
X2576068D01*
Y3083560D01*
X2577084D01*
Y2932684D02*
Y2931668D01*
X2579116D01*
Y2932684D01*
X2580132D01*
Y2934716D01*
X2579116D01*
Y2935732D01*
X2577084D01*
Y2934716D01*
X2576068D01*
Y2932684D01*
X2577084D01*
Y2881122D02*
Y2880106D01*
X2579116D01*
Y2881122D01*
X2580132D01*
Y2883154D01*
X2579116D01*
Y2884170D01*
X2577084D01*
Y2883154D01*
X2576068D01*
Y2881122D01*
X2577084D01*
X2647188Y3135122D02*
Y3134106D01*
X2649220D01*
Y3135122D01*
X2650236D01*
Y3137154D01*
X2649220D01*
Y3138170D01*
X2647188D01*
Y3137154D01*
X2646172D01*
Y3135122D01*
X2647188D01*
Y3083560D02*
Y3082544D01*
X2649220D01*
Y3083560D01*
X2650236D01*
Y3085592D01*
X2649220D01*
Y3086608D01*
X2647188D01*
Y3085592D01*
X2646172D01*
Y3083560D01*
X2647188D01*
Y2932684D02*
Y2931668D01*
X2649220D01*
Y2932684D01*
X2650236D01*
Y2934716D01*
X2649220D01*
Y2935732D01*
X2647188D01*
Y2934716D01*
X2646172D01*
Y2932684D01*
X2647188D01*
Y2881122D02*
Y2880106D01*
X2649220D01*
Y2881122D01*
X2650236D01*
Y2883154D01*
X2649220D01*
Y2884170D01*
X2647188D01*
Y2883154D01*
X2646172D01*
Y2881122D01*
X2647188D01*
X2725674Y2932684D02*
Y2931668D01*
X2727706D01*
Y2932684D01*
X2728722D01*
Y2934716D01*
X2727706D01*
Y2935732D01*
X2725674D01*
Y2934716D01*
X2724658D01*
Y2932684D01*
X2725674D01*
Y2881122D02*
Y2880106D01*
X2727706D01*
Y2881122D01*
X2728722D01*
Y2883154D01*
X2727706D01*
Y2884170D01*
X2725674D01*
Y2883154D01*
X2724658D01*
Y2881122D01*
X2725674D01*
Y3083560D02*
Y3082544D01*
X2727706D01*
Y3083560D01*
X2728722D01*
Y3085592D01*
X2727706D01*
Y3086608D01*
X2725674D01*
Y3085592D01*
X2724658D01*
Y3083560D01*
X2725674D01*
Y3135122D02*
Y3134106D01*
X2727706D01*
Y3135122D01*
X2728722D01*
Y3137154D01*
X2727706D01*
Y3138170D01*
X2725674D01*
Y3137154D01*
X2724658D01*
Y3135122D01*
X2725674D01*
X2288921D02*
Y3134106D01*
X2290953D01*
Y3135122D01*
X2291969D01*
Y3137154D01*
X2290953D01*
Y3138170D01*
X2288921D01*
Y3137154D01*
X2287905D01*
Y3135122D01*
X2288921D01*
X2340483D02*
Y3134106D01*
X2342515D01*
Y3135122D01*
X2343531D01*
Y3137154D01*
X2342515D01*
Y3138170D01*
X2340483D01*
Y3137154D01*
X2339467D01*
Y3135122D01*
X2340483D01*
Y2881122D02*
Y2880106D01*
X2342515D01*
Y2881122D01*
X2343531D01*
Y2883154D01*
X2342515D01*
Y2884170D01*
X2340483D01*
Y2883154D01*
X2339467D01*
Y2881122D01*
X2340483D01*
X2288921D02*
Y2880106D01*
X2290953D01*
Y2881122D01*
X2291969D01*
Y2883154D01*
X2290953D01*
Y2884170D01*
X2288921D01*
Y2883154D01*
X2287905D01*
Y2881122D01*
X2288921D01*
X1993646Y341884D02*
Y340868D01*
X1995678D01*
Y341884D01*
X1996694D01*
Y343916D01*
X1995678D01*
Y344932D01*
X1993646D01*
Y343916D01*
X1992630D01*
Y341884D01*
X1993646D01*
X1942084D02*
Y340868D01*
X1944116D01*
Y341884D01*
X1945132D01*
Y343916D01*
X1944116D01*
Y344932D01*
X1942084D01*
Y343916D01*
X1941068D01*
Y341884D01*
X1942084D01*
X1791208D02*
Y340868D01*
X1793240D01*
Y341884D01*
X1794256D01*
Y343916D01*
X1793240D01*
Y344932D01*
X1791208D01*
Y343916D01*
X1790192D01*
Y341884D01*
X1791208D01*
X1739646D02*
Y340868D01*
X1741678D01*
Y341884D01*
X1742694D01*
Y343916D01*
X1741678D01*
Y344932D01*
X1739646D01*
Y343916D01*
X1738630D01*
Y341884D01*
X1739646D01*
X1993646Y271780D02*
Y270764D01*
X1995678D01*
Y271780D01*
X1996694D01*
Y273812D01*
X1995678D01*
Y274828D01*
X1993646D01*
Y273812D01*
X1992630D01*
Y271780D01*
X1993646D01*
X1942084D02*
Y270764D01*
X1944116D01*
Y271780D01*
X1945132D01*
Y273812D01*
X1944116D01*
Y274828D01*
X1942084D01*
Y273812D01*
X1941068D01*
Y271780D01*
X1942084D01*
X1791208D02*
Y270764D01*
X1793240D01*
Y271780D01*
X1794256D01*
Y273812D01*
X1793240D01*
Y274828D01*
X1791208D01*
Y273812D01*
X1790192D01*
Y271780D01*
X1791208D01*
X1739646D02*
Y270764D01*
X1741678D01*
Y271780D01*
X1742694D01*
Y273812D01*
X1741678D01*
Y274828D01*
X1739646D01*
Y273812D01*
X1738630D01*
Y271780D01*
X1739646D01*
X1791208Y193294D02*
Y192278D01*
X1793240D01*
Y193294D01*
X1794256D01*
Y195326D01*
X1793240D01*
Y196342D01*
X1791208D01*
Y195326D01*
X1790192D01*
Y193294D01*
X1791208D01*
X1739646D02*
Y192278D01*
X1741678D01*
Y193294D01*
X1742694D01*
Y195326D01*
X1741678D01*
Y196342D01*
X1739646D01*
Y195326D01*
X1738630D01*
Y193294D01*
X1739646D01*
X1942084D02*
Y192278D01*
X1944116D01*
Y193294D01*
X1945132D01*
Y195326D01*
X1944116D01*
Y196342D01*
X1942084D01*
Y195326D01*
X1941068D01*
Y193294D01*
X1942084D01*
X1993646D02*
Y192278D01*
X1995678D01*
Y193294D01*
X1996694D01*
Y195326D01*
X1995678D01*
Y196342D01*
X1993646D01*
Y195326D01*
X1992630D01*
Y193294D01*
X1993646D01*
Y630047D02*
Y629031D01*
X1995678D01*
Y630047D01*
X1996694D01*
Y632079D01*
X1995678D01*
Y633095D01*
X1993646D01*
Y632079D01*
X1992630D01*
Y630047D01*
X1993646D01*
Y578485D02*
Y577469D01*
X1995678D01*
Y578485D01*
X1996694D01*
Y580517D01*
X1995678D01*
Y581533D01*
X1993646D01*
Y580517D01*
X1992630D01*
Y578485D01*
X1993646D01*
X1739646D02*
Y577469D01*
X1741678D01*
Y578485D01*
X1742694D01*
Y580517D01*
X1741678D01*
Y581533D01*
X1739646D01*
Y580517D01*
X1738630D01*
Y578485D01*
X1739646D01*
Y630047D02*
Y629031D01*
X1741678D01*
Y630047D01*
X1742694D01*
Y632079D01*
X1741678D01*
Y633095D01*
X1739646D01*
Y632079D01*
X1738630D01*
Y630047D01*
X1739646D01*
X1992122Y3072384D02*
Y3071368D01*
X1994154D01*
Y3072384D01*
X1995170D01*
Y3074416D01*
X1994154D01*
Y3075432D01*
X1992122D01*
Y3074416D01*
X1991106D01*
Y3072384D01*
X1992122D01*
X1940560D02*
Y3071368D01*
X1942592D01*
Y3072384D01*
X1943608D01*
Y3074416D01*
X1942592D01*
Y3075432D01*
X1940560D01*
Y3074416D01*
X1939544D01*
Y3072384D01*
X1940560D01*
X1789684D02*
Y3071368D01*
X1791716D01*
Y3072384D01*
X1792732D01*
Y3074416D01*
X1791716D01*
Y3075432D01*
X1789684D01*
Y3074416D01*
X1788668D01*
Y3072384D01*
X1789684D01*
X1738122D02*
Y3071368D01*
X1740154D01*
Y3072384D01*
X1741170D01*
Y3074416D01*
X1740154D01*
Y3075432D01*
X1738122D01*
Y3074416D01*
X1737106D01*
Y3072384D01*
X1738122D01*
X1992122Y3002280D02*
Y3001264D01*
X1994154D01*
Y3002280D01*
X1995170D01*
Y3004312D01*
X1994154D01*
Y3005328D01*
X1992122D01*
Y3004312D01*
X1991106D01*
Y3002280D01*
X1992122D01*
X1940560D02*
Y3001264D01*
X1942592D01*
Y3002280D01*
X1943608D01*
Y3004312D01*
X1942592D01*
Y3005328D01*
X1940560D01*
Y3004312D01*
X1939544D01*
Y3002280D01*
X1940560D01*
X1789684D02*
Y3001264D01*
X1791716D01*
Y3002280D01*
X1792732D01*
Y3004312D01*
X1791716D01*
Y3005328D01*
X1789684D01*
Y3004312D01*
X1788668D01*
Y3002280D01*
X1789684D01*
X1738122D02*
Y3001264D01*
X1740154D01*
Y3002280D01*
X1741170D01*
Y3004312D01*
X1740154D01*
Y3005328D01*
X1738122D01*
Y3004312D01*
X1737106D01*
Y3002280D01*
X1738122D01*
X1789684Y2923794D02*
Y2922778D01*
X1791716D01*
Y2923794D01*
X1792732D01*
Y2925826D01*
X1791716D01*
Y2926842D01*
X1789684D01*
Y2925826D01*
X1788668D01*
Y2923794D01*
X1789684D01*
X1738122D02*
Y2922778D01*
X1740154D01*
Y2923794D01*
X1741170D01*
Y2925826D01*
X1740154D01*
Y2926842D01*
X1738122D01*
Y2925826D01*
X1737106D01*
Y2923794D01*
X1738122D01*
X1940560D02*
Y2922778D01*
X1942592D01*
Y2923794D01*
X1943608D01*
Y2925826D01*
X1942592D01*
Y2926842D01*
X1940560D01*
Y2925826D01*
X1939544D01*
Y2923794D01*
X1940560D01*
X1992122D02*
Y2922778D01*
X1994154D01*
Y2923794D01*
X1995170D01*
Y2925826D01*
X1994154D01*
Y2926842D01*
X1992122D01*
Y2925826D01*
X1991106D01*
Y2923794D01*
X1992122D01*
Y3360547D02*
Y3359531D01*
X1994154D01*
Y3360547D01*
X1995170D01*
Y3362579D01*
X1994154D01*
Y3363595D01*
X1992122D01*
Y3362579D01*
X1991106D01*
Y3360547D01*
X1992122D01*
Y3308985D02*
Y3307969D01*
X1994154D01*
Y3308985D01*
X1995170D01*
Y3311017D01*
X1994154D01*
Y3312033D01*
X1992122D01*
Y3311017D01*
X1991106D01*
Y3308985D01*
X1992122D01*
X1738122D02*
Y3307969D01*
X1740154D01*
Y3308985D01*
X1741170D01*
Y3311017D01*
X1740154D01*
Y3312033D01*
X1738122D01*
Y3311017D01*
X1737106D01*
Y3308985D01*
X1738122D01*
Y3360547D02*
Y3359531D01*
X1740154D01*
Y3360547D01*
X1741170D01*
Y3362579D01*
X1740154D01*
Y3363595D01*
X1738122D01*
Y3362579D01*
X1737106D01*
Y3360547D01*
X1738122D01*
X1992884Y2188083D02*
Y2187067D01*
X1994916D01*
Y2188083D01*
X1995932D01*
Y2190115D01*
X1994916D01*
Y2191131D01*
X1992884D01*
Y2190115D01*
X1991868D01*
Y2188083D01*
X1992884D01*
X1941322D02*
Y2187067D01*
X1943354D01*
Y2188083D01*
X1944370D01*
Y2190115D01*
X1943354D01*
Y2191131D01*
X1941322D01*
Y2190115D01*
X1940306D01*
Y2188083D01*
X1941322D01*
X1790446D02*
Y2187067D01*
X1792478D01*
Y2188083D01*
X1793494D01*
Y2190115D01*
X1792478D01*
Y2191131D01*
X1790446D01*
Y2190115D01*
X1789430D01*
Y2188083D01*
X1790446D01*
X1738884D02*
Y2187067D01*
X1740916D01*
Y2188083D01*
X1741932D01*
Y2190115D01*
X1740916D01*
Y2191131D01*
X1738884D01*
Y2190115D01*
X1737868D01*
Y2188083D01*
X1738884D01*
X1992884Y2117979D02*
Y2116963D01*
X1994916D01*
Y2117979D01*
X1995932D01*
Y2120011D01*
X1994916D01*
Y2121027D01*
X1992884D01*
Y2120011D01*
X1991868D01*
Y2117979D01*
X1992884D01*
X1941322D02*
Y2116963D01*
X1943354D01*
Y2117979D01*
X1944370D01*
Y2120011D01*
X1943354D01*
Y2121027D01*
X1941322D01*
Y2120011D01*
X1940306D01*
Y2117979D01*
X1941322D01*
X1790446D02*
Y2116963D01*
X1792478D01*
Y2117979D01*
X1793494D01*
Y2120011D01*
X1792478D01*
Y2121027D01*
X1790446D01*
Y2120011D01*
X1789430D01*
Y2117979D01*
X1790446D01*
X1738884D02*
Y2116963D01*
X1740916D01*
Y2117979D01*
X1741932D01*
Y2120011D01*
X1740916D01*
Y2121027D01*
X1738884D01*
Y2120011D01*
X1737868D01*
Y2117979D01*
X1738884D01*
X1790446Y2039493D02*
Y2038477D01*
X1792478D01*
Y2039493D01*
X1793494D01*
Y2041525D01*
X1792478D01*
Y2042541D01*
X1790446D01*
Y2041525D01*
X1789430D01*
Y2039493D01*
X1790446D01*
X1738884D02*
Y2038477D01*
X1740916D01*
Y2039493D01*
X1741932D01*
Y2041525D01*
X1740916D01*
Y2042541D01*
X1738884D01*
Y2041525D01*
X1737868D01*
Y2039493D01*
X1738884D01*
X1941322D02*
Y2038477D01*
X1943354D01*
Y2039493D01*
X1944370D01*
Y2041525D01*
X1943354D01*
Y2042541D01*
X1941322D01*
Y2041525D01*
X1940306D01*
Y2039493D01*
X1941322D01*
X1992884D02*
Y2038477D01*
X1994916D01*
Y2039493D01*
X1995932D01*
Y2041525D01*
X1994916D01*
Y2042541D01*
X1992884D01*
Y2041525D01*
X1991868D01*
Y2039493D01*
X1992884D01*
Y2476246D02*
Y2475230D01*
X1994916D01*
Y2476246D01*
X1995932D01*
Y2478278D01*
X1994916D01*
Y2479294D01*
X1992884D01*
Y2478278D01*
X1991868D01*
Y2476246D01*
X1992884D01*
Y2424684D02*
Y2423668D01*
X1994916D01*
Y2424684D01*
X1995932D01*
Y2426716D01*
X1994916D01*
Y2427732D01*
X1992884D01*
Y2426716D01*
X1991868D01*
Y2424684D01*
X1992884D01*
X1738884D02*
Y2423668D01*
X1740916D01*
Y2424684D01*
X1741932D01*
Y2426716D01*
X1740916D01*
Y2427732D01*
X1738884D01*
Y2426716D01*
X1737868D01*
Y2424684D01*
X1738884D01*
Y2476246D02*
Y2475230D01*
X1740916D01*
Y2476246D01*
X1741932D01*
Y2478278D01*
X1740916D01*
Y2479294D01*
X1738884D01*
Y2478278D01*
X1737868D01*
Y2476246D01*
X1738884D01*
X1523746Y3072384D02*
Y3071368D01*
X1525778D01*
Y3072384D01*
X1526794D01*
Y3074416D01*
X1525778D01*
Y3075432D01*
X1523746D01*
Y3074416D01*
X1522730D01*
Y3072384D01*
X1523746D01*
X1472184D02*
Y3071368D01*
X1474216D01*
Y3072384D01*
X1475232D01*
Y3074416D01*
X1474216D01*
Y3075432D01*
X1472184D01*
Y3074416D01*
X1471168D01*
Y3072384D01*
X1472184D01*
X1321308D02*
Y3071368D01*
X1323340D01*
Y3072384D01*
X1324356D01*
Y3074416D01*
X1323340D01*
Y3075432D01*
X1321308D01*
Y3074416D01*
X1320292D01*
Y3072384D01*
X1321308D01*
X1269746D02*
Y3071368D01*
X1271778D01*
Y3072384D01*
X1272794D01*
Y3074416D01*
X1271778D01*
Y3075432D01*
X1269746D01*
Y3074416D01*
X1268730D01*
Y3072384D01*
X1269746D01*
X1523746Y3002280D02*
Y3001264D01*
X1525778D01*
Y3002280D01*
X1526794D01*
Y3004312D01*
X1525778D01*
Y3005328D01*
X1523746D01*
Y3004312D01*
X1522730D01*
Y3002280D01*
X1523746D01*
X1472184D02*
Y3001264D01*
X1474216D01*
Y3002280D01*
X1475232D01*
Y3004312D01*
X1474216D01*
Y3005328D01*
X1472184D01*
Y3004312D01*
X1471168D01*
Y3002280D01*
X1472184D01*
X1321308D02*
Y3001264D01*
X1323340D01*
Y3002280D01*
X1324356D01*
Y3004312D01*
X1323340D01*
Y3005328D01*
X1321308D01*
Y3004312D01*
X1320292D01*
Y3002280D01*
X1321308D01*
X1269746D02*
Y3001264D01*
X1271778D01*
Y3002280D01*
X1272794D01*
Y3004312D01*
X1271778D01*
Y3005328D01*
X1269746D01*
Y3004312D01*
X1268730D01*
Y3002280D01*
X1269746D01*
X1321308Y2923794D02*
Y2922778D01*
X1323340D01*
Y2923794D01*
X1324356D01*
Y2925826D01*
X1323340D01*
Y2926842D01*
X1321308D01*
Y2925826D01*
X1320292D01*
Y2923794D01*
X1321308D01*
X1269746D02*
Y2922778D01*
X1271778D01*
Y2923794D01*
X1272794D01*
Y2925826D01*
X1271778D01*
Y2926842D01*
X1269746D01*
Y2925826D01*
X1268730D01*
Y2923794D01*
X1269746D01*
X1472184D02*
Y2922778D01*
X1474216D01*
Y2923794D01*
X1475232D01*
Y2925826D01*
X1474216D01*
Y2926842D01*
X1472184D01*
Y2925826D01*
X1471168D01*
Y2923794D01*
X1472184D01*
X1523746D02*
Y2922778D01*
X1525778D01*
Y2923794D01*
X1526794D01*
Y2925826D01*
X1525778D01*
Y2926842D01*
X1523746D01*
Y2925826D01*
X1522730D01*
Y2923794D01*
X1523746D01*
Y3360547D02*
Y3359531D01*
X1525778D01*
Y3360547D01*
X1526794D01*
Y3362579D01*
X1525778D01*
Y3363595D01*
X1523746D01*
Y3362579D01*
X1522730D01*
Y3360547D01*
X1523746D01*
Y3308985D02*
Y3307969D01*
X1525778D01*
Y3308985D01*
X1526794D01*
Y3311017D01*
X1525778D01*
Y3312033D01*
X1523746D01*
Y3311017D01*
X1522730D01*
Y3308985D01*
X1523746D01*
X1269746D02*
Y3307969D01*
X1271778D01*
Y3308985D01*
X1272794D01*
Y3311017D01*
X1271778D01*
Y3312033D01*
X1269746D01*
Y3311017D01*
X1268730D01*
Y3308985D01*
X1269746D01*
Y3360547D02*
Y3359531D01*
X1271778D01*
Y3360547D01*
X1272794D01*
Y3362579D01*
X1271778D01*
Y3363595D01*
X1269746D01*
Y3362579D01*
X1268730D01*
Y3360547D01*
X1269746D01*
X1522222Y341884D02*
Y340868D01*
X1524254D01*
Y341884D01*
X1525270D01*
Y343916D01*
X1524254D01*
Y344932D01*
X1522222D01*
Y343916D01*
X1521206D01*
Y341884D01*
X1522222D01*
X1470660D02*
Y340868D01*
X1472692D01*
Y341884D01*
X1473708D01*
Y343916D01*
X1472692D01*
Y344932D01*
X1470660D01*
Y343916D01*
X1469644D01*
Y341884D01*
X1470660D01*
X1319784D02*
Y340868D01*
X1321816D01*
Y341884D01*
X1322832D01*
Y343916D01*
X1321816D01*
Y344932D01*
X1319784D01*
Y343916D01*
X1318768D01*
Y341884D01*
X1319784D01*
X1268222D02*
Y340868D01*
X1270254D01*
Y341884D01*
X1271270D01*
Y343916D01*
X1270254D01*
Y344932D01*
X1268222D01*
Y343916D01*
X1267206D01*
Y341884D01*
X1268222D01*
X1522222Y271780D02*
Y270764D01*
X1524254D01*
Y271780D01*
X1525270D01*
Y273812D01*
X1524254D01*
Y274828D01*
X1522222D01*
Y273812D01*
X1521206D01*
Y271780D01*
X1522222D01*
X1470660D02*
Y270764D01*
X1472692D01*
Y271780D01*
X1473708D01*
Y273812D01*
X1472692D01*
Y274828D01*
X1470660D01*
Y273812D01*
X1469644D01*
Y271780D01*
X1470660D01*
X1319784D02*
Y270764D01*
X1321816D01*
Y271780D01*
X1322832D01*
Y273812D01*
X1321816D01*
Y274828D01*
X1319784D01*
Y273812D01*
X1318768D01*
Y271780D01*
X1319784D01*
X1268222D02*
Y270764D01*
X1270254D01*
Y271780D01*
X1271270D01*
Y273812D01*
X1270254D01*
Y274828D01*
X1268222D01*
Y273812D01*
X1267206D01*
Y271780D01*
X1268222D01*
X1319784Y193294D02*
Y192278D01*
X1321816D01*
Y193294D01*
X1322832D01*
Y195326D01*
X1321816D01*
Y196342D01*
X1319784D01*
Y195326D01*
X1318768D01*
Y193294D01*
X1319784D01*
X1268222D02*
Y192278D01*
X1270254D01*
Y193294D01*
X1271270D01*
Y195326D01*
X1270254D01*
Y196342D01*
X1268222D01*
Y195326D01*
X1267206D01*
Y193294D01*
X1268222D01*
X1470660D02*
Y192278D01*
X1472692D01*
Y193294D01*
X1473708D01*
Y195326D01*
X1472692D01*
Y196342D01*
X1470660D01*
Y195326D01*
X1469644D01*
Y193294D01*
X1470660D01*
X1522222D02*
Y192278D01*
X1524254D01*
Y193294D01*
X1525270D01*
Y195326D01*
X1524254D01*
Y196342D01*
X1522222D01*
Y195326D01*
X1521206D01*
Y193294D01*
X1522222D01*
Y630047D02*
Y629031D01*
X1524254D01*
Y630047D01*
X1525270D01*
Y632079D01*
X1524254D01*
Y633095D01*
X1522222D01*
Y632079D01*
X1521206D01*
Y630047D01*
X1522222D01*
Y578485D02*
Y577469D01*
X1524254D01*
Y578485D01*
X1525270D01*
Y580517D01*
X1524254D01*
Y581533D01*
X1522222D01*
Y580517D01*
X1521206D01*
Y578485D01*
X1522222D01*
X1268222D02*
Y577469D01*
X1270254D01*
Y578485D01*
X1271270D01*
Y580517D01*
X1270254D01*
Y581533D01*
X1268222D01*
Y580517D01*
X1267206D01*
Y578485D01*
X1268222D01*
Y630047D02*
Y629031D01*
X1270254D01*
Y630047D01*
X1271270D01*
Y632079D01*
X1270254D01*
Y633095D01*
X1268222D01*
Y632079D01*
X1267206D01*
Y630047D01*
X1268222D01*
X1522984Y2188083D02*
Y2187067D01*
X1525016D01*
Y2188083D01*
X1526032D01*
Y2190115D01*
X1525016D01*
Y2191131D01*
X1522984D01*
Y2190115D01*
X1521968D01*
Y2188083D01*
X1522984D01*
X1471422D02*
Y2187067D01*
X1473454D01*
Y2188083D01*
X1474470D01*
Y2190115D01*
X1473454D01*
Y2191131D01*
X1471422D01*
Y2190115D01*
X1470406D01*
Y2188083D01*
X1471422D01*
X1320546D02*
Y2187067D01*
X1322578D01*
Y2188083D01*
X1323594D01*
Y2190115D01*
X1322578D01*
Y2191131D01*
X1320546D01*
Y2190115D01*
X1319530D01*
Y2188083D01*
X1320546D01*
X1268984D02*
Y2187067D01*
X1271016D01*
Y2188083D01*
X1272032D01*
Y2190115D01*
X1271016D01*
Y2191131D01*
X1268984D01*
Y2190115D01*
X1267968D01*
Y2188083D01*
X1268984D01*
X1522984Y2117979D02*
Y2116963D01*
X1525016D01*
Y2117979D01*
X1526032D01*
Y2120011D01*
X1525016D01*
Y2121027D01*
X1522984D01*
Y2120011D01*
X1521968D01*
Y2117979D01*
X1522984D01*
X1471422D02*
Y2116963D01*
X1473454D01*
Y2117979D01*
X1474470D01*
Y2120011D01*
X1473454D01*
Y2121027D01*
X1471422D01*
Y2120011D01*
X1470406D01*
Y2117979D01*
X1471422D01*
X1320546D02*
Y2116963D01*
X1322578D01*
Y2117979D01*
X1323594D01*
Y2120011D01*
X1322578D01*
Y2121027D01*
X1320546D01*
Y2120011D01*
X1319530D01*
Y2117979D01*
X1320546D01*
X1268984D02*
Y2116963D01*
X1271016D01*
Y2117979D01*
X1272032D01*
Y2120011D01*
X1271016D01*
Y2121027D01*
X1268984D01*
Y2120011D01*
X1267968D01*
Y2117979D01*
X1268984D01*
X1320546Y2039493D02*
Y2038477D01*
X1322578D01*
Y2039493D01*
X1323594D01*
Y2041525D01*
X1322578D01*
Y2042541D01*
X1320546D01*
Y2041525D01*
X1319530D01*
Y2039493D01*
X1320546D01*
X1268984D02*
Y2038477D01*
X1271016D01*
Y2039493D01*
X1272032D01*
Y2041525D01*
X1271016D01*
Y2042541D01*
X1268984D01*
Y2041525D01*
X1267968D01*
Y2039493D01*
X1268984D01*
X1471422D02*
Y2038477D01*
X1473454D01*
Y2039493D01*
X1474470D01*
Y2041525D01*
X1473454D01*
Y2042541D01*
X1471422D01*
Y2041525D01*
X1470406D01*
Y2039493D01*
X1471422D01*
X1522984D02*
Y2038477D01*
X1525016D01*
Y2039493D01*
X1526032D01*
Y2041525D01*
X1525016D01*
Y2042541D01*
X1522984D01*
Y2041525D01*
X1521968D01*
Y2039493D01*
X1522984D01*
Y2476246D02*
Y2475230D01*
X1525016D01*
Y2476246D01*
X1526032D01*
Y2478278D01*
X1525016D01*
Y2479294D01*
X1522984D01*
Y2478278D01*
X1521968D01*
Y2476246D01*
X1522984D01*
Y2424684D02*
Y2423668D01*
X1525016D01*
Y2424684D01*
X1526032D01*
Y2426716D01*
X1525016D01*
Y2427732D01*
X1522984D01*
Y2426716D01*
X1521968D01*
Y2424684D01*
X1522984D01*
X1268984D02*
Y2423668D01*
X1271016D01*
Y2424684D01*
X1272032D01*
Y2426716D01*
X1271016D01*
Y2427732D01*
X1268984D01*
Y2426716D01*
X1267968D01*
Y2424684D01*
X1268984D01*
Y2476246D02*
Y2475230D01*
X1271016D01*
Y2476246D01*
X1272032D01*
Y2478278D01*
X1271016D01*
Y2479294D01*
X1268984D01*
Y2478278D01*
X1267968D01*
Y2476246D01*
X1268984D01*
X1053084Y2188083D02*
Y2187067D01*
X1055116D01*
Y2188083D01*
X1056132D01*
Y2190115D01*
X1055116D01*
Y2191131D01*
X1053084D01*
Y2190115D01*
X1052068D01*
Y2188083D01*
X1053084D01*
X1001522D02*
Y2187067D01*
X1003554D01*
Y2188083D01*
X1004570D01*
Y2190115D01*
X1003554D01*
Y2191131D01*
X1001522D01*
Y2190115D01*
X1000506D01*
Y2188083D01*
X1001522D01*
X850646D02*
Y2187067D01*
X852678D01*
Y2188083D01*
X853694D01*
Y2190115D01*
X852678D01*
Y2191131D01*
X850646D01*
Y2190115D01*
X849630D01*
Y2188083D01*
X850646D01*
X799084D02*
Y2187067D01*
X801116D01*
Y2188083D01*
X802132D01*
Y2190115D01*
X801116D01*
Y2191131D01*
X799084D01*
Y2190115D01*
X798068D01*
Y2188083D01*
X799084D01*
X1053084Y2117979D02*
Y2116963D01*
X1055116D01*
Y2117979D01*
X1056132D01*
Y2120011D01*
X1055116D01*
Y2121027D01*
X1053084D01*
Y2120011D01*
X1052068D01*
Y2117979D01*
X1053084D01*
X1001522D02*
Y2116963D01*
X1003554D01*
Y2117979D01*
X1004570D01*
Y2120011D01*
X1003554D01*
Y2121027D01*
X1001522D01*
Y2120011D01*
X1000506D01*
Y2117979D01*
X1001522D01*
X850646D02*
Y2116963D01*
X852678D01*
Y2117979D01*
X853694D01*
Y2120011D01*
X852678D01*
Y2121027D01*
X850646D01*
Y2120011D01*
X849630D01*
Y2117979D01*
X850646D01*
X799084D02*
Y2116963D01*
X801116D01*
Y2117979D01*
X802132D01*
Y2120011D01*
X801116D01*
Y2121027D01*
X799084D01*
Y2120011D01*
X798068D01*
Y2117979D01*
X799084D01*
X850646Y2039493D02*
Y2038477D01*
X852678D01*
Y2039493D01*
X853694D01*
Y2041525D01*
X852678D01*
Y2042541D01*
X850646D01*
Y2041525D01*
X849630D01*
Y2039493D01*
X850646D01*
X799084D02*
Y2038477D01*
X801116D01*
Y2039493D01*
X802132D01*
Y2041525D01*
X801116D01*
Y2042541D01*
X799084D01*
Y2041525D01*
X798068D01*
Y2039493D01*
X799084D01*
X1001522D02*
Y2038477D01*
X1003554D01*
Y2039493D01*
X1004570D01*
Y2041525D01*
X1003554D01*
Y2042541D01*
X1001522D01*
Y2041525D01*
X1000506D01*
Y2039493D01*
X1001522D01*
X1053084D02*
Y2038477D01*
X1055116D01*
Y2039493D01*
X1056132D01*
Y2041525D01*
X1055116D01*
Y2042541D01*
X1053084D01*
Y2041525D01*
X1052068D01*
Y2039493D01*
X1053084D01*
Y2476246D02*
Y2475230D01*
X1055116D01*
Y2476246D01*
X1056132D01*
Y2478278D01*
X1055116D01*
Y2479294D01*
X1053084D01*
Y2478278D01*
X1052068D01*
Y2476246D01*
X1053084D01*
Y2424684D02*
Y2423668D01*
X1055116D01*
Y2424684D01*
X1056132D01*
Y2426716D01*
X1055116D01*
Y2427732D01*
X1053084D01*
Y2426716D01*
X1052068D01*
Y2424684D01*
X1053084D01*
X799084D02*
Y2423668D01*
X801116D01*
Y2424684D01*
X802132D01*
Y2426716D01*
X801116D01*
Y2427732D01*
X799084D01*
Y2426716D01*
X798068D01*
Y2424684D01*
X799084D01*
Y2476246D02*
Y2475230D01*
X801116D01*
Y2476246D01*
X802132D01*
Y2478278D01*
X801116D01*
Y2479294D01*
X799084D01*
Y2478278D01*
X798068D01*
Y2476246D01*
X799084D01*
X1053084Y3077083D02*
Y3076067D01*
X1055116D01*
Y3077083D01*
X1056132D01*
Y3079115D01*
X1055116D01*
Y3080131D01*
X1053084D01*
Y3079115D01*
X1052068D01*
Y3077083D01*
X1053084D01*
X1001522D02*
Y3076067D01*
X1003554D01*
Y3077083D01*
X1004570D01*
Y3079115D01*
X1003554D01*
Y3080131D01*
X1001522D01*
Y3079115D01*
X1000506D01*
Y3077083D01*
X1001522D01*
X850646D02*
Y3076067D01*
X852678D01*
Y3077083D01*
X853694D01*
Y3079115D01*
X852678D01*
Y3080131D01*
X850646D01*
Y3079115D01*
X849630D01*
Y3077083D01*
X850646D01*
X799084D02*
Y3076067D01*
X801116D01*
Y3077083D01*
X802132D01*
Y3079115D01*
X801116D01*
Y3080131D01*
X799084D01*
Y3079115D01*
X798068D01*
Y3077083D01*
X799084D01*
X1053084Y3006979D02*
Y3005963D01*
X1055116D01*
Y3006979D01*
X1056132D01*
Y3009011D01*
X1055116D01*
Y3010027D01*
X1053084D01*
Y3009011D01*
X1052068D01*
Y3006979D01*
X1053084D01*
X1001522D02*
Y3005963D01*
X1003554D01*
Y3006979D01*
X1004570D01*
Y3009011D01*
X1003554D01*
Y3010027D01*
X1001522D01*
Y3009011D01*
X1000506D01*
Y3006979D01*
X1001522D01*
X850646D02*
Y3005963D01*
X852678D01*
Y3006979D01*
X853694D01*
Y3009011D01*
X852678D01*
Y3010027D01*
X850646D01*
Y3009011D01*
X849630D01*
Y3006979D01*
X850646D01*
X799084D02*
Y3005963D01*
X801116D01*
Y3006979D01*
X802132D01*
Y3009011D01*
X801116D01*
Y3010027D01*
X799084D01*
Y3009011D01*
X798068D01*
Y3006979D01*
X799084D01*
X850646Y2928493D02*
Y2927477D01*
X852678D01*
Y2928493D01*
X853694D01*
Y2930525D01*
X852678D01*
Y2931541D01*
X850646D01*
Y2930525D01*
X849630D01*
Y2928493D01*
X850646D01*
X799084D02*
Y2927477D01*
X801116D01*
Y2928493D01*
X802132D01*
Y2930525D01*
X801116D01*
Y2931541D01*
X799084D01*
Y2930525D01*
X798068D01*
Y2928493D01*
X799084D01*
X1001522D02*
Y2927477D01*
X1003554D01*
Y2928493D01*
X1004570D01*
Y2930525D01*
X1003554D01*
Y2931541D01*
X1001522D01*
Y2930525D01*
X1000506D01*
Y2928493D01*
X1001522D01*
X1053084D02*
Y2927477D01*
X1055116D01*
Y2928493D01*
X1056132D01*
Y2930525D01*
X1055116D01*
Y2931541D01*
X1053084D01*
Y2930525D01*
X1052068D01*
Y2928493D01*
X1053084D01*
Y3365246D02*
Y3364230D01*
X1055116D01*
Y3365246D01*
X1056132D01*
Y3367278D01*
X1055116D01*
Y3368294D01*
X1053084D01*
Y3367278D01*
X1052068D01*
Y3365246D01*
X1053084D01*
Y3313684D02*
Y3312668D01*
X1055116D01*
Y3313684D01*
X1056132D01*
Y3315716D01*
X1055116D01*
Y3316732D01*
X1053084D01*
Y3315716D01*
X1052068D01*
Y3313684D01*
X1053084D01*
X799084D02*
Y3312668D01*
X801116D01*
Y3313684D01*
X802132D01*
Y3315716D01*
X801116D01*
Y3316732D01*
X799084D01*
Y3315716D01*
X798068D01*
Y3313684D01*
X799084D01*
Y3365246D02*
Y3364230D01*
X801116D01*
Y3365246D01*
X802132D01*
Y3367278D01*
X801116D01*
Y3368294D01*
X799084D01*
Y3367278D01*
X798068D01*
Y3365246D01*
X799084D01*
X163068Y1877568D02*
X164084D01*
X165100Y1878584D01*
X166116Y1877568D01*
X167132D01*
Y1878584D01*
X166116Y1879600D01*
X167132Y1880616D01*
Y1881632D01*
X166116D01*
X165100Y1880616D01*
X164084Y1881632D01*
X163068D01*
Y1880616D01*
X164084Y1879600D01*
X163068Y1878584D01*
Y1877568D01*
Y1801368D02*
X164084D01*
X165100Y1802384D01*
X166116Y1801368D01*
X167132D01*
Y1802384D01*
X166116Y1803400D01*
X167132Y1804416D01*
Y1805432D01*
X166116D01*
X165100Y1804416D01*
X164084Y1805432D01*
X163068D01*
Y1804416D01*
X164084Y1803400D01*
X163068Y1802384D01*
Y1801368D01*
Y1725168D02*
X164084D01*
X165100Y1726184D01*
X166116Y1725168D01*
X167132D01*
Y1726184D01*
X166116Y1727200D01*
X167132Y1728216D01*
Y1729232D01*
X166116D01*
X165100Y1728216D01*
X164084Y1729232D01*
X163068D01*
Y1728216D01*
X164084Y1727200D01*
X163068Y1726184D01*
Y1725168D01*
Y1648968D02*
X164084D01*
X165100Y1649984D01*
X166116Y1648968D01*
X167132D01*
Y1649984D01*
X166116Y1651000D01*
X167132Y1652016D01*
Y1653032D01*
X166116D01*
X165100Y1652016D01*
X164084Y1653032D01*
X163068D01*
Y1652016D01*
X164084Y1651000D01*
X163068Y1649984D01*
Y1648968D01*
Y1572768D02*
X164084D01*
X165100Y1573784D01*
X166116Y1572768D01*
X167132D01*
Y1573784D01*
X166116Y1574800D01*
X167132Y1575816D01*
Y1576832D01*
X166116D01*
X165100Y1575816D01*
X164084Y1576832D01*
X163068D01*
Y1575816D01*
X164084Y1574800D01*
X163068Y1573784D01*
Y1572768D01*
Y1496568D02*
X164084D01*
X165100Y1497584D01*
X166116Y1496568D01*
X167132D01*
Y1497584D01*
X166116Y1498600D01*
X167132Y1499616D01*
Y1500632D01*
X166116D01*
X165100Y1499616D01*
X164084Y1500632D01*
X163068D01*
Y1499616D01*
X164084Y1498600D01*
X163068Y1497584D01*
Y1496568D01*
Y1420368D02*
X164084D01*
X165100Y1421384D01*
X166116Y1420368D01*
X167132D01*
Y1421384D01*
X166116Y1422400D01*
X167132Y1423416D01*
Y1424432D01*
X166116D01*
X165100Y1423416D01*
X164084Y1424432D01*
X163068D01*
Y1423416D01*
X164084Y1422400D01*
X163068Y1421384D01*
Y1420368D01*
Y1344168D02*
X164084D01*
X165100Y1345184D01*
X166116Y1344168D01*
X167132D01*
Y1345184D01*
X166116Y1346200D01*
X167132Y1347216D01*
Y1348232D01*
X166116D01*
X165100Y1347216D01*
X164084Y1348232D01*
X163068D01*
Y1347216D01*
X164084Y1346200D01*
X163068Y1345184D01*
Y1344168D01*
X374768Y2916500D02*
X376800Y2918532D01*
X378832Y2916500D01*
X376800Y2914468D01*
X374768Y2916500D01*
X426368D02*
X428400Y2918532D01*
X430432Y2916500D01*
X428400Y2914468D01*
X426368Y2916500D01*
Y2995000D02*
X428400Y2997032D01*
X430432Y2995000D01*
X428400Y2992968D01*
X426368Y2995000D01*
X374768D02*
X376800Y2997032D01*
X378832Y2995000D01*
X376800Y2992968D01*
X374768Y2995000D01*
X586368Y2916500D02*
X588400Y2918532D01*
X590432Y2916500D01*
X588400Y2914468D01*
X586368Y2916500D01*
X534768D02*
X536800Y2918532D01*
X538832Y2916500D01*
X536800Y2914468D01*
X534768Y2916500D01*
Y2995000D02*
X536800Y2997032D01*
X538832Y2995000D01*
X536800Y2992968D01*
X534768Y2995000D01*
X586368D02*
X588400Y2997032D01*
X590432Y2995000D01*
X588400Y2992968D01*
X586368Y2995000D01*
X353568Y3301700D02*
X355600Y3303732D01*
X357632Y3301700D01*
X355600Y3299668D01*
X353568Y3301700D01*
Y3353300D02*
X355600Y3355332D01*
X357632Y3353300D01*
X355600Y3351268D01*
X353568Y3353300D01*
X607568D02*
X609600Y3355332D01*
X611632Y3353300D01*
X609600Y3351268D01*
X607568Y3353300D01*
Y3301700D02*
X609600Y3303732D01*
X611632Y3301700D01*
X609600Y3299668D01*
X607568Y3301700D01*
X1153668Y3571240D02*
Y3575304D01*
X1157732D01*
Y3571240D01*
X1153668D01*
X1839468Y3572510D02*
Y3576574D01*
X1843532D01*
Y3572510D01*
X1839468D01*
Y3693668D02*
Y3697732D01*
X1843532D01*
Y3693668D01*
X1839468D01*
X2052828Y3571240D02*
Y3575304D01*
X2056892D01*
Y3571240D01*
X2052828D01*
Y3692398D02*
Y3696462D01*
X2056892D01*
Y3692398D01*
X2052828D01*
X2126488Y3571240D02*
Y3575304D01*
X2130552D01*
Y3571240D01*
X2126488D01*
Y3692398D02*
Y3696462D01*
X2130552D01*
Y3692398D01*
X2126488D01*
X1758188Y3571240D02*
Y3575304D01*
X1762252D01*
Y3571240D01*
X1758188D01*
Y3692398D02*
Y3696462D01*
X1762252D01*
Y3692398D01*
X1758188D01*
X1979168Y3571240D02*
Y3575304D01*
X1983232D01*
Y3571240D01*
X1979168D01*
Y3692398D02*
Y3696462D01*
X1983232D01*
Y3692398D01*
X1979168D01*
X1684528Y3571240D02*
Y3575304D01*
X1688592D01*
Y3571240D01*
X1684528D01*
Y3692398D02*
Y3696462D01*
X1688592D01*
Y3692398D01*
X1684528D01*
X1905508Y3571240D02*
Y3575304D01*
X1909572D01*
Y3571240D01*
X1905508D01*
Y3692398D02*
Y3696462D01*
X1909572D01*
Y3692398D01*
X1905508D01*
X531368Y3572510D02*
Y3576574D01*
X535432D01*
Y3572510D01*
X531368D01*
Y3693668D02*
Y3697732D01*
X535432D01*
Y3693668D01*
X531368D01*
X476758Y3571240D02*
Y3575304D01*
X480822D01*
Y3571240D01*
X476758D01*
Y3692398D02*
Y3696462D01*
X480822D01*
Y3692398D01*
X476758D01*
X418338Y3571240D02*
Y3575304D01*
X422402D01*
Y3571240D01*
X418338D01*
Y3692398D02*
Y3696462D01*
X422402D01*
Y3692398D01*
X418338D01*
X359918Y3571240D02*
Y3575304D01*
X363982D01*
Y3571240D01*
X359918D01*
Y3692398D02*
Y3696462D01*
X363982D01*
Y3692398D01*
X359918D01*
X644398D02*
Y3696462D01*
X648462D01*
Y3692398D01*
X644398D01*
Y3571240D02*
Y3575304D01*
X648462D01*
Y3571240D01*
X644398D01*
X715518Y3692398D02*
Y3696462D01*
X719582D01*
Y3692398D01*
X715518D01*
Y3571240D02*
Y3575304D01*
X719582D01*
Y3571240D01*
X715518D01*
X786638Y3692398D02*
Y3696462D01*
X790702D01*
Y3692398D01*
X786638D01*
Y3571240D02*
Y3575304D01*
X790702D01*
Y3571240D01*
X786638D01*
X852678Y3692398D02*
Y3696462D01*
X856742D01*
Y3692398D01*
X852678D01*
Y3571240D02*
Y3575304D01*
X856742D01*
Y3571240D01*
X852678D01*
X923798Y3692398D02*
Y3696462D01*
X927862D01*
Y3692398D01*
X923798D01*
Y3571240D02*
Y3575304D01*
X927862D01*
Y3571240D01*
X923798D01*
X982218Y3692398D02*
Y3696462D01*
X986282D01*
Y3692398D01*
X982218D01*
Y3571240D02*
Y3575304D01*
X986282D01*
Y3571240D01*
X982218D01*
X1040638Y3692398D02*
Y3696462D01*
X1044702D01*
Y3692398D01*
X1040638D01*
Y3571240D02*
Y3575304D01*
X1044702D01*
Y3571240D01*
X1040638D01*
X184658Y3692398D02*
Y3696462D01*
X188722D01*
Y3692398D01*
X184658D01*
Y3571240D02*
Y3575304D01*
X188722D01*
Y3571240D01*
X184658D01*
X243078Y3692398D02*
Y3696462D01*
X247142D01*
Y3692398D01*
X243078D01*
Y3571240D02*
Y3575304D01*
X247142D01*
Y3571240D01*
X243078D01*
X301498Y3692398D02*
Y3696462D01*
X305562D01*
Y3692398D01*
X301498D01*
Y3571240D02*
Y3575304D01*
X305562D01*
Y3571240D01*
X301498D01*
X1153668Y3692398D02*
Y3696462D01*
X1157732D01*
Y3692398D01*
X1153668D01*
X1227328D02*
Y3696462D01*
X1231392D01*
Y3692398D01*
X1227328D01*
Y3571240D02*
Y3575304D01*
X1231392D01*
Y3571240D01*
X1227328D01*
X1298448Y3692398D02*
Y3696462D01*
X1302512D01*
Y3692398D01*
X1298448D01*
Y3571240D02*
Y3575304D01*
X1302512D01*
Y3571240D01*
X1298448D01*
X1369568Y3692398D02*
Y3696462D01*
X1373632D01*
Y3692398D01*
X1369568D01*
Y3571240D02*
Y3575304D01*
X1373632D01*
Y3571240D01*
X1369568D01*
X1440688Y3692398D02*
Y3696462D01*
X1444752D01*
Y3692398D01*
X1440688D01*
Y3571240D02*
Y3575304D01*
X1444752D01*
Y3571240D01*
X1440688D01*
X1511808Y3692398D02*
Y3696462D01*
X1515872D01*
Y3692398D01*
X1511808D01*
Y3571240D02*
Y3575304D01*
X1515872D01*
Y3571240D01*
X1511808D01*
X1582928Y3692398D02*
Y3696462D01*
X1586992D01*
Y3692398D01*
X1582928D01*
Y3571240D02*
Y3575304D01*
X1586992D01*
Y3571240D01*
X1582928D01*
X3022600Y3630168D02*
X3020568Y3634232D01*
X3024632D01*
X3022600Y3630168D01*
X2977600D02*
X2978616Y3631184D01*
X2979632D01*
X2978616Y3632200D01*
X2979632Y3633216D01*
X2978616D01*
X2977600Y3634232D01*
X2976584Y3633216D01*
X2975568D01*
X2976584Y3632200D01*
X2975568Y3631184D01*
X2976584D01*
X2977600Y3630168D01*
X3022600Y3884168D02*
X3020568Y3888232D01*
X3024632D01*
X3022600Y3884168D01*
X2977600D02*
X2978616Y3885184D01*
X2979632D01*
X2978616Y3886200D01*
X2979632Y3887216D01*
X2978616D01*
X2977600Y3888232D01*
X2976584Y3887216D01*
X2975568D01*
X2976584Y3886200D01*
X2975568Y3885184D01*
X2976584D01*
X2977600Y3884168D01*
X2982468Y2068068D02*
X2983484D01*
X2984500Y2069084D01*
X2985516Y2068068D01*
X2986532D01*
Y2069084D01*
X2985516Y2070100D01*
X2986532Y2071116D01*
Y2072132D01*
X2985516D01*
X2984500Y2071116D01*
X2983484Y2072132D01*
X2982468D01*
Y2071116D01*
X2983484Y2070100D01*
X2982468Y2069084D01*
Y2068068D01*
Y2144268D02*
X2983484D01*
X2984500Y2145284D01*
X2985516Y2144268D01*
X2986532D01*
Y2145284D01*
X2985516Y2146300D01*
X2986532Y2147316D01*
Y2148332D01*
X2985516D01*
X2984500Y2147316D01*
X2983484Y2148332D01*
X2982468D01*
Y2147316D01*
X2983484Y2146300D01*
X2982468Y2145284D01*
Y2144268D01*
Y2220468D02*
X2983484D01*
X2984500Y2221484D01*
X2985516Y2220468D01*
X2986532D01*
Y2221484D01*
X2985516Y2222500D01*
X2986532Y2223516D01*
Y2224532D01*
X2985516D01*
X2984500Y2223516D01*
X2983484Y2224532D01*
X2982468D01*
Y2223516D01*
X2983484Y2222500D01*
X2982468Y2221484D01*
Y2220468D01*
Y2296668D02*
X2983484D01*
X2984500Y2297684D01*
X2985516Y2296668D01*
X2986532D01*
Y2297684D01*
X2985516Y2298700D01*
X2986532Y2299716D01*
Y2300732D01*
X2985516D01*
X2984500Y2299716D01*
X2983484Y2300732D01*
X2982468D01*
Y2299716D01*
X2983484Y2298700D01*
X2982468Y2297684D01*
Y2296668D01*
Y2372868D02*
X2983484D01*
X2984500Y2373884D01*
X2985516Y2372868D01*
X2986532D01*
Y2373884D01*
X2985516Y2374900D01*
X2986532Y2375916D01*
Y2376932D01*
X2985516D01*
X2984500Y2375916D01*
X2983484Y2376932D01*
X2982468D01*
Y2375916D01*
X2983484Y2374900D01*
X2982468Y2373884D01*
Y2372868D01*
Y2449068D02*
X2983484D01*
X2984500Y2450084D01*
X2985516Y2449068D01*
X2986532D01*
Y2450084D01*
X2985516Y2451100D01*
X2986532Y2452116D01*
Y2453132D01*
X2985516D01*
X2984500Y2452116D01*
X2983484Y2453132D01*
X2982468D01*
Y2452116D01*
X2983484Y2451100D01*
X2982468Y2450084D01*
Y2449068D01*
Y2525268D02*
X2983484D01*
X2984500Y2526284D01*
X2985516Y2525268D01*
X2986532D01*
Y2526284D01*
X2985516Y2527300D01*
X2986532Y2528316D01*
Y2529332D01*
X2985516D01*
X2984500Y2528316D01*
X2983484Y2529332D01*
X2982468D01*
Y2528316D01*
X2983484Y2527300D01*
X2982468Y2526284D01*
Y2525268D01*
Y2601468D02*
X2983484D01*
X2984500Y2602484D01*
X2985516Y2601468D01*
X2986532D01*
Y2602484D01*
X2985516Y2603500D01*
X2986532Y2604516D01*
Y2605532D01*
X2985516D01*
X2984500Y2604516D01*
X2983484Y2605532D01*
X2982468D01*
Y2604516D01*
X2983484Y2603500D01*
X2982468Y2602484D01*
Y2601468D01*
Y2918968D02*
X2983484D01*
X2984500Y2919984D01*
X2985516Y2918968D01*
X2986532D01*
Y2919984D01*
X2985516Y2921000D01*
X2986532Y2922016D01*
Y2923032D01*
X2985516D01*
X2984500Y2922016D01*
X2983484Y2923032D01*
X2982468D01*
Y2922016D01*
X2983484Y2921000D01*
X2982468Y2919984D01*
Y2918968D01*
Y2995168D02*
X2983484D01*
X2984500Y2996184D01*
X2985516Y2995168D01*
X2986532D01*
Y2996184D01*
X2985516Y2997200D01*
X2986532Y2998216D01*
Y2999232D01*
X2985516D01*
X2984500Y2998216D01*
X2983484Y2999232D01*
X2982468D01*
Y2998216D01*
X2983484Y2997200D01*
X2982468Y2996184D01*
Y2995168D01*
Y3071368D02*
X2983484D01*
X2984500Y3072384D01*
X2985516Y3071368D01*
X2986532D01*
Y3072384D01*
X2985516Y3073400D01*
X2986532Y3074416D01*
Y3075432D01*
X2985516D01*
X2984500Y3074416D01*
X2983484Y3075432D01*
X2982468D01*
Y3074416D01*
X2983484Y3073400D01*
X2982468Y3072384D01*
Y3071368D01*
Y3147568D02*
X2983484D01*
X2984500Y3148584D01*
X2985516Y3147568D01*
X2986532D01*
Y3148584D01*
X2985516Y3149600D01*
X2986532Y3150616D01*
Y3151632D01*
X2985516D01*
X2984500Y3150616D01*
X2983484Y3151632D01*
X2982468D01*
Y3150616D01*
X2983484Y3149600D01*
X2982468Y3148584D01*
Y3147568D01*
Y3223768D02*
X2983484D01*
X2984500Y3224784D01*
X2985516Y3223768D01*
X2986532D01*
Y3224784D01*
X2985516Y3225800D01*
X2986532Y3226816D01*
Y3227832D01*
X2985516D01*
X2984500Y3226816D01*
X2983484Y3227832D01*
X2982468D01*
Y3226816D01*
X2983484Y3225800D01*
X2982468Y3224784D01*
Y3223768D01*
Y3299968D02*
X2983484D01*
X2984500Y3300984D01*
X2985516Y3299968D01*
X2986532D01*
Y3300984D01*
X2985516Y3302000D01*
X2986532Y3303016D01*
Y3304032D01*
X2985516D01*
X2984500Y3303016D01*
X2983484Y3304032D01*
X2982468D01*
Y3303016D01*
X2983484Y3302000D01*
X2982468Y3300984D01*
Y3299968D01*
Y3376168D02*
X2983484D01*
X2984500Y3377184D01*
X2985516Y3376168D01*
X2986532D01*
Y3377184D01*
X2985516Y3378200D01*
X2986532Y3379216D01*
Y3380232D01*
X2985516D01*
X2984500Y3379216D01*
X2983484Y3380232D01*
X2982468D01*
Y3379216D01*
X2983484Y3378200D01*
X2982468Y3377184D01*
Y3376168D01*
Y3452368D02*
X2983484D01*
X2984500Y3453384D01*
X2985516Y3452368D01*
X2986532D01*
Y3453384D01*
X2985516Y3454400D01*
X2986532Y3455416D01*
Y3456432D01*
X2985516D01*
X2984500Y3455416D01*
X2983484Y3456432D01*
X2982468D01*
Y3455416D01*
X2983484Y3454400D01*
X2982468Y3453384D01*
Y3452368D01*
X607568Y1511000D02*
X609600Y1513032D01*
X611632Y1511000D01*
X609600Y1508968D01*
X607568Y1511000D01*
Y1562600D02*
X609600Y1564632D01*
X611632Y1562600D01*
X609600Y1560568D01*
X607568Y1562600D01*
X353568D02*
X355600Y1564632D01*
X357632Y1562600D01*
X355600Y1560568D01*
X353568Y1562600D01*
Y1511000D02*
X355600Y1513032D01*
X357632Y1511000D01*
X355600Y1508968D01*
X353568Y1511000D01*
X586368Y1204300D02*
X588400Y1206332D01*
X590432Y1204300D01*
X588400Y1202268D01*
X586368Y1204300D01*
X534768D02*
X536800Y1206332D01*
X538832Y1204300D01*
X536800Y1202268D01*
X534768Y1204300D01*
Y1125800D02*
X536800Y1127832D01*
X538832Y1125800D01*
X536800Y1123768D01*
X534768Y1125800D01*
X586368D02*
X588400Y1127832D01*
X590432Y1125800D01*
X588400Y1123768D01*
X586368Y1125800D01*
X374768Y1204300D02*
X376800Y1206332D01*
X378832Y1204300D01*
X376800Y1202268D01*
X374768Y1204300D01*
X426368D02*
X428400Y1206332D01*
X430432Y1204300D01*
X428400Y1202268D01*
X426368Y1204300D01*
Y1125800D02*
X428400Y1127832D01*
X430432Y1125800D01*
X428400Y1123768D01*
X426368Y1125800D01*
X374768D02*
X376800Y1127832D01*
X378832Y1125800D01*
X376800Y1123768D01*
X374768Y1125800D01*
X2982468Y175768D02*
X2983484D01*
X2984500Y176784D01*
X2985516Y175768D01*
X2986532D01*
Y176784D01*
X2985516Y177800D01*
X2986532Y178816D01*
Y179832D01*
X2985516D01*
X2984500Y178816D01*
X2983484Y179832D01*
X2982468D01*
Y178816D01*
X2983484Y177800D01*
X2982468Y176784D01*
Y175768D01*
Y251968D02*
X2983484D01*
X2984500Y252984D01*
X2985516Y251968D01*
X2986532D01*
Y252984D01*
X2985516Y254000D01*
X2986532Y255016D01*
Y256032D01*
X2985516D01*
X2984500Y255016D01*
X2983484Y256032D01*
X2982468D01*
Y255016D01*
X2983484Y254000D01*
X2982468Y252984D01*
Y251968D01*
Y328168D02*
X2983484D01*
X2984500Y329184D01*
X2985516Y328168D01*
X2986532D01*
Y329184D01*
X2985516Y330200D01*
X2986532Y331216D01*
Y332232D01*
X2985516D01*
X2984500Y331216D01*
X2983484Y332232D01*
X2982468D01*
Y331216D01*
X2983484Y330200D01*
X2982468Y329184D01*
Y328168D01*
Y404368D02*
X2983484D01*
X2984500Y405384D01*
X2985516Y404368D01*
X2986532D01*
Y405384D01*
X2985516Y406400D01*
X2986532Y407416D01*
Y408432D01*
X2985516D01*
X2984500Y407416D01*
X2983484Y408432D01*
X2982468D01*
Y407416D01*
X2983484Y406400D01*
X2982468Y405384D01*
Y404368D01*
Y480568D02*
X2983484D01*
X2984500Y481584D01*
X2985516Y480568D01*
X2986532D01*
Y481584D01*
X2985516Y482600D01*
X2986532Y483616D01*
Y484632D01*
X2985516D01*
X2984500Y483616D01*
X2983484Y484632D01*
X2982468D01*
Y483616D01*
X2983484Y482600D01*
X2982468Y481584D01*
Y480568D01*
Y556768D02*
X2983484D01*
X2984500Y557784D01*
X2985516Y556768D01*
X2986532D01*
Y557784D01*
X2985516Y558800D01*
X2986532Y559816D01*
Y560832D01*
X2985516D01*
X2984500Y559816D01*
X2983484Y560832D01*
X2982468D01*
Y559816D01*
X2983484Y558800D01*
X2982468Y557784D01*
Y556768D01*
Y632968D02*
X2983484D01*
X2984500Y633984D01*
X2985516Y632968D01*
X2986532D01*
Y633984D01*
X2985516Y635000D01*
X2986532Y636016D01*
Y637032D01*
X2985516D01*
X2984500Y636016D01*
X2983484Y637032D01*
X2982468D01*
Y636016D01*
X2983484Y635000D01*
X2982468Y633984D01*
Y632968D01*
Y709168D02*
X2983484D01*
X2984500Y710184D01*
X2985516Y709168D01*
X2986532D01*
Y710184D01*
X2985516Y711200D01*
X2986532Y712216D01*
Y713232D01*
X2985516D01*
X2984500Y712216D01*
X2983484Y713232D01*
X2982468D01*
Y712216D01*
X2983484Y711200D01*
X2982468Y710184D01*
Y709168D01*
X607568Y571200D02*
X609600Y573232D01*
X611632Y571200D01*
X609600Y569168D01*
X607568Y571200D01*
Y622800D02*
X609600Y624832D01*
X611632Y622800D01*
X609600Y620768D01*
X607568Y622800D01*
X353568D02*
X355600Y624832D01*
X357632Y622800D01*
X355600Y620768D01*
X353568Y622800D01*
Y571200D02*
X355600Y573232D01*
X357632Y571200D01*
X355600Y569168D01*
X353568Y571200D01*
X586368Y264500D02*
X588400Y266532D01*
X590432Y264500D01*
X588400Y262468D01*
X586368Y264500D01*
X534768D02*
X536800Y266532D01*
X538832Y264500D01*
X536800Y262468D01*
X534768Y264500D01*
Y186000D02*
X536800Y188032D01*
X538832Y186000D01*
X536800Y183968D01*
X534768Y186000D01*
X586368D02*
X588400Y188032D01*
X590432Y186000D01*
X588400Y183968D01*
X586368Y186000D01*
X374768Y264500D02*
X376800Y266532D01*
X378832Y264500D01*
X376800Y262468D01*
X374768Y264500D01*
X426368D02*
X428400Y266532D01*
X430432Y264500D01*
X428400Y262468D01*
X426368Y264500D01*
Y186000D02*
X428400Y188032D01*
X430432Y186000D01*
X428400Y183968D01*
X426368Y186000D01*
X374768D02*
X376800Y188032D01*
X378832Y186000D01*
X376800Y183968D01*
X374768Y186000D01*
X2982468Y1115568D02*
X2983484D01*
X2984500Y1116584D01*
X2985516Y1115568D01*
X2986532D01*
Y1116584D01*
X2985516Y1117600D01*
X2986532Y1118616D01*
Y1119632D01*
X2985516D01*
X2984500Y1118616D01*
X2983484Y1119632D01*
X2982468D01*
Y1118616D01*
X2983484Y1117600D01*
X2982468Y1116584D01*
Y1115568D01*
Y1191768D02*
X2983484D01*
X2984500Y1192784D01*
X2985516Y1191768D01*
X2986532D01*
Y1192784D01*
X2985516Y1193800D01*
X2986532Y1194816D01*
Y1195832D01*
X2985516D01*
X2984500Y1194816D01*
X2983484Y1195832D01*
X2982468D01*
Y1194816D01*
X2983484Y1193800D01*
X2982468Y1192784D01*
Y1191768D01*
Y1267968D02*
X2983484D01*
X2984500Y1268984D01*
X2985516Y1267968D01*
X2986532D01*
Y1268984D01*
X2985516Y1270000D01*
X2986532Y1271016D01*
Y1272032D01*
X2985516D01*
X2984500Y1271016D01*
X2983484Y1272032D01*
X2982468D01*
Y1271016D01*
X2983484Y1270000D01*
X2982468Y1268984D01*
Y1267968D01*
Y1344168D02*
X2983484D01*
X2984500Y1345184D01*
X2985516Y1344168D01*
X2986532D01*
Y1345184D01*
X2985516Y1346200D01*
X2986532Y1347216D01*
Y1348232D01*
X2985516D01*
X2984500Y1347216D01*
X2983484Y1348232D01*
X2982468D01*
Y1347216D01*
X2983484Y1346200D01*
X2982468Y1345184D01*
Y1344168D01*
Y1420368D02*
X2983484D01*
X2984500Y1421384D01*
X2985516Y1420368D01*
X2986532D01*
Y1421384D01*
X2985516Y1422400D01*
X2986532Y1423416D01*
Y1424432D01*
X2985516D01*
X2984500Y1423416D01*
X2983484Y1424432D01*
X2982468D01*
Y1423416D01*
X2983484Y1422400D01*
X2982468Y1421384D01*
Y1420368D01*
Y1496568D02*
X2983484D01*
X2984500Y1497584D01*
X2985516Y1496568D01*
X2986532D01*
Y1497584D01*
X2985516Y1498600D01*
X2986532Y1499616D01*
Y1500632D01*
X2985516D01*
X2984500Y1499616D01*
X2983484Y1500632D01*
X2982468D01*
Y1499616D01*
X2983484Y1498600D01*
X2982468Y1497584D01*
Y1496568D01*
Y1572768D02*
X2983484D01*
X2984500Y1573784D01*
X2985516Y1572768D01*
X2986532D01*
Y1573784D01*
X2985516Y1574800D01*
X2986532Y1575816D01*
Y1576832D01*
X2985516D01*
X2984500Y1575816D01*
X2983484Y1576832D01*
X2982468D01*
Y1575816D01*
X2983484Y1574800D01*
X2982468Y1573784D01*
Y1572768D01*
Y1648968D02*
X2983484D01*
X2984500Y1649984D01*
X2985516Y1648968D01*
X2986532D01*
Y1649984D01*
X2985516Y1651000D01*
X2986532Y1652016D01*
Y1653032D01*
X2985516D01*
X2984500Y1652016D01*
X2983484Y1653032D01*
X2982468D01*
Y1652016D01*
X2983484Y1651000D01*
X2982468Y1649984D01*
Y1648968D01*
X733180Y1700053D02*
X734196Y1701069D01*
X735212D01*
X734196Y1702085D01*
X735212Y1703101D01*
X734196D01*
X733180Y1704117D01*
X732164Y1703101D01*
X731148D01*
X732164Y1702085D01*
X731148Y1701069D01*
X732164D01*
X733180Y1700053D01*
Y1701069D02*
X733688Y1701577D01*
X734196D01*
X733688Y1702085D01*
X734196Y1702593D01*
X733688D01*
X733180Y1703101D01*
X732672Y1702593D01*
X732164D01*
X732672Y1702085D01*
X732164Y1701577D01*
X732672D01*
X733180Y1701069D01*
X749226Y1683277D02*
X750242Y1684294D01*
X751258D01*
X750242Y1685309D01*
X751258Y1686326D01*
X750242D01*
X749226Y1687341D01*
X748210Y1686326D01*
X747194D01*
X748210Y1685309D01*
X747194Y1684294D01*
X748210D01*
X749226Y1683277D01*
Y1684294D02*
X749734Y1684801D01*
X750242D01*
X749734Y1685309D01*
X750242Y1685818D01*
X749734D01*
X749226Y1686326D01*
X748718Y1685818D01*
X748210D01*
X748718Y1685309D01*
X748210Y1684801D01*
X748718D01*
X749226Y1684294D01*
X765758Y1698959D02*
X766774Y1699975D01*
X767790D01*
X766774Y1700991D01*
X767790Y1702007D01*
X766774D01*
X765758Y1703023D01*
X764742Y1702007D01*
X763726D01*
X764742Y1700991D01*
X763726Y1699975D01*
X764742D01*
X765758Y1698959D01*
Y1699975D02*
X766266Y1700483D01*
X766774D01*
X766266Y1700991D01*
X766774Y1701499D01*
X766266D01*
X765758Y1702007D01*
X765250Y1701499D01*
X764742D01*
X765250Y1700991D01*
X764742Y1700483D01*
X765250D01*
X765758Y1699975D01*
X749226Y1715491D02*
X750242Y1716507D01*
X751258D01*
X750242Y1717523D01*
X751258Y1718539D01*
X750242D01*
X749226Y1719555D01*
X748210Y1718539D01*
X747194D01*
X748210Y1717523D01*
X747194Y1716507D01*
X748210D01*
X749226Y1715491D01*
Y1716507D02*
X749734Y1717015D01*
X750242D01*
X749734Y1717523D01*
X750242Y1718031D01*
X749734D01*
X749226Y1718539D01*
X748718Y1718031D01*
X748210D01*
X748718Y1717523D01*
X748210Y1717015D01*
X748718D01*
X749226Y1716507D01*
X749300Y1699768D02*
X750316Y1700784D01*
X751332D01*
X750316Y1701800D01*
X751332Y1702816D01*
X750316D01*
X749300Y1703832D01*
X748284Y1702816D01*
X747268D01*
X748284Y1701800D01*
X747268Y1700784D01*
X748284D01*
X749300Y1699768D01*
Y1700784D02*
X749808Y1701292D01*
X750316D01*
X749808Y1701800D01*
X750316Y1702308D01*
X749808D01*
X749300Y1702816D01*
X748792Y1702308D01*
X748284D01*
X748792Y1701800D01*
X748284Y1701292D01*
X748792D01*
X749300Y1700784D01*
X2197100Y2118868D02*
X2198116Y2119884D01*
X2199132D01*
X2198116Y2120900D01*
X2199132Y2121916D01*
X2198116D01*
X2197100Y2122932D01*
X2196084Y2121916D01*
X2195068D01*
X2196084Y2120900D01*
X2195068Y2119884D01*
X2196084D01*
X2197100Y2118868D01*
Y2119884D02*
X2197608Y2120392D01*
X2198116D01*
X2197608Y2120900D01*
X2198116Y2121408D01*
X2197608D01*
X2197100Y2121916D01*
X2196592Y2121408D01*
X2196084D01*
X2196592Y2120900D01*
X2196084Y2120392D01*
X2196592D01*
X2197100Y2119884D01*
X644240Y1915887D02*
X645256Y1916903D01*
X646272D01*
X645256Y1917919D01*
X646272Y1918935D01*
X645256D01*
X644240Y1919951D01*
X643224Y1918935D01*
X642208D01*
X643224Y1917919D01*
X642208Y1916903D01*
X643224D01*
X644240Y1915887D01*
Y1916903D02*
X644748Y1917411D01*
X645256D01*
X644748Y1917919D01*
X645256Y1918427D01*
X644748D01*
X644240Y1918935D01*
X643732Y1918427D01*
X643224D01*
X643732Y1917919D01*
X643224Y1917411D01*
X643732D01*
X644240Y1916903D01*
X660458Y1899373D02*
X661474Y1900389D01*
X662490D01*
X661474Y1901405D01*
X662490Y1902421D01*
X661474D01*
X660458Y1903437D01*
X659442Y1902421D01*
X658426D01*
X659442Y1901405D01*
X658426Y1900389D01*
X659442D01*
X660458Y1899373D01*
Y1900389D02*
X660966Y1900897D01*
X661474D01*
X660966Y1901405D01*
X661474Y1901913D01*
X660966D01*
X660458Y1902421D01*
X659950Y1901913D01*
X659442D01*
X659950Y1901405D01*
X659442Y1900897D01*
X659950D01*
X660458Y1900389D01*
X676676Y1914412D02*
X677692Y1915428D01*
X678708D01*
X677692Y1916444D01*
X678708Y1917460D01*
X677692D01*
X676676Y1918476D01*
X675660Y1917460D01*
X674644D01*
X675660Y1916444D01*
X674644Y1915428D01*
X675660D01*
X676676Y1914412D01*
Y1915428D02*
X677184Y1915936D01*
X677692D01*
X677184Y1916444D01*
X677692Y1916952D01*
X677184D01*
X676676Y1917460D01*
X676168Y1916952D01*
X675660D01*
X676168Y1916444D01*
X675660Y1915936D01*
X676168D01*
X676676Y1915428D01*
X660753Y1932695D02*
X661769Y1933710D01*
X662785D01*
X661769Y1934727D01*
X662785Y1935742D01*
X661769D01*
X660753Y1936759D01*
X659737Y1935742D01*
X658721D01*
X659737Y1934727D01*
X658721Y1933710D01*
X659737D01*
X660753Y1932695D01*
Y1933710D02*
X661261Y1934218D01*
X661769D01*
X661261Y1934727D01*
X661769Y1935235D01*
X661261D01*
X660753Y1935742D01*
X660245Y1935235D01*
X659737D01*
X660245Y1934727D01*
X659737Y1934218D01*
X660245D01*
X660753Y1933710D01*
X660400Y1915668D02*
X661416Y1916684D01*
X662432D01*
X661416Y1917700D01*
X662432Y1918716D01*
X661416D01*
X660400Y1919732D01*
X659384Y1918716D01*
X658368D01*
X659384Y1917700D01*
X658368Y1916684D01*
X659384D01*
X660400Y1915668D01*
Y1916684D02*
X660908Y1917192D01*
X661416D01*
X660908Y1917700D01*
X661416Y1918208D01*
X660908D01*
X660400Y1918716D01*
X659892Y1918208D01*
X659384D01*
X659892Y1917700D01*
X659384Y1917192D01*
X659892D01*
X660400Y1916684D01*
X1930400Y3757168D02*
X1928368Y3761232D01*
X1932432D01*
X1930400Y3757168D01*
Y3758184D02*
X1929384Y3760216D01*
X1931416D01*
X1930400Y3758184D01*
X1943100Y3769868D02*
X1941068Y3773932D01*
X1945132D01*
X1943100Y3769868D01*
Y3770884D02*
X1942084Y3772916D01*
X1944116D01*
X1943100Y3770884D01*
X1917700Y3769868D02*
X1915668Y3773932D01*
X1919732D01*
X1917700Y3769868D01*
Y3770884D02*
X1916684Y3772916D01*
X1918716D01*
X1917700Y3770884D01*
X2171700Y3414268D02*
X2172716Y3415284D01*
X2173732D01*
X2172716Y3416300D01*
X2173732Y3417316D01*
X2172716D01*
X2171700Y3418332D01*
X2170684Y3417316D01*
X2169668D01*
X2170684Y3416300D01*
X2169668Y3415284D01*
X2170684D01*
X2171700Y3414268D01*
Y3415284D02*
X2172208Y3415792D01*
X2172716D01*
X2172208Y3416300D01*
X2172716Y3416808D01*
X2172208D01*
X2171700Y3417316D01*
X2171192Y3416808D01*
X2170684D01*
X2171192Y3416300D01*
X2170684Y3415792D01*
X2171192D01*
X2171700Y3415284D01*
X2209800Y2512568D02*
X2210816Y2513584D01*
X2211832D01*
X2210816Y2514600D01*
X2211832Y2515616D01*
X2210816D01*
X2209800Y2516632D01*
X2208784Y2515616D01*
X2207768D01*
X2208784Y2514600D01*
X2207768Y2513584D01*
X2208784D01*
X2209800Y2512568D01*
Y2513584D02*
X2210308Y2514092D01*
X2210816D01*
X2210308Y2514600D01*
X2210816Y2515108D01*
X2210308D01*
X2209800Y2515616D01*
X2209292Y2515108D01*
X2208784D01*
X2209292Y2514600D01*
X2208784Y2514092D01*
X2209292D01*
X2209800Y2513584D01*
X716619Y3516820D02*
X717635Y3517836D01*
X718651D01*
X717635Y3518852D01*
X718651Y3519868D01*
X717635D01*
X716619Y3520884D01*
X715603Y3519868D01*
X714587D01*
X715603Y3518852D01*
X714587Y3517836D01*
X715603D01*
X716619Y3516820D01*
Y3517836D02*
X717127Y3518344D01*
X717635D01*
X717127Y3518852D01*
X717635Y3519360D01*
X717127D01*
X716619Y3519868D01*
X716111Y3519360D01*
X715603D01*
X716111Y3518852D01*
X715603Y3518344D01*
X716111D01*
X716619Y3517836D01*
X717384Y3548557D02*
X718400Y3549572D01*
X719416D01*
X718400Y3550588D01*
X719416Y3551604D01*
X718400D01*
X717384Y3552621D01*
X716368Y3551604D01*
X715352D01*
X716368Y3550588D01*
X715352Y3549572D01*
X716368D01*
X717384Y3548557D01*
Y3549572D02*
X717892Y3550080D01*
X718400D01*
X717892Y3550588D01*
X718400Y3551096D01*
X717892D01*
X717384Y3551604D01*
X716876Y3551096D01*
X716368D01*
X716876Y3550588D01*
X716368Y3550080D01*
X716876D01*
X717384Y3549572D01*
X1308100Y3528568D02*
X1309116Y3529584D01*
X1310132D01*
X1309116Y3530600D01*
X1310132Y3531616D01*
X1309116D01*
X1308100Y3532632D01*
X1307084Y3531616D01*
X1306068D01*
X1307084Y3530600D01*
X1306068Y3529584D01*
X1307084D01*
X1308100Y3528568D01*
Y3529584D02*
X1308608Y3530092D01*
X1309116D01*
X1308608Y3530600D01*
X1309116Y3531108D01*
X1308608D01*
X1308100Y3531616D01*
X1307592Y3531108D01*
X1307084D01*
X1307592Y3530600D01*
X1307084Y3530092D01*
X1307592D01*
X1308100Y3529584D01*
X1451355Y3529838D02*
X1452371Y3530854D01*
X1453387D01*
X1452371Y3531870D01*
X1453387Y3532886D01*
X1452371D01*
X1451355Y3533902D01*
X1450339Y3532886D01*
X1449323D01*
X1450339Y3531870D01*
X1449323Y3530854D01*
X1450339D01*
X1451355Y3529838D01*
Y3530854D02*
X1451863Y3531362D01*
X1452371D01*
X1451863Y3531870D01*
X1452371Y3532378D01*
X1451863D01*
X1451355Y3532886D01*
X1450847Y3532378D01*
X1450339D01*
X1450847Y3531870D01*
X1450339Y3531362D01*
X1450847D01*
X1451355Y3530854D01*
X596900Y3490468D02*
X597916Y3491484D01*
X598932D01*
X597916Y3492500D01*
X598932Y3493516D01*
X597916D01*
X596900Y3494532D01*
X595884Y3493516D01*
X594868D01*
X595884Y3492500D01*
X594868Y3491484D01*
X595884D01*
X596900Y3490468D01*
Y3491484D02*
X597408Y3491992D01*
X597916D01*
X597408Y3492500D01*
X597916Y3493008D01*
X597408D01*
X596900Y3493516D01*
X596392Y3493008D01*
X595884D01*
X596392Y3492500D01*
X595884Y3491992D01*
X596392D01*
X596900Y3491484D01*
X482600Y3477768D02*
X483616Y3478784D01*
X484632D01*
X483616Y3479800D01*
X484632Y3480816D01*
X483616D01*
X482600Y3481832D01*
X481584Y3480816D01*
X480568D01*
X481584Y3479800D01*
X480568Y3478784D01*
X481584D01*
X482600Y3477768D01*
Y3478784D02*
X483108Y3479292D01*
X483616D01*
X483108Y3479800D01*
X483616Y3480308D01*
X483108D01*
X482600Y3480816D01*
X482092Y3480308D01*
X481584D01*
X482092Y3479800D01*
X481584Y3479292D01*
X482092D01*
X482600Y3478784D01*
X558800Y3465068D02*
X559816Y3466084D01*
X560832D01*
X559816Y3467100D01*
X560832Y3468116D01*
X559816D01*
X558800Y3469132D01*
X557784Y3468116D01*
X556768D01*
X557784Y3467100D01*
X556768Y3466084D01*
X557784D01*
X558800Y3465068D01*
Y3466084D02*
X559308Y3466592D01*
X559816D01*
X559308Y3467100D01*
X559816Y3467608D01*
X559308D01*
X558800Y3468116D01*
X558292Y3467608D01*
X557784D01*
X558292Y3467100D01*
X557784Y3466592D01*
X558292D01*
X558800Y3466084D01*
X520700Y3452368D02*
X521716Y3453384D01*
X522732D01*
X521716Y3454400D01*
X522732Y3455416D01*
X521716D01*
X520700Y3456432D01*
X519684Y3455416D01*
X518668D01*
X519684Y3454400D01*
X518668Y3453384D01*
X519684D01*
X520700Y3452368D01*
Y3453384D02*
X521208Y3453892D01*
X521716D01*
X521208Y3454400D01*
X521716Y3454908D01*
X521208D01*
X520700Y3455416D01*
X520192Y3454908D01*
X519684D01*
X520192Y3454400D01*
X519684Y3453892D01*
X520192D01*
X520700Y3453384D01*
Y3490468D02*
X521716Y3491484D01*
X522732D01*
X521716Y3492500D01*
X522732Y3493516D01*
X521716D01*
X520700Y3494532D01*
X519684Y3493516D01*
X518668D01*
X519684Y3492500D01*
X518668Y3491484D01*
X519684D01*
X520700Y3490468D01*
Y3491484D02*
X521208Y3491992D01*
X521716D01*
X521208Y3492500D01*
X521716Y3493008D01*
X521208D01*
X520700Y3493516D01*
X520192Y3493008D01*
X519684D01*
X520192Y3492500D01*
X519684Y3491992D01*
X520192D01*
X520700Y3491484D01*
X546100Y3503168D02*
X547116Y3504184D01*
X548132D01*
X547116Y3505200D01*
X548132Y3506216D01*
X547116D01*
X546100Y3507232D01*
X545084Y3506216D01*
X544068D01*
X545084Y3505200D01*
X544068Y3504184D01*
X545084D01*
X546100Y3503168D01*
Y3504184D02*
X546608Y3504692D01*
X547116D01*
X546608Y3505200D01*
X547116Y3505708D01*
X546608D01*
X546100Y3506216D01*
X545592Y3505708D01*
X545084D01*
X545592Y3505200D01*
X545084Y3504692D01*
X545592D01*
X546100Y3504184D01*
X2132330Y3439668D02*
X2133346Y3440684D01*
X2134362D01*
X2133346Y3441700D01*
X2134362Y3442716D01*
X2133346D01*
X2132330Y3443732D01*
X2131314Y3442716D01*
X2130298D01*
X2131314Y3441700D01*
X2130298Y3440684D01*
X2131314D01*
X2132330Y3439668D01*
Y3440684D02*
X2132838Y3441192D01*
X2133346D01*
X2132838Y3441700D01*
X2133346Y3442208D01*
X2132838D01*
X2132330Y3442716D01*
X2131822Y3442208D01*
X2131314D01*
X2131822Y3441700D01*
X2131314Y3441192D01*
X2131822D01*
X2132330Y3440684D01*
X2171700Y2969768D02*
X2172716Y2970784D01*
X2173732D01*
X2172716Y2971800D01*
X2173732Y2972816D01*
X2172716D01*
X2171700Y2973832D01*
X2170684Y2972816D01*
X2169668D01*
X2170684Y2971800D01*
X2169668Y2970784D01*
X2170684D01*
X2171700Y2969768D01*
Y2970784D02*
X2172208Y2971292D01*
X2172716D01*
X2172208Y2971800D01*
X2172716Y2972308D01*
X2172208D01*
X2171700Y2972816D01*
X2171192Y2972308D01*
X2170684D01*
X2171192Y2971800D01*
X2170684Y2971292D01*
X2171192D01*
X2171700Y2970784D01*
X1028229Y1685091D02*
X1029245Y1686107D01*
X1030261D01*
X1029245Y1687123D01*
X1030261Y1688139D01*
X1029245D01*
X1028229Y1689155D01*
X1027213Y1688139D01*
X1026197D01*
X1027213Y1687123D01*
X1026197Y1686107D01*
X1027213D01*
X1028229Y1685091D01*
Y1686107D02*
X1028737Y1686615D01*
X1029245D01*
X1028737Y1687123D01*
X1029245Y1687631D01*
X1028737D01*
X1028229Y1688139D01*
X1027721Y1687631D01*
X1027213D01*
X1027721Y1687123D01*
X1027213Y1686615D01*
X1027721D01*
X1028229Y1686107D01*
X1003266Y1685306D02*
X1004282Y1686322D01*
X1005298D01*
X1004282Y1687338D01*
X1005298Y1688354D01*
X1004282D01*
X1003266Y1689370D01*
X1002250Y1688354D01*
X1001234D01*
X1002250Y1687338D01*
X1001234Y1686322D01*
X1002250D01*
X1003266Y1685306D01*
Y1686322D02*
X1003774Y1686830D01*
X1004282D01*
X1003774Y1687338D01*
X1004282Y1687846D01*
X1003774D01*
X1003266Y1688354D01*
X1002758Y1687846D01*
X1002250D01*
X1002758Y1687338D01*
X1002250Y1686830D01*
X1002758D01*
X1003266Y1686322D01*
X1004557Y1662926D02*
X1005573Y1663942D01*
X1006589D01*
X1005573Y1664958D01*
X1006589Y1665974D01*
X1005573D01*
X1004557Y1666990D01*
X1003541Y1665974D01*
X1002525D01*
X1003541Y1664958D01*
X1002525Y1663942D01*
X1003541D01*
X1004557Y1662926D01*
Y1663942D02*
X1005065Y1664450D01*
X1005573D01*
X1005065Y1664958D01*
X1005573Y1665466D01*
X1005065D01*
X1004557Y1665974D01*
X1004049Y1665466D01*
X1003541D01*
X1004049Y1664958D01*
X1003541Y1664450D01*
X1004049D01*
X1004557Y1663942D01*
X1028229Y1663572D02*
X1029245Y1664588D01*
X1030261D01*
X1029245Y1665604D01*
X1030261Y1666620D01*
X1029245D01*
X1028229Y1667636D01*
X1027213Y1666620D01*
X1026197D01*
X1027213Y1665604D01*
X1026197Y1664588D01*
X1027213D01*
X1028229Y1663572D01*
Y1664588D02*
X1028737Y1665096D01*
X1029245D01*
X1028737Y1665604D01*
X1029245Y1666112D01*
X1028737D01*
X1028229Y1666620D01*
X1027721Y1666112D01*
X1027213D01*
X1027721Y1665604D01*
X1027213Y1665096D01*
X1027721D01*
X1028229Y1664588D01*
X1118180Y1799143D02*
X1119196Y1800159D01*
X1120212D01*
X1119196Y1801175D01*
X1120212Y1802191D01*
X1119196D01*
X1118180Y1803207D01*
X1117164Y1802191D01*
X1116148D01*
X1117164Y1801175D01*
X1116148Y1800159D01*
X1117164D01*
X1118180Y1799143D01*
Y1800159D02*
X1118688Y1800667D01*
X1119196D01*
X1118688Y1801175D01*
X1119196Y1801683D01*
X1118688D01*
X1118180Y1802191D01*
X1117672Y1801683D01*
X1117164D01*
X1117672Y1801175D01*
X1117164Y1800667D01*
X1117672D01*
X1118180Y1800159D01*
Y1776763D02*
X1119196Y1777779D01*
X1120212D01*
X1119196Y1778795D01*
X1120212Y1779811D01*
X1119196D01*
X1118180Y1780827D01*
X1117164Y1779811D01*
X1116148D01*
X1117164Y1778795D01*
X1116148Y1777779D01*
X1117164D01*
X1118180Y1776763D01*
Y1777779D02*
X1118688Y1778287D01*
X1119196D01*
X1118688Y1778795D01*
X1119196Y1779303D01*
X1118688D01*
X1118180Y1779811D01*
X1117672Y1779303D01*
X1117164D01*
X1117672Y1778795D01*
X1117164Y1778287D01*
X1117672D01*
X1118180Y1777779D01*
X1141637Y1776333D02*
X1142653Y1777349D01*
X1143669D01*
X1142653Y1778365D01*
X1143669Y1779381D01*
X1142653D01*
X1141637Y1780397D01*
X1140620Y1779381D01*
X1139604D01*
X1140620Y1778365D01*
X1139604Y1777349D01*
X1140620D01*
X1141637Y1776333D01*
Y1777349D02*
X1142144Y1777857D01*
X1142653D01*
X1142144Y1778365D01*
X1142653Y1778873D01*
X1142144D01*
X1141637Y1779381D01*
X1141128Y1778873D01*
X1140620D01*
X1141128Y1778365D01*
X1140620Y1777857D01*
X1141128D01*
X1141637Y1777349D01*
X1141852Y1799789D02*
X1142868Y1800805D01*
X1143884D01*
X1142868Y1801821D01*
X1143884Y1802837D01*
X1142868D01*
X1141852Y1803853D01*
X1140835Y1802837D01*
X1139819D01*
X1140835Y1801821D01*
X1139819Y1800805D01*
X1140835D01*
X1141852Y1799789D01*
Y1800805D02*
X1142359Y1801313D01*
X1142868D01*
X1142359Y1801821D01*
X1142868Y1802329D01*
X1142359D01*
X1141852Y1802837D01*
X1141344Y1802329D01*
X1140835D01*
X1141344Y1801821D01*
X1140835Y1801313D01*
X1141344D01*
X1141852Y1800805D01*
X1016000Y1674368D02*
X1017016Y1675384D01*
X1018032D01*
X1017016Y1676400D01*
X1018032Y1677416D01*
X1017016D01*
X1016000Y1678432D01*
X1014984Y1677416D01*
X1013968D01*
X1014984Y1676400D01*
X1013968Y1675384D01*
X1014984D01*
X1016000Y1674368D01*
Y1675384D02*
X1016508Y1675892D01*
X1017016D01*
X1016508Y1676400D01*
X1017016Y1676908D01*
X1016508D01*
X1016000Y1677416D01*
X1015492Y1676908D01*
X1014984D01*
X1015492Y1676400D01*
X1014984Y1675892D01*
X1015492D01*
X1016000Y1675384D01*
X1130300Y1788668D02*
X1131316Y1789684D01*
X1132332D01*
X1131316Y1790700D01*
X1132332Y1791716D01*
X1131316D01*
X1130300Y1792732D01*
X1129284Y1791716D01*
X1128268D01*
X1129284Y1790700D01*
X1128268Y1789684D01*
X1129284D01*
X1130300Y1788668D01*
Y1789684D02*
X1130808Y1790192D01*
X1131316D01*
X1130808Y1790700D01*
X1131316Y1791208D01*
X1130808D01*
X1130300Y1791716D01*
X1129792Y1791208D01*
X1129284D01*
X1129792Y1790700D01*
X1129284Y1790192D01*
X1129792D01*
X1130300Y1789684D01*
X429768Y4227068D02*
Y4231132D01*
X433832D01*
Y4227068D01*
X429768D01*
X430784Y4228084D02*
Y4230116D01*
X432816D01*
Y4228084D01*
X430784D01*
X1115568Y4227068D02*
Y4231132D01*
X1119632D01*
Y4227068D01*
X1115568D01*
X1116584Y4228084D02*
Y4230116D01*
X1118616D01*
Y4228084D01*
X1116584D01*
X1763268Y4227068D02*
Y4231132D01*
X1767332D01*
Y4227068D01*
X1763268D01*
X1764284Y4228084D02*
Y4230116D01*
X1766316D01*
Y4228084D01*
X1764284D01*
X368300Y3465068D02*
X369316Y3466084D01*
X370332D01*
X369316Y3467100D01*
X370332Y3468116D01*
X369316D01*
X368300Y3469132D01*
X367284Y3468116D01*
X366268D01*
X367284Y3467100D01*
X366268Y3466084D01*
X367284D01*
X368300Y3465068D01*
Y3466084D02*
X368808Y3466592D01*
X369316D01*
X368808Y3467100D01*
X369316Y3467608D01*
X368808D01*
X368300Y3468116D01*
X367792Y3467608D01*
X367284D01*
X367792Y3467100D01*
X367284Y3466592D01*
X367792D01*
X368300Y3466084D01*
X330200Y3465068D02*
X331216Y3466084D01*
X332232D01*
X331216Y3467100D01*
X332232Y3468116D01*
X331216D01*
X330200Y3469132D01*
X329184Y3468116D01*
X328168D01*
X329184Y3467100D01*
X328168Y3466084D01*
X329184D01*
X330200Y3465068D01*
Y3466084D02*
X330708Y3466592D01*
X331216D01*
X330708Y3467100D01*
X331216Y3467608D01*
X330708D01*
X330200Y3468116D01*
X329692Y3467608D01*
X329184D01*
X329692Y3467100D01*
X329184Y3466592D01*
X329692D01*
X330200Y3466084D01*
X444500Y3465068D02*
X445516Y3466084D01*
X446532D01*
X445516Y3467100D01*
X446532Y3468116D01*
X445516D01*
X444500Y3469132D01*
X443484Y3468116D01*
X442468D01*
X443484Y3467100D01*
X442468Y3466084D01*
X443484D01*
X444500Y3465068D01*
Y3466084D02*
X445008Y3466592D01*
X445516D01*
X445008Y3467100D01*
X445516Y3467608D01*
X445008D01*
X444500Y3468116D01*
X443992Y3467608D01*
X443484D01*
X443992Y3467100D01*
X443484Y3466592D01*
X443992D01*
X444500Y3466084D01*
X406400Y3465068D02*
X407416Y3466084D01*
X408432D01*
X407416Y3467100D01*
X408432Y3468116D01*
X407416D01*
X406400Y3469132D01*
X405384Y3468116D01*
X404368D01*
X405384Y3467100D01*
X404368Y3466084D01*
X405384D01*
X406400Y3465068D01*
Y3466084D02*
X406908Y3466592D01*
X407416D01*
X406908Y3467100D01*
X407416Y3467608D01*
X406908D01*
X406400Y3468116D01*
X405892Y3467608D01*
X405384D01*
X405892Y3467100D01*
X405384Y3466592D01*
X405892D01*
X406400Y3466084D01*
X838200Y3769868D02*
X836168Y3773932D01*
X840232D01*
X838200Y3769868D01*
Y3770884D02*
X837184Y3772916D01*
X839216D01*
X838200Y3770884D01*
X1981200Y3490468D02*
X1982216Y3491484D01*
X1983232D01*
X1982216Y3492500D01*
X1983232Y3493516D01*
X1982216D01*
X1981200Y3494532D01*
X1980184Y3493516D01*
X1979168D01*
X1980184Y3492500D01*
X1979168Y3491484D01*
X1980184D01*
X1981200Y3490468D01*
Y3491484D02*
X1981708Y3491992D01*
X1982216D01*
X1981708Y3492500D01*
X1982216Y3493008D01*
X1981708D01*
X1981200Y3493516D01*
X1980692Y3493008D01*
X1980184D01*
X1980692Y3492500D01*
X1980184Y3491992D01*
X1980692D01*
X1981200Y3491484D01*
X2057400Y3477768D02*
X2058416Y3478784D01*
X2059432D01*
X2058416Y3479800D01*
X2059432Y3480816D01*
X2058416D01*
X2057400Y3481832D01*
X2056384Y3480816D01*
X2055368D01*
X2056384Y3479800D01*
X2055368Y3478784D01*
X2056384D01*
X2057400Y3477768D01*
Y3478784D02*
X2057908Y3479292D01*
X2058416D01*
X2057908Y3479800D01*
X2058416Y3480308D01*
X2057908D01*
X2057400Y3480816D01*
X2056892Y3480308D01*
X2056384D01*
X2056892Y3479800D01*
X2056384Y3479292D01*
X2056892D01*
X2057400Y3478784D01*
X1358900Y3769868D02*
X1356868Y3773932D01*
X1360932D01*
X1358900Y3769868D01*
Y3770884D02*
X1357884Y3772916D01*
X1359916D01*
X1358900Y3770884D01*
X1346200Y3757168D02*
X1344168Y3761232D01*
X1348232D01*
X1346200Y3757168D01*
Y3758184D02*
X1345184Y3760216D01*
X1347216D01*
X1346200Y3758184D01*
X825500Y3757168D02*
X823468Y3761232D01*
X827532D01*
X825500Y3757168D01*
Y3758184D02*
X824484Y3760216D01*
X826516D01*
X825500Y3758184D01*
X812800Y3769868D02*
X810768Y3773932D01*
X814832D01*
X812800Y3769868D01*
Y3770884D02*
X811784Y3772916D01*
X813816D01*
X812800Y3770884D01*
X863600Y3757168D02*
X861568Y3761232D01*
X865632D01*
X863600Y3757168D01*
Y3758184D02*
X862584Y3760216D01*
X864616D01*
X863600Y3758184D01*
X876300Y3769868D02*
X874268Y3773932D01*
X878332D01*
X876300Y3769868D01*
Y3770884D02*
X875284Y3772916D01*
X877316D01*
X876300Y3770884D01*
X889000Y3757168D02*
X886968Y3761232D01*
X891032D01*
X889000Y3757168D01*
Y3758184D02*
X887984Y3760216D01*
X890016D01*
X889000Y3758184D01*
X901700Y3769868D02*
X899668Y3773932D01*
X903732D01*
X901700Y3769868D01*
Y3770884D02*
X900684Y3772916D01*
X902716D01*
X901700Y3770884D01*
X330200Y3757168D02*
X328168Y3761232D01*
X332232D01*
X330200Y3757168D01*
Y3758184D02*
X329184Y3760216D01*
X331216D01*
X330200Y3758184D01*
X393700Y3757168D02*
X391668Y3761232D01*
X395732D01*
X393700Y3757168D01*
Y3758184D02*
X392684Y3760216D01*
X394716D01*
X393700Y3758184D01*
X406400Y3769868D02*
X404368Y3773932D01*
X408432D01*
X406400Y3769868D01*
Y3770884D02*
X405384Y3772916D01*
X407416D01*
X406400Y3770884D01*
X368300Y3757168D02*
X366268Y3761232D01*
X370332D01*
X368300Y3757168D01*
Y3758184D02*
X367284Y3760216D01*
X369316D01*
X368300Y3758184D01*
X342900Y3769868D02*
X340868Y3773932D01*
X344932D01*
X342900Y3769868D01*
Y3770884D02*
X341884Y3772916D01*
X343916D01*
X342900Y3770884D01*
X381000Y3769868D02*
X378968Y3773932D01*
X383032D01*
X381000Y3769868D01*
Y3770884D02*
X379984Y3772916D01*
X382016D01*
X381000Y3770884D01*
X317500Y3769868D02*
X315468Y3773932D01*
X319532D01*
X317500Y3769868D01*
Y3770884D02*
X316484Y3772916D01*
X318516D01*
X317500Y3770884D01*
X1384300Y3769868D02*
X1382268Y3773932D01*
X1386332D01*
X1384300Y3769868D01*
Y3770884D02*
X1383284Y3772916D01*
X1385316D01*
X1384300Y3770884D01*
X1409700Y3769868D02*
X1407668Y3773932D01*
X1411732D01*
X1409700Y3769868D01*
Y3770884D02*
X1408684Y3772916D01*
X1410716D01*
X1409700Y3770884D01*
X1397000Y3757168D02*
X1394968Y3761232D01*
X1399032D01*
X1397000Y3757168D01*
Y3758184D02*
X1395984Y3760216D01*
X1398016D01*
X1397000Y3758184D01*
X1371600Y3757168D02*
X1369568Y3761232D01*
X1373632D01*
X1371600Y3757168D01*
Y3758184D02*
X1370584Y3760216D01*
X1372616D01*
X1371600Y3758184D01*
X1333500Y3769868D02*
X1331468Y3773932D01*
X1335532D01*
X1333500Y3769868D01*
Y3770884D02*
X1332484Y3772916D01*
X1334516D01*
X1333500Y3770884D01*
X1905000Y3757168D02*
X1902968Y3761232D01*
X1907032D01*
X1905000Y3757168D01*
Y3758184D02*
X1903984Y3760216D01*
X1906016D01*
X1905000Y3758184D01*
X1892300Y3769868D02*
X1890268Y3773932D01*
X1894332D01*
X1892300Y3769868D01*
Y3770884D02*
X1891284Y3772916D01*
X1893316D01*
X1892300Y3770884D01*
X1866900Y3769868D02*
X1864868Y3773932D01*
X1868932D01*
X1866900Y3769868D01*
Y3770884D02*
X1865884Y3772916D01*
X1867916D01*
X1866900Y3770884D01*
X1879600Y3757168D02*
X1877568Y3761232D01*
X1881632D01*
X1879600Y3757168D01*
Y3758184D02*
X1878584Y3760216D01*
X1880616D01*
X1879600Y3758184D01*
X2677668Y4100068D02*
Y4104132D01*
X2681732D01*
Y4100068D01*
X2677668D01*
X2678684Y4101084D02*
Y4103116D01*
X2680716D01*
Y4101084D01*
X2678684D01*
X2588768Y4100068D02*
Y4104132D01*
X2592832D01*
Y4100068D01*
X2588768D01*
X2589784Y4101084D02*
Y4103116D01*
X2591816D01*
Y4101084D01*
X2589784D01*
X2499868Y4100068D02*
Y4104132D01*
X2503932D01*
Y4100068D01*
X2499868D01*
X2500884Y4101084D02*
Y4103116D01*
X2502916D01*
Y4101084D01*
X2500884D01*
X2410968Y4100068D02*
Y4104132D01*
X2415032D01*
Y4100068D01*
X2410968D01*
X2411984Y4101084D02*
Y4103116D01*
X2414016D01*
Y4101084D01*
X2411984D01*
X2322068Y4100068D02*
Y4104132D01*
X2326132D01*
Y4100068D01*
X2322068D01*
X2323084Y4101084D02*
Y4103116D01*
X2325116D01*
Y4101084D01*
X2323084D01*
X2233168Y4100068D02*
Y4104132D01*
X2237232D01*
Y4100068D01*
X2233168D01*
X2234184Y4101084D02*
Y4103116D01*
X2236216D01*
Y4101084D01*
X2234184D01*
X2144268Y4100068D02*
Y4104132D01*
X2148332D01*
Y4100068D01*
X2144268D01*
X2145284Y4101084D02*
Y4103116D01*
X2147316D01*
Y4101084D01*
X2145284D01*
X2004568Y4100068D02*
Y4104132D01*
X2008632D01*
Y4100068D01*
X2004568D01*
X2005584Y4101084D02*
Y4103116D01*
X2007616D01*
Y4101084D01*
X2005584D01*
X1915668Y4087368D02*
Y4091432D01*
X1919732D01*
Y4087368D01*
X1915668D01*
X1916684Y4088384D02*
Y4090416D01*
X1918716D01*
Y4088384D01*
X1916684D01*
X1826768Y4087368D02*
Y4091432D01*
X1830832D01*
Y4087368D01*
X1826768D01*
X1827784Y4088384D02*
Y4090416D01*
X1829816D01*
Y4088384D01*
X1827784D01*
X1737868Y4100068D02*
Y4104132D01*
X1741932D01*
Y4100068D01*
X1737868D01*
X1738884Y4101084D02*
Y4103116D01*
X1740916D01*
Y4101084D01*
X1738884D01*
X1648968Y4100068D02*
Y4104132D01*
X1653032D01*
Y4100068D01*
X1648968D01*
X1649984Y4101084D02*
Y4103116D01*
X1652016D01*
Y4101084D01*
X1649984D01*
X1560068Y4100068D02*
Y4104132D01*
X1564132D01*
Y4100068D01*
X1560068D01*
X1561084Y4101084D02*
Y4103116D01*
X1563116D01*
Y4101084D01*
X1561084D01*
X1471168Y4100068D02*
Y4104132D01*
X1475232D01*
Y4100068D01*
X1471168D01*
X1472184Y4101084D02*
Y4103116D01*
X1474216D01*
Y4101084D01*
X1472184D01*
X1331468Y4100068D02*
Y4104132D01*
X1335532D01*
Y4100068D01*
X1331468D01*
X1332484Y4101084D02*
Y4103116D01*
X1334516D01*
Y4101084D01*
X1332484D01*
X1242568Y4100068D02*
Y4104132D01*
X1246632D01*
Y4100068D01*
X1242568D01*
X1243584Y4101084D02*
Y4103116D01*
X1245616D01*
Y4101084D01*
X1243584D01*
X1153024Y4100628D02*
Y4104692D01*
X1157088D01*
Y4100628D01*
X1153024D01*
X1154040Y4101644D02*
Y4103676D01*
X1156072D01*
Y4101644D01*
X1154040D01*
X1064768Y4100068D02*
Y4104132D01*
X1068832D01*
Y4100068D01*
X1064768D01*
X1065784Y4101084D02*
Y4103116D01*
X1067816D01*
Y4101084D01*
X1065784D01*
X975868Y4100068D02*
Y4104132D01*
X979932D01*
Y4100068D01*
X975868D01*
X976884Y4101084D02*
Y4103116D01*
X978916D01*
Y4101084D01*
X976884D01*
X886968Y4100068D02*
Y4104132D01*
X891032D01*
Y4100068D01*
X886968D01*
X887984Y4101084D02*
Y4103116D01*
X890016D01*
Y4101084D01*
X887984D01*
X785368Y4100068D02*
Y4104132D01*
X789432D01*
Y4100068D01*
X785368D01*
X786384Y4101084D02*
Y4103116D01*
X788416D01*
Y4101084D01*
X786384D01*
X645668Y4100068D02*
Y4104132D01*
X649732D01*
Y4100068D01*
X645668D01*
X646684Y4101084D02*
Y4103116D01*
X648716D01*
Y4101084D01*
X646684D01*
X556768Y4100068D02*
Y4104132D01*
X560832D01*
Y4100068D01*
X556768D01*
X557784Y4101084D02*
Y4103116D01*
X559816D01*
Y4101084D01*
X557784D01*
X480568Y4100068D02*
Y4104132D01*
X484632D01*
Y4100068D01*
X480568D01*
X481584Y4101084D02*
Y4103116D01*
X483616D01*
Y4101084D01*
X481584D01*
X404368Y4100068D02*
Y4104132D01*
X408432D01*
Y4100068D01*
X404368D01*
X405384Y4101084D02*
Y4103116D01*
X407416D01*
Y4101084D01*
X405384D01*
X328168Y4100068D02*
Y4104132D01*
X332232D01*
Y4100068D01*
X328168D01*
X329184Y4101084D02*
Y4103116D01*
X331216D01*
Y4101084D01*
X329184D01*
X239268Y4100068D02*
Y4104132D01*
X243332D01*
Y4100068D01*
X239268D01*
X240284Y4101084D02*
Y4103116D01*
X242316D01*
Y4101084D01*
X240284D01*
X150368Y4100068D02*
Y4104132D01*
X154432D01*
Y4100068D01*
X150368D01*
X151384Y4101084D02*
Y4103116D01*
X153416D01*
Y4101084D01*
X151384D01*
D62*
X268732Y4267200D02*
G03*
X268732Y4267200I-2032J0D01*
G01*
X294132D02*
G03*
X294132Y4267200I-2032J0D01*
G01*
X319532D02*
G03*
X319532Y4267200I-2032J0D01*
G01*
X344932D02*
G03*
X344932Y4267200I-2032J0D01*
G01*
X370332D02*
G03*
X370332Y4267200I-2032J0D01*
G01*
X395732D02*
G03*
X395732Y4267200I-2032J0D01*
G01*
X421132D02*
G03*
X421132Y4267200I-2032J0D01*
G01*
X446532D02*
G03*
X446532Y4267200I-2032J0D01*
G01*
X471932D02*
G03*
X471932Y4267200I-2032J0D01*
G01*
Y4343400D02*
G03*
X471932Y4343400I-2032J0D01*
G01*
X446532D02*
G03*
X446532Y4343400I-2032J0D01*
G01*
X421132D02*
G03*
X421132Y4343400I-2032J0D01*
G01*
X395732D02*
G03*
X395732Y4343400I-2032J0D01*
G01*
X370332D02*
G03*
X370332Y4343400I-2032J0D01*
G01*
X344932D02*
G03*
X344932Y4343400I-2032J0D01*
G01*
X319532D02*
G03*
X319532Y4343400I-2032J0D01*
G01*
X294132D02*
G03*
X294132Y4343400I-2032J0D01*
G01*
X268732D02*
G03*
X268732Y4343400I-2032J0D01*
G01*
X954532Y4267200D02*
G03*
X954532Y4267200I-2032J0D01*
G01*
X979932D02*
G03*
X979932Y4267200I-2032J0D01*
G01*
X1005332D02*
G03*
X1005332Y4267200I-2032J0D01*
G01*
X1030732D02*
G03*
X1030732Y4267200I-2032J0D01*
G01*
X1056132D02*
G03*
X1056132Y4267200I-2032J0D01*
G01*
X1081532D02*
G03*
X1081532Y4267200I-2032J0D01*
G01*
X1106932D02*
G03*
X1106932Y4267200I-2032J0D01*
G01*
X1132332D02*
G03*
X1132332Y4267200I-2032J0D01*
G01*
X1157732D02*
G03*
X1157732Y4267200I-2032J0D01*
G01*
Y4343400D02*
G03*
X1157732Y4343400I-2032J0D01*
G01*
X1132332D02*
G03*
X1132332Y4343400I-2032J0D01*
G01*
X1106932D02*
G03*
X1106932Y4343400I-2032J0D01*
G01*
X1081532D02*
G03*
X1081532Y4343400I-2032J0D01*
G01*
X1056132D02*
G03*
X1056132Y4343400I-2032J0D01*
G01*
X1030732D02*
G03*
X1030732Y4343400I-2032J0D01*
G01*
X1005332D02*
G03*
X1005332Y4343400I-2032J0D01*
G01*
X979932D02*
G03*
X979932Y4343400I-2032J0D01*
G01*
X954532D02*
G03*
X954532Y4343400I-2032J0D01*
G01*
X1602232Y4267200D02*
G03*
X1602232Y4267200I-2032J0D01*
G01*
X1627632D02*
G03*
X1627632Y4267200I-2032J0D01*
G01*
X1653032D02*
G03*
X1653032Y4267200I-2032J0D01*
G01*
X1678432D02*
G03*
X1678432Y4267200I-2032J0D01*
G01*
X1703832D02*
G03*
X1703832Y4267200I-2032J0D01*
G01*
X1729232D02*
G03*
X1729232Y4267200I-2032J0D01*
G01*
X1754632D02*
G03*
X1754632Y4267200I-2032J0D01*
G01*
X1780032D02*
G03*
X1780032Y4267200I-2032J0D01*
G01*
X1805432D02*
G03*
X1805432Y4267200I-2032J0D01*
G01*
Y4343400D02*
G03*
X1805432Y4343400I-2032J0D01*
G01*
X1780032D02*
G03*
X1780032Y4343400I-2032J0D01*
G01*
X1754632D02*
G03*
X1754632Y4343400I-2032J0D01*
G01*
X1729232D02*
G03*
X1729232Y4343400I-2032J0D01*
G01*
X1703832D02*
G03*
X1703832Y4343400I-2032J0D01*
G01*
X1678432D02*
G03*
X1678432Y4343400I-2032J0D01*
G01*
X1653032D02*
G03*
X1653032Y4343400I-2032J0D01*
G01*
X1627632D02*
G03*
X1627632Y4343400I-2032J0D01*
G01*
X1602232D02*
G03*
X1602232Y4343400I-2032J0D01*
G01*
X2262632Y4267200D02*
G03*
X2262632Y4267200I-2032J0D01*
G01*
X2288032D02*
G03*
X2288032Y4267200I-2032J0D01*
G01*
X2313432D02*
G03*
X2313432Y4267200I-2032J0D01*
G01*
X2338832D02*
G03*
X2338832Y4267200I-2032J0D01*
G01*
X2364232D02*
G03*
X2364232Y4267200I-2032J0D01*
G01*
X2389632D02*
G03*
X2389632Y4267200I-2032J0D01*
G01*
X2415032D02*
G03*
X2415032Y4267200I-2032J0D01*
G01*
X2440432D02*
G03*
X2440432Y4267200I-2032J0D01*
G01*
X2465832D02*
G03*
X2465832Y4267200I-2032J0D01*
G01*
Y4343400D02*
G03*
X2465832Y4343400I-2032J0D01*
G01*
X2440432D02*
G03*
X2440432Y4343400I-2032J0D01*
G01*
X2415032D02*
G03*
X2415032Y4343400I-2032J0D01*
G01*
X2389632D02*
G03*
X2389632Y4343400I-2032J0D01*
G01*
X2364232D02*
G03*
X2364232Y4343400I-2032J0D01*
G01*
X2338832D02*
G03*
X2338832Y4343400I-2032J0D01*
G01*
X2313432D02*
G03*
X2313432Y4343400I-2032J0D01*
G01*
X2288032D02*
G03*
X2288032Y4343400I-2032J0D01*
G01*
X2262632D02*
G03*
X2262632Y4343400I-2032J0D01*
G01*
X2427732Y4229100D02*
G03*
X2427732Y4229100I-2032J0D01*
G01*
D63*
X2426716D02*
G03*
X2426716Y4229100I-1016J0D01*
G01*
M02*
